<svg xmlns="http://www.w3.org/2000/svg" xmlns:xlink="http://www.w3.org/1999/xlink" xmlns:inkscape="http://www.inkscape.org/namespaces/inkscape" version="1.1" width="494.732" height="142.439" viewBox="0 0 494.732 142.439">
<defs>
<path id="font_1_1" d="M.3889923 .69433596H.29699708L.0289917 0H.10798645L.18399048 .19921875H.48098756L.55799868 0H.6569977L.3889923 .69433596M.33198548 .62031558 .45700074 .25820924H.20799256L.33198548 .62031558Z"/>
<path id="font_1_5" d="M.19099427 .69433596H.09498596V0H.19099427V.69433596Z"/>
<path id="font_1_14" d="M.4869995 .45507813C.46798707 .45507813 .40098573 .45507813 .32699586 .4230652 .31199647 .43406678 .2749939 .45507813 .22799683 .45507813 .13598633 .45507813 .06298828 .38006593 .06298828 .2919922 .06298828 .26698304 .068984989 .22994995 .09700012 .19091797 .07798767 .16592407 .067993167 .1359253 .067993167 .10798645 .067993167 .080078128 .07798767 .052108766 .09298706 .033111574 .040985109 .00010681152 .0289917-.042938234 .0289917-.07096863 .0289917-.14405823 .1269989-.20605469 .2559967-.20605469 .3849945-.20605469 .48399354-.14506531 .48399354-.06996155 .48399354 .069107059 .31799317 .07110596 .27398683 .07110596H.18199158C.16899109 .07110596 .12399292 .07110596 .12399292 .12294006 .12399292 .14292908 .12799073 .14892578 .1329956 .15692139 .1599884 .13891602 .19400025 .12792969 .22799683 .12792969 .31999208 .12792969 .3929901 .20292664 .3929901 .29100038 .3929901 .32502748 .3829956 .3530426 .36698915 .38006593 .36299134 .3850708 .36299134 .38606263 .36299134 .3870697 .36299134 .39207459 .4119873 .39207459 .4249878 .39207459 .43299867 .39207459 .46998597 .39207459 .49899293 .38806153L.4869995 .45507813M.22799683 .18792725C.18199158 .18792725 .13699341 .21694947 .13699341 .29100038 .13699341 .37205506 .18798828 .3950653 .22799683 .3950653 .27398683 .3950653 .31900025 .36605836 .31900025 .2919922 .31900025 .2109375 .2679901 .18792725 .22799683 .18792725M.27398683-.0048828127C.29499818-.0048828127 .4099884-.0048828127 .4099884-.07096863 .4099884-.11502075 .33699037-.14605713 .25698854-.14605713 .1789856-.14605713 .102996829-.11701965 .102996829-.06996155 .102996829-.06796265 .102996829-.0048828127 .17999268-.0048828127H.27398683Z"/>
<path id="font_1_13" d="M.4269867 .21931458C.4269867 .25030519 .42599488 .32615663 .3869934 .3859558 .34498597 .44892884 .2809906 .4609375 .24299622 .4609375 .1269989 .4609375 .034988405 .35406495 .034988405 .22631836 .034988405 .0942688 .1329956-.0107421879 .2579956-.0107421879 .30599977-.0107421879 .3639984 .0012512207 .42199708 .038253786L.41600038 .10726929C.35299684 .06225586 .2939911 .054244996 .25898744 .054244996 .17599488 .054244996 .11199951 .12727356 .10899353 .21931458H.4269867M.114990238 .2783203C.1309967 .34210206 .17999268 .39593507 .24299622 .39593507 .27999879 .39593507 .34799195 .37898255 .36698915 .2783203H.114990238Z"/>
<path id="font_1_19" d="M.44898988 .2970581C.44898988 .37106324 .42900086 .45507813 .30799867 .45507813 .22898865 .45507813 .18099976 .40907289 .1579895 .3790741V.45007325H.08099365V0H.1639862V.24403382C.1639862 .3100586 .18998719 .39007569 .2659912 .39007569 .3659973 .39007569 .3659973 .31906129 .3659973 .29005433V0H.44898988V.2970581Z"/>
<path id="font_1_22" d="M.18099976 .38232423H.32499696V.44433595H.18099976V.57128909H.10699463V.44433595H.018997193V.38232423H.10398865V.12626648C.10398865 .06724548 .116989139-.0107421879 .18998719-.0107421879 .23399353-.0107421879 .28599549-.0017547608 .34199525 .026245118L.32499696 .089263919C.29899598 .06925964 .2639923 .057250978 .23298645 .057250978 .19400025 .057250978 .18099976 .09225464 .18099976 .14427185V.38232423Z"/>
<path id="font_1_8" d="M.95700076 .69433596H.8799896L.7839966 .37016297C.7639923 .30413819 .71398928 .13505554 .70700076 .07702637 .70700076 .07702637 .7029877 .10803223 .67099 .22409058L.6239929 .3861847 .5319977 .69433596H.44799806L.36299134 .40818788C.34298707 .341156 .28399659 .14105225 .27799989 .07902527L.2769928 .07801819C.2689972 .14205933 .21598816 .32514955 .19198609 .40618897L.10598755 .69433596H.01399231L.22399903 0H.30799867L.4099884 .3431549 .45298768 .49623109C.47698976 .58128359 .48199464 .6122894 .48199464 .6163025H.48298646C.4889984 .56126406 .5439911 .37617494 .5649872 .30714417L.6569977 0H.746994L.95700076 .69433596Z"/>
<path id="font_1_10" d="M.16299439 .69433596H.08299255V.00024414063H.1659851V.04725647C.1789856 .0332489 .22999573-.0107421879 .3039856-.0107421879 .4079895-.0107421879 .49398805 .09022522 .49398805 .22315979 .49398805 .34410096 .42799378 .45507813 .32998658 .45507813 .30299378 .45507813 .23098755 .45007325 .16299439 .3970642V.69433596M.1659851 .33410646C.18099976 .35508729 .21699524 .39007569 .27398683 .39007569 .33399964 .39007569 .41099549 .34809876 .41099549 .22315979 .41099549 .09422302 .32499696 .054244996 .2639923 .054244996 .19999695 .054244996 .17098999 .10722351 .1659851 .11621094V.33410646Z"/>
<path id="font_1_7" d="M.24398804 .41970826C.19299317 .43171693 .14199829 .47172547 .14199829 .52975466 .14199829 .586792 .19699097 .6448059 .28799439 .6448059 .3600006 .6448059 .4099884 .6238098 .46199037 .5797882L.47799684 .6668091C.42799378 .69181826 .37998963 .7158203 .2889862 .7158203 .14698792 .7158203 .056991579 .61680606 .056991579 .51675418 .056991579 .491745 .06199646 .4517212 .09599304 .40570069 .14199829 .3456726 .20698548 .33065797 .24798584 .32066346 .2619934 .31666566 .32398988 .301651 .33198548 .2996521 .37799073 .28564454 .42799378 .24162293 .42799378 .17959595 .42799378 .11355591 .37098695 .05152893 .28199769 .05152893 .20098877 .05152893 .125 .08255005 .06199646 .13357544L.04598999 .046524049C.14399719-.014465332 .23498535-.022460938 .28199769-.022460938 .4189911-.022460938 .5130005 .07954407 .5130005 .19059754 .5130005 .3036499 .41999818 .37768556 .34498597 .39569093L.24398804 .41970826Z"/>
<path id="font_1_20" d="M.48298646 .22009278C.48298646 .3509674 .3829956 .4609375 .2559967 .4609375 .13198853 .4609375 .02999878 .3529663 .02999878 .22009278 .02999878 .08822632 .1349945-.0107421879 .2559967-.0107421879 .37998963-.0107421879 .48298646 .09022522 .48298646 .22009278M.25698854 .057250978C.17999268 .057250978 .11299133 .1171875 .11299133 .23008728 .11299133 .3469696 .18798828 .39593507 .2559967 .39593507 .32798768 .39593507 .3999939 .3449707 .3999939 .23008728 .3999939 .11419678 .32998658 .057250978 .25698854 .057250978Z"/>
<path id="font_1_11" d="M.42099 .10820007C.37298585 .07522583 .31999208 .057250978 .2599945 .057250978 .1749878 .057250978 .11898804 .12818909 .11898804 .22309876 .11898804 .3000183 .15699768 .39292909 .2639923 .39292909 .32699586 .39292909 .35899354 .38093568 .40899659 .3469696L.42199708 .41693116C.3659973 .44892884 .33499146 .4609375 .2630005 .4609375 .12098694 .4609375 .035995485 .3409729 .035995485 .22209168 .035995485 .09820557 .1289978-.0107421879 .25898744-.0107421879 .32899476-.0107421879 .38198854 .010253906 .4269867 .037246705L.42099 .10820007Z"/>
<path id="font_1_16" d="M.2889862 .27212525 .46099855 .44421388H.3659973L.16099549 .23809815V.69433596H.084991458V0H.1579895V.14205933L.23899842 .22209168 .397995 0H.48399354L.2889862 .27212525Z"/>
<path id="font_1_2" d="M.09799194 .69433596V0H.37199403C.5219879 0 .6279907 .0920105 .6279907 .18804932 .6279907 .2770996 .5369873 .3471222 .42999269 .3631134 .5289917 .38812257 .598999 .4471588 .598999 .52023318 .598999 .6123047 .48799134 .69433596 .34498597 .69433596H.09799194M.18798828 .39311219V.6353302H.31599427C.41799928 .6353302 .5149994 .58828738 .5149994 .518219 .5149994 .46017457 .44400025 .39311219 .30499269 .39311219H.18798828M.18798828 .05899048V.328125H.33499146C.44099427 .328125 .54100039 .26809693 .54100039 .1890564 .54100039 .11802673 .45399476 .05899048 .34298707 .05899048H.18798828Z"/>
<path id="font_1_21" d="M.16299439 .21302796C.16299439 .3180542 .24499512 .38206483 .33599855 .38305665V.45507813C.2639923 .45407105 .19799805 .41807557 .15699768 .35905458V.45007325H.08299255V0H.16299439V.21302796Z"/>
<path id="font_1_15" d="M.16999817 .6845703H.07398987V.588562H.16999817V.6845703M.1619873 .44433595H.08198547V0H.1619873V.44433595Z"/>
<path id="font_1_12" d="M.44699098 .69433596H.36698915V.4000702C.31098939 .44706727 .24699402 .45507813 .21499634 .45507813 .11399841 .45507813 .035995485 .35009767 .035995485 .22216797 .035995485 .0932312 .11299133-.0107421879 .21099854-.0107421879 .24099732-.0107421879 .3039856-.003753662 .3639984 .052246095V.00024414063H.44699098V.69433596M.3639984 .14120484C.3639984 .12220764 .3639984 .12020874 .35299684 .10621643 .32598878 .070236209 .2919922 .054244996 .2559967 .054244996 .19099427 .054244996 .11898804 .10122681 .11898804 .22116089 .11898804 .34909059 .20399475 .39007569 .2669983 .39007569 .31298829 .39007569 .34498597 .36408998 .3639984 .33810426V.14120484Z"/>
<path id="font_1_3" d="M.5299988 .32714845V.39213563H.19099427V.62332156H.22898865C.30999757 .62332156 .3919983 .62132266 .47299195 .62132266H.5589905V.69132998H.09498596V0H.57299807V.07598877H.47299195C.3789978 .07598877 .2849884 .07398987 .19099427 .07398987V.32714845H.5299988Z"/>
<path id="font_1_24" d="M.45899964 .44433595H.37998963L.30099488 .24118042C.2809906 .18913269 .24398804 .092056278 .23899842 .055023195H.23699951C.23498535 .07203674 .23199463 .091049198 .1769867 .23516846 .14698792 .3162384 .09799194 .43832398 .09599304 .44433595H.01399231L.18998719 0H.2829895L.45899964 .44433595Z"/>
<path id="font_1_18" d="M.73399356 .2970581C.73399356 .37106324 .71398928 .45507813 .59298709 .45507813 .5089874 .45507813 .46199037 .404068 .43798829 .37306214 .43099977 .3930664 .4099884 .45507813 .30799867 .45507813 .22898865 .45507813 .18099976 .40907289 .1579895 .3790741V.45007325H.08099365V0H.1639862V.24403382C.1639862 .3100586 .18998719 .39007569 .2659912 .39007569 .3659973 .39007569 .3659973 .31906129 .3659973 .29005433V0H.44898988V.24403382C.44898988 .3100586 .47499085 .39007569 .5509949 .39007569 .651001 .39007569 .651001 .31906129 .651001 .29005433V0H.73399356V.2970581Z"/>
<path id="font_1_4" d="M.6159973 .2993927H.3999939V.23339844H.5319977V.07727051C.48999024 .06825256 .44699098 .058242799 .40299989 .058242799 .25 .058242799 .1619873 .21037293 .1619873 .3483429 .1619873 .48921205 .25099183 .6370697 .40499879 .6370697 .47698976 .6370697 .5469971 .61009219 .59199526 .5691376L.60798647 .6560669C.56199648 .6840668 .4869995 .7050781 .397995 .7050781 .20498657 .7050781 .06599426 .5331726 .06599426 .3483429 .06599426 .16133118 .20498657-.0107421879 .397995-.0107421879 .47698976-.0107421879 .54499819 .007247925 .6159973 .038253786V.2993927Z"/>
<path id="font_1_9" d="M.4119873 .28903199C.4119873 .38793946 .33898927 .4609375 .23999024 .4609375 .1749878 .4609375 .1269989 .44392396 .07899475 .41693116L.084991458 .34597779C.1349945 .38294984 .18399048 .39793397 .23899842 .39793397 .29499818 .39793397 .32899476 .3529663 .32899476 .2880249V.24606323C.15699768 .24206543 .04399109 .19706726 .04399109 .11616516 .04399109 .069229129 .07499695-.0107421879 .1619873-.0107421879 .18199158-.0107421879 .2689972-.008743286 .33198548 .038253786V.00024414063H.4119873V.28903199M.32899476 .14013672C.32899476 .119155887 .32899476 .094192508 .29299928 .07322693 .2679901 .058242799 .23498535 .054244996 .21499634 .054244996 .1639862 .054244996 .12098694 .07821655 .12098694 .11816406 .12098694 .18907166 .31599427 .19206238 .32899476 .19206238V.14013672Z"/>
<path id="font_2_2" d="M.30499269 .75C.28799439 .75 .28599549 .75 .27398683 .7389984 .147995 .6289978 .083999637 .45098878 .083999637 .25 .083999637 .06098938 .14099121-.1210022 .272995-.23701477 .28599549-.25 .28799439-.25 .30499269-.25H.35299684C.34999085-.2480011 .25299073-.16500855 .20698548-.009002686 .18299866 .069000247 .17098999 .15098572 .17098999 .25 .17098999 .59599307 .33299256 .73298647 .35299684 .75H.30499269Z"/>
<path id="font_2_10" d="M.375 .28515626C.5039978 .28515626 .61898806 .37615968 .61898806 .49124146 .61898806 .5983124 .5130005 .69433596 .36799623 .69433596H.09799194V0H.19898987V.28515626H.375M.34298707 .6353302C.45599366 .6353302 .5279999 .57528689 .5279999 .49124146 .5279999 .40919496 .45999146 .3471527 .34298707 .3471527H.19599915V.6353302H.34298707Z"/>
<path id="font_2_12" d="M.42599488 .28799439C.42599488 .38998414 .34799195 .45898438 .24899292 .45898438 .18598938 .45898438 .13798523 .4459839 .08198547 .41596986L.08799744 .34298707C.12098694 .36497499 .16999817 .39497376 .24899292 .39497376 .29299928 .39497376 .33898927 .36198426 .33898927 .2869873V.24699402C.19099427 .24198914 .04499817 .21099854 .04499817 .118118289 .04499817 .06820679 .07899475-.009765625 .16699219-.009765625 .20999146-.009765625 .2889862-.00077819827 .34199525 .038223268V.00022888184H.42599488V.28799439M.33898927 .14207459C.33898927 .12211609 .33898927 .09616089 .3039856 .07519531 .27198792 .05722046 .23298645 .056228639 .22200012 .056228639 .16699219 .056228639 .125 .08117676 .125 .11911011 .125 .18299866 .2939911 .18899536 .33898927 .19099427V.14207459Z"/>
<path id="font_2_27" d="M.47399903 .44433595H.3929901C.31199647 .25320436 .2559967 .12409973 .2519989 .06304932 .25 .09107971 .23199463 .14111328 .21398926 .18815613 .19799805 .22817993 .18199158 .26820375 .1639862 .30723573L.100997928 .44433595H.01499939L.22200012 0C.20999146-.029022217 .18998719-.07505798 .18399048-.08805847 .16299439-.13009644 .14898682-.144104 .12199402-.144104 .117996219-.144104 .08099365-.144104 .037994386-.12609864L.04399109-.19610596C.052993776-.19810486 .08999634-.20410156 .12098694-.20410156 .16099549-.20410156 .19699097-.18910218 .23899842-.093063358L.47399903 .44433595Z"/>
<path id="font_2_20" d="M.5 .21910095C.5 .35101319 .394989 .45898438 .2649994 .45898438 .1349945 .45898438 .02999878 .3500061 .02999878 .21910095 .02999878 .09220886 .13598633-.009765625 .2649994-.009765625 .394989-.009765625 .5 .09220886 .5 .21910095M.2649994 .05921936C.18598938 .05921936 .116989139 .1171875 .116989139 .23010254 .116989139 .34301759 .19099427 .39297486 .2649994 .39297486 .33999635 .39297486 .41299439 .34101869 .41299439 .23010254 .41299439 .11618042 .34199525 .05921936 .2649994 .05921936Z"/>
<path id="font_2_1" d="M.18998719 .3813324H.30499269V.44433595H.18699646V.55918887C.18699646 .6311035 .25498963 .63809207 .2829895 .63809207 .30699159 .63809207 .33399964 .6351013 .36898805 .621109V.6940918C.34298707 .7000885 .31199647 .70410159 .2849884 .70410159 .18099976 .70410159 .10598755 .6301117 .10598755 .5312195V.44433595H.0289917V.3813324H.10598755V0H.18998719V.3813324M.48399354 .3813324H.598999V.44433595H.48098756V.55918887C.48098756 .6311035 .548996 .63809207 .57699587 .63809207 .6009979 .63809207 .6279907 .6351013 .6629944 .621109V.6940918C.6369934 .7000885 .60598757 .70410159 .57899478 .70410159 .47499085 .70410159 .3999939 .6301117 .3999939 .5312195V0H.48399354V.3813324Z"/>
<path id="font_2_5" d="M.5179901 .31289674V.37890626H.19799805V.6223297H.33699037C.34899903 .6223297 .36099244 .62132266 .37298585 .62132266H.5629883V.69132998H.09700012V0H.19799805V.31289674H.5179901Z"/>
<path id="font_2_25" d="M.46499635 .44433595H.37799073V.1542511C.37799073 .07423401 .30999757 .049224855 .2519989 .049224855 .17799378 .049224855 .16999817 .069229129 .16999817 .115249637V.44433595H.08299255V.10923767C.08299255 .020233155 .12199402-.009765625 .19198609-.009765625 .23298645-.009765625 .32099916-.0017700195 .3809967 .04623413V.00022888184H.46499635V.44433595Z"/>
<path id="font_2_19" d="M.46499635 .29606629C.46499635 .37408448 .44198609 .45410157 .31900025 .45410157 .2619934 .45410157 .20698548 .4310913 .16299439 .37808229V.45109559H.08299255V0H.16999817V.24305725C.16999817 .30906678 .19799805 .38809205 .2749939 .38809205 .37799073 .38809205 .37799073 .31806947 .37799073 .2890625V0H.46499635V.29606629Z"/>
<path id="font_2_14" d="M.43499757 .109191898C.3849945 .07720947 .33099366 .05921936 .2689972 .05921936 .1769867 .05921936 .12298584 .13316345 .12298584 .22309876 .12298584 .30004884 .16299439 .38998414 .27198792 .38998414 .33999635 .38998414 .37199403 .37599183 .4229889 .3440094L.43598939 .41596986C.37599183 .4459839 .34999085 .45898438 .27198792 .45898438 .12199402 .45898438 .035995485 .3380127 .035995485 .22210694 .035995485 .10018921 .13198853-.009765625 .2679901-.009765625 .33799745-.009765625 .397995 .011230469 .44099427 .036224367L.43499757 .109191898Z"/>
<path id="font_2_24" d="M.18798828 .3813324H.33599855V.44433595H.18798828V.57128909H.11099243V.44433595H.019989014V.3813324H.10798645V.12825012C.10798645 .06123352 .125-.009765625 .19699097-.009765625 .2689972-.009765625 .32398988 .01322937 .35398866 .02722168L.33699037 .0912323C.3039856 .067230228 .2689972 .05921936 .24099732 .05921936 .19898987 .05921936 .18798828 .100234989 .18798828 .1462555V.3813324Z"/>
<path id="font_2_16" d="M.17599488 .68652346H.07499695V.58551028H.17599488V.68652346M.16799927 .44433595H.083999637V0H.16799927V.44433595Z"/>
<path id="font_2_23" d="M.36499024 .42797853C.29699708 .4559784 .24699402 .45898438 .21099854 .45898438 .18598938 .45898438 .034988405 .45898438 .034988405 .32603456 .034988405 .279068 .06098938 .25308229 .07398987 .24108887 .10899353 .20611573 .15098572 .19812012 .20399475 .18812561 .25099183 .17913819 .30499269 .16914368 .30499269 .1211853 .30499269 .05822754 .22200012 .05822754 .20799256 .05822754 .14399719 .05822754 .083999637 .081207279 .04399109 .109191898L.02999878 .034225465C.06399536 .017227173 .125-.009765625 .20799256-.009765625 .25299073-.009765625 .29699708-.0027770997 .33399964 .024230957 .37098695 .052230836 .3829956 .096191409 .3829956 .13017273 .3829956 .14816284 .3809967 .18713379 .33898927 .22509766 .3019867 .2580719 .2659912 .26507569 .21798706 .2740631 .15899658 .2850647 .11299133 .29405213 .11299133 .3380127 .11299133 .39497376 .18598938 .39497376 .20098877 .39497376 .2579956 .39497376 .3019867 .38298036 .35198976 .3570099L.36499024 .42797853Z"/>
<path id="font_2_3" d="M.10699463-.25C.12399292-.25 .12599182-.25 .13798523-.23901367 .2639923-.12901306 .32798768 .04899597 .32798768 .25 .32798768 .43899537 .2709961 .62098696 .13899231 .7369995 .12599182 .75 .12399292 .75 .10699463 .75H.05899048C.06199646 .74798586 .15899658 .6649933 .20498657 .5089874 .22898865 .43099977 .24099732 .34899903 .24099732 .25 .24099732-.0960083 .07899475-.23300171 .05899048-.25H.10699463Z"/>
<path id="font_1_25" d="M.45899964 .44433595H.37998963C.3039856 .26220704 .24899292 .12911988 .24398804 .059066774 .24099732 .10510254 .19898987 .20817566 .18699646 .23719788 .1459961 .33926393 .1289978 .37329103 .09799194 .44433595H.01399231L.21398926 .000015258789 .1769867-.08905029C.15098572-.14508057 .13198853-.14508057 .117996219-.14508057 .101989749-.14508057 .066986087-.14108277 .036987306-.12806702L.042999269-.19708252C.04598999-.1980896 .08299255-.20507813 .116989139-.20507813 .14399719-.20507813 .18699646-.20507813 .23699951-.08604431L.45899964 .44433595Z"/>
<path id="font_1_6" d="M.54100039 .3521576C.5149994 .28512574 .46099855 .14704895 .44898988 .09803772H.44799806C.43798829 .13905335 .3919983 .26011659 .37298585 .308136L.23999024 .64930728 .22200012 .69433596H.101989749V0H.18399048V.6163025H.18499756C.19699097 .56526187 .25498963 .41619874 .2659912 .3881836L.37599183 .106033328C.38398744 .08602905 .40299989 .035995485 .40899659 .021987915H.4850006L.6230011 .37417604C.6380005 .41119386 .69898989 .5692749 .71199038 .6163025H.71299746V0H.79499819V.69433596H.6749878L.54100039 .3521576Z"/>
<path id="font_1_23" d="M.44898988 .44433595H.3659973V.15527344C.3659973 .07525635 .30299378 .04824829 .24299622 .04824829 .17098999 .04824829 .1639862 .071258548 .1639862 .11425781V.44433595H.08099365V.10926819C.08099365 .024246216 .114990238-.0107421879 .18598938-.0107421879 .24398804-.0107421879 .32199098 .0062561037 .36898805 .04824829V.00024414063H.44898988V.44433595Z"/>
<path id="font_1_17" d="M.1619873 .69433596H.08198547V0H.1619873V.69433596Z"/>
<path id="font_2_9" d="M.72499087 .3436737C.72499087 .55078127 .57299807 .71484377 .3919983 .71484377 .21099854 .71484377 .05899048 .55078127 .05899048 .3436737 .05899048 .1365509 .21299744-.021484375 .3919983-.021484375 .57199099-.021484375 .72499087 .13755799 .72499087 .3436737M.3919983 .04951477C.2709961 .04951477 .1599884 .170578 .1599884 .35968019 .1599884 .5367737 .27198792 .6458435 .3919983 .6458435 .5119934 .6458435 .6239929 .5367737 .6239929 .35968019 .6239929 .16957093 .5130005 .04951477 .3919983 .04951477Z"/>
<path id="font_2_21" d="M.17199707 .047225954C.22499085-.00077819827 .28199769-.009765625 .31599427-.009765625 .42199708-.009765625 .5119934 .09121704 .5119934 .22315979 .5119934 .34310914 .44599916 .45410157 .34700013 .45410157 .3019867 .45410157 .22698975 .44110108 .16899109 .39608766V.4440918H.084991458V-.19433594H.17199707V.047225954M.17199707 .3321228C.19499207 .36010743 .23399353 .38510133 .28199769 .38510133 .3619995 .38510133 .4249878 .3111267 .4249878 .22315979 .4249878 .12420654 .34999085 .056228639 .27198792 .056228639 .25698854 .056228639 .23199463 .05822754 .20599365 .07922363 .17599488 .10220337 .17199707 .11720276 .17199707 .13619995V.3321228Z"/>
<path id="font_2_15" d="M.42999269 .10925293C.37399293 .069229129 .31098939 .056228639 .2679901 .056228639 .18099976 .056228639 .114990238 .1272583 .11199951 .21928406H.43998719C.43998719 .2652893 .43499757 .33213807 .3959961 .3889923 .3600006 .43997193 .2999878 .45898438 .25099183 .45898438 .1289978 .45898438 .034988405 .35209657 .034988405 .22529602 .034988405 .09724426 .1349945-.009765625 .2669983-.009765625 .32499696-.009765625 .3849945 .007232666 .43598939 .038223268L.42999269 .10925293M.11898804 .27929688C.14199829 .35906983 .20098877 .39297486 .25099183 .39297486 .29499818 .39297486 .3600006 .3720398 .3789978 .27929688H.11898804Z"/>
<path id="font_2_4" d="M.4019928 .69433596H.30499269L.02999878 0H.11199951L.18998719 .19824219H.49398805L.57199099 0H.6769867L.4019928 .69433596M.34298707 .61831668 .46899415 .25723268H.21499634L.34298707 .61831668Z"/>
<path id="font_2_6" d="M.19799805 .69433596H.09700012V0H.19799805V.69433596Z"/>
<path id="font_2_13" d="M.16899109 .69433596H.084991458V.00022888184H.17199707V.047225954C.19400025 .02822876 .24198914-.009765625 .31498719-.009765625 .42399598-.009765625 .5119934 .09220886 .5119934 .22315979 .5119934 .3441162 .44299317 .45410157 .34298707 .45410157 .27999879 .45410157 .21899414 .4340973 .16899109 .39709474V.69433596M.17199707 .3151245C.17199707 .33111573 .17199707 .34310914 .20698548 .36610414 .22200012 .3751068 .24899292 .38809205 .2829895 .38809205 .34999085 .38809205 .4249878 .34310914 .4249878 .22315979 .4249878 .10121155 .34199525 .056228639 .27198792 .056228639 .23498535 .056228639 .19999695 .07322693 .17199707 .11819458V.3151245Z"/>
<path id="font_2_22" d="M.16899109 .21304322C.16899109 .32106019 .25898744 .3790741 .34700013 .38008119V.45410157C.2630005 .45309449 .20199585 .41207887 .1619873 .35906983V.45109559H.084991458V0H.16899109V.21304322Z"/>
<path id="font_2_26" d="M.47399903 .44433595H.3939972C.25698854 .109069827 .25099183 .08204651 .24699402 .059020997H.24598694C.23799134 .09805298 .20999146 .16812134 .1789856 .24517823L.09899902 .44433595H.01499939L.19799805 0H.29100038L.47399903 .44433595Z"/>
<path id="font_2_7" d="M.41299439 .69433596H.31498719V.15264893C.31498719 .13162232 .31498719 .04550171 .19299317 .04550171 .12199402 .04550171 .07899475 .08155823 .05899048 .10258484L.04399109 .020507813C.09799194-.005493164 .1639862-.021484375 .22599793-.021484375 .33198548-.021484375 .41299439 .03250122 .41299439 .14863587V.69433596Z"/>
<path id="font_2_11" d="M.49398805 .6658325C.42999269 .6988373 .37298585 .71484377 .29899598 .71484377 .147995 .71484377 .05899048 .6128235 .05899048 .5167694 .05899048 .47573854 .07199097 .42771913 .12098694 .38168336 .16499329 .34066773 .21099854 .33065797 .272995 .31565858 .35699464 .29563905 .37998963 .29063417 .40899659 .26062013 .42799378 .24160767 .44400025 .21359253 .44400025 .17958069 .44400025 .11753845 .3880005 .053512575 .29100038 .053512575 .23399353 .053512575 .14199829 .070510867 .06298828 .13755799L.04699707 .04750061C.09700012 .018508912 .17999268-.021484375 .2919922-.021484375 .43099977-.021484375 .5299988 .07952881 .5299988 .19158936 .5299988 .27262879 .48298646 .3186493 .46299745 .33966065 .42099 .38069154 .375 .39169313 .2979889 .4096985 .23699951 .42370606 .20498657 .43171693 .18099976 .45472718 .16799927 .46774293 .14498902 .49075318 .14498902 .5287781 .14498902 .58480837 .20098877 .6428375 .2979889 .6428375 .37399293 .6428375 .4269867 .6188202 .47799684 .5757904L.49398805 .6658325Z"/>
<path id="font_2_8" d="M.23599243 .69433596H.099990848V0H.18399048V.6152954H.18499756L.5130005 0H.6489868V.69433596H.5649872V.07902527H.56399539L.23599243 .69433596Z"/>
<path id="font_2_17" d="M.16799927 .69433596H.083999637V0H.16799927V.69433596Z"/>
<path id="font_2_18" d="M.7599945 .29606629C.7599945 .37408448 .7369995 .45410157 .6139984 .45410157 .5299988 .45410157 .47799684 .40509034 .45399476 .37309266 .44400025 .4001007 .4189911 .45410157 .31900025 .45410157 .2619934 .45410157 .20698548 .4310913 .16299439 .37808229V.45109559H.08299255V0H.16999817V.24305725C.16999817 .30906678 .19799805 .38809205 .2749939 .38809205 .37799073 .38809205 .37799073 .31806947 .37799073 .2890625V0H.46499635V.24305725C.46499635 .30906678 .49299623 .38809205 .56999209 .38809205 .6729889 .38809205 .6729889 .31806947 .6729889 .2890625V0H.7599945V.29606629Z"/>
</defs>
<path transform="matrix(1,0,0,-1,39.241,71.21999)" d="M33.8621 14.17339H-33.8621C-35.51282 14.17339-36.85094 12.83527-36.85094 11.18456V-11.18456C-36.85094-12.83527-35.51282-14.17339-33.8621-14.17339H33.8621C35.51282-14.17339 36.85094-12.83527 36.85094-11.18456V11.18456C36.85094 12.83527 35.51282 14.17339 33.8621 14.17339ZM-36.85094-14.17339" fill="#fff0e0"/>
<path transform="matrix(1,0,0,-1,39.241,71.21999)" stroke-width=".79701" stroke-linecap="butt" stroke-miterlimit="10" stroke-linejoin="miter" fill="none" stroke="#4c4d4c" d="M33.8621 14.17339H-33.8621C-35.51282 14.17339-36.85094 12.83527-36.85094 11.18456V-11.18456C-36.85094-12.83527-35.51282-14.17339-33.8621-14.17339H33.8621C35.51282-14.17339 36.85094-12.83527 36.85094-11.18456V11.18456C36.85094 12.83527 35.51282 14.17339 33.8621 14.17339ZM-36.85094-14.17339"/>
<use data-text="A" xlink:href="#font_1_1" transform="matrix(8.9664,0,0,-8.9664,21.866002,73.461)"/>
<use data-text="I" xlink:href="#font_1_5" transform="matrix(8.9664,0,0,-8.9664,28.025919,73.461)"/>
<use data-text="A" xlink:href="#font_1_1" transform="matrix(8.9664,0,0,-8.9664,33.67475,73.461)"/>
<use data-text="g" xlink:href="#font_1_14" transform="matrix(8.9664,0,0,-8.9664,39.834665,73.461)"/>
<use data-text="e" xlink:href="#font_1_13" transform="matrix(8.9664,0,0,-8.9664,44.443399,73.461)"/>
<use data-text="n" xlink:href="#font_1_19" transform="matrix(8.9664,0,0,-8.9664,48.54104,73.461)"/>
<use data-text="t" xlink:href="#font_1_22" transform="matrix(8.9664,0,0,-8.9664,53.3022,73.461)"/>
<path transform="matrix(1,0,0,-1,39.241,71.21999)" d="M176.39322 14.17339H108.66898C107.01826 14.17339 105.68015 12.83527 105.68015 11.18456V-11.18456C105.68015-12.83527 107.01826-14.17339 108.66898-14.17339H176.39322C178.04392-14.17339 179.38205-12.83527 179.38205-11.18456V11.18456C179.38205 12.83527 178.04392 14.17339 176.39322 14.17339ZM105.68015-14.17339" fill="#f0f0f0"/>
<path transform="matrix(1,0,0,-1,39.241,71.21999)" stroke-width=".79701" stroke-linecap="butt" stroke-miterlimit="10" stroke-linejoin="miter" fill="none" stroke="#4c4d4c" d="M176.39322 14.17339H108.66898C107.01826 14.17339 105.68015 12.83527 105.68015 11.18456V-11.18456C105.68015-12.83527 107.01826-14.17339 108.66898-14.17339H176.39322C178.04392-14.17339 179.38205-12.83527 179.38205-11.18456V11.18456C179.38205 12.83527 178.04392 14.17339 176.39322 14.17339ZM105.68015-14.17339"/>
<use data-text="W" xlink:href="#font_1_8" transform="matrix(8.9664,0,0,-8.9664,160.23601,67.981998)"/>
<use data-text="e" xlink:href="#font_1_13" transform="matrix(8.9664,0,0,-8.9664,168.69133,67.981998)"/>
<use data-text="b" xlink:href="#font_1_10" transform="matrix(8.9664,0,0,-8.9664,172.78897,67.981998)"/>
<use data-text="S" xlink:href="#font_1_7" transform="matrix(8.9664,0,0,-8.9664,177.55013,67.981998)"/>
<use data-text="o" xlink:href="#font_1_20" transform="matrix(8.9664,0,0,-8.9664,182.66994,67.981998)"/>
<use data-text="c" xlink:href="#font_1_11" transform="matrix(8.9664,0,0,-8.9664,187.5387,67.981998)"/>
<use data-text="k" xlink:href="#font_1_16" transform="matrix(8.9664,0,0,-8.9664,191.63634,67.981998)"/>
<use data-text="e" xlink:href="#font_1_13" transform="matrix(8.9664,0,0,-8.9664,195.87744,67.981998)"/>
<use data-text="t" xlink:href="#font_1_22" transform="matrix(8.9664,0,0,-8.9664,199.97509,67.981998)"/>
<use data-text="B" xlink:href="#font_1_2" transform="matrix(8.9664,0,0,-8.9664,169.289,78.940998)"/>
<use data-text="r" xlink:href="#font_1_21" transform="matrix(8.9664,0,0,-8.9664,175.43996,78.940998)"/>
<use data-text="i" xlink:href="#font_1_15" transform="matrix(8.9664,0,0,-8.9664,178.58716,78.940998)"/>
<use data-text="d" xlink:href="#font_1_12" transform="matrix(8.9664,0,0,-8.9664,180.78392,78.940998)"/>
<use data-text="g" xlink:href="#font_1_14" transform="matrix(8.9664,0,0,-8.9664,185.54508,78.940998)"/>
<use data-text="e" xlink:href="#font_1_13" transform="matrix(8.9664,0,0,-8.9664,190.15381,78.940998)"/>
<path transform="matrix(1,0,0,-1,39.241,71.21999)" d="M318.92433 14.17339H251.20009C249.54938 14.17339 248.21126 12.83527 248.21126 11.18456V-11.18456C248.21126-12.83527 249.54938-14.17339 251.20009-14.17339H318.92433C320.57505-14.17339 321.91316-12.83527 321.91316-11.18456V11.18456C321.91316 12.83527 320.57505 14.17339 318.92433 14.17339ZM248.21126-14.17339" fill="#e0e0ff"/>
<path transform="matrix(1,0,0,-1,39.241,71.21999)" stroke-width=".79701" stroke-linecap="butt" stroke-miterlimit="10" stroke-linejoin="miter" fill="none" stroke="#4c4d4c" d="M318.92433 14.17339H251.20009C249.54938 14.17339 248.21126 12.83527 248.21126 11.18456V-11.18456C248.21126-12.83527 249.54938-14.17339 251.20009-14.17339H318.92433C320.57505-14.17339 321.91316-12.83527 321.91316-11.18456V11.18456C321.91316 12.83527 320.57505 14.17339 318.92433 14.17339ZM248.21126-14.17339"/>
<use data-text="E" xlink:href="#font_1_3" transform="matrix(8.9664,0,0,-8.9664,299.919,68.854)"/>
<use data-text="n" xlink:href="#font_1_19" transform="matrix(8.9664,0,0,-8.9664,305.45127,68.854)"/>
<use data-text="v" xlink:href="#font_1_24" transform="matrix(8.9664,0,0,-8.9664,310.21244,68.854)"/>
<use data-text="i" xlink:href="#font_1_15" transform="matrix(8.9664,0,0,-8.9664,314.4625,68.854)"/>
<use data-text="r" xlink:href="#font_1_21" transform="matrix(8.9664,0,0,-8.9664,316.65928,68.854)"/>
<use data-text="o" xlink:href="#font_1_20" transform="matrix(8.9664,0,0,-8.9664,319.8065,68.854)"/>
<use data-text="n" xlink:href="#font_1_19" transform="matrix(8.9664,0,0,-8.9664,324.41523,68.854)"/>
<use data-text="m" xlink:href="#font_1_18" transform="matrix(8.9664,0,0,-8.9664,329.1764,68.854)"/>
<use data-text="e" xlink:href="#font_1_13" transform="matrix(8.9664,0,0,-8.9664,336.49299,68.854)"/>
<use data-text="n" xlink:href="#font_1_19" transform="matrix(8.9664,0,0,-8.9664,340.59065,68.854)"/>
<use data-text="t" xlink:href="#font_1_22" transform="matrix(8.9664,0,0,-8.9664,345.3518,68.854)"/>
<use data-text="S" xlink:href="#font_1_7" transform="matrix(8.9664,0,0,-8.9664,312.37303,79.812)"/>
<use data-text="e" xlink:href="#font_1_13" transform="matrix(8.9664,0,0,-8.9664,317.49284,79.812)"/>
<use data-text="r" xlink:href="#font_1_21" transform="matrix(8.9664,0,0,-8.9664,321.59049,79.812)"/>
<use data-text="v" xlink:href="#font_1_24" transform="matrix(8.9664,0,0,-8.9664,324.7377,79.812)"/>
<use data-text="e" xlink:href="#font_1_13" transform="matrix(8.9664,0,0,-8.9664,328.98777,79.812)"/>
<use data-text="r" xlink:href="#font_1_21" transform="matrix(8.9664,0,0,-8.9664,333.08543,79.812)"/>
<path transform="matrix(1,0,0,-1,39.241,71.21999)" d="M450.11689 68.82915H382.3926C380.7419 68.82915 379.4038 67.49103 379.4038 65.84032V43.47119C379.4038 41.82048 380.7419 40.48236 382.3926 40.48236H450.11689C451.76756 40.48236 453.1057 41.82048 453.1057 43.47119V65.84032C453.1057 67.49103 451.76756 68.82915 450.11689 68.82915ZM379.4038 40.48236" fill="#e6ffe6"/>
<path transform="matrix(1,0,0,-1,39.241,71.21999)" stroke-width=".79701" stroke-linecap="butt" stroke-miterlimit="10" stroke-linejoin="miter" fill="none" stroke="#4c4d4c" d="M450.11689 68.82915H382.3926C380.7419 68.82915 379.4038 67.49103 379.4038 65.84032V43.47119C379.4038 41.82048 380.7419 40.48236 382.3926 40.48236H450.11689C451.76756 40.48236 453.1057 41.82048 453.1057 43.47119V65.84032C453.1057 67.49103 451.76756 68.82915 450.11689 68.82915ZM379.4038 40.48236"/>
<use data-text="G" xlink:href="#font_1_4" transform="matrix(8.9664,0,0,-8.9664,429.98298,13.326996)"/>
<use data-text="a" xlink:href="#font_1_9" transform="matrix(8.9664,0,0,-8.9664,436.12498,13.326996)"/>
<use data-text="m" xlink:href="#font_1_18" transform="matrix(8.9664,0,0,-8.9664,440.55439,13.326996)"/>
<use data-text="e" xlink:href="#font_1_13" transform="matrix(8.9664,0,0,-8.9664,447.87098,13.326996)"/>
<use data-text="E" xlink:href="#font_1_3" transform="matrix(8.9664,0,0,-8.9664,455.0441,13.326996)"/>
<use data-text="n" xlink:href="#font_1_19" transform="matrix(8.9664,0,0,-8.9664,460.57637,13.326996)"/>
<use data-text="g" xlink:href="#font_1_14" transform="matrix(8.9664,0,0,-8.9664,465.33753,13.326996)"/>
<use data-text="i" xlink:href="#font_1_15" transform="matrix(8.9664,0,0,-8.9664,469.94627,13.326996)"/>
<use data-text="n" xlink:href="#font_1_19" transform="matrix(8.9664,0,0,-8.9664,472.13407,13.326996)"/>
<use data-text="e" xlink:href="#font_1_13" transform="matrix(8.9664,0,0,-8.9664,476.89524,13.326996)"/>
<use data-text="(" xlink:href="#font_2_2" transform="matrix(6.9738,0,0,-6.9738,426.91999,24.285996)"/>
<use data-text="P" xlink:href="#font_2_10" transform="matrix(6.9738,0,0,-6.9738,429.80018,24.285996)"/>
<use data-text="a" xlink:href="#font_2_12" transform="matrix(6.9738,0,0,-6.9738,434.32615,24.285996)"/>
<use data-text="y" xlink:href="#font_2_27" transform="matrix(6.9738,0,0,-6.9738,437.68055,24.285996)"/>
<use data-text="o" xlink:href="#font_2_20" transform="matrix(6.9738,0,0,-6.9738,440.8885,24.285996)"/>
<use data-text="f" xlink:href="#font_2_1" transform="matrix(6.9738,0,0,-6.9738,444.59159,24.285996)"/>
<use data-text="F" xlink:href="#font_2_5" transform="matrix(6.9738,0,0,-6.9738,451.39106,24.285996)"/>
<use data-text="u" xlink:href="#font_2_25" transform="matrix(6.9738,0,0,-6.9738,455.4219,24.285996)"/>
<use data-text="n" xlink:href="#font_2_19" transform="matrix(6.9738,0,0,-6.9738,459.25053,24.285996)"/>
<use data-text="c" xlink:href="#font_2_14" transform="matrix(6.9738,0,0,-6.9738,463.07914,24.285996)"/>
<use data-text="t" xlink:href="#font_2_24" transform="matrix(6.9738,0,0,-6.9738,466.37077,24.285996)"/>
<use data-text="i" xlink:href="#font_2_16" transform="matrix(6.9738,0,0,-6.9738,469.0487,24.285996)"/>
<use data-text="o" xlink:href="#font_2_20" transform="matrix(6.9738,0,0,-6.9738,470.82005,24.285996)"/>
<use data-text="n" xlink:href="#font_2_19" transform="matrix(6.9738,0,0,-6.9738,474.52314,24.285996)"/>
<use data-text="s" xlink:href="#font_2_23" transform="matrix(6.9738,0,0,-6.9738,478.35176,24.285996)"/>
<use data-text=")" xlink:href="#font_2_3" transform="matrix(6.9738,0,0,-6.9738,481.1901,24.285996)"/>
<path transform="matrix(1,0,0,-1,39.241,71.21999)" d="M450.11689-40.48236H382.3926C380.7419-40.48236 379.4038-41.82048 379.4038-43.47119V-65.84032C379.4038-67.49103 380.7419-68.82915 382.3926-68.82915H450.11689C451.76756-68.82915 453.1057-67.49103 453.1057-65.84032V-43.47119C453.1057-41.82048 451.76756-40.48236 450.11689-40.48236ZM379.4038-68.82915" fill="#ffebeb"/>
<path transform="matrix(1,0,0,-1,39.241,71.21999)" stroke-width=".79701" stroke-linecap="butt" stroke-miterlimit="10" stroke-linejoin="miter" fill="none" stroke="#4c4d4c" d="M450.11689-40.48236H382.3926C380.7419-40.48236 379.4038-41.82048 379.4038-43.47119V-65.84032C379.4038-67.49103 380.7419-68.82915 382.3926-68.82915H450.11689C451.76756-68.82915 453.1057-67.49103 453.1057-65.84032V-43.47119C453.1057-41.82048 451.76756-40.48236 450.11689-40.48236ZM379.4038-68.82915"/>
<use data-text="S" xlink:href="#font_1_7" transform="matrix(8.9664,0,0,-8.9664,423.438,122.63699)"/>
<use data-text="t" xlink:href="#font_1_22" transform="matrix(8.9664,0,0,-8.9664,428.5578,122.63699)"/>
<use data-text="r" xlink:href="#font_1_21" transform="matrix(8.9664,0,0,-8.9664,431.88435,122.63699)"/>
<use data-text="a" xlink:href="#font_1_9" transform="matrix(8.9664,0,0,-8.9664,435.03157,122.63699)"/>
<use data-text="t" xlink:href="#font_1_22" transform="matrix(8.9664,0,0,-8.9664,439.46098,122.63699)"/>
<use data-text="e" xlink:href="#font_1_13" transform="matrix(8.9664,0,0,-8.9664,442.7875,122.63699)"/>
<use data-text="g" xlink:href="#font_1_14" transform="matrix(8.9664,0,0,-8.9664,446.88517,122.63699)"/>
<use data-text="y" xlink:href="#font_1_25" transform="matrix(8.9664,0,0,-8.9664,451.4939,122.63699)"/>
<use data-text="M" xlink:href="#font_1_6" transform="matrix(8.9664,0,0,-8.9664,458.81944,122.63699)"/>
<use data-text="o" xlink:href="#font_1_20" transform="matrix(8.9664,0,0,-8.9664,466.87126,122.63699)"/>
<use data-text="d" xlink:href="#font_1_12" transform="matrix(8.9664,0,0,-8.9664,471.73106,122.63699)"/>
<use data-text="u" xlink:href="#font_1_23" transform="matrix(8.9664,0,0,-8.9664,476.49223,122.63699)"/>
<use data-text="l" xlink:href="#font_1_17" transform="matrix(8.9664,0,0,-8.9664,481.2534,122.63699)"/>
<use data-text="e" xlink:href="#font_1_13" transform="matrix(8.9664,0,0,-8.9664,483.45018,122.63699)"/>
<use data-text="(" xlink:href="#font_2_2" transform="matrix(6.9738,0,0,-6.9738,432.547,133.596)"/>
<use data-text="O" xlink:href="#font_2_9" transform="matrix(6.9738,0,0,-6.9738,435.4272,133.596)"/>
<use data-text="p" xlink:href="#font_2_21" transform="matrix(6.9738,0,0,-6.9738,440.9016,133.596)"/>
<use data-text="p" xlink:href="#font_2_21" transform="matrix(6.9738,0,0,-6.9738,444.73023,133.596)"/>
<use data-text="o" xlink:href="#font_2_20" transform="matrix(6.9738,0,0,-6.9738,448.76808,133.596)"/>
<use data-text="n" xlink:href="#font_2_19" transform="matrix(6.9738,0,0,-6.9738,452.47117,133.596)"/>
<use data-text="e" xlink:href="#font_2_15" transform="matrix(6.9738,0,0,-6.9738,456.29978,133.596)"/>
<use data-text="n" xlink:href="#font_2_19" transform="matrix(6.9738,0,0,-6.9738,459.5914,133.596)"/>
<use data-text="t" xlink:href="#font_2_24" transform="matrix(6.9738,0,0,-6.9738,463.42,133.596)"/>
<use data-text="A" xlink:href="#font_2_4" transform="matrix(6.9738,0,0,-6.9738,468.56669,133.596)"/>
<use data-text="I" xlink:href="#font_2_6" transform="matrix(6.9738,0,0,-6.9738,473.50413,133.596)"/>
<use data-text=")" xlink:href="#font_2_3" transform="matrix(6.9738,0,0,-6.9738,475.5614,133.596)"/>
<path transform="matrix(1,0,0,-1,39.241,71.21999)" stroke-width=".79701" stroke-linecap="butt" stroke-miterlimit="10" stroke-linejoin="miter" fill="none" stroke="#666666" d="M37.24945 0H101.5748"/>
<path transform="matrix(1,0,0,-1,138.545,71.21999)" d="M4.84268 0 1.28693 1.34647 2.47006 0 1.28693-1.34647Z" fill="#666666"/>
<path transform="matrix(1,0,0,-1,138.545,71.21999)" stroke-width=".79701" stroke-linecap="butt" stroke-miterlimit="10" stroke-linejoin="miter" fill="none" stroke="#666666" d="M4.84268 0 1.28693 1.34647 2.47006 0 1.28693-1.34647Z"/>
<use data-text="a" xlink:href="#font_2_12" transform="matrix(6.9738,0,0,-6.9738,101.093,67.50099)" fill="#4c4d4c"/>
<use data-text="c" xlink:href="#font_2_14" transform="matrix(6.9738,0,0,-6.9738,104.64964,67.50099)" fill="#4c4d4c"/>
<use data-text="t" xlink:href="#font_2_24" transform="matrix(6.9738,0,0,-6.9738,107.94128,67.50099)" fill="#4c4d4c"/>
<use data-text="i" xlink:href="#font_2_16" transform="matrix(6.9738,0,0,-6.9738,110.61922,67.50099)" fill="#4c4d4c"/>
<use data-text="o" xlink:href="#font_2_20" transform="matrix(6.9738,0,0,-6.9738,112.390567,67.50099)" fill="#4c4d4c"/>
<use data-text="n" xlink:href="#font_2_19" transform="matrix(6.9738,0,0,-6.9738,116.09365,67.50099)" fill="#4c4d4c"/>
<path transform="matrix(1,0,0,-1,39.241,71.21999)" stroke-width=".79701" stroke-linecap="butt" stroke-miterlimit="10" stroke-linejoin="miter" fill="none" stroke="#666666" d="M105.28165 0V-9.92155H37.24945V-10.86505"/>
<path transform="matrix(0,1,1,0,76.49045,79.81423)" d="M4.84268 0 1.28693 1.34647 2.47006 0 1.28693-1.34647Z" fill="#666666"/>
<path transform="matrix(0,1,1,0,76.49045,79.81423)" stroke-width=".79701" stroke-linecap="butt" stroke-miterlimit="10" stroke-linejoin="miter" fill="none" stroke="#666666" d="M4.84268 0 1.28693 1.34647 2.47006 0 1.28693-1.34647Z"/>
<use data-text="o" xlink:href="#font_2_20" transform="matrix(6.9738,0,0,-6.9738,92.934009,89.702999)" fill="#4c4d4c"/>
<use data-text="b" xlink:href="#font_2_13" transform="matrix(6.9738,0,0,-6.9738,96.63709,89.702999)" fill="#4c4d4c"/>
<use data-text="s" xlink:href="#font_2_23" transform="matrix(6.9738,0,0,-6.9738,100.465709,89.702999)" fill="#4c4d4c"/>
<use data-text="e" xlink:href="#font_2_15" transform="matrix(6.9738,0,0,-6.9738,103.30404,89.702999)" fill="#4c4d4c"/>
<use data-text="r" xlink:href="#font_2_22" transform="matrix(6.9738,0,0,-6.9738,106.59567,89.702999)" fill="#4c4d4c"/>
<use data-text="v" xlink:href="#font_2_26" transform="matrix(6.9738,0,0,-6.9738,109.12716,89.702999)" fill="#4c4d4c"/>
<use data-text="a" xlink:href="#font_2_12" transform="matrix(6.9738,0,0,-6.9738,112.54432,89.702999)" fill="#4c4d4c"/>
<use data-text="t" xlink:href="#font_2_24" transform="matrix(6.9738,0,0,-6.9738,116.10096,89.702999)" fill="#4c4d4c"/>
<use data-text="i" xlink:href="#font_2_16" transform="matrix(6.9738,0,0,-6.9738,118.7789,89.702999)" fill="#4c4d4c"/>
<use data-text="o" xlink:href="#font_2_20" transform="matrix(6.9738,0,0,-6.9738,120.55025,89.702999)" fill="#4c4d4c"/>
<use data-text="n" xlink:href="#font_2_19" transform="matrix(6.9738,0,0,-6.9738,124.253337,89.702999)" fill="#4c4d4c"/>
<path transform="matrix(1,0,0,-1,39.241,71.21999)" stroke-width=".79701" stroke-linecap="butt" stroke-miterlimit="10" stroke-linejoin="miter" fill="none" stroke="#666666" d="M179.78055 0H244.1059"/>
<path transform="matrix(1,0,0,-1,281.07609,71.21999)" d="M4.84268 0 1.28693 1.34647 2.47006 0 1.28693-1.34647Z" fill="#666666"/>
<path transform="matrix(1,0,0,-1,281.07609,71.21999)" stroke-width=".79701" stroke-linecap="butt" stroke-miterlimit="10" stroke-linejoin="miter" fill="none" stroke="#666666" d="M4.84268 0 1.28693 1.34647 2.47006 0 1.28693-1.34647Z"/>
<use data-text="J" xlink:href="#font_2_7" transform="matrix(6.9738,0,0,-6.9738,243.87599,67.50099)" fill="#4c4d4c"/>
<use data-text="S" xlink:href="#font_2_11" transform="matrix(6.9738,0,0,-6.9738,247.37685,67.50099)" fill="#4c4d4c"/>
<use data-text="O" xlink:href="#font_2_9" transform="matrix(6.9738,0,0,-6.9738,251.4914,67.50099)" fill="#4c4d4c"/>
<use data-text="N" xlink:href="#font_2_8" transform="matrix(6.9738,0,0,-6.9738,256.96583,67.50099)" fill="#4c4d4c"/>
<path transform="matrix(1,0,0,-1,39.241,71.21999)" stroke-width=".79701" stroke-linecap="butt" stroke-miterlimit="10" stroke-linejoin="miter" fill="none" stroke="#666666" d="M247.81275 0V-9.92155H179.78055V-10.86505"/>
<path transform="matrix(0,1,1,0,219.02155,79.81423)" d="M4.84268 0 1.28693 1.34647 2.47006 0 1.28693-1.34647Z" fill="#666666"/>
<path transform="matrix(0,1,1,0,219.02155,79.81423)" stroke-width=".79701" stroke-linecap="butt" stroke-miterlimit="10" stroke-linejoin="miter" fill="none" stroke="#666666" d="M4.84268 0 1.28693 1.34647 2.47006 0 1.28693-1.34647Z"/>
<use data-text="r" xlink:href="#font_2_22" transform="matrix(6.9738,0,0,-6.9738,239.855,87.95999)" fill="#4c4d4c"/>
<use data-text="e" xlink:href="#font_2_15" transform="matrix(6.9738,0,0,-6.9738,242.38649,87.95999)" fill="#4c4d4c"/>
<use data-text="s" xlink:href="#font_2_23" transform="matrix(6.9738,0,0,-6.9738,245.67813,87.95999)" fill="#4c4d4c"/>
<use data-text="p" xlink:href="#font_2_21" transform="matrix(6.9738,0,0,-6.9738,248.51647,87.95999)" fill="#4c4d4c"/>
<use data-text="o" xlink:href="#font_2_20" transform="matrix(6.9738,0,0,-6.9738,252.55429,87.95999)" fill="#4c4d4c"/>
<use data-text="n" xlink:href="#font_2_19" transform="matrix(6.9738,0,0,-6.9738,256.2504,87.95999)" fill="#4c4d4c"/>
<use data-text="s" xlink:href="#font_2_23" transform="matrix(6.9738,0,0,-6.9738,260.086,87.95999)" fill="#4c4d4c"/>
<use data-text="e" xlink:href="#font_2_15" transform="matrix(6.9738,0,0,-6.9738,262.92436,87.95999)" fill="#4c4d4c"/>
<path transform="matrix(1,0,0,-1,39.241,71.21999)" stroke-width=".79701" stroke-linecap="butt" stroke-miterlimit="10" stroke-linejoin="miter" fill="none" stroke="#666666" d="M322.31166 0H336.48506V54.65576H375.29844"/>
<path transform="matrix(1,0,0,-1,412.26863,16.564232)" d="M4.84268 0 1.28693 1.34647 2.47006 0 1.28693-1.34647Z" fill="#666666"/>
<path transform="matrix(1,0,0,-1,412.26863,16.564232)" stroke-width=".79701" stroke-linecap="butt" stroke-miterlimit="10" stroke-linejoin="miter" fill="none" stroke="#666666" d="M4.84268 0 1.28693 1.34647 2.47006 0 1.28693-1.34647Z"/>
<use data-text="r" xlink:href="#font_2_22" transform="matrix(6.9738,0,0,-6.9738,374.697,11.48999)" fill="#4c4d4c"/>
<use data-text="e" xlink:href="#font_2_15" transform="matrix(6.9738,0,0,-6.9738,377.2285,11.48999)" fill="#4c4d4c"/>
<use data-text="s" xlink:href="#font_2_23" transform="matrix(6.9738,0,0,-6.9738,380.5201,11.48999)" fill="#4c4d4c"/>
<use data-text="o" xlink:href="#font_2_20" transform="matrix(6.9738,0,0,-6.9738,383.35847,11.48999)" fill="#4c4d4c"/>
<use data-text="l" xlink:href="#font_2_17" transform="matrix(6.9738,0,0,-6.9738,387.06156,11.48999)" fill="#4c4d4c"/>
<use data-text="v" xlink:href="#font_2_26" transform="matrix(6.9738,0,0,-6.9738,388.8329,11.48999)" fill="#4c4d4c"/>
<use data-text="e" xlink:href="#font_2_15" transform="matrix(6.9738,0,0,-6.9738,392.25007,11.48999)" fill="#4c4d4c"/>
<use data-text="p" xlink:href="#font_2_21" transform="matrix(6.9738,0,0,-6.9738,398.0104,11.48999)" fill="#4c4d4c"/>
<use data-text="a" xlink:href="#font_2_12" transform="matrix(6.9738,0,0,-6.9738,401.83903,11.48999)" fill="#4c4d4c"/>
<use data-text="y" xlink:href="#font_2_27" transform="matrix(6.9738,0,0,-6.9738,405.19343,11.48999)" fill="#4c4d4c"/>
<use data-text="o" xlink:href="#font_2_20" transform="matrix(6.9738,0,0,-6.9738,408.40138,11.48999)" fill="#4c4d4c"/>
<use data-text="f" xlink:href="#font_2_1" transform="matrix(6.9738,0,0,-6.9738,412.10447,11.48999)" fill="#4c4d4c"/>
<use data-text="s" xlink:href="#font_2_23" transform="matrix(6.9738,0,0,-6.9738,416.42823,11.48999)" fill="#4c4d4c"/>
<path transform="matrix(1,0,0,-1,39.241,71.21999)" stroke-width=".79701" stroke-linecap="butt" stroke-miterlimit="10" stroke-linejoin="miter" fill="none" stroke="#666666" d="M322.31166 0H336.48506V-54.65576H375.29844"/>
<path transform="matrix(1,0,0,-1,412.26863,125.875759)" d="M4.84268 0 1.28693 1.34647 2.47006 0 1.28693-1.34647Z" fill="#666666"/>
<path transform="matrix(1,0,0,-1,412.26863,125.875759)" stroke-width=".79701" stroke-linecap="butt" stroke-miterlimit="10" stroke-linejoin="miter" fill="none" stroke="#666666" d="M4.84268 0 1.28693 1.34647 2.47006 0 1.28693-1.34647Z"/>
<use data-text="c" xlink:href="#font_2_14" transform="matrix(6.9738,0,0,-6.9738,374.347,133.579)" fill="#4c4d4c"/>
<use data-text="o" xlink:href="#font_2_20" transform="matrix(6.9738,0,0,-6.9738,377.6386,133.579)" fill="#4c4d4c"/>
<use data-text="m" xlink:href="#font_2_18" transform="matrix(6.9738,0,0,-6.9738,381.3417,133.579)" fill="#4c4d4c"/>
<use data-text="p" xlink:href="#font_2_21" transform="matrix(6.9738,0,0,-6.9738,387.2276,133.579)" fill="#4c4d4c"/>
<use data-text="u" xlink:href="#font_2_25" transform="matrix(6.9738,0,0,-6.9738,391.0562,133.579)" fill="#4c4d4c"/>
<use data-text="t" xlink:href="#font_2_24" transform="matrix(6.9738,0,0,-6.9738,394.88484,133.579)" fill="#4c4d4c"/>
<use data-text="e" xlink:href="#font_2_15" transform="matrix(6.9738,0,0,-6.9738,397.56278,133.579)" fill="#4c4d4c"/>
<use data-text="m" xlink:href="#font_2_18" transform="matrix(6.9738,0,0,-6.9738,403.32313,133.579)" fill="#4c4d4c"/>
<use data-text="o" xlink:href="#font_2_20" transform="matrix(6.9738,0,0,-6.9738,409.209,133.579)" fill="#4c4d4c"/>
<use data-text="v" xlink:href="#font_2_26" transform="matrix(6.9738,0,0,-6.9738,412.9121,133.579)" fill="#4c4d4c"/>
<use data-text="e" xlink:href="#font_2_15" transform="matrix(6.9738,0,0,-6.9738,416.32929,133.579)" fill="#4c4d4c"/>
<path transform="matrix(1,0,0,-1,39.241,71.21999)" stroke-width=".79701" stroke-linecap="butt" stroke-dasharray="2.98883,2.98883" stroke-miterlimit="10" stroke-linejoin="miter" fill="none" stroke="#666666" d="M379.0053 40.08385 356.32777 25.91046H288.05104V18.27875"/>
<path transform="matrix(0,1,1,0,327.29203,50.670434)" d="M4.84268 0 1.28693 1.34647 2.47006 0 1.28693-1.34647Z" fill="#666666"/>
<path transform="matrix(0,1,1,0,327.29203,50.670434)" stroke-width=".79701" stroke-linecap="butt" stroke-miterlimit="10" stroke-linejoin="miter" fill="none" stroke="#666666" d="M4.84268 0 1.28693 1.34647 2.47006 0 1.28693-1.34647Z"/>
<path transform="matrix(1,0,0,-1,39.241,71.21999)" stroke-width=".79701" stroke-linecap="butt" stroke-dasharray="2.98883,2.98883" stroke-miterlimit="10" stroke-linejoin="miter" fill="none" stroke="#666666" d="M379.0053-40.08385 356.32777-25.91046H288.05104V-18.27875"/>
<path transform="matrix(0,-1,-1,-0,327.29203,91.769557)" d="M4.84268 0 1.28693 1.34647 2.47006 0 1.28693-1.34647Z" fill="#666666"/>
<path transform="matrix(0,-1,-1,-0,327.29203,91.769557)" stroke-width=".79701" stroke-linecap="butt" stroke-miterlimit="10" stroke-linejoin="miter" fill="none" stroke="#666666" d="M4.84268 0 1.28693 1.34647 2.47006 0 1.28693-1.34647Z"/>
</svg>
