<svg xmlns="http://www.w3.org/2000/svg" xmlns:xlink="http://www.w3.org/1999/xlink" xmlns:inkscape="http://www.inkscape.org/namespaces/inkscape" version="1.1" width="554.348" height="169.135" viewBox="0 0 554.348 169.135">
<defs>
<path id="font_1_2" d="M.82199099 .33924867C.82199099 .5482483 .68099978 .6982422 .44400025 .6982422 .20599365 .6982422 .06599426 .5472412 .06599426 .33924867 .06599426 .13726807 .20498657-.01171875 .44400025-.01171875 .68299868-.01171875 .82199099 .13626099 .82199099 .33924867M.44400025 .03427124C.38198854 .03427124 .31098939 .061279298 .2679901 .13226319 .22698975 .2002716 .22299195 .28825379 .22299195 .35424806 .22299195 .44325257 .23199463 .5182495 .2809906 .5822449 .30699159 .6152344 .3639984 .65522769 .44400025 .65522769 .5099945 .65522769 .57299807 .62823489 .6119995 .5752411 .6609955 .5102539 .6649933 .42425538 .6649933 .35424806 .6649933 .2652588 .6559906 .20126343 .625 .14027405 .58799746 .0712738 .5169983 .03427124 .44400025 .03427124Z"/>
<path id="font_1_6" d="M.21998596 .69433596 .040985109 .6863251V.6373291C.100997928 .6373291 .10899353 .6373291 .10899353 .5982971V.0001373291H.1599884L.20698548 .057144166C.23899842 .025131226 .28799439-.005859375 .35899354-.005859375 .5149994-.005859375 .61698916 .088134769 .61698916 .22216797 .61698916 .35717774 .519989 .4501953 .37199403 .4501953 .2919922 .4501953 .23899842 .41618348 .21998596 .40219117V.69433596M.22599793 .34617616C.25099183 .3781891 .29899598 .41018678 .3600006 .41018678 .48399354 .41018678 .48399354 .2901764 .48399354 .22416687 .48399354 .18215943 .48399354 .13014221 .46299745 .09414673 .42999269 .038131715 .36898805 .03413391 .34899903 .03413391 .2869873 .03413391 .24699402 .072143558 .22599793 .104141239V.34617616Z"/>
<path id="font_1_11" d="M.2749939 .6163025C.2749939 .66230776 .23799134 .6953125 .19699097 .6953125 .1519928 .6953125 .117996219 .65830996 .117996219 .6173096 .117996219 .5713043 .15499878 .53829959 .19599915 .53829959 .24099732 .53829959 .2749939 .5753021 .2749939 .6163025M.08898926 .44218446V.39318849C.1559906 .39318849 .1639862 .39318849 .1639862 .35316468V-.040115358C.1639862-.09515381 .14498902-.16020203 .08699036-.16020203 .07998657-.16020203 .051986696-.15820313 .051986696-.15519715 .051986696-.15420532 .052993776-.15319824 .053985597-.15219116 .06599426-.1401825 .07199097-.124176029 .07199097-.106170658 .07199097-.06713867 .042999269-.041122438 .0069885256-.041122438-.029006958-.041122438-.058013917-.06713867-.058013917-.106170658-.058013917-.17019654 .010986328-.20019531 .08898926-.20019531 .1749878-.20019531 .2749939-.14920044 .2749939-.039123537V.4501953L.08898926 .44218446Z"/>
<path id="font_1_9" d="M.47599793 .21496582C.49699403 .21496582 .5089874 .21496582 .5089874 .2429657 .5089874 .26498414 .5069885 .35305787 .44198609 .4071045 .39698792 .4441223 .33699037 .453125 .28799439 .453125 .116989139 .453125 .032989503 .345047 .032989503 .22497559 .032989503 .09408569 .13198853-.005859375 .3019867-.005859375 .46699525-.005859375 .5089874 .1000824 .5089874 .11605835 .5089874 .13604737 .4889984 .13604737 .48298646 .13604737 .46499635 .13604737 .46299745 .13005066 .45700074 .11605835 .43399049 .06410217 .37298585 .037139894 .30999757 .037139894 .16799927 .037139894 .1659851 .16601563 .1659851 .21496582H.47599793M.1659851 .25097657C.16799927 .29701234 .17298889 .41311646 .28799439 .41311646 .40499879 .41311646 .40899659 .29100038 .41099549 .25097657H.1659851Z"/>
<path id="font_1_7" d="M.49198915 .11613464C.49198915 .13212586 .47698976 .13212586 .46598817 .13212586 .44599916 .13212586 .44599916 .13113404 .43798829 .11312866 .41799928 .06512451 .37298585 .037139894 .31399537 .037139894 .17199707 .037139894 .17199707 .18112183 .17199707 .22612 .17199707 .28611756 .17298889 .41011048 .3039856 .41011048 .31098939 .41011048 .36499024 .40911866 .36499024 .40411378 .36499024 .40312196 .36299134 .40011598 .3619995 .39912416 .35299684 .38812257 .34899903 .3721161 .34899903 .35812379 .34899903 .3171234 .37998963 .29312135 .4139862 .29312135 .44499208 .29312135 .47898866 .31411744 .47898866 .3591156 .47898866 .453125 .33898927 .453125 .2999878 .453125 .10798645 .453125 .038986207 .33111573 .038986207 .22212219 .038986207 .09613037 .1289978-.005859375 .29499818-.005859375 .33198548-.005859375 .3809967 .0001373291 .4229889 .026138306 .47999574 .06112671 .49198915 .11312866 .49198915 .11613464Z"/>
<path id="font_1_17" d="M.22299195 .3953247H.37399293V.44433595H.22299195V.6352234H.17199707C.17098999 .541275 .12399292 .43832398 .021987915 .43533326V.3953247H.10598755V.123184207C.10598755 .009140015 .20498657-.005859375 .2669983-.005859375 .34498597-.005859375 .3929901 .05014038 .3929901 .123184207V.1762085H.34199525V.12617493C.34199525 .055145265 .30599977 .037139894 .2809906 .037139894 .22299195 .037139894 .22299195 .09716797 .22299195 .1211853V.3953247Z"/>
<path id="font_1_1" d="M.7879944 .22833252H.8699951V.27734376C.83099368 .27433778 .74398806 .27433778 .70098879 .27433778 .651001 .27433778 .5389862 .27433778 .49499513 .27734376V.22833252H.6429901V.12831116C.6429901 .107299808 .6429901 .07829285 .59999087 .056274415 .57398989 .043273927 .5399933 .03727722 .5069885 .03727722 .45298768 .03727722 .35299684 .04727173 .2829895 .124298099 .22399903 .19032288 .22299195 .30133058 .22299195 .34431459 .22299195 .41929627 .23199463 .51327517 .2919922 .5742645 .3600006 .64224246 .45599366 .64923098 .49899293 .64923098 .58699038 .64923098 .7029877 .59625247 .72898867 .43728639 .73098757 .42430116 .7429962 .42430116 .7579956 .42430116 .7849884 .42430116 .7879944 .42630006 .7879944 .45329286V.6692352C.7879944 .6872406 .7879944 .6982422 .7679901 .6982422 .7579956 .6982422 .7559967 .696228 .746994 .6882324L.68099978 .630249C.6239929 .676239 .5509949 .6982422 .47799684 .6982422 .21998596 .6982422 .06599426 .54626467 .06599426 .34332276 .06599426 .14930725 .20999146-.01171875 .47999574-.01171875 .526001-.01171875 .6239929-.008728027 .6759949 .04927063 .70399478 .028274537 .7649994 .0002746582 .772995 .0002746582 .7879944 .0002746582 .7879944 .015274048 .7879944 .029266358V.22833252Z"/>
<path id="font_1_5" d="M.48399354 .2983551C.48399354 .38616944 .4119873 .453125 .2579956 .453125 .20098877 .453125 .07299805 .45111085 .07299805 .3592224 .07299805 .3143158 .10699463 .29336549 .13798523 .29336549 .17199707 .29336549 .20298767 .31730653 .20298767 .3582306 .20298767 .3871765 .18598938 .40412904 .18299866 .407135 .19299317 .40911866 .21699524 .41311646 .2539978 .41311646 .32598878 .41311646 .36698915 .377182 .36698915 .2983551V.26641847C.20098877 .26641847 .032989503 .22340393 .032989503 .11224365 .032989503 .013137817 .1579895-.005859375 .22999573-.005859375 .30599977-.005859375 .35798646 .027130127 .3849945 .07418823 .3849945 .04815674 .3849945 .0001373291 .49198915 .0001373291H.54100039C.55999758 .0001373291 .57398989 .0001373291 .57398989 .025131226 .57398989 .04914856 .55799868 .04914856 .5479889 .04914856 .48399354 .05015564 .48399354 .060165407 .48399354 .084198V.2983551M.36698915 .13928223C.36698915 .03413391 .25099183 .03413391 .24699402 .03413391 .19599915 .03413391 .1539917 .06718445 .1539917 .11224365 .1539917 .14529419 .17199707 .22340393 .36698915 .23242188V.13928223Z"/>
<path id="font_1_12" d="M.8909912 .30513C.8909912 .42318727 .81999209 .4501953 .7319946 .4501953 .6279907 .4501953 .57699587 .3871765 .55799868 .3561554 .5359955 .44618226 .44799806 .4501953 .4039917 .4501953 .27999879 .4501953 .23098755 .3601532 .22399903 .3451538H.22299195V.4501953L.049987794 .44218446V.39317323C.10998535 .39317323 .117996219 .39317323 .117996219 .3541565V.04899597H.049987794V0C.12399292 .0029907227 .13598633 .0029907227 .17599488 .0029907227 .21699524 .0029907227 .22698975 .0029907227 .30299378 0V.04899597H.23498535V.2541046C.23498535 .36515809 .32699586 .41018678 .3869934 .41018678 .4249878 .41018678 .44599916 .3901825 .44599916 .3141327V.04899597H.37799073V0C.45199586 .0029907227 .46398927 .0029907227 .5039978 .0029907227 .54499819 .0029907227 .5549927 .0029907227 .6309967 0V.04899597H.5629883V.2541046C.5629883 .36515809 .6549988 .41018678 .71499636 .41018678 .7529907 .41018678 .7739868 .3901825 .7739868 .3141327V.04899597H.70599368V0C.7799988 .0029907227 .7919922 .0029907227 .83200076 .0029907227 .8730011 .0029907227 .8829956 .0029907227 .95899966 0V.04899597H.8909912V.30513Z"/>
<path id="font_1_4" d="M.57099917 .3383026C.6559906 .3623047 .73799136 .41534425 .73799136 .49942018 .73799136 .60450747 .6199951 .6855469 .43099977 .6855469H.041992189V.63653567H.1499939V.04899597H.041992189V0C.07798767 .0029907227 .17799378 .0029907227 .21899414 .0029907227 .2599945 .0029907227 .36099244 .0029907227 .39698792 0V.04899597H.2889862V.32229615H.4119873C.45298768 .32229615 .47999574 .31332398 .5089874 .283432 .5369873 .25552369 .5369873 .2315979 .5369873 .16482544 .5369873 .10203552 .5369873 .05519104 .5970001 .02027893 .6409912-.0047302248 .70399478-.01171875 .7589874-.01171875 .8659973-.01171875 .8829956 .07511902 .8829956 .0970459 .8829956 .11897278 .8679962 .12097168 .8569946 .12097168 .83399966 .12097168 .83299258 .10700989 .83200076 .0970459 .82699587 .048202516 .79599 .028274537 .7679901 .028274537 .70799258 .028274537 .69999697 .08807373 .6879883 .1737976 .6769867 .2474823 .66999819 .30134584 .57099917 .3383026M.41299439 .3623047H.2889862V.63653567H.4149933C.5779877 .63653567 .58099368 .5594635 .58099368 .49942018 .58099368 .44236756 .57899478 .3623047 .41299439 .3623047Z"/>
<path id="font_1_14" d="M.55799868 .21812439C.55799868 .3491211 .46598817 .453125 .29599 .453125 .11999512 .453125 .032989503 .3441162 .032989503 .21812439 .032989503 .09413147 .12298584-.005859375 .29499818-.005859375 .47399903-.005859375 .55799868 .09913635 .55799868 .21812439M.29599 .037139894C.1659851 .037139894 .1659851 .14213562 .1659851 .22912598 .1659851 .3131256 .1659851 .41311646 .29499818 .41311646 .4249878 .41311646 .4249878 .3131256 .4249878 .22912598 .4249878 .14312744 .4249878 .037139894 .29599 .037139894Z"/>
<path id="font_1_18" d="M.3769989 .44218446V.39318849C.43699647 .39318849 .44499208 .39318849 .44499208 .354187V.16415406C.44499208 .08413696 .3929901 .03413391 .31599427 .03413391 .23899842 .03413391 .23498535 .056137086 .23498535 .10914612V.4501953L.049987794 .44218446V.39318849C.10998535 .39318849 .117996219 .39318849 .117996219 .354187V.12315369C.117996219 .014129639 .20399475-.005859375 .30099488-.005859375 .33198548-.005859375 .3999939-.005859375 .45098878 .06913757V-.005859375L.6299896 .0001373291V.0491333C.56999209 .0491333 .56199648 .0491333 .56199648 .088134769V.4501953L.3769989 .44218446Z"/>
<path id="font_1_13" d="M.56199648 .30513C.56199648 .42419435 .48999024 .4501953 .40299989 .4501953 .27999879 .4501953 .23098755 .3601532 .22399903 .3451538H.22299195V.4501953L.049987794 .44218446V.39317323C.10998535 .39317323 .117996219 .39317323 .117996219 .3541565V.04899597H.049987794V0C.12399292 .0029907227 .13598633 .0029907227 .17599488 .0029907227 .21699524 .0029907227 .22698975 .0029907227 .30299378 0V.04899597H.23498535V.2541046C.23498535 .36616517 .32699586 .41018678 .3869934 .41018678 .4249878 .41018678 .44499208 .38917542 .44499208 .3141327V.04899597H.3769989V0C.45098878 .0029907227 .46299745 .0029907227 .5029907 .0029907227 .5439911 .0029907227 .55400088 .0029907227 .6299896 0V.04899597H.56199648V.30513Z"/>
<path id="font_1_8" d="M.36799623 .6863251V.6373291C.42799378 .6373291 .43598939 .6373291 .43598939 .5982971V.40518189C.3919983 .43719483 .34498597 .4501953 .29699708 .4501953 .13398743 .4501953 .038986207 .35118104 .038986207 .22216797 .038986207 .089141849 .1329956-.005859375 .2849884-.005859375 .34799195-.005859375 .397995 .018127442 .42999269 .044128419V-.005859375L.61499026 .0001373291V.0491333C.5549927 .0491333 .5469971 .0491333 .5469971 .088134769V.69433596L.36799623 .6863251M.42999269 .10914612C.4079895 .074142459 .3600006 .03413391 .29599 .03413391 .17199707 .03413391 .17199707 .15414429 .17199707 .22015381 .17199707 .27816773 .17298889 .32118226 .19898987 .3581848 .22499085 .39819337 .272995 .41018678 .30799867 .41018678 .35798646 .41018678 .39898683 .3881836 .42999269 .34918214V.10914612Z"/>
<path id="font_2_1" d="M.21299744 .3996582H.30799867C.32598878 .3996582 .33799745 .3996582 .33799745 .41766358 .33799745 .43066407 .32798768 .43066407 .30999757 .43066407H.22099304L.2619934 .59646609C.2619934 .6124573 .24899292 .62545779 .23098755 .62545779 .19898987 .62545779 .19099427 .59646609 .18899536 .5864868L.14898682 .43066407H.054992677C.035995485 .43066407 .023986817 .43066407 .023986817 .4126587 .023986817 .3996582 .034988405 .3996582 .052993776 .3996582H.14199829L.07398987 .12808228C.06599426 .09811401 .06599426 .09613037 .06599426 .08215332 .06599426 .023239136 .11099243-.0107421879 .16299439-.0107421879 .2669983-.0107421879 .32598878 .1330719 .32598878 .14305115 .32598878 .14804077 .32299806 .1550293 .31298829 .1550293 .30299378 .1550293 .3019867 .15203858 .29499818 .1350708 .2639923 .06317139 .21398926 .014251709 .16499329 .014251709 .14498902 .014251709 .1329956 .027236939 .1329956 .060180665 .1329956 .08215332 .13598633 .09413147 .13999939 .10910034L.21299744 .3996582Z"/>
<path id="font_1_19" d="M.522995 .37431336C.5299988 .38832093 .5329895 .3953247 .59599307 .3953247V.44433595C.56799319 .44132997 .54299929 .44132997 .5149994 .44132997 .48599244 .44132997 .45399476 .44132997 .4249878 .44433595V.3953247C.45298768 .3953247 .46199037 .39033509 .47099305 .38632203 .46998597 .38232423 .46998597 .38032533 .46499635 .37231446L.34498597 .123168949 .21398926 .3953247H.2659912V.44433595C.19999695 .44232179 .17999268 .44132997 .14299011 .44132997 .10699463 .44132997 .08699036 .44132997 .027999878 .44433595V.3953247H.09098816L.269989 .023117066C.2789917 .0041046144 .2869873-.0048828127 .31199647-.0048828127 .33699037-.0048828127 .34498597 .0041046144 .35398866 .023117066L.522995 .37431336Z"/>
<path id="font_1_15" d="M.21998596 .21809387C.21998596 .29112245 .24699402 .4071808 .34399415 .41018678 .33299256 .39918519 .32798768 .3821869 .32798768 .36616517 .32798768 .32214356 .36299134 .30213929 .3909912 .30213929 .4229889 .30213929 .45498658 .32414247 .45498658 .36616517 .45498658 .41719056 .40299989 .4501953 .34399415 .4501953 .27398683 .4501953 .23098755 .39918519 .20899964 .341156H.20799256V.4501953L.040985109 .44218446V.39318849C.100997928 .39318849 .10899353 .39318849 .10899353 .35417176V.04899597H.040985109V0C.114990238 .0029907227 .12098694 .0029907227 .16899109 .0029907227 .19400025 .0029907227 .2519989 .0029907227 .30499269 0V.04899597H.21998596V.21809387Z"/>
<path id="font_1_3" d="M.29499818 .2987671H.47898866C.621994 .2987671 .7409973 .37174989 .7409973 .48965455 .7409973 .5995636 .6399994 .6855469 .46899415 .6855469H.041992189V.63653567H.1499939V.04899597H.041992189V0C.07699585 .0029907227 .18099976 .0029907227 .22200012 .0029907227 .2630005 .0029907227 .36799623 .0029907227 .40299989 0V.04899597H.29499818V.2987671M.43099977 .63653567C.58399966 .63653567 .58399966 .56059268 .58399966 .48965455 .58399966 .41970826 .58399966 .34277345 .42999269 .34277345H.2889862V.63653567H.43099977Z"/>
<path id="font_1_10" d="M.56199648 .30513C.56199648 .42419435 .48999024 .4501953 .40299989 .4501953 .30799867 .4501953 .25498963 .3961792 .22898865 .35516358V.69433596L.049987794 .6863251V.6373291C.10998535 .6373291 .117996219 .6373291 .117996219 .5982971V.04899597H.049987794V0C.12399292 .0029907227 .13598633 .0029907227 .17599488 .0029907227 .21699524 .0029907227 .22698975 .0029907227 .30299378 0V.04899597H.23498535V.2541046C.23498535 .36616517 .32699586 .41018678 .3869934 .41018678 .4249878 .41018678 .44499208 .38917542 .44499208 .3141327V.04899597H.3769989V0C.45098878 .0029907227 .46299745 .0029907227 .5029907 .0029907227 .5439911 .0029907227 .55400088 .0029907227 .6299896 0V.04899597H.56199648V.30513Z"/>
<path id="font_1_16" d="M.39698792 .42411805C.39698792 .4421234 .39698792 .453125 .3769989 .453125 .36698915 .453125 .35099793 .44511415 .33299256 .43511964 .30099488 .44911195 .2619934 .453125 .22898865 .453125 .19799805 .453125 .038986207 .453125 .038986207 .32112123 .038986207 .21612549 .16999817 .19412232 .20498657 .18812561 .2869873 .1741333 .35299684 .16313172 .35299684 .10612488 .35299684 .03413391 .25898744 .03413391 .23699951 .03413391 .18598938 .03413391 .12098694 .0471344 .09199524 .13912964 .08699036 .15612793 .085998538 .15913391 .06498718 .15913391 .038986207 .15913391 .038986207 .15312195 .038986207 .12913513V.023132325C.038986207 .005126953 .038986207-.005859375 .05899048-.005859375 .06599426-.005859375 .067993167-.005859375 .08999634 .008132935L.116989139 .025131226C.1639862-.005859375 .21699524-.005859375 .23699951-.005859375 .2669983-.005859375 .4269867-.005859375 .4269867 .14012146 .4269867 .19113159 .397995 .22312927 .37998963 .23812866 .33499146 .27612306 .30299378 .28112794 .22399903 .29412843 .17599488 .30212403 .11299133 .31211854 .11299133 .3571167 .11299133 .41711427 .20599365 .41711427 .22799683 .41711427 .33999635 .41711427 .34399415 .35812379 .34599305 .33111573 .34700013 .3171234 .36099244 .3171234 .37098695 .3171234 .3959961 .3171234 .39698792 .3221283 .39698792 .3461151V.42411805Z"/>
<path id="font_3_5" d="M.06298828 .6516113C.13999939 .6516113 .14199829 .64060977 .14199829 .6036377V.07896423C.14199829 .041992189 .13999939 .0309906 .06298828 .0309906H.039993287V0H.4119873C.58499148 0 .72698977 .1479187 .72698977 .33580018 .72698977 .52568057 .58799746 .6826172 .4119873 .6826172H.039993287V.6516113H.06298828M.27799989 .0309906C.23098755 .0309906 .22898865 .037994386 .22898865 .07196045V.6106262C.22898865 .64460757 .23098755 .6516113 .27799989 .6516113H.3849945C.48199464 .6516113 .5419922 .6006317 .56900027 .56466677 .61299136 .5066986 .6279907 .43473817 .6279907 .33580018 .6279907 .29483033 .6279907 .18989563 .57299807 .11993408 .5209961 .051986696 .44898988 .0309906 .38598634 .0309906H.27799989Z"/>
<path id="font_3_11" d="M.3999939 .22949219C.42199708 .22949219 .4269867 .22949219 .4269867 .25048829 .4269867 .35333253 .37098695 .4482422 .24299622 .4482422 .12298584 .4482422 .0289917 .3443451 .0289917 .22047425 .0289917 .08932495 .13398743-.0107421879 .2559967-.0107421879 .37799073-.0107421879 .4269867 .096343997 .4269867 .11936951 .4269867 .12637329 .42199708 .13237 .41299439 .13237 .40299989 .13237 .3999939 .12536621 .39898683 .12136841 .36499024 .019256592 .27598573 .01725769 .26098634 .01725769 .21299744 .01725769 .17199707 .044281007 .14898682 .078323367 .115997318 .12736511 .114990238 .18743897 .114990238 .22949219H.3999939M.115997318 .253479C.125 .40725709 .21499634 .42323304 .24299622 .42323304 .2979889 .42323304 .35798646 .38130189 .35899354 .253479H.115997318Z"/>
<path id="font_3_15" d="M.18598938 .2592163C.18598938 .36732484 .2639923 .41737367 .32398988 .41737367 .3789978 .41737367 .39698792 .37834168 .39698792 .30825807V.077041629C.39698792 .0309906 .38598634 .0309906 .31999208 .0309906V0C.36698915 .0019989014 .38598634 .0029907227 .43399049 .0029907227 .48199464 .0029907227 .49499513 .0019989014 .5479889 0V.0309906C.48199464 .0309906 .47099305 .0309906 .47099305 .077041629V.2592163C.47099305 .36732484 .548996 .41737367 .60899356 .41737367 .6639862 .41737367 .6819916 .37834168 .6819916 .30825807V.077041629C.6819916 .0309906 .67099 .0309906 .6049957 .0309906V0C.6519928 .0019989014 .67099 .0029907227 .71899417 .0029907227 .7669983 .0029907227 .7799988 .0019989014 .83299258 0V.0309906C.7819977 .0309906 .7569885 .0309906 .7559967 .062026979V.25421144C.7559967 .34129334 .7559967 .36932374 .72299197 .4063568 .70199587 .43037416 .6619873 .4423828 .6159973 .4423828 .5439911 .4423828 .49499513 .4003601 .46699525 .3473053 .45498658 .4063568 .4149933 .4423828 .33099366 .4423828 .25099183 .4423828 .20199585 .39035035 .18099976 .34429933L.17999268 .34370423V.4416504L.034988405 .43066407V.3996582C.102996829 .3996582 .11199951 .39266969 .11199951 .34370423V.07695007C.11199951 .0309906 .100997928 .0309906 .034988405 .0309906V0C.08198547 .0019989014 .100997928 .0029907227 .14898682 .0029907227 .19699097 .0029907227 .20999146 .0019989014 .2630005 0V.0309906C.19699097 .0309906 .18598938 .0309906 .18598938 .07695007V.2592163Z"/>
<path id="font_3_17" d="M.48399354 .21324158C.48399354 .34423829 .37998963 .4482422 .25698854 .4482422 .12998963 .4482422 .0289917 .3412323 .0289917 .21324158 .0289917 .08824158 .1329956-.0107421879 .2559967-.0107421879 .3829956-.0107421879 .48399354 .09024048 .48399354 .21324158M.25698854 .01725769C.20698548 .01725769 .16499329 .042251588 .14199829 .08125305 .115997318 .12324524 .114990238 .17623902 .114990238 .22224427 .114990238 .25924684 .114990238 .3162384 .13999939 .35723878 .16999817 .40823365 .21998596 .42323304 .2559967 .42323304 .31298829 .42323304 .35398866 .39123536 .37399293 .35723878 .39698792 .31523133 .397995 .26423646 .397995 .22224427 .397995 .1852417 .397995 .12724304 .37298585 .08325195 .34498597 .037246705 .29899598 .01725769 .25698854 .01725769Z"/>
<path id="font_3_9" d="M.3639984 .39356996C.34298707 .3895874 .32299806 .3755951 .32299806 .34658814 .32299806 .32058717 .34298707 .30059815 .36898805 .30059815 .394989 .30059815 .41600038 .31759645 .41600038 .34858705 .41600038 .4103546 .34599305 .4482422 .2579956 .4482422 .12998963 .4482422 .033996583 .3415985 .033996583 .2164917 .033996583 .08734131 .13798523-.0107421879 .2559967-.0107421879 .394989-.0107421879 .4269867 .11036682 .4269867 .11936951 .4269867 .13139344 .41600038 .13139344 .41299439 .13139344 .4019928 .13139344 .4019928 .12937927 .3959961 .11236572 .37298585 .043289186 .31698609 .01725769 .2659912 .01725769 .20199585 .01725769 .11999512 .06932068 .11999512 .21749878 .11999512 .3735962 .19999695 .42022706 .2599945 .42022706 .272995 .42022706 .32699586 .41825868 .3639984 .39356996Z"/>
<path id="font_3_19" d="M.17799378 .22918701C.17799378 .27023316 .18899536 .41737367 .30299378 .41737367V.41636659C.30099488 .41537477 .2849884 .4033661 .2849884 .3793335 .2849884 .35231019 .30599977 .33529664 .32899476 .33529664 .34999085 .33529664 .37298585 .35031129 .37298585 .38034059 .37298585 .41236878 .34298707 .4423828 .2979889 .4423828 .23799134 .4423828 .19599915 .4003601 .17298889 .3383026H.17199707V.4416504L.02999878 .43066407V.3996582C.09799194 .3996582 .10699463 .39266969 .10699463 .34370423V.07695007C.10699463 .0309906 .09599304 .0309906 .02999878 .0309906V0C.08299255 .0019989014 .09599304 .0029907227 .14698792 .0029907227 .18699646 .0029907227 .21099854 .0019989014 .27398683 0V.0309906H.2539978C.18099976 .0309906 .17799378 .04197693 .17799378 .078948978V.22918701Z"/>
<path id="font_3_8" d="M.34199525 .07209778C.34700013 .030136109 .37599183-.005859375 .4189911-.005859375 .44400025-.005859375 .5069885 .009140015 .5069885 .08909607V.14505005H.47898866V.09008789C.47898866 .07910156 .47898866 .029129029 .44299317 .029129029 .40699769 .029129029 .40699769 .07710266 .40699769 .09307861V.2679596C.40699769 .3249359 .40699769 .3589325 .3619995 .40003968 .32499696 .43322755 .2769928 .4482422 .22698975 .4482422 .14299011 .4482422 .07299805 .4060974 .07299805 .3419342 .07299805 .3109436 .09399414 .2939453 .11999512 .2939453 .14698792 .2939453 .1659851 .31393434 .1659851 .3399353 .1659851 .38293458 .12199402 .38793946 .12098694 .38793946 .147995 .41415406 .19599915 .42323304 .22499085 .42323304 .27598573 .42323304 .33299256 .38493348 .33299256 .29693605V.2639618C.2789917 .2622223 .20399475 .25723268 .13699341 .22523499 .06498718 .19023133 .042999269 .13824463 .042999269 .098236087 .042999269 .01625061 .13999939-.0107421879 .20698548-.0107421879 .2899933-.010864258 .32798768 .044128419 .34199525 .07209778M.33299256 .14105225C.33299256 .044128419 .2579956 .014129639 .21398926 .014129639 .16699219 .014129639 .12298584 .04812622 .12298584 .098083499 .12298584 .16403198 .17999268 .23397827 .33299256 .23997498V.14105225Z"/>
<path id="font_3_21" d="M.32499696 .3996582V.43066407H.17999268V.6147156H.1519928C.15098572 .5307007 .115997318 .42765809 .018997193 .4246521V.3996582H.10598755V.12408447C.10598755 .012252808 .18699646-.0107421879 .23999024-.0107421879 .30699159-.0107421879 .34199525 .05319214 .34199525 .12408447V.18099976H.31399537V.1270752C.31399537 .05319214 .2829895 .01725769 .24699402 .01725769 .17999268 .01725769 .17999268 .1051178 .17999268 .12309265V.3996582H.32499696Z"/>
<path id="font_3_13" d="M.18399048 .4423828 .039993287 .43138124V.40037538C.10398865 .40037538 .11299133 .3943634 .11299133 .34532167V.077041629C.11299133 .0309906 .101989749 .0309906 .035995485 .0309906V0C.08099365 .0019989014 .101989749 .0029907227 .1459961 .0029907227 .1619873 .0029907227 .20399475 .0029907227 .25299073 0V.0309906C.18798828 .0309906 .18399048 .035995485 .18399048 .075042728V.4423828M.18699646 .615921C.18699646 .6459198 .16299439 .6699219 .1329956 .6699219 .101989749 .6699219 .07899475 .6449127 .07899475 .615921 .07899475 .58691409 .101989749 .56192019 .1329956 .56192019 .16299439 .56192019 .18699646 .585907 .18699646 .615921Z"/>
<path id="font_3_7" d="M.21499634 .6026001C.20999146 .61460879 .20999146 .62060549 .20999146 .62161257 .20999146 .6516113 .26098634 .6516113 .2899933 .6516113V.6826172C.24499512 .6796112 .19400025 .6796112 .147995 .6796112 .10598755 .6796112 .09098816 .680603 .019989014 .6826172V.6516113C.09298706 .6516113 .10398865 .6476135 .117996219 .61260989L.3600006-.00047302247C.3659973-.015472412 .36898805-.022460938 .3849945-.022460938 .40098573-.022460938 .4039917-.016464234 .40899659-.0024719239L.6409912 .58461C.6619873 .63760378 .7029877 .6516113 .75 .6516113V.6826172C.71499636 .6796112 .6859894 .6796112 .6519928 .6796112 .60899356 .6796112 .58898928 .680603 .5399933 .6826172V.6516113C.58898928 .65060427 .61099246 .62760928 .61099246 .6016083 .61099246 .5935974 .6100006 .5915985 .60598757 .581604L.4149933 .09654236 .21499634 .6026001Z"/>
<path id="font_3_4" d="M.40899659 .69480898C.4039917 .70780947 .40098573 .7158203 .3849945 .7158203 .36898805 .7158203 .36698915 .70980837 .36099244 .69381716L.1459961 .09989929C.13398743 .06694031 .11099243 .03199768 .033996583 .0309906V0C.07199097 .0029907227 .09899902 .0029907227 .13598633 .0029907227 .17098999 .0029907227 .19299317 .0019989014 .24899292 0V.0309906C.19198609 .03199768 .1749878 .06295776 .1749878 .08192444 .1749878 .090911868 .1769867 .09590149 .1789856 .10090637L.22599793 .22973633H.4850006L.5389862 .078933719C.54299929 .06893921 .5439911 .06594849 .5439911 .060958864 .5439911 .0309906 .48799134 .0309906 .46199037 .0309906V0C.5069885 .0029907227 .5589905 .0029907227 .6049957 .0029907227 .6499939 .0029907227 .6529999 .0029907227 .73599246 0V.0309906H.71899417C.6569977 .0309906 .6459961 .039978029 .6359863 .06794739L.40899659 .69480898M.47299195 .2607422H.23699951L.35499574 .5877991 .47299195 .2607422Z"/>
<path id="font_3_18" d="M.18099976 .3363495C.21499634 .3943634 .269989 .41436769 .31199647 .41436769 .3899994 .41436769 .44999696 .32434083 .44999696 .2163086 .44999696 .10227966 .38198854 .014251709 .30099488 .014251709 .2559967 .014251709 .21798706 .040252687 .19400025 .07527161 .18099976 .09527588 .18099976 .09727478 .18099976 .11628723V.3363495M.18099976 .04826355C.20698548 .022247315 .24099732-.0107421879 .30699159-.0107421879 .42599488-.0107421879 .5359955 .08526611 .5359955 .2163086 .5359955 .3423462 .43798829 .4423828 .31999208 .4423828 .2659912 .4423828 .21598816 .42037965 .17799378 .379364V.4416504L.02999878 .43066407V.3996582C.100997928 .3996582 .10699463 .3936615 .10699463 .35066224V-.11734009C.10699463-.16334534 .09599304-.16334534 .02999878-.16334534V-.19433594C.07699585-.19233704 .09599304-.19134522 .14399719-.19134522 .19198609-.19134522 .20498657-.19233704 .2579956-.19433594V-.16334534C.19198609-.16334534 .18099976-.16334534 .18099976-.11734009V.04826355Z"/>
<path id="font_3_22" d="M.17999268 .35472108C.1769867 .36071778 .1749878 .36671449 .1749878 .373703 .1749878 .3996582 .21099854 .3996582 .22999573 .3996582V.43066407C.18699646 .4286499 .1639862 .42765809 .11999512 .42765809 .084991458 .42765809 .055999757 .42765809 .019989014 .43066407V.3996582C.066986087 .3996582 .085998538 .3996582 .100997928 .36271668L.24699402 .008255005C.25299073-.007751465 .26098634-.0107421879 .269989-.0107421879 .2789917-.0107421879 .2869873-.008743286 .2939911 .008255005L.42999269 .3357544C.45098878 .38667298 .48599244 .39866639 .5209961 .3996582V.43066407C.4909973 .42765809 .44599916 .42765809 .44400025 .42765809 .41600038 .42765809 .3849945 .4286499 .35699464 .43066407V.3996582C.38598634 .3976593 .40299989 .38269044 .40299989 .35671998 .40299989 .34674073 .4019928 .34474183 .397995 .3337555L.2939911 .08213806 .17999268 .35472108Z"/>
<path id="font_3_10" d="M.3889923 .120285037C.3889923 .10227966 .3889923 .09927368 .37399293 .07827759 .34298707 .0332489 .29699708 .014251709 .25698854 .014251709 .21398926 .014251709 .17399597 .038253786 .147995 .08027649 .12199402 .123291019 .11999512 .18229676 .11999512 .21430969 .11999512 .26132203 .12599182 .3143463 .1519928 .35435487 .17399597 .3863678 .21499634 .41737367 .2679901 .41737367 .30999757 .41737367 .34999085 .39637757 .3769989 .35835267 .3889923 .3423462 .3889923 .34135438 .3889923 .32234193V.120285037M.3919983 .38336183C.3869934 .38937379 .34199525 .4423828 .2639923 .4423828 .14099121 .4423828 .033996583 .34436036 .033996583 .21531677 .033996583 .090270999 .13398743-.0107421879 .25299073-.0107421879 .32598878-.0107421879 .37098695 .03225708 .3889923 .053268434V-.011001587L.5399933 0V.0309906C.47200013 .0309906 .46299745 .037994386 .46299745 .087020877V.69433596L.31498719 .68333438V.6523285C.3829956 .6523285 .3919983 .6453247 .3919983 .5962982V.38336183Z"/>
<path id="font_3_3" d="M.21398926 .20495606C.21398926 .19795227 .21398926 .18894959 .22799683 .18894959 .24198914 .18894959 .24198914 .19595337 .24198914 .21395874V.24397278C.24198914 .34005738 .2939911 .41311646 .36898805 .46514894 .3999939 .48716737 .4269867 .51820376 .4269867 .5691986 .4269867 .6301727 .38398744 .7050781 .23199463 .7050781 .12098694 .7050781 .056991579 .6381531 .056991579 .5722046 .056991579 .5372009 .08099365 .5232086 .10398865 .5232086 .12998963 .5232086 .1499939 .5422058 .1499939 .5691986 .1499939 .5852051 .14199829 .61621096 .09799194 .61621096 .13198853 .67308047 .19999695 .68006899 .22999573 .68006899 .33999635 .68006899 .34098817 .6141968 .34098817 .5742035 .34098817 .51719668 .32299806 .4981842 .30599977 .48117066 .21398926 .38710023 .21398926 .27400209 .21398926 .23297119V.20495606M.28199769 .053985597C.28199769 .083999637 .2579956 .10798645 .22799683 .10798645 .19799805 .10798645 .17399597 .083999637 .17399597 .053985597 .17399597 .023986817 .19799805 0 .22799683 0 .2579956 0 .28199769 .023986817 .28199769 .053985597Z"/>
<path id="font_3_14" d="M.18399048 .69433596 .035995485 .68333438V.6523285C.10398865 .6523285 .11299133 .6453247 .11299133 .5962982V.07701111C.11299133 .0309906 .101989749 .0309906 .035995485 .0309906V0C.08299255 .0019989014 .101989749 .0029907227 .147995 .0029907227 .19499207 .0029907227 .21199036 .0019989014 .26098634 0V.0309906C.19499207 .0309906 .18399048 .0309906 .18399048 .07701111V.69433596Z"/>
<path id="font_3_23" d="M.18199158 .3526764C.17599488 .3666687 .17599488 .37167359 .17599488 .3736725 .17599488 .3996582 .20999146 .3996582 .23098755 .3996582V.43066407C.18199158 .4286499 .1619873 .42765809 .11999512 .42765809 .116989139 .42765809 .05999756 .42765809 .020996094 .43066407V.3996582C.06599426 .3996582 .084991458 .3976593 .09700012 .3706665L.25498963-.00012207031 .22999573-.05909729C.20799256-.112091068 .1789856-.18008423 .11399841-.18008423 .08898926-.18008423 .07199097-.16708374 .068984989-.16508484 .07699585-.16409302 .10499573-.15608216 .10499573-.12208557 .10499573-.096084598 .085998538-.080078128 .06298828-.080078128 .037994386-.080078128 .019989014-.096084598 .019989014-.12309265 .019989014-.16809082 .06199646-.20507813 .11399841-.20507813 .1789856-.20507813 .22200012-.14707947 .24598694-.09208679L.4269867 .33068849C.43798829 .3566742 .45599366 .3976593 .519989 .3996582V.43066407C.48799134 .42765809 .45700074 .42765809 .44400025 .42765809 .41600038 .42765809 .3849945 .4286499 .35699464 .43066407V.3996582C.40299989 .3976593 .40299989 .36167909 .40299989 .35768128 .40299989 .3466797 .39898683 .33668519 .394989 .32868959L.2939911 .09082031 .18199158 .3526764Z"/>
<path id="font_3_6" d="M.71398928 .6496124 .71499636 .64860537V.07896423C.71499636 .041992189 .71299746 .0309906 .6359863 .0309906H.61299136V0C.6729889 .0029907227 .73999026 .0029907227 .7549896 .0029907227 .7609863 .0029907227 .83499148 .0029907227 .897995 0V.0309906H.875C.7979889 .0309906 .79599 .041992189 .79599 .07896423V.6036377C.79599 .64060977 .7979889 .6516113 .875 .6516113H.897995V.6826172H.7299957C.70899966 .6826172 .70199587 .6826172 .69499209 .6646118L.47099305 .09794617 .24699402 .660614C.23899842 .680603 .23799134 .6826172 .21099854 .6826172H.042999269V.6516113H.06599426C.14299011 .6516113 .14498902 .64060977 .14498902 .6036377V.10594177C.14498902 .07896423 .14498902 .0309906 .042999269 .0309906V0C.09799194 .0019989014 .11199951 .0029907227 .16099549 .0029907227 .20899964 .0029907227 .22399903 .0019989014 .27799989 0V.0309906C.17599488 .0309906 .17599488 .07896423 .17599488 .10594177V.64060977L.1769867 .6416168 .4229889 .021987915C.42799378 .008987427 .43199159 0 .44400025 0 .45498658 0 .45999146 .008987427 .46398927 .017990113L.71398928 .6496124Z"/>
<path id="font_3_12" d="M.18299866 .69433596 .034988405 .68333438V.6523285C.102996829 .6523285 .11199951 .6453247 .11199951 .596344V.077041629C.11199951 .0309906 .100997928 .0309906 .034988405 .0309906V0C.08198547 .0019989014 .100997928 .0029907227 .14898682 .0029907227 .19699097 .0029907227 .20999146 .0019989014 .2630005 0V.0309906C.19699097 .0309906 .18598938 .0309906 .18598938 .077041629V.2592163C.18598938 .36532594 .26098634 .41737367 .32398988 .41737367 .3829956 .41737367 .3959961 .3683319 .3959961 .30825807V.077041629C.3959961 .0309906 .3849945 .0309906 .31900025 .0309906V0C.3659973 .0019989014 .3849945 .0029907227 .43299867 .0029907227 .48098756 .0029907227 .49398805 .0019989014 .5469971 0V.0309906C.49598695 .0309906 .47099305 .0309906 .46998597 .062026979V.25421144C.46998597 .33729554 .46998597 .36631776 .44198609 .40135194 .4189911 .42938233 .3809967 .4423828 .33099366 .4423828 .2639923 .4423828 .21499634 .4073639 .18399048 .3513031H.18299866V.69433596Z"/>
<path id="font_3_16" d="M.18598938 .2592163C.18598938 .36532594 .26098634 .41737367 .32398988 .41737367 .3829956 .41737367 .3959961 .3683319 .3959961 .30825807V.077041629C.3959961 .0309906 .3849945 .0309906 .31900025 .0309906V0C.3659973 .0019989014 .3849945 .0029907227 .43299867 .0029907227 .48098756 .0029907227 .49398805 .0019989014 .5469971 0V.0309906C.49598695 .0309906 .47099305 .0309906 .46998597 .062026979V.25421144C.46998597 .33729554 .46998597 .36631776 .44198609 .40135194 .4189911 .42938233 .3809967 .4423828 .33099366 .4423828 .23799134 .4423828 .19499207 .3733368 .18099976 .3453064H.17999268V.4416504L.034988405 .43066407V.3996582C.102996829 .3996582 .11199951 .39266969 .11199951 .34370423V.07695007C.11199951 .0309906 .100997928 .0309906 .034988405 .0309906V0C.08198547 .0019989014 .100997928 .0029907227 .14898682 .0029907227 .19699097 .0029907227 .20999146 .0019989014 .2630005 0V.0309906C.19699097 .0309906 .18598938 .0309906 .18598938 .07695007V.2592163Z"/>
<path id="font_3_20" d="M.34399415 .42222596C.34399415 .4392395 .34399415 .4482422 .33198548 .4482422 .32699586 .4482422 .32499696 .4482422 .31199647 .43623353 .30999757 .43423463 .30099488 .42523194 .29499818 .42022706 .2639923 .44223023 .23298645 .4482422 .19898987 .4482422 .066986087 .4482422 .033996583 .37522889 .033996583 .324234 .033996583 .29223634 .04798889 .26623536 .070999149 .24424744 .10499573 .21324158 .14299011 .2062378 .19400025 .1972351 .24499512 .1872406 .2619934 .18424988 .28399659 .16723633 .2939911 .15924073 .31900025 .14024353 .31900025 .102249149 .31900025 .014251709 .21798706 .014251709 .20399475 .014251709 .101989749 .014251709 .07598877 .099243167 .06399536 .15324402 .06098938 .16323853 .05999756 .16925049 .04798889 .16925049 .033996583 .16925049 .033996583 .16123963 .033996583 .14324951V.01524353C.033996583-.0017547608 .033996583-.0107421879 .04598999-.0107421879 .051986696-.0107421879 .052993776-.009750366 .070999149 .009246826 .07499695 .01524353 .085998538 .028244019 .09098816 .0332489 .1329956-.007751465 .1789856-.0107421879 .20399475-.0107421879 .32699586-.0107421879 .36999513 .06124878 .36999513 .12825012 .36999513 .17324829 .34999085 .20024109 .32798768 .22323609 .2939911 .25624085 .2579956 .26324464 .18399048 .27723695 .1579895 .28224183 .084991458 .2952423 .084991458 .3522339 .084991458 .38423158 .10798645 .426239 .19898987 .426239 .30699159 .426239 .31399537 .3432312 .31599427 .3182373 .31698609 .3062439 .31698609 .30023194 .32998658 .30023194 .34399415 .30023194 .34399415 .30723573 .34399415 .3262329V.42222596Z"/>
<path id="font_3_1" d="M.70599368 .22944641C.7200012 .22944641 .7409973 .22944641 .7409973 .25045777 .7409973 .27246095 .7220001 .27246095 .70599368 .27246095H.42099V.5578003C.42099 .573761 .42099 .59277346 .39898683 .59277346 .37799073 .59277346 .37799073 .57177737 .37799073 .5578003V.27246095H.09199524C.07798767 .27246095 .056991579 .27246095 .056991579 .25144959 .056991579 .22944641 .07598877 .22944641 .09199524 .22944641H.37799073V-.056793214C.37799073-.07279968 .37799073-.091796878 .3999939-.091796878 .42099-.091796878 .42099-.07080078 .42099-.056793214V.22944641H.70599368Z"/>
<path id="font_3_2" d="M.3039856 .6392822C.3039856 .6642761 .30299378 .666275 .27799989 .666275 .21598816 .60227969 .12399292 .60227969 .09298706 .60227969V.57128909C.11199951 .57128909 .17298889 .57128909 .22698975 .5972748V.08001709C.22698975 .042999269 .22399903 .0309906 .1309967 .0309906H.09899902V0C.1349945 .0029907227 .22399903 .0029907227 .2649994 .0029907227 .30599977 .0029907227 .3959961 .0029907227 .43199159 0V.0309906H.3999939C.30699159 .0309906 .3039856 .042999269 .3039856 .08001709V.6392822Z"/>
<path id="font_4_2" d="M.81199648 .56365969C.8509979 .6056366 .8999939 .6416168 .95700076 .64660647 .96699526 .6476135 .97898867 .64860537 .97898867 .6686096 .97898867 .6736145 .973999 .6826172 .96398928 .6826172 .94099429 .6826172 .9109955 .6786041 .8860016 .6786041 .85398867 .6786041 .81700137 .6826172 .7859955 .6826172 .7809906 .6826172 .7649994 .6826172 .7649994 .660614 .7649994 .6516113 .772995 .6476135 .7809906 .64660647 .7919922 .6456146 .80799868 .6436157 .80799868 .63061526 .80799868 .6236267 .8029938 .6116333 .7919922 .5986481 .7879944 .5956421 .7879944 .5936432 .7849884 .59065249 .7809906 .5856476 .7809906 .5836487 .7769928 .5796509L.5359955 .32281495 .41099549 .6136322C.40499879 .6256256 .40499879 .6276245 .40499879 .62861636 .40499879 .64660647 .44599916 .64660647 .45498658 .64660647 .46499635 .64660647 .47898866 .64660647 .47898866 .6686096 .47898866 .6726074 .47599793 .6826172 .46299745 .6826172 .4249878 .6826172 .3809967 .6786041 .34199525 .6786041 .30799867 .6786041 .269989 .6826172 .23799134 .6826172 .23298645 .6826172 .21798706 .6826172 .21798706 .66160586 .21798706 .64660647 .22898865 .64660647 .24499512 .64660647 .2919922 .64660647 .3019867 .63861086 .30999757 .6196289L.45899964 .2738495C.44699098 .22286988 .43598939 .1789093 .41600038 .10194397 .3999939 .037994386 .39898683 .036987306 .32798768 .035995485 .31199647 .035995485 .2999878 .035995485 .2999878 .01399231 .2999878 .009994507 .3019867 0 .31498719 0 .35198976 0 .3939972 .0039978029 .43199159 .0039978029 .47099305 .0039978029 .5139923 0 .5519867 0 .55799868 0 .57299807 0 .57299807 .021987915 .57299807 .035995485 .5609894 .035995485 .54299929 .035995485 .5130005 .035995485 .4869995 .035995485 .4869995 .050979616 .4869995 .0579834 .5 .107940677 .5069885 .1359253 .5119934 .15892029 .5339966 .24586487 .5369873 .25985719 .5399933 .2708435 .54100039 .2748413 .548996 .2828369L.81199648 .56365969Z"/>
<path id="font_4_3" d="M.2869873 .22851563C.32998658 .22851563 .5269928 .22851563 .5269928 .35343934 .5269928 .40740968 .47599793 .44140626 .4059906 .44140626 .2939911 .44140626 .1349945 .35144044 .1349945 .1754303 .1349945 .07029724 .19699097-.009765625 .30499269-.009765625 .46398927-.009765625 .54100039 .08432007 .54100039 .097335819 .54100039 .10534668 .5269928 .12136841 .5179901 .12136841 .5130005 .12136841 .5099945 .11836243 .5029907 .11035156 .44198609 .037246705 .35499574 .018234253 .30499269 .018234253 .23999024 .018234253 .21199036 .07330322 .21199036 .13638306 .21199036 .16741944 .21798706 .19847107 .22499085 .22851563H.2869873M.23298645 .2565155C.27799989 .4113922 .3939972 .4133911 .4059906 .4133911 .44799806 .4133911 .47898866 .39041139 .47898866 .3544464 .47898866 .2565155 .31900025 .2565155 .27999879 .2565155H.23298645Z"/>
<path id="font_4_5" d="M.42900086 .3720398C.42399598 .3700409 .397995 .35603334 .397995 .33003236 .397995 .31703187 .40499879 .30003358 .42999269 .30003358 .44198609 .30003358 .47399903 .30604554 .47399903 .35403443 .47399903 .418396 .4059906 .44140626 .34799195 .44140626 .20498657 .44140626 .17199707 .33303834 .17199707 .29405213 .17199707 .21322632 .25099183 .1982727 .28799439 .19128418 .33499146 .18229676 .3909912 .1723175 .3909912 .12136841 .3909912 .09437561 .3659973 .018234253 .24598694 .018234253 .21499634 .018234253 .15699768 .024246216 .13598633 .06738281 .17098999 .07637024 .1769867 .1053772 .1769867 .116378787 .1769867 .13537598 .16299439 .14936829 .14199829 .14936829 .114990238 .14936829 .08999634 .12937927 .08999634 .087371829 .08999634 .027252198 .1519928-.009765625 .24398804-.009765625 .4149933-.009765625 .45399476 .1113739 .45399476 .15635681 .45399476 .18629456 .44099427 .2142334 .4169922 .23518372 .3880005 .25912477 .36299134 .26411439 .30899049 .27409364 .2789917 .28009034 .23498535 .28807069 .23498535 .32904054 .23498535 .3470459 .2519989 .4133911 .34700013 .4133911 .36999513 .4133911 .41299439 .4083557 .42900086 .3720398Z"/>
<path id="font_4_1" d="M.82199099 .5716553C.83599856 .62861636 .8659973 .64460757 .9229889 .64660647 .9339905 .6476135 .94099429 .6536102 .94099429 .6686096 .94099429 .6776123 .93499758 .6826172 .9259949 .6826172 .894989 .6826172 .8580017 .6786041 .82598879 .6786041 .79299929 .6786041 .7559967 .6826172 .723999 .6826172 .71899417 .6826172 .7029877 .6826172 .7029877 .660614 .7029877 .6476135 .71699526 .64660647 .7220001 .64660647 .7739868 .64460757 .7819977 .6276245 .7819977 .6066437 .7819977 .6026459 .7819977 .59664919 .7779999 .58065798L.6669922 .1399231 .43998719 .6646118C.43199159 .6826172 .42900086 .6826172 .4079895 .6826172H.28599549C.2679901 .6826172 .25498963 .6826172 .25498963 .660614 .25498963 .64660647 .2679901 .64660647 .2849884 .64660647 .29100038 .64660647 .34399415 .64660647 .34399415 .63861086L.21199036 .107940677C.19599915 .04498291 .15299988 .037994386 .11199951 .035995485 .099990848 .034988405 .09399414 .0289917 .09399414 .01399231 .09399414 .0069885256 .09799194 0 .10798645 0 .13999939 0 .17599488 .0039978029 .20899964 .0039978029 .24198914 .0039978029 .2789917 0 .31098939 0 .31599427 0 .33099366 0 .33099366 .021987915 .33099366 .034988405 .31799317 .035995485 .31298829 .035995485 .269989 .036987306 .25299073 .048980714 .25299073 .07597351 .25299073 .083969119 .25498963 .094955448 .2559967 .09794617L.3809967 .5986481 .6339874 .015991211C.6409912 .0009918213 .6439972 0 .6589966 0 .67900088 0 .6799927 .0029907227 .6839905 .018997193L.82199099 .5716553Z"/>
<path id="font_4_4" d="M.57899478 .2693329C.57899478 .36637879 .5109863 .44140626 .4079895 .44140626 .2649994 .44140626 .12998963 .3023529 .12998963 .16229248 .12998963 .0602417 .20199585-.009765625 .30099488-.009765625 .44400025-.009765625 .57899478 .13027954 .57899478 .2693329M.3019867 .018234253C.27398683 .018234253 .20899964 .032226564 .20899964 .12828064 .20899964 .17228699 .22898865 .27734376 .2769928 .33937074 .31199647 .38638307 .36299134 .4133911 .40699769 .4133911 .44198609 .4133911 .5 .39239503 .5 .30334474 .5 .2693329 .4850006 .17329407 .44198609 .105270389 .41099549 .057250978 .35499574 .018234253 .3019867 .018234253Z"/>
<path id="font_5_4" d="M.2559967 .30978395H.43798829C.58299258 .30978395 .69699099 .39375306 .69699099 .4947052 .69699099 .5936432 .58499148 .6826172 .43798829 .6826172H.057998659V.64660647H.08198547C.15899658 .64660647 .16099549 .63661196 .16099549 .6016388V.080963138C.16099549 .04698181 .15899658 .035995485 .08198547 .035995485H.057998659V0C.10798645 .0019989014 .17199707 .0039978029 .20799256 .0039978029 .24499512 .0039978029 .30899049 .0019989014 .35899354 0V.035995485H.33499146C.2579956 .035995485 .2559967 .04598999 .2559967 .080963138V.30978395M.41299439 .64660647C.5799866 .64660647 .58999636 .5526581 .58999636 .4947052 .58999636 .45072938 .58999636 .34179688 .41299439 .34179688H.2519989V.6076355C.2519989 .63861086 .25299073 .64660647 .2999878 .64660647H.41299439Z"/>
<path id="font_5_10" d="M.44599916 .26823426C.44599916 .32154847 .44599916 .35954286 .3999939 .3965149 .35899354 .4302826 .31098939 .44628907 .2519989 .44628907 .15699768 .44628907 .08999634 .41036988 .08999634 .34954835 .08999634 .31755067 .11199951 .30055238 .13798523 .30055238 .16499329 .30055238 .18499756 .32054139 .18499756 .34754945 .18499756 .36454774 .1769867 .38554383 .1499939 .3935547 .18598938 .41827394 .24398804 .41827394 .25 .41827394 .30599977 .41827394 .36698915 .38154603 .36698915 .29751588V.2662201C.31199647 .2642212 .24598694 .26123048 .17298889 .23422241 .08299255 .20123291 .054992677 .14622498 .054992677 .10122681 .054992677 .0152282719 .15899658-.009765625 .22999573-.009765625 .30999757-.009765625 .35699464 .035232545 .37799073 .07423401 .38198854 .033233644 .40899659-.004776001 .45498658-.004776001 .45700074-.004776001 .55400088-.004776001 .55400088 .09022522V.14523316H.519989V.0912323C.519989 .081222537 .519989 .033233644 .48298646 .033233644 .44599916 .033233644 .44599916 .08023071 .44599916 .0932312V.26823426M.36698915 .1412201C.36698915 .04522705 .2829895 .018234253 .23799134 .018234253 .18699646 .018234253 .13899231 .052230836 .13899231 .10122681 .13899231 .15621948 .18699646 .23323059 .36698915 .24023438V.1412201Z"/>
<path id="font_5_20" d="M.19898987 .22819519C.19898987 .31228639 .23799134 .4133911 .33299256 .4133911 .32398988 .40638734 .31599427 .39337159 .31599427 .3773651 .31599427 .34432984 .34199525 .3313141 .36099244 .3313141 .3849945 .3313141 .40699769 .34732057 .40699769 .3773651 .40699769 .4113922 .375 .44140626 .32798768 .44140626 .27799989 .44140626 .22299195 .4104004 .19299317 .33432008H.19198609V.44140626L.04899597 .43040467V.39437867C.115997318 .39437867 .12399292 .38737489 .12399292 .33831788V.07904053C.12399292 .035995485 .11399841 .035995485 .04899597 .035995485V0C.053985597 0 .12199402 .0039978029 .16299439 .0039978029 .20599365 .0039978029 .25 .0019989014 .29299928 0V.035995485H.272995C.19898987 .035995485 .19898987 .04699707 .19898987 .08103943V.22819519Z"/>
<path id="font_5_17" d="M.82199099 .3032837C.82199099 .3903656 .7789917 .44140626 .6719971 .44140626 .59298709 .44140626 .5389862 .39837647 .5119934 .34832765 .49198915 .41940309 .43798829 .44140626 .36499024 .44140626 .2829895 .44140626 .22999573 .39637757 .20199585 .34432984H.20098877V.44140626L.053985597 .43040467V.39437867C.12098694 .39437867 .1289978 .38737489 .1289978 .33831788V.07904053C.1289978 .035995485 .11898804 .035995485 .053985597 .035995485V0C.055999757 0 .12599182 .0039978029 .16799927 .0039978029 .20498657 .0039978029 .27398683 .0009918213 .2829895 0V.035995485C.21798706 .035995485 .20799256 .035995485 .20799256 .07904053V.25923158C.20799256 .36434938 .29100038 .4133911 .35699464 .4133911 .4269867 .4133911 .43598939 .3583374 .43598939 .3072815V.07904053C.43598939 .035995485 .42599488 .035995485 .36099244 .035995485V0C.36299134 0 .43299867 .0039978029 .47499085 .0039978029 .5119934 .0039978029 .58099368 .0009918213 .58999636 0V.035995485C.5249939 .035995485 .5149994 .035995485 .5149994 .07904053V.25923158C.5149994 .36434938 .59799197 .4133911 .6639862 .4133911 .73399356 .4133911 .7429962 .3583374 .7429962 .3072815V.07904053C.7429962 .035995485 .73298647 .035995485 .66799929 .035995485V0C.66999819 0 .73999026 .0039978029 .7819977 .0039978029 .81900027 .0039978029 .8880005 .0009918213 .8969879 0V.035995485C.83200076 .035995485 .82199099 .035995485 .82199099 .07904053V.3032837Z"/>
<path id="font_5_14" d="M.43998719 .22851563C.46099855 .22851563 .46798707 .22851563 .46798707 .25050355 .46798707 .33839417 .4189911 .44628907 .269989 .44628907 .13899231 .44628907 .038986207 .34239198 .038986207 .21949768 .038986207 .092315677 .1499939-.009765625 .2829895-.009765625 .41799928-.009765625 .46798707 .09832764 .46798707 .12036133 .46798707 .12435913 .46598817 .13438416 .45098878 .13438416 .43798829 .13438416 .43598939 .12837219 .43299867 .11836243 .4019928 .037246705 .32598878 .022232056 .2899933 .022232056 .24299622 .022232056 .19799805 .043258668 .16799927 .08131409 .1309967 .12837219 .12998963 .18945313 .12998963 .22851563H.43998719M.1309967 .25450135C.14199829 .39530946 .23199463 .41827394 .269989 .41827394 .3929901 .41827394 .39698792 .27947999 .397995 .25450135H.1309967Z"/>
<path id="font_5_22" d="M.20098877 .39465333H.35699464V.43066407H.20098877V.6147156H.16699219C.1659851 .5246887 .125 .42565919 .0289917 .4226532V.39465333H.12199402V.1250763C.12199402 .01322937 .20599365-.009765625 .2619934-.009765625 .32899476-.009765625 .375 .047195436 .375 .12606812V.1809845H.34098817V.12705994C.34098817 .059173585 .30899049 .022232056 .269989 .022232056 .20098877 .022232056 .20098877 .10609436 .20098877 .124069217V.39465333Z"/>
<path id="font_6_1" d="M.19400025 .71099856C.19400025 .7259979 .19400025 .75 .16999817 .75 .14498902 .75 .14498902 .72698977 .14498902 .71099856V-.2110138C.14498902-.22601319 .14498902-.25 .16899109-.25 .19400025-.25 .19400025-.227005 .19400025-.2110138V.71099856Z"/>
<path id="font_5_3" d="M.2749939 .660614C.2659912 .6826172 .2579956 .6826172 .23699951 .6826172H.06199646V.64660647H.085998538C.16299439 .64660647 .16499329 .63661196 .16499329 .6016388V.107940677C.16499329 .080963138 .16499329 .035995485 .06199646 .035995485V0C.102996829 .0029907227 .14299011 .0039978029 .18399048 .0039978029 .22499085 .0039978029 .2649994 .0029907227 .30599977 0V.035995485C.20298767 .035995485 .20298767 .080963138 .20298767 .107940677V.63461306L.20399475 .6356201 .46398927 .022994996C.46899415 .010986328 .47399903 0 .4889984 0 .49598695 0 .5049896 .0029907227 .5130005 .020996094L.7769928 .6456146 .7779999 .64460757V.080963138C.7779999 .04698181 .776001 .035995485 .69898989 .035995485H.6749878V0C.72299197 .0019989014 .7789917 .0039978029 .81999209 .0039978029 .86099246 .0039978029 .9169922 .0019989014 .96499636 0V.035995485H.94099429C.8639984 .035995485 .8619995 .04598999 .8619995 .080963138V.6016388C.8619995 .6356201 .8639984 .64660647 .94099429 .64660647H.96499636V.6826172H.79100039C.7709961 .6826172 .7619934 .6826172 .7539978 .6626129L.5139923 .095962528 .2749939 .660614Z"/>
<path id="font_5_12" d="M.3889923 .39941407C.37098695 .3914032 .36099244 .375412 .36099244 .3554077 .36099244 .32839967 .37998963 .30841065 .4079895 .30841065 .43499757 .30841065 .45599366 .32540895 .45599366 .35740663 .45599366 .44628907 .31698609 .44628907 .2889862 .44628907 .13899231 .44628907 .04598999 .33140565 .04598999 .21635437 .04598999 .090270999 .15299988-.009765625 .28399659-.009765625 .43299867-.009765625 .46798707 .10827637 .46798707 .120285037 .46798707 .1322937 .45498658 .1322937 .45098878 .1322937 .43798829 .1322937 .43699647 .12928772 .43199159 .11528015 .4099884 .053253175 .35699464 .022232056 .29599 .022232056 .22698975 .022232056 .13699341 .07325745 .13699341 .21734619 .13699341 .34440614 .19898987 .41427613 .2919922 .41427613 .30499269 .41427613 .35299684 .41427613 .3889923 .39941407Z"/>
<path id="font_5_15" d="M.5149994 .3032837C.5149994 .3903656 .47200013 .44140626 .36499024 .44140626 .27598573 .44140626 .22698975 .3883667 .20498657 .35032655H.20399475V.69433596L.053985597 .68333438V.6473236C.12098694 .6473236 .1289978 .6403351 .1289978 .59135439V.07904053C.1289978 .035995485 .11898804 .035995485 .053985597 .035995485V0C.055999757 0 .12599182 .0039978029 .16799927 .0039978029 .20498657 .0039978029 .27398683 .0009918213 .2829895 0V.035995485C.21798706 .035995485 .20799256 .035995485 .20799256 .07904053V.25923158C.20799256 .36434938 .29100038 .4133911 .35699464 .4133911 .4269867 .4133911 .43598939 .3583374 .43598939 .3072815V.07904053C.43598939 .035995485 .42599488 .035995485 .36099244 .035995485V0C.36299134 0 .43299867 .0039978029 .47499085 .0039978029 .5119934 .0039978029 .58099368 .0009918213 .58999636 0V.035995485C.5249939 .035995485 .5149994 .035995485 .5149994 .07904053V.3032837Z"/>
<path id="font_5_18" d="M.5149994 .3032837C.5149994 .3903656 .47200013 .44140626 .36499024 .44140626 .2829895 .44140626 .22999573 .39637757 .20199585 .34432984H.20098877V.44140626L.053985597 .43040467V.39437867C.12098694 .39437867 .1289978 .38737489 .1289978 .33831788V.07904053C.1289978 .035995485 .11898804 .035995485 .053985597 .035995485V0C.055999757 0 .12599182 .0039978029 .16799927 .0039978029 .20498657 .0039978029 .27398683 .0009918213 .2829895 0V.035995485C.21798706 .035995485 .20799256 .035995485 .20799256 .07904053V.25923158C.20799256 .36434938 .29100038 .4133911 .35699464 .4133911 .4269867 .4133911 .43598939 .3583374 .43598939 .3072815V.07904053C.43598939 .035995485 .42599488 .035995485 .36099244 .035995485V0C.36299134 0 .43299867 .0039978029 .47499085 .0039978029 .5119934 .0039978029 .58099368 .0009918213 .58999636 0V.035995485C.5249939 .035995485 .5149994 .035995485 .5149994 .07904053V.3032837Z"/>
<path id="font_5_16" d="M.21099854 .6168213C.21099854 .645813 .18699646 .6738281 .15299988 .6738281 .12298584 .6738281 .09599304 .64982607 .09599304 .6168213 .09599304 .5808258 .125 .55882266 .15299988 .55882266 .18499756 .55882266 .21099854 .5838165 .21099854 .6168213M.05899048 .43040467V.39439393C.12199402 .39439393 .1309967 .38839723 .1309967 .3393402V.07904053C.1309967 .035995485 .12098694 .035995485 .055999757 .035995485V0C.057998659 0 .12799073 .0039978029 .16799927 .0039978029 .20298767 .0039978029 .23899842 .0029907227 .27398683 0V.035995485C.21598816 .035995485 .20599365 .035995485 .20599365 .07803345V.44140626L.05899048 .43040467Z"/>
<path id="font_5_1" d="M.74398806 .677124C.74398806 .6941223 .74398806 .703125 .7299957 .703125 .7259979 .703125 .72099307 .703125 .71299746 .69111636L.6599884 .6151428C.6179962 .65711978 .548996 .703125 .45298768 .703125 .24299622 .703125 .069992069 .5411835 .069992069 .34228517 .069992069 .13938904 .24598694-.01953125 .45298768-.01953125 .6299896-.01953125 .74398806 .1124115 .74398806 .23434448 .74398806 .24534607 .7429962 .25334168 .72698977 .25334168 .72099307 .25334168 .71099856 .25334168 .70999148 .24034119 .70199587 .079422 .56599429 .016464234 .46699525 .016464234 .3600006 .016464234 .1769867 .0814209 .1769867 .34129334 .1769867 .61213687 .37098695 .66711428 .46499635 .66711428 .56399539 .66711428 .6819916 .6011505 .70799258 .429245 .70999148 .4172516 .71899417 .4172516 .7259979 .4172516 .74398806 .4172516 .74398806 .4232483 .74398806 .4432373V.677124Z"/>
<path id="font_5_23" d="M.36099244 .43040467V.39439393C.42799378 .39439393 .43598939 .3874054 .43598939 .3383789V.16729737C.43598939 .07925415 .3789978 .018234253 .30299378 .018234253 .21199036 .018234253 .20799256 .06124878 .20799256 .11227417V.44140626L.053985597 .43040467V.39439393C.1289978 .39439393 .1289978 .3914032 .1289978 .3023529V.15228272C.1289978 .08325195 .1289978-.009765625 .29599-.009765625 .31799317-.009765625 .3909912-.009765625 .43899537 .07424927H.43998719V-.009765625L.58999636 .00022888184V.036239625C.522995 .036239625 .5149994 .04324341 .5149994 .09225464V.44140626L.36099244 .43040467Z"/>
<path id="font_5_21" d="M.3789978 .4202881C.3789978 .43728639 .3789978 .44628907 .36499024 .44628907 .3600006 .44628907 .35798646 .44628907 .34498597 .4342804 .34298707 .43328858 .33299256 .4242859 .32699586 .419281 .29699708 .4402771 .25898744 .44628907 .22200012 .44628907 .07899475 .44628907 .04499817 .37127687 .04499817 .3212738 .04499817 .28926087 .05899048 .2632599 .08299255 .24325562 .12098694 .21025086 .15899658 .20324707 .22099304 .19325257 .2709961 .18424988 .35198976 .17024231 .35198976 .10324097 .35198976 .0642395 .32499696 .018234253 .22898865 .018234253 .1329956 .018234253 .09799194 .08123779 .07998657 .14924622 .07699585 .1622467 .07598877 .1662445 .06199646 .1662445 .04499817 .1662445 .04499817 .15924073 .04499817 .13923645V.016220093C.04499817-.00077819827 .04499817-.009765625 .05899048-.009765625 .067993167-.009765625 .08699036 .011230469 .10699463 .033233644 .15098572-.0077667238 .20498657-.009765625 .22898865-.009765625 .35899354-.009765625 .40699769 .06022644 .40699769 .13124085 .40699769 .16925049 .3899994 .19924927 .3639984 .22325135 .32598878 .258255 .27999879 .26626588 .24499512 .27226258 .16499329 .28627015 .099990848 .29826356 .099990848 .35127259 .099990848 .38327027 .1269989 .422287 .22200012 .422287 .33799745 .422287 .34298707 .34127809 .34498597 .31227113 .34599305 .30126954 .35798646 .30126954 .3619995 .30126954 .3789978 .30126954 .3789978 .30827333 .3789978 .3272705V.4202881Z"/>
<path id="font_5_19" d="M.5289917 .21325684C.5289917 .3382721 .42199708 .44628907 .28399659 .44628907 .1459961 .44628907 .038986207 .3382721 .038986207 .21325684 .038986207 .0892334 .14898682-.009765625 .28399659-.009765625 .4189911-.009765625 .5289917 .0892334 .5289917 .21325684M.28399659 .022232056C.24699402 .022232056 .19299317 .034225465 .1599884 .083236698 .1329956 .12423706 .12998963 .17625427 .12998963 .22225952 .12998963 .2652588 .1309967 .32426454 .1659851 .36727906 .19099427 .39627076 .23298645 .41827394 .28399659 .41827394 .34298707 .41827394 .3849945 .39027406 .40699769 .3592682 .43499757 .32026673 .43798829 .27026368 .43798829 .22225952 .43798829 .17424011 .43499757 .12124634 .4059906 .08023071 .3789978 .042236329 .33299256 .022232056 .28399659 .022232056Z"/>
<path id="font_5_8" d="M.7449951 .6756134H.068984989L.04798889 .4457245H.08198547C.09599304 .6186218 .125 .63960269 .2789917 .63960269 .29899598 .63960269 .32798768 .63960269 .33799745 .63861086 .3600006 .63461306 .3600006 .62361147 .3600006 .6006317V.081970218C.3600006 .048980714 .3600006 .035995485 .2559967 .035995485H.21398926V0C.2630005 .0039978029 .35598756 .0039978029 .4079895 .0039978029 .45999146 .0039978029 .5519867 .0039978029 .6009979 0V.035995485H.5589905C.45498658 .035995485 .45498658 .048980714 .45498658 .081970218V.6006317C.45498658 .62361147 .45498658 .63461306 .47698976 .63861086 .4869995 .63960269 .5159912 .63960269 .5359955 .63960269 .59199526 .63960269 .6349945 .63960269 .66999819 .61961367 .71499636 .5926361 .7220001 .52867129 .72299197 .52368167L.7319946 .4457245H.7659912L.7449951 .6756134Z"/>
<path id="font_5_24" d="M.33898927 .22381592C.33799745 .224823 .33099366 .23280335 .33099366 .23381043 .33099366 .23680115 .39698792 .30773927 .4059906 .31672669 .44099427 .35569764 .47599793 .3936615 .5549927 .39465333V.43066407C.5269928 .4286499 .49798585 .426651 .47099305 .426651 .44099427 .426651 .4019928 .42765809 .37199403 .43066407V.39465333C.3889923 .3916626 .3919983 .38067628 .3919983 .37167359 .3919983 .36967469 .3919983 .35469056 .3769989 .33770753L.30699159 .25878907 .22399903 .35369874C.21398926 .36468507 .21299744 .36967469 .21299744 .3736725 .21299744 .38865663 .22698975 .39465333 .23999024 .39465333V.43066407C.20298767 .42765809 .16499329 .426651 .12799073 .426651 .09799194 .426651 .05999756 .42765809 .0309906 .43066407V.39465333C.07699585 .39465333 .102996829 .39465333 .1289978 .36468507L.2539978 .2208252C.25498963 .21981812 .2619934 .21182251 .2619934 .21083069 .2619934 .2078247 .18699646 .12591553 .1769867 .11491394 .13999939 .07495117 .10598755 .037994386 .025985718 .035995485V0C.055999757 .0019989014 .07798767 .0039978029 .10899353 .0039978029 .13899231 .0039978029 .1789856 .0029907227 .20899964 0V.035995485C.19699097 .037994386 .18899536 .04498291 .18899536 .05897522 .18899536 .07795715 .19999695 .09094238 .21598816 .107925418L.28599549 .18486023 .37298585 .08595276C.3919983 .064971927 .3919983 .06297302 .3919983 .05697632 .3919983 .036987306 .36898805 .035995485 .36499024 .035995485V0C.37399293 .0009918213 .44599916 .0039978029 .47799684 .0039978029 .5099945 .0039978029 .5419922 .0029907227 .57398989 0V.035995485C.5069885 .035995485 .49899293 .041992189 .47599793 .06796265L.33898927 .22381592Z"/>
<path id="font_5_6" d="M.5019989 .34111024C.59199526 .36210633 .6819916 .42100526 .6819916 .5018616 .6819916 .6016846 .5499878 .6826172 .394989 .6826172H.057998659V.64660647H.08198547C.15899658 .64660647 .16099549 .6366272 .16099549 .6016846V.08100891C.16099549 .04699707 .15899658 .035995485 .08198547 .035995485H.057998659V0C.05899048 0 .16499329 .0039978029 .20599365 .0039978029 .24798584 .0039978029 .30499269 .0019989014 .35499574 0V.035995485H.33099366C.2539978 .035995485 .2519989 .04598999 .2519989 .08100891V.328125H.3849945C.40299989 .328125 .45498658 .328125 .49899293 .28715516 .5339966 .25619508 .5339966 .23121643 .5339966 .16429138 .5339966 .099365238 .5339966 .058410646 .5799866 .020446778 .6230011-.014541626 .6819916-.01953125 .70999148-.01953125 .79499819-.01953125 .81700137 .061401369 .81700137 .09136963 .81700137 .098358158 .81700137 .11035156 .7999878 .11035156 .7849884 .11035156 .7839966 .101364139 .7829895 .09136963 .7779999 .033432008 .7449951 .008468628 .71398928 .008468628 .6569977 .008468628 .6489868 .06739807 .6369934 .15829468 .6259918 .23822022 .6230011 .25419618 .59399417 .28715516 .58399966 .29811097 .55599978 .32411195 .5019989 .34111024M.38198854 .35612489H.2519989V.6076813C.2519989 .6356354 .25299073 .6426239 .2789917 .6456146 .2869873 .64660647 .32099916 .64660647 .34199525 .64660647 .43798829 .64660647 .57499697 .64660647 .57499697 .5018616 .57499697 .39006043 .48799134 .35612489 .38198854 .35612489Z"/>
<path id="font_5_13" d="M.35598756 .68333438V.6473236C.4229889 .6473236 .43099977 .6403351 .43099977 .59135439V.38438417C.3939972 .4203949 .34599305 .44140626 .29100038 .44140626 .1579895 .44140626 .04598999 .34136964 .04598999 .21531677 .04598999 .09025574 .1519928-.009765625 .2789917-.009765625 .36099244-.009765625 .4099884 .034240724 .4269867 .052246095V-.009765625L.58099368 .00022888184V.036239625C.5139923 .036239625 .5059967 .04324341 .5059967 .09225464V.69433596L.35598756 .68333438M.4269867 .105270389C.40098573 .058242799 .34999085 .018234253 .2849884 .018234253 .22898865 .018234253 .18899536 .051239015 .16899109 .08026123 .14898682 .11026001 .13699341 .15028382 .13699341 .21430969 .13699341 .23731995 .13699341 .3123474 .17799378 .359375 .21798706 .40438844 .2669983 .4133911 .29599 .4133911 .34399415 .4133911 .3869934 .39138795 .4149933 .3553772 .4269867 .33937074 .4269867 .33836366 .4269867 .3193512V.105270389Z"/>
<path id="font_5_11" d="M.19898987 .69433596 .04899597 .68333438V.6473236C.116989139 .6473236 .12399292 .639328 .12399292 .58935549V.00022888184H.1579895L.19299317 .06124878C.23098755 .011230469 .28599549-.009765625 .33898927-.009765625 .47099305-.009765625 .58399966 .089263919 .58399966 .2163086 .58399966 .33836366 .48098756 .44140626 .34999085 .44140626 .2899933 .44140626 .23498535 .41740418 .19898987 .38137818V.69433596M.20298767 .33535768C.23098755 .38137818 .2849884 .4133911 .34498597 .4133911 .40098573 .4133911 .44099427 .38137818 .46099855 .35136415 .48098756 .32235719 .49299623 .28334046 .49299623 .21731568 .49299623 .19430542 .49299623 .119277957 .45199586 .072250369 .4119873 .027236939 .36299134 .018234253 .33399964 .018234253 .2539978 .018234253 .21398926 .08125305 .20298767 .102264408V.33535768Z"/>
<path id="font_5_2" d="M.2539978 .600647C.2539978 .63461306 .2539978 .64660647 .33599855 .64660647H.3619995V.6826172C.35398866 .6826172 .24598694 .6786041 .20698548 .6786041 .16699219 .6786041 .056991579 .6826172 .050994874 .6826172V.64660647H.07699585C.15899658 .64660647 .15899658 .63461306 .15899658 .600647V.081970218C.15899658 .04798889 .15899658 .035995485 .07699585 .035995485H.050994874V0C.05899048 0 .16699219 .0039978029 .20599365 .0039978029 .24598694 .0039978029 .35598756 0 .3619995 0V.035995485H.33599855C.2539978 .035995485 .2539978 .04798889 .2539978 .081970218V.600647Z"/>
<path id="font_5_5" d="M.58200076 .009460449C.70799258 .059417726 .80599978 .18634033 .80599978 .3382721 .80599978 .5381775 .6419983 .703125 .43798829 .703125 .23298645 .703125 .069992069 .5381775 .069992069 .3382721 .069992069 .1423645 .23298645-.01953125 .43798829-.01953125 .44999696-.01953125 .48999024-.01953125 .5399933-.0055389406 .5629883-.1063385 .58399966-.19433594 .6769867-.19433594 .7819977-.19433594 .81199648-.07014465 .81199648-.007537842 .81199648 .00045776368 .81199648 .014465332 .7979889 .014465332 .7859955 .014465332 .7849884 .0034637452 .7839966-.0045318605 .7769928-.064071658 .72499087-.08734131 .6859894-.08734131 .6329956-.08734131 .60798647-.04585266 .58200076 .009460449M.35798646 .026443482C.269989 .056427003 .17298889 .14735413 .17298889 .33927918 .17298889 .5731659 .31498719 .67111209 .43798829 .67111209 .5609894 .67111209 .7029877 .5731659 .7029877 .33927918 .7029877 .16235352 .62098696 .08039856 .5629883 .047424318 .5379944 .09738159 .5039978 .15136719 .43899537 .15136719 .3869934 .15136719 .34700013 .1133728 .34700013 .06640625 .34700013 .0524292 .35099793 .03744507 .35798646 .026443482M.5299988 .030441285C.5130005 .023452759 .47799684 .012466431 .43798829 .012466431 .3849945 .012466431 .375 .05142212 .375 .06741333 .375 .09638977 .40098573 .12335205 .43899537 .12335205 .48999024 .12335205 .5139923 .08639526 .5299988 .030441285Z"/>
<path id="font_5_7" d="M.24899292 .4172516C.16099549 .4372406 .13398743 .5002136 .13398743 .54219058 .13398743 .6081543 .19499207 .67111209 .28599549 .67111209 .42099 .67111209 .47898866 .5811615 .49499513 .4762268 .49699403 .46122743 .49798585 .4562378 .5130005 .4562378 .5299988 .4562378 .5299988 .46322633 .5299988 .4822235V.677124C.5299988 .6941223 .5299988 .703125 .5159912 .703125 .5079956 .703125 .5059967 .700119 .49899293 .68911746L.46299745 .6331482C.39698792 .700119 .31399537 .703125 .28599549 .703125 .1599884 .703125 .069992069 .6131439 .069992069 .51220706 .069992069 .4562378 .09498596 .41325379 .1309967 .37927247 .17098999 .34028626 .20399475 .33329774 .31199647 .3093109 .40299989 .2893219 .4229889 .2853241 .45199586 .25733949 .47499085 .23434448 .49598695 .20236206 .49598695 .15739441 .49598695 .0874176 .43798829 .016464234 .34199525 .016464234 .24499512 .016464234 .11099243 .05444336 .10398865 .20536804 .102996829 .22135926 .102996829 .22735596 .08699036 .22735596 .069992069 .22735596 .069992069 .22035218 .069992069 .20036316V.006454468C.069992069-.010543823 .069992069-.01953125 .083999637-.01953125 .09199524-.01953125 .09399414-.016540528 .099990848-.007537842 .10899353 .0044555666 .1289978 .036453248 .13699341 .049438478 .19999695-.0055389406 .2769928-.01953125 .34199525-.01953125 .47399903-.01953125 .55999758 .079422 .55999758 .18537903 .55999758 .2753296 .49699403 .36027528 .39698792 .38327027L.24899292 .4172516Z"/>
<path id="font_5_25" d="M.44099427 .3956604C.44799806 .4046631 .44999696 .4076538 .44999696 .4146576 .44999696 .43066407 .43798829 .43066407 .42199708 .43066407H.06599426L.053985597 .2637787H.08799744C.09498596 .36868287 .117996219 .40264894 .23199463 .40264894H.34999085L.04798889 .037994386C.038986207 .026992798 .038986207 .022994996 .038986207 .017990113 .038986207 0 .04899597 0 .066986087 0H.43499757L.45298768 .19384766H.4189911C.40899659 .07695007 .3880005 .03199768 .2630005 .03199768H.13999939L.44099427 .3956604Z"/>
<path id="font_5_9" d="M.69799807 .5806885C.71099856 .61164858 .7350006 .6456146 .8109894 .64660647V.6826172C.7819977 .6796112 .7429962 .6786041 .71398928 .6786041 .673996 .6786041 .59999087 .6826172 .59399417 .6826172V.64660647C.6309967 .64660647 .6629944 .6306305 .6629944 .5996704 .6629944 .5926819 .6609955 .58569338 .6579895 .5786896L.45098878 .096328739 .23498535 .60266116C.22898865 .61465457 .22898865 .6166382 .22898865 .61964419 .22898865 .64660647 .2809906 .64660647 .30799867 .64660647V.6826172C.2579956 .680603 .19400025 .6786041 .15899658 .6786041 .10899353 .6786041 .033996583 .6826172 .0309906 .6826172V.64660647H.04798889C.101989749 .64660647 .11898804 .6416168 .13198853 .61065676L.3919983 .0034637452C.39898683-.012542725 .4019928-.01953125 .42099-.01953125 .43099977-.01953125 .44099427-.01953125 .44999696 .0014648438L.69799807 .5806885Z"/>
</defs>
<path transform="matrix(1,0,0,-1,37.625,89.175998)" d="M32.44467 11.91345H-32.44467C-34.09538 11.91345-35.4335 10.57532-35.4335 8.92462V-8.92462C-35.4335-10.57532-34.09538-11.91345-32.44467-11.91345H32.44467C34.09538-11.91345 35.4335-10.57532 35.4335-8.92462V8.92462C35.4335 10.57532 34.09538 11.91345 32.44467 11.91345ZM-35.4335-11.91345" fill="#e6e6ff"/>
<path transform="matrix(1,0,0,-1,37.625,89.175998)" stroke-width=".3985" stroke-linecap="butt" stroke-miterlimit="10" stroke-linejoin="miter" fill="none" stroke="#0000b3" d="M32.44467 11.91345H-32.44467C-34.09538 11.91345-35.4335 10.57532-35.4335 8.92462V-8.92462C-35.4335-10.57532-34.09538-11.91345-32.44467-11.91345H32.44467C34.09538-11.91345 35.4335-10.57532 35.4335-8.92462V8.92462C35.4335 10.57532 34.09538 11.91345 32.44467 11.91345ZM-35.4335-11.91345"/>
<use data-text="O" xlink:href="#font_1_2" transform="matrix(8.9664,0,0,-8.9664,6.549999,86.81)"/>
<use data-text="b" xlink:href="#font_1_6" transform="matrix(8.9664,0,0,-8.9664,14.52113,86.81)"/>
<use data-text="j" xlink:href="#font_1_11" transform="matrix(8.9664,0,0,-8.9664,21.003838,86.81)"/>
<use data-text="e" xlink:href="#font_1_9" transform="matrix(8.9664,0,0,-8.9664,24.249672,86.81)"/>
<use data-text="c" xlink:href="#font_1_7" transform="matrix(8.9664,0,0,-8.9664,29.118428,86.81)"/>
<use data-text="t" xlink:href="#font_1_17" transform="matrix(8.9664,0,0,-8.9664,33.834756,86.81)"/>
<use data-text="G" xlink:href="#font_1_1" transform="matrix(8.9664,0,0,-8.9664,41.492059,86.81)"/>
<use data-text="a" xlink:href="#font_1_5" transform="matrix(8.9664,0,0,-8.9664,49.83081,86.81)"/>
<use data-text="m" xlink:href="#font_1_12" transform="matrix(8.9664,0,0,-8.9664,54.986494,86.81)"/>
<use data-text="e" xlink:href="#font_1_9" transform="matrix(8.9664,0,0,-8.9664,63.827363,86.81)"/>
<use data-text="R" xlink:href="#font_1_4" transform="matrix(8.9664,0,0,-8.9664,18.723,97.769)"/>
<use data-text="o" xlink:href="#font_1_14" transform="matrix(8.9664,0,0,-8.9664,26.676198,97.769)"/>
<use data-text="u" xlink:href="#font_1_18" transform="matrix(8.9664,0,0,-8.9664,31.984307,97.769)"/>
<use data-text="n" xlink:href="#font_1_13" transform="matrix(8.9664,0,0,-8.9664,37.875234,97.769)"/>
<use data-text="d" xlink:href="#font_1_8" transform="matrix(8.9664,0,0,-8.9664,43.76616,97.769)"/>
<use data-text="t" xlink:href="#font_2_1" transform="matrix(8.9664,0,0,-8.9664,53.199,97.769)"/>
<path transform="matrix(1,0,0,-1,37.625,89.175998)" d="M160.40386 11.87608H95.51448C93.86377 11.87608 92.52565 10.53796 92.52565 8.88725V-8.88725C92.52565-10.53796 93.86377-11.87608 95.51448-11.87608H160.40386C162.05455-11.87608 163.39269-10.53796 163.39269-8.88725V8.88725C163.39269 10.53796 162.05455 11.87608 160.40386 11.87608ZM92.52565-11.87608" fill="#e6e6ff"/>
<path transform="matrix(1,0,0,-1,37.625,89.175998)" stroke-width=".3985" stroke-linecap="butt" stroke-miterlimit="10" stroke-linejoin="miter" fill="none" stroke="#0000b3" d="M160.40386 11.87608H95.51448C93.86377 11.87608 92.52565 10.53796 92.52565 8.88725V-8.88725C92.52565-10.53796 93.86377-11.87608 95.51448-11.87608H160.40386C162.05455-11.87608 163.39269-10.53796 163.39269-8.88725V8.88725C163.39269 10.53796 162.05455 11.87608 160.40386 11.87608ZM92.52565-11.87608"/>
<use data-text="G" xlink:href="#font_1_1" transform="matrix(8.9664,0,0,-8.9664,138.368,86.771999)"/>
<use data-text="o" xlink:href="#font_1_14" transform="matrix(8.9664,0,0,-8.9664,146.70676,86.771999)"/>
<use data-text="v" xlink:href="#font_1_19" transform="matrix(8.9664,0,0,-8.9664,151.71897,86.771999)"/>
<use data-text="e" xlink:href="#font_1_9" transform="matrix(8.9664,0,0,-8.9664,157.02707,86.771999)"/>
<use data-text="r" xlink:href="#font_1_15" transform="matrix(8.9664,0,0,-8.9664,161.89583,86.771999)"/>
<use data-text="n" xlink:href="#font_1_13" transform="matrix(8.9664,0,0,-8.9664,166.27144,86.771999)"/>
<use data-text="a" xlink:href="#font_1_5" transform="matrix(8.9664,0,0,-8.9664,172.16237,86.771999)"/>
<use data-text="n" xlink:href="#font_1_13" transform="matrix(8.9664,0,0,-8.9664,177.31806,86.771999)"/>
<use data-text="c" xlink:href="#font_1_7" transform="matrix(8.9664,0,0,-8.9664,183.20899,86.771999)"/>
<use data-text="e" xlink:href="#font_1_9" transform="matrix(8.9664,0,0,-8.9664,187.92531,86.771999)"/>
<use data-text="P" xlink:href="#font_1_3" transform="matrix(8.9664,0,0,-8.9664,151.907,97.730998)"/>
<use data-text="h" xlink:href="#font_1_10" transform="matrix(8.9664,0,0,-8.9664,159.15186,97.730998)"/>
<use data-text="a" xlink:href="#font_1_5" transform="matrix(8.9664,0,0,-8.9664,165.04279,97.730998)"/>
<use data-text="s" xlink:href="#font_1_16" transform="matrix(8.9664,0,0,-8.9664,170.19847,97.730998)"/>
<use data-text="e" xlink:href="#font_1_9" transform="matrix(8.9664,0,0,-8.9664,174.38578,97.730998)"/>
<path transform="matrix(1,0,0,-1,37.625,89.175998)" d="M280.85517 11.86362H222.47737C221.3769 11.86362 220.48482 10.97153 220.48482 9.87106V-9.87106C220.48482-10.97153 221.3769-11.86362 222.47737-11.86362H280.85517C281.95564-11.86362 282.84773-10.97153 282.84773-9.87106V9.87106C282.84773 10.97153 281.95564 11.86362 280.85517 11.86362ZM220.48482-11.86362" fill="#ebffeb"/>
<path transform="matrix(1,0,0,-1,37.625,89.175998)" stroke-width=".3985" stroke-linecap="butt" stroke-miterlimit="10" stroke-linejoin="miter" fill="none" stroke="#009900" d="M280.85517 11.86362H222.47737C221.3769 11.86362 220.48482 10.97153 220.48482 9.87106V-9.87106C220.48482-10.97153 221.3769-11.86362 222.47737-11.86362H280.85517C281.95564-11.86362 282.84773-10.97153 282.84773-9.87106V9.87106C282.84773 10.97153 281.95564 11.86362 280.85517 11.86362ZM220.48482-11.86362"/>
<use data-text="D" xlink:href="#font_3_5" transform="matrix(8.9664,0,0,-8.9664,266.174,86.759998)"/>
<use data-text="e" xlink:href="#font_3_11" transform="matrix(8.9664,0,0,-8.9664,273.21266,86.759998)"/>
<use data-text="m" xlink:href="#font_3_15" transform="matrix(8.9664,0,0,-8.9664,277.3103,86.759998)"/>
<use data-text="o" xlink:href="#font_3_17" transform="matrix(8.9664,0,0,-8.9664,284.9945,86.759998)"/>
<use data-text="c" xlink:href="#font_3_9" transform="matrix(8.9664,0,0,-8.9664,289.8543,86.759998)"/>
<use data-text="r" xlink:href="#font_3_19" transform="matrix(8.9664,0,0,-8.9664,293.95198,86.759998)"/>
<use data-text="a" xlink:href="#font_3_8" transform="matrix(8.9664,0,0,-8.9664,297.55647,86.759998)"/>
<use data-text="t" xlink:href="#font_3_21" transform="matrix(8.9664,0,0,-8.9664,302.1652,86.759998)"/>
<use data-text="i" xlink:href="#font_3_13" transform="matrix(8.9664,0,0,-8.9664,305.75175,86.759998)"/>
<use data-text="c" xlink:href="#font_3_9" transform="matrix(8.9664,0,0,-8.9664,308.31614,86.759998)"/>
<use data-text="V" xlink:href="#font_3_7" transform="matrix(8.9664,0,0,-8.9664,280.071,97.718997)"/>
<use data-text="o" xlink:href="#font_3_17" transform="matrix(8.9664,0,0,-8.9664,286.21299,97.718997)"/>
<use data-text="t" xlink:href="#font_3_21" transform="matrix(8.9664,0,0,-8.9664,290.82173,97.718997)"/>
<use data-text="e" xlink:href="#font_3_11" transform="matrix(8.9664,0,0,-8.9664,294.40827,97.718997)"/>
<path transform="matrix(1,0,0,-1,37.625,89.175998)" d="M419.0056 0 379.51399 19.70453 340.02238 0 379.51399-19.70453Z" fill="#fff2e6"/>
<path transform="matrix(1,0,0,-1,37.625,89.175998)" stroke-width=".3985" stroke-linecap="butt" stroke-miterlimit="10" stroke-linejoin="miter" fill="none" stroke="#b35900" d="M419.0056 0 379.51399 19.70453 340.02238 0 379.51399-19.70453Z"/>
<use data-text="A" xlink:href="#font_3_4" transform="matrix(8.9664,0,0,-8.9664,395.492,91.41799)"/>
<use data-text="p" xlink:href="#font_3_18" transform="matrix(8.9664,0,0,-8.9664,402.4051,91.41799)"/>
<use data-text="p" xlink:href="#font_3_18" transform="matrix(8.9664,0,0,-8.9664,407.5249,91.41799)"/>
<use data-text="r" xlink:href="#font_3_19" transform="matrix(8.9664,0,0,-8.9664,412.6447,91.41799)"/>
<use data-text="o" xlink:href="#font_3_17" transform="matrix(8.9664,0,0,-8.9664,416.2492,91.41799)"/>
<use data-text="v" xlink:href="#font_3_22" transform="matrix(8.9664,0,0,-8.9664,420.5979,91.41799)"/>
<use data-text="e" xlink:href="#font_3_11" transform="matrix(8.9664,0,0,-8.9664,425.20664,91.41799)"/>
<use data-text="d" xlink:href="#font_3_10" transform="matrix(8.9664,0,0,-8.9664,429.3043,91.41799)"/>
<use data-text="?" xlink:href="#font_3_3" transform="matrix(8.9664,0,0,-8.9664,434.4241,91.41799)"/>
<path transform="matrix(1,0,0,-1,37.625,89.175998)" d="M493.98637 56.69685H435.6086C434.50813 56.69685 433.61604 55.80476 433.61604 54.7043V34.86249C433.61604 33.76202 434.50813 32.86993 435.6086 32.86993H493.98637C495.08686 32.86993 495.97895 33.76202 495.97895 34.86249V54.7043C495.97895 55.80476 495.08686 56.69685 493.98637 56.69685ZM433.61604 32.86993" fill="#ebffeb"/>
<path transform="matrix(1,0,0,-1,37.625,89.175998)" stroke-width=".3985" stroke-linecap="butt" stroke-miterlimit="10" stroke-linejoin="miter" fill="none" stroke="#009900" d="M493.98637 56.69685H435.6086C434.50813 56.69685 433.61604 55.80476 433.61604 54.7043V34.86249C433.61604 33.76202 434.50813 32.86993 435.6086 32.86993H493.98637C495.08686 32.86993 495.97895 33.76202 495.97895 34.86249V54.7043C495.97895 55.80476 495.08686 56.69685 493.98637 56.69685ZM433.61604 32.86993"/>
<use data-text="A" xlink:href="#font_3_4" transform="matrix(8.9664,0,0,-8.9664,490.13,42.026994)"/>
<use data-text="p" xlink:href="#font_3_18" transform="matrix(8.9664,0,0,-8.9664,497.0431,42.026994)"/>
<use data-text="p" xlink:href="#font_3_18" transform="matrix(8.9664,0,0,-8.9664,502.1629,42.026994)"/>
<use data-text="l" xlink:href="#font_3_14" transform="matrix(8.9664,0,0,-8.9664,507.2827,42.026994)"/>
<use data-text="y" xlink:href="#font_3_23" transform="matrix(8.9664,0,0,-8.9664,509.8471,42.026994)"/>
<use data-text="M" xlink:href="#font_3_6" transform="matrix(8.9664,0,0,-8.9664,479.863,52.985994)"/>
<use data-text="e" xlink:href="#font_3_11" transform="matrix(8.9664,0,0,-8.9664,488.30937,52.985994)"/>
<use data-text="c" xlink:href="#font_3_9" transform="matrix(8.9664,0,0,-8.9664,492.407,52.985994)"/>
<use data-text="h" xlink:href="#font_3_12" transform="matrix(8.9664,0,0,-8.9664,496.24464,52.985994)"/>
<use data-text="a" xlink:href="#font_3_8" transform="matrix(8.9664,0,0,-8.9664,501.36445,52.985994)"/>
<use data-text="n" xlink:href="#font_3_16" transform="matrix(8.9664,0,0,-8.9664,505.97319,52.985994)"/>
<use data-text="i" xlink:href="#font_3_13" transform="matrix(8.9664,0,0,-8.9664,511.093,52.985994)"/>
<use data-text="s" xlink:href="#font_3_20" transform="matrix(8.9664,0,0,-8.9664,513.65737,52.985994)"/>
<use data-text="m" xlink:href="#font_3_15" transform="matrix(8.9664,0,0,-8.9664,517.28878,52.985994)"/>
<path transform="matrix(1,0,0,-1,37.625,89.175998)" d="M501.49427-32.86993H436.60487C434.95417-32.86993 433.61604-34.20807 433.61604-35.85876V-54.53822C433.61604-56.18893 434.95417-57.52705 436.60487-57.52705H501.49427C503.14494-57.52705 504.4831-56.18893 504.4831-54.53822V-35.85876C504.4831-34.20807 503.14494-32.86993 501.49427-32.86993ZM433.61604-57.52705" fill="#e6e6ff"/>
<path transform="matrix(1,0,0,-1,37.625,89.175998)" stroke-width=".3985" stroke-linecap="butt" stroke-miterlimit="10" stroke-linejoin="miter" fill="none" stroke="#0000b3" d="M501.49427-32.86993H436.60487C434.95417-32.86993 433.61604-34.20807 433.61604-35.85876V-54.53822C433.61604-56.18893 434.95417-57.52705 436.60487-57.52705H501.49427C503.14494-57.52705 504.4831-56.18893 504.4831-54.53822V-35.85876C504.4831-34.20807 503.14494-32.86993 501.49427-32.86993ZM433.61604-57.52705"/>
<use data-text="O" xlink:href="#font_1_2" transform="matrix(8.9664,0,0,-8.9664,475.594,131.59302)"/>
<use data-text="b" xlink:href="#font_1_6" transform="matrix(8.9664,0,0,-8.9664,483.56513,131.59302)"/>
<use data-text="j" xlink:href="#font_1_11" transform="matrix(8.9664,0,0,-8.9664,490.04786,131.59302)"/>
<use data-text="e" xlink:href="#font_1_9" transform="matrix(8.9664,0,0,-8.9664,493.2937,131.59302)"/>
<use data-text="c" xlink:href="#font_1_7" transform="matrix(8.9664,0,0,-8.9664,498.16246,131.59302)"/>
<use data-text="t" xlink:href="#font_1_17" transform="matrix(8.9664,0,0,-8.9664,502.87879,131.59302)"/>
<use data-text="G" xlink:href="#font_1_1" transform="matrix(8.9664,0,0,-8.9664,510.5361,131.59302)"/>
<use data-text="a" xlink:href="#font_1_5" transform="matrix(8.9664,0,0,-8.9664,518.8749,131.59302)"/>
<use data-text="m" xlink:href="#font_1_12" transform="matrix(8.9664,0,0,-8.9664,524.0306,131.59302)"/>
<use data-text="e" xlink:href="#font_1_9" transform="matrix(8.9664,0,0,-8.9664,532.87149,131.59302)"/>
<use data-text="R" xlink:href="#font_1_4" transform="matrix(8.9664,0,0,-8.9664,479.831,142.552)"/>
<use data-text="o" xlink:href="#font_1_14" transform="matrix(8.9664,0,0,-8.9664,487.78419,142.552)"/>
<use data-text="u" xlink:href="#font_1_18" transform="matrix(8.9664,0,0,-8.9664,493.0923,142.552)"/>
<use data-text="n" xlink:href="#font_1_13" transform="matrix(8.9664,0,0,-8.9664,498.98323,142.552)"/>
<use data-text="d" xlink:href="#font_1_8" transform="matrix(8.9664,0,0,-8.9664,504.87416,142.552)"/>
<use data-text="t" xlink:href="#font_2_1" transform="matrix(8.9664,0,0,-8.9664,514.307,142.552)"/>
<use data-text="+" xlink:href="#font_3_1" transform="matrix(8.9664,0,0,-8.9664,519.683,142.552)"/>
<use data-text="1" xlink:href="#font_3_2" transform="matrix(8.9664,0,0,-8.9664,528.8915,142.552)"/>
<path transform="matrix(1,0,0,-1,37.625,89.175998)" stroke-width=".79701" stroke-linecap="butt" stroke-miterlimit="10" stroke-linejoin="miter" fill="none" stroke="#595959" d="M35.63277 0H88.61955"/>
<path transform="matrix(1,0,0,-1,123.97374,89.175998)" d="M4.84268 0 1.28693 1.34647 2.47006 0 1.28693-1.34647Z" fill="#595959"/>
<path transform="matrix(1,0,0,-1,123.97374,89.175998)" stroke-width=".79701" stroke-linecap="butt" stroke-miterlimit="10" stroke-linejoin="miter" fill="none" stroke="#595959" d="M4.84268 0 1.28693 1.34647 2.47006 0 1.28693-1.34647Z"/>
<path transform="matrix(1,0,0,-1,37.625,89.175998)" stroke-width=".79701" stroke-linecap="butt" stroke-miterlimit="10" stroke-linejoin="miter" fill="none" stroke="#595959" d="M163.59194 0H216.57872"/>
<path transform="matrix(1,0,0,-1,251.9329,89.175998)" d="M4.84268 0 1.28693 1.34647 2.47006 0 1.28693-1.34647Z" fill="#595959"/>
<path transform="matrix(1,0,0,-1,251.9329,89.175998)" stroke-width=".79701" stroke-linecap="butt" stroke-miterlimit="10" stroke-linejoin="miter" fill="none" stroke="#595959" d="M4.84268 0 1.28693 1.34647 2.47006 0 1.28693-1.34647Z"/>
<path transform="matrix(1,0,0,-1,37.625,89.175998)" stroke-width=".79701" stroke-linecap="butt" stroke-miterlimit="10" stroke-linejoin="miter" fill="none" stroke="#595959" d="M283.04698 0H336.03138"/>
<path transform="matrix(1,0,0,-1,371.38557,89.175998)" d="M4.84268 0 1.28693 1.34647 2.47006 0 1.28693-1.34647Z" fill="#595959"/>
<path transform="matrix(1,0,0,-1,371.38557,89.175998)" stroke-width=".79701" stroke-linecap="butt" stroke-miterlimit="10" stroke-linejoin="miter" fill="none" stroke="#595959" d="M4.84268 0 1.28693 1.34647 2.47006 0 1.28693-1.34647Z"/>
<path transform="matrix(1,0,0,-1,37.625,89.175998)" stroke-width=".79701" stroke-linecap="butt" stroke-miterlimit="10" stroke-linejoin="miter" fill="none" stroke="#595959" d="M398.9671 10.2125 438.46385 30.94775"/>
<path transform="matrix(.88536,-.4648,-.4648,-.88536,474.07835,59.283708)" d="M4.84268 0 1.28693 1.34647 2.47006 0 1.28693-1.34647Z" fill="#595959"/>
<path transform="matrix(.88536,-.4648,-.4648,-.88536,474.07835,59.283708)" stroke-width=".79701" stroke-linecap="butt" stroke-miterlimit="10" stroke-linejoin="miter" fill="none" stroke="#595959" d="M4.84268 0 1.28693 1.34647 2.47006 0 1.28693-1.34647Z"/>
<use data-text="Y" xlink:href="#font_4_2" transform="matrix(6.9738,0,0,-6.9738,441.648,64.01599)" fill="#4c4d4c"/>
<use data-text="e" xlink:href="#font_4_3" transform="matrix(6.9738,0,0,-6.9738,447.0736,64.01599)" fill="#4c4d4c"/>
<use data-text="s" xlink:href="#font_4_5" transform="matrix(6.9738,0,0,-6.9738,450.87434,64.01599)" fill="#4c4d4c"/>
<path transform="matrix(1,0,0,-1,37.625,89.175998)" stroke-width=".79701" stroke-linecap="butt" stroke-miterlimit="10" stroke-linejoin="miter" fill="none" stroke="#595959" d="M399.3579-10.01584 440.93336-31.00053"/>
<path transform="matrix(.8927,.45056,.45056,-.8927,476.5312,119.15338)" d="M4.84268 0 1.28693 1.34647 2.47006 0 1.28693-1.34647Z" fill="#595959"/>
<path transform="matrix(.8927,.45056,.45056,-.8927,476.5312,119.15338)" stroke-width=".79701" stroke-linecap="butt" stroke-miterlimit="10" stroke-linejoin="miter" fill="none" stroke="#595959" d="M4.84268 0 1.28693 1.34647 2.47006 0 1.28693-1.34647Z"/>
<use data-text="N" xlink:href="#font_4_1" transform="matrix(6.9738,0,0,-6.9738,445.456,118.965999)" fill="#4c4d4c"/>
<use data-text="o" xlink:href="#font_4_4" transform="matrix(6.9738,0,0,-6.9738,451.4953,118.965999)" fill="#4c4d4c"/>
<path transform="matrix(1,0,0,-1,37.625,89.175998)" stroke-width=".79701" stroke-linecap="butt" stroke-miterlimit="10" stroke-linejoin="miter" fill="none" stroke="#595959" d="M496.1782 44.7834H469.04957V-28.96384"/>
<path transform="matrix(0,1,1,0,506.67457,115.86902)" d="M4.84268 0 1.28693 1.34647 2.47006 0 1.28693-1.34647Z" fill="#595959"/>
<path transform="matrix(0,1,1,0,506.67457,115.86902)" stroke-width=".79701" stroke-linecap="butt" stroke-miterlimit="10" stroke-linejoin="miter" fill="none" stroke="#595959" d="M4.84268 0 1.28693 1.34647 2.47006 0 1.28693-1.34647Z"/>
<use data-text="P" xlink:href="#font_5_4" transform="matrix(6.9738,0,0,-6.9738,108.739,124.174999)" fill="#000099"/>
<use data-text="a" xlink:href="#font_5_10" transform="matrix(6.9738,0,0,-6.9738,113.87869,124.174999)" fill="#000099"/>
<use data-text="r" xlink:href="#font_5_20" transform="matrix(6.9738,0,0,-6.9738,117.85376,124.174999)" fill="#000099"/>
<use data-text="a" xlink:href="#font_5_10" transform="matrix(6.9738,0,0,-6.9738,120.96407,124.174999)" fill="#000099"/>
<use data-text="m" xlink:href="#font_5_17" transform="matrix(6.9738,0,0,-6.9738,124.93914,124.174999)" fill="#000099"/>
<use data-text="e" xlink:href="#font_5_14" transform="matrix(6.9738,0,0,-6.9738,131.48754,124.174999)" fill="#000099"/>
<use data-text="t" xlink:href="#font_5_22" transform="matrix(6.9738,0,0,-6.9738,135.03023,124.174999)" fill="#000099"/>
<use data-text="e" xlink:href="#font_5_14" transform="matrix(6.9738,0,0,-6.9738,138.14055,124.174999)" fill="#000099"/>
<use data-text="r" xlink:href="#font_5_20" transform="matrix(6.9738,0,0,-6.9738,141.68325,124.174999)" fill="#000099"/>
<use data-text="|" xlink:href="#font_6_1" transform="matrix(6.9738,0,0,-6.9738,147.476,124.174999)" fill="#000099"/>
<use data-text="M" xlink:href="#font_5_3" transform="matrix(6.9738,0,0,-6.9738,152.526,124.174999)" fill="#000099"/>
<use data-text="e" xlink:href="#font_5_14" transform="matrix(6.9738,0,0,-6.9738,159.69507,124.174999)" fill="#000099"/>
<use data-text="c" xlink:href="#font_5_12" transform="matrix(6.9738,0,0,-6.9738,163.23777,124.174999)" fill="#000099"/>
<use data-text="h" xlink:href="#font_5_15" transform="matrix(6.9738,0,0,-6.9738,166.56427,124.174999)" fill="#000099"/>
<use data-text="a" xlink:href="#font_5_10" transform="matrix(6.9738,0,0,-6.9738,170.96474,124.174999)" fill="#000099"/>
<use data-text="n" xlink:href="#font_5_18" transform="matrix(6.9738,0,0,-6.9738,174.9398,124.174999)" fill="#000099"/>
<use data-text="i" xlink:href="#font_5_16" transform="matrix(6.9738,0,0,-6.9738,179.34027,124.174999)" fill="#000099"/>
<use data-text="c" xlink:href="#font_5_12" transform="matrix(6.9738,0,0,-6.9738,181.5928,124.174999)" fill="#000099"/>
<use data-text="|" xlink:href="#font_6_1" transform="matrix(6.9738,0,0,-6.9738,187.818,124.174999)" fill="#000099"/>
<use data-text="C" xlink:href="#font_5_1" transform="matrix(6.9738,0,0,-6.9738,192.868,124.174999)" fill="#000099"/>
<use data-text="u" xlink:href="#font_5_23" transform="matrix(6.9738,0,0,-6.9738,198.55863,124.174999)" fill="#000099"/>
<use data-text="s" xlink:href="#font_5_21" transform="matrix(6.9738,0,0,-6.9738,202.95909,124.174999)" fill="#000099"/>
<use data-text="t" xlink:href="#font_5_22" transform="matrix(6.9738,0,0,-6.9738,206.11823,124.174999)" fill="#000099"/>
<use data-text="o" xlink:href="#font_5_19" transform="matrix(6.9738,0,0,-6.9738,209.22855,124.174999)" fill="#000099"/>
<use data-text="m" xlink:href="#font_5_17" transform="matrix(6.9738,0,0,-6.9738,213.20362,124.174999)" fill="#000099"/>
<use data-text="T" xlink:href="#font_5_8" transform="matrix(6.9738,0,0,-6.9738,455.798,10.542984)" fill="#008000"/>
<use data-text="a" xlink:href="#font_5_10" transform="matrix(6.9738,0,0,-6.9738,460.84703,10.542984)" fill="#008000"/>
<use data-text="x" xlink:href="#font_5_24" transform="matrix(6.9738,0,0,-6.9738,464.82209,10.542984)" fill="#008000"/>
<use data-text="|" xlink:href="#font_6_1" transform="matrix(6.9738,0,0,-6.9738,471.683,10.542984)" fill="#008000"/>
<use data-text="R" xlink:href="#font_5_6" transform="matrix(6.9738,0,0,-6.9738,476.733,10.542984)" fill="#008000"/>
<use data-text="e" xlink:href="#font_5_14" transform="matrix(6.9738,0,0,-6.9738,482.51429,10.542984)" fill="#008000"/>
<use data-text="d" xlink:href="#font_5_13" transform="matrix(6.9738,0,0,-6.9738,486.05699,10.542984)" fill="#008000"/>
<use data-text="i" xlink:href="#font_5_16" transform="matrix(6.9738,0,0,-6.9738,490.45747,10.542984)" fill="#008000"/>
<use data-text="s" xlink:href="#font_5_21" transform="matrix(6.9738,0,0,-6.9738,492.71,10.542984)" fill="#008000"/>
<use data-text="t" xlink:href="#font_5_22" transform="matrix(6.9738,0,0,-6.9738,495.8691,10.542984)" fill="#008000"/>
<use data-text="r" xlink:href="#font_5_20" transform="matrix(6.9738,0,0,-6.9738,498.97944,10.542984)" fill="#008000"/>
<use data-text="i" xlink:href="#font_5_16" transform="matrix(6.9738,0,0,-6.9738,502.08976,10.542984)" fill="#008000"/>
<use data-text="b" xlink:href="#font_5_11" transform="matrix(6.9738,0,0,-6.9738,504.3423,10.542984)" fill="#008000"/>
<use data-text="u" xlink:href="#font_5_23" transform="matrix(6.9738,0,0,-6.9738,508.74278,10.542984)" fill="#008000"/>
<use data-text="t" xlink:href="#font_5_22" transform="matrix(6.9738,0,0,-6.9738,513.14328,10.542984)" fill="#008000"/>
<use data-text="e" xlink:href="#font_5_14" transform="matrix(6.9738,0,0,-6.9738,516.25357,10.542984)" fill="#008000"/>
<use data-text="|" xlink:href="#font_6_1" transform="matrix(6.9738,0,0,-6.9738,522.494,10.542984)" fill="#008000"/>
<use data-text="I" xlink:href="#font_5_2" transform="matrix(6.9738,0,0,-6.9738,527.544,10.542984)" fill="#008000"/>
<use data-text="n" xlink:href="#font_5_18" transform="matrix(6.9738,0,0,-6.9738,530.4242,10.542984)" fill="#008000"/>
<use data-text="s" xlink:href="#font_5_21" transform="matrix(6.9738,0,0,-6.9738,534.82467,10.542984)" fill="#008000"/>
<use data-text="u" xlink:href="#font_5_23" transform="matrix(6.9738,0,0,-6.9738,537.98379,10.542984)" fill="#008000"/>
<use data-text="r" xlink:href="#font_5_20" transform="matrix(6.9738,0,0,-6.9738,542.3842,10.542984)" fill="#008000"/>
<use data-text="e" xlink:href="#font_5_14" transform="matrix(6.9738,0,0,-6.9738,545.4945,10.542984)" fill="#008000"/>
<use data-text="Q" xlink:href="#font_5_5" transform="matrix(6.9738,0,0,-6.9738,459.787,18.512986)" fill="#008000"/>
<use data-text="u" xlink:href="#font_5_23" transform="matrix(6.9738,0,0,-6.9738,465.903,18.512986)" fill="#008000"/>
<use data-text="o" xlink:href="#font_5_19" transform="matrix(6.9738,0,0,-6.9738,470.3035,18.512986)" fill="#008000"/>
<use data-text="t" xlink:href="#font_5_22" transform="matrix(6.9738,0,0,-6.9738,474.27857,18.512986)" fill="#008000"/>
<use data-text="a" xlink:href="#font_5_10" transform="matrix(6.9738,0,0,-6.9738,477.3889,18.512986)" fill="#008000"/>
<use data-text="|" xlink:href="#font_6_1" transform="matrix(6.9738,0,0,-6.9738,484.043,18.512986)" fill="#008000"/>
<use data-text="S" xlink:href="#font_5_7" transform="matrix(6.9738,0,0,-6.9738,489.094,18.512986)" fill="#008000"/>
<use data-text="u" xlink:href="#font_5_23" transform="matrix(6.9738,0,0,-6.9738,493.49449,18.512986)" fill="#008000"/>
<use data-text="b" xlink:href="#font_5_11" transform="matrix(6.9738,0,0,-6.9738,497.89497,18.512986)" fill="#008000"/>
<use data-text="s" xlink:href="#font_5_21" transform="matrix(6.9738,0,0,-6.9738,502.29545,18.512986)" fill="#008000"/>
<use data-text="i" xlink:href="#font_5_16" transform="matrix(6.9738,0,0,-6.9738,505.45457,18.512986)" fill="#008000"/>
<use data-text="d" xlink:href="#font_5_13" transform="matrix(6.9738,0,0,-6.9738,507.7071,18.512986)" fill="#008000"/>
<use data-text="i" xlink:href="#font_5_16" transform="matrix(6.9738,0,0,-6.9738,512.10757,18.512986)" fill="#008000"/>
<use data-text="z" xlink:href="#font_5_25" transform="matrix(6.9738,0,0,-6.9738,514.3601,18.512986)" fill="#008000"/>
<use data-text="e" xlink:href="#font_5_14" transform="matrix(6.9738,0,0,-6.9738,517.9028,18.512986)" fill="#008000"/>
<use data-text="|" xlink:href="#font_6_1" transform="matrix(6.9738,0,0,-6.9738,524.131,18.512986)" fill="#008000"/>
<use data-text="V" xlink:href="#font_5_9" transform="matrix(6.9738,0,0,-6.9738,529.18099,18.512986)" fill="#008000"/>
<use data-text="e" xlink:href="#font_5_14" transform="matrix(6.9738,0,0,-6.9738,534.4183,18.512986)" fill="#008000"/>
<use data-text="t" xlink:href="#font_5_22" transform="matrix(6.9738,0,0,-6.9738,537.96096,18.512986)" fill="#008000"/>
<use data-text="o" xlink:href="#font_5_19" transform="matrix(6.9738,0,0,-6.9738,541.0712,18.512986)" fill="#008000"/>
<path transform="matrix(1,0,0,-1,37.625,89.175998)" stroke-width=".79701" stroke-linecap="butt" stroke-dasharray="2.98883,2.98883" stroke-miterlimit="10" stroke-linejoin="miter" fill="none" stroke="#595959" d="M469.04957-57.72632V-77.56898H0V-15.81955"/>
<path transform="matrix(0,-1,-1,-0,37.625,107.26636)" d="M4.84268 0 1.28693 1.34647 2.47006 0 1.28693-1.34647Z" fill="#595959"/>
<path transform="matrix(0,-1,-1,-0,37.625,107.26636)" stroke-width=".79701" stroke-linecap="butt" stroke-miterlimit="10" stroke-linejoin="miter" fill="none" stroke="#595959" d="M4.84268 0 1.28693 1.34647 2.47006 0 1.28693-1.34647Z"/>
</svg>
