<svg xmlns="http://www.w3.org/2000/svg" xmlns:xlink="http://www.w3.org/1999/xlink" xmlns:inkscape="http://www.inkscape.org/namespaces/inkscape" version="1.1" width="452.058" height="92.277" viewBox="0 0 452.058 92.277">
<defs>
<path id="font_1_5" d="M.23799134 .2685547H.3899994C.5469971 .2685547 .6409912 .33454896 .6409912 .47843934 .6409912 .6293335 .54299929 .69433596 .3889923 .69433596H.13899231C.102996829 .69433596 .09098816 .68333438 .09098816 .6463318V.048049928C.09098816 .011993408 .101989749 0 .13899231 0H.18998719C.22799683 0 .23799134 .0129852299 .23799134 .048049928V.2685547M.35798646 .60832217C.4889984 .60832217 .5019989 .5483856 .5019989 .47843934 .5019989 .41149903 .4909973 .34754945 .35699464 .34754945H.23498535V.60832217H.35798646Z"/>
<path id="font_1_16" d="M.19400025 .22991944C.19400025 .32487489 .272995 .36386109 .33599855 .3678589 .35398866 .36886598 .35598756 .36886598 .35598756 .39486695V.441864C.35598756 .46185304 .35598756 .4688568 .33799745 .4688568 .30999757 .4688568 .23699951 .4588623 .18998719 .3508606H.18899536V.41586305C.18899536 .44786073 .18199158 .4638672 .14099121 .4638672H.10899353C.07299805 .4638672 .06098938 .4528656 .06098938 .41586305V.04798889C.06098938 .011993408 .07199097 0 .10899353 0H.1459961C.18399048 0 .19400025 .0129852299 .19400025 .04798889V.22991944Z"/>
<path id="font_1_10" d="M.101989749 .6953125C.069992069 .6953125 .053985597 .68930056 .053985597 .64930728V.603302C.053985597 .5713043 .06399536 .55830386 .100997928 .55830386H.15299988C.20098877 .55830386 .20098877 .5792999 .20098877 .62631228 .20098877 .67430117 .20098877 .6953125 .15299988 .6953125H.101989749M.19400025 .41000367C.19400025 .44200135 .18699646 .4580078 .1459961 .4580078H.10899353C.07299805 .4580078 .06098938 .44700624 .06098938 .41000367V.04798889C.06098938 .011993408 .07199097 0 .10899353 0H.1459961C.18399048 0 .19400025 .0129852299 .19400025 .04798889V.41000367Z"/>
<path id="font_1_17" d="M.3959961 .14111328C.3959961 .19700623 .3659973 .2319336 .34799195 .24790955 .30799867 .28382875 .272995 .28982545 .23098755 .2978058 .17599488 .30778504 .13598633 .31576539 .13598633 .35469056 .13598633 .39561463 .16899109 .40359498 .20799256 .40359498 .2749939 .40359498 .31098939 .37864686 .33699037 .35668946 .34700013 .3467102 .34899903 .3467102 .35299684 .3467102 .36299134 .3467102 .36499024 .35569764 .3659973 .35968019 .36799623 .36767579 .37799073 .42359925 .37799073 .42860414 .37799073 .44459535 .32499696 .4586029 .31399537 .4626007 .27398683 .4736023 .24198914 .47460938 .21598816 .47460938 .17098999 .47460938 .036987306 .47460938 .036987306 .33174134 .036987306 .2828369 .05899048 .25289918 .085998538 .22894287 .12098694 .19700623 .1599884 .1900177 .21699524 .17903137 .24598694 .17404175 .29699708 .16506958 .29699708 .12113953 .29699708 .07423401 .2579956 .06724548 .21899414 .06724548 .1749878 .06724548 .11898804 .08023071 .07199097 .13612366 .066986087 .14111328 .06399536 .144104 .057998659 .144104 .04798889 .144104 .04598999 .13511658 .04499817 .12913513 .042999269 .11515808 .0309906 .058242799 .0309906 .04824829 .0309906 .03024292 .10499573 .007247925 .10598755 .0062561037 .16099549-.0107421879 .20199585-.0107421879 .21899414-.0107421879 .269989-.0107421879 .3959961-.0067443849 .3959961 .14111328Z"/>
<path id="font_1_15" d="M.5179901 .22494507C.5179901 .3886261 .43798829 .47460938 .2749939 .47460938 .10798645 .47460938 .0309906 .38563539 .0309906 .22494507 .0309906 .06225586 .116989139-.0107421879 .27398683-.0107421879 .43099977-.0107421879 .5179901 .06124878 .5179901 .22494507M.2749939 .06724548C.16699219 .06724548 .16699219 .15707398 .16699219 .23692322 .16699219 .31376649 .16699219 .40260316 .27398683 .40260316 .38198854 .40260316 .38198854 .31477357 .38198854 .23692322 .38198854 .15808106 .38198854 .06724548 .2749939 .06724548Z"/>
<path id="font_1_14" d="M.5 .32478334C.5 .42774964 .45599366 .46875 .35398866 .46875 .24899292 .46875 .20399475 .39274598 .19099427 .36576844H.18998719V.41574098C.18998719 .44773866 .18299866 .46374513 .14199829 .46374513H.10798645C.07199097 .46374513 .05999756 .45274354 .05999756 .41574098V.047973634C.05999756 .011993408 .070999149 0 .10798645 0H.147995C.18598938 0 .19599915 .0129852299 .19599915 .047973634V.26882936C.19599915 .35577394 .2539978 .39674378 .30599977 .39674378 .35398866 .39674378 .3639984 .37376405 .3639984 .32278443V.047973634C.3639984 .015991211 .37098695 0 .4119873 0H.45199586C.48999024 0 .5 .0129852299 .5 .047973634V.32478334Z"/>
<path id="font_1_8" d="M.43099977 .21386719C.45399476 .21386719 .47898866 .21485901 .47898866 .25985719 .47898866 .3886261 .4189911 .47460938 .269989 .47460938 .10998535 .47460938 .0309906 .38464356 .0309906 .23286438 .0309906 .069229129 .12599182-.0107421879 .2829895-.0107421879 .32099916-.0107421879 .37799073-.0057525637 .44400025 .027252198 .46598817 .038253786 .47299195 .041244508 .47299195 .053253175 .47299195 .060256959 .46998597 .08917236 .46899415 .09715271 .46499635 .12808228 .46398927 .1290741 .45498658 .1290741 .45098878 .1290741 .44898988 .1290741 .43798829 .11909485 .3789978 .068237308 .31900025 .06124878 .2869873 .06124878 .17399597 .06124878 .1619873 .15002442 .15899658 .21386719H.43099977M.1599884 .26686097C.16299439 .32774354 .18299866 .40260316 .269989 .40260316 .34999085 .40260316 .36499024 .3447113 .36799623 .26686097H.1599884Z"/>
<path id="font_1_1" d="M.21798706 .57232668V.6673279C.21798706 .69332888 .21699524 .69433596 .19099427 .69433596H.11399841C.08799744 .69433596 .08699036 .69332888 .08699036 .6673279V.59033206C.08699036 .56433108 .08799744 .563324 .12098694 .563324L.09098816 .48349C.08999634 .48049928 .08799744 .47450257 .08799744 .47050477 .08799744 .45750428 .09799194 .45750428 .11399841 .45750428H.12599182C.1459961 .45750428 .14698792 .45851136 .15499878 .47050477L.21798706 .57232668Z"/>
<path id="font_1_3" d="M.13899231 .69433596C.102996829 .69433596 .09098816 .68333438 .09098816 .6463318V.04798889C.09098816 .011993408 .101989749 0 .13899231 0H.40299989C.6469879 0 .7319946 .14602661 .7319946 .3421631 .7319946 .4212036 .71899417 .5182648 .6629944 .5893097 .58799746 .6823273 .46798707 .69433596 .40299989 .69433596H.13899231M.23498535 .085998538V.60832217H.36299134C.57899478 .60832217 .58799746 .45422364 .58799746 .3421631 .58799746 .2290802 .57699587 .085998538 .3639984 .085998538H.23498535Z"/>
<path id="font_1_12" d="M.19400025 .6463165C.19400025 .67832949 .18699646 .69433596 .1459961 .69433596H.10899353C.07299805 .69433596 .06098938 .68333438 .06098938 .6463165V.04800415C.06098938 .011993408 .07199097 0 .10899353 0H.1459961C.18399048 0 .19400025 .0129852299 .19400025 .04800415V.6463165Z"/>
<path id="font_1_13" d="M.80599978 .32489015C.80599978 .42785646 .7619934 .4688568 .6599884 .4688568 .58898928 .4688568 .5339966 .43585206 .49798585 .36987306 .48199464 .4658661 .39698792 .4688568 .35499574 .4688568 .33599855 .4688568 .2939911 .4688568 .24899292 .43585206 .21798706 .41285707 .19799805 .38085938 .19099427 .36587525H.18998719V.41586305C.18998719 .44786073 .18299866 .4638672 .14199829 .4638672H.10798645C.07199097 .4638672 .05999756 .4528656 .05999756 .41586305V.04798889C.05999756 .011993408 .070999149 0 .10798645 0H.147995C.18598938 0 .19599915 .0129852299 .19599915 .04798889V.26890565C.19599915 .35887147 .25698854 .39686585 .30599977 .39686585 .35398866 .39686585 .36499024 .37586976 .36499024 .32289125V.04798889C.36499024 .011993408 .37599183 0 .41299439 0H.45298768C.4909973 0 .5009918 .0129852299 .5009918 .04798889V.26890565C.5009918 .35887147 .56199648 .39686585 .61099246 .39686585 .6589966 .39686585 .66999819 .37586976 .66999819 .32289125V.04798889C.66999819 .011993408 .68099978 0 .71798709 0H.7579956C.79599 0 .80599978 .0129852299 .80599978 .04798889V.32489015Z"/>
<path id="font_1_7" d="M.46398927 .31578065C.46398927 .4736023 .31199647 .47460938 .2619934 .47460938 .21499634 .47460938 .16499329 .4705963 .09799194 .44259645 .07699585 .433609 .07199097 .43060304 .07199097 .41960145 .07199097 .41259767 .07798767 .3547058 .07899475 .34672547 .07998657 .34072877 .084991458 .33573915 .09199524 .33573915 .09700012 .33573915 .099990848 .33872987 .102996829 .34172059 .1459961 .38664247 .19599915 .40859986 .2579956 .40859986 .31199647 .40859986 .32798768 .3756714 .32798768 .31677247V.2818451C.29299928 .2818451 .0309906 .2798462 .0309906 .13311768 .0309906 .06324768 .08699036-.0107421879 .1749878-.0107421879 .20899964-.0107421879 .28399659-.00074768069 .33099366 .068237308V.04824829C.33099366 .01625061 .33799745 .00024414063 .3789978 .00024414063H.41600038C.45399476 .00024414063 .46398927 .013244629 .46398927 .04824829V.31578065M.32798768 .15408325C.32798768 .06124878 .23298645 .06124878 .22999573 .06124878 .18798828 .06124878 .16099549 .09718323 .16099549 .13511658 .16099549 .23292542 .2999878 .23991394 .32798768 .24092102V.15408325Z"/>
<path id="font_2_1" d="M.7879944 .6692352C.7879944 .6872406 .7879944 .6982422 .7679901 .6982422 .7579956 .6982422 .7559967 .696228 .746994 .6882324L.68099978 .63023379C.6239929 .676239 .5509949 .6982422 .47799684 .6982422 .21998596 .6982422 .06599426 .5462494 .06599426 .34326173 .06599426 .14526367 .21398926-.01171875 .47898866-.01171875 .6669922-.01171875 .7879944 .10827637 .7879944 .22825623 .7879944 .2502594 .7779999 .2502594 .7619934 .2502594 .7509918 .2502594 .73799136 .2502594 .7369995 .23426819 .72898867 .089263919 .59599307 .03727722 .5009918 .03727722 .44699098 .03727722 .34999085 .04827881 .2829895 .12226868 .22999573 .18226624 .22299195 .2752533 .22299195 .34326173 .22299195 .46324159 .24699402 .52323916 .28799439 .5692444 .33499146 .62223818 .41600038 .64923098 .49899293 .64923098 .58699038 .64923098 .7029877 .5962372 .72898867 .43725587 .73098757 .42425538 .7429962 .42425538 .7579956 .42425538 .7849884 .42425538 .7879944 .42625428 .7879944 .45324708V.6692352Z"/>
<path id="font_2_2" d="M.1499939 .63653567V.04899597H.041992189V0H.48399354C.68299868 0 .83999636 .12094116 .83999636 .33776856 .83999636 .5496063 .69299319 .6855469 .48298646 .6855469H.041992189V.63653567H.1499939M.2889862 .04899597V.63653567H.44099427C.519989 .63653567 .59399417 .611557 .6380005 .55659487 .6819916 .50064089 .68899539 .42970277 .68899539 .33776856 .68899539 .24084473 .68899539 .04899597 .44198609 .04899597H.2889862Z"/>
<path id="font_3_4" d="M.30499269 .35195924C.397995 .38697816 .44198609 .46006776 .44198609 .5290985 .44198609 .60606387 .35699464 .6660156 .25299073 .6660156 .14898682 .6660156 .070999149 .60705569 .070999149 .5310974 .070999149 .49809266 .09298706 .47909547 .12199402 .47909547 .15098572 .47909547 .17199707 .50009158 .17199707 .5290985 .17199707 .5640869 .147995 .57910159 .11399841 .57910159 .13999939 .6210327 .20098877 .64100649 .25 .64100649 .33299256 .64100649 .34899903 .5750885 .34899903 .52809146 .34899903 .49809266 .34298707 .45005799 .31799317 .41201783 .2869873 .36695863 .2519989 .36495973 .22299195 .36296083 .19799805 .36094667 .19599915 .36094667 .18798828 .36094667 .1789856 .35995484 .17098999 .35894776 .17098999 .34794618 .17098999 .33496095 .1789856 .33496095 .19599915 .33496095H.24299622C.32998658 .33496095 .36799623 .2646637 .36799623 .16937256 .36799623 .04145813 .2999878 .0055389406 .24899292 .0055389406 .22999573 .0055389406 .1329956 .010528564 .08799744 .0843811 .12399292 .07939148 .1519928 .10437012 .1519928 .13838196 .1519928 .17137146 .1269989 .19238281 .09799194 .19238281 .07299805 .19238281 .042999269 .17736817 .042999269 .13537598 .042999269 .046447755 .13598633-.022460938 .2519989-.022460938 .3769989-.022460938 .46998597 .06741333 .46998597 .16937256 .46998597 .25663758 .40098573 .33093263 .30499269 .35195924Z"/>
<path id="font_4_1" d="M.18199158 .015991211C.18199158-.017044068 .18199158-.09921265 .10798645-.17036438 .101989749-.17636109 .101989749-.17736817 .101989749-.18136597 .101989749-.18836975 .10899353-.19335938 .114990238-.19335938 .12599182-.19335938 .20698548-.115249637 .20698548 .0019989014 .20698548 .06399536 .18499756 .10798645 .14199829 .10798645 .10798645 .10798645 .08799744 .08198547 .08799744 .053985597 .08799744 .025985718 .10798645 0 .14199829 0 .15699768 0 .17199707 .004989624 .18199158 .015991211Z"/>
<path id="font_3_1" d="M.47299195 .31976319C.47299195 .38682557 .46998597 .47288514 .43499757 .5479431 .3909912 .64201357 .31498719 .6660156 .25698854 .6660156 .19699097 .6660156 .12098694 .64201357 .07699585 .5459442 .04499817 .47688294 .039993287 .39582826 .039993287 .31976319 .039993287 .25471498 .041992189 .15765381 .084991458 .07858276 .13198853-.0064697267 .20999146-.022460938 .2559967-.022460938 .32099916-.022460938 .394989 .0055389406 .43699647 .097595218 .46699525 .1646576 .47299195 .23971558 .47299195 .31976319M.25698854 .002532959C.22698975 .002532959 .15499878 .016540528 .13598633 .12962342 .12599182 .18867493 .12599182 .2747345 .12599182 .33177186 .12599182 .39982606 .12599182 .47888185 .13798523 .53393557 .1579895 .6230011 .22200012 .64100649 .2559967 .64100649 .2939911 .64100649 .35699464 .62098696 .37599183 .5279236 .3869934 .47288514 .3869934 .39482118 .3869934 .33177186 .3869934 .2697296 .3869934 .18566895 .3769989 .12661743 .35598756 .012542725 .28199769 .002532959 .25698854 .002532959Z"/>
<path id="font_3_6" d="M.10398865 .3444519C.10398865 .32641603 .10398865 .31539918 .117996219 .31539918 .12599182 .31539918 .1289978 .31941224 .1349945 .32843019 .16499329 .3704834 .21299744 .39453126 .2649994 .39453126 .37199403 .39453126 .37199403 .24029541 .37199403 .20425415 .37199403 .17324829 .37199403 .11125183 .34399415 .06637573 .31698609 .024475098 .2749939 .0055389406 .23599243 .0055389406 .1769867 .0055389406 .10998535 .042434694 .085998538 .116256717 .08699036 .116256717 .09298706 .11425781 .099990848 .11425781 .11999512 .11425781 .14898682 .12724304 .14898682 .16325379 .14898682 .19424439 .1269989 .21224976 .099990848 .21224976 .07899475 .21224976 .050994874 .20025635 .050994874 .1602478 .050994874 .069366458 .1269989-.022460938 .23799134-.022460938 .35899354-.022460938 .46199037 .0753479 .46199037 .19924927 .46199037 .3204193 .37599183 .41952516 .2669983 .41952516 .21899414 .41952516 .16999817 .40351869 .1349945 .36747743V.56477358C.16499329 .5557709 .19599915 .55078127 .22698975 .55078127 .34999085 .55078127 .42199708 .6397705 .42199708 .652771 .42199708 .6617737 .41600038 .6657715 .41099549 .6657715 .40899659 .6657715 .40699769 .6657715 .397995 .6607666 .35099793 .6417694 .30499269 .6337738 .2630005 .6337738 .21998596 .6337738 .1749878 .6417694 .1289978 .6607666 .11898804 .6657715 .116989139 .6657715 .115997318 .6657715 .10398865 .6657715 .10398865 .655777 .10398865 .6387787V.3444519Z"/>
<path id="font_3_2" d="M.3039856 .6392822C.3039856 .6642761 .30299378 .666275 .27799989 .666275 .21598816 .60227969 .12399292 .60227969 .09298706 .60227969V.57128909C.11199951 .57128909 .17298889 .57128909 .22698975 .5972748V.08001709C.22698975 .042999269 .22399903 .0309906 .1309967 .0309906H.09899902V0C.1349945 .0029907227 .22399903 .0029907227 .2649994 .0029907227 .30599977 .0029907227 .3959961 .0029907227 .43199159 0V.0309906H.3999939C.30699159 .0309906 .3039856 .042999269 .3039856 .08001709V.6392822Z"/>
<path id="font_1_6" d="M.269989 .4407196C.24798584 .4457245 .18598938 .46873475 .18598938 .5257721 .18598938 .6108093 .2709961 .6128082 .30499269 .6128082 .36099244 .6128082 .41099549 .59980776 .45999146 .55178835 .47599793 .5367737 .47698976 .5357666 .48098756 .5357666 .4869995 .5357666 .49198915 .5387726 .49499513 .55378726L.5099945 .6408081C.5119934 .64881899 .5119934 .6508179 .5119934 .6538086 .5119934 .66181948 .5109863 .6628113 .48599244 .67581179 .4149933 .7108154 .35598756 .7158203 .30499269 .7158203 .21598816 .7158203 .06098938 .69480898 .06098938 .50775149 .06098938 .4367218 .09799194 .3907013 .116989139 .37068177 .16799927 .3186493 .21499634 .3086548 .29299928 .29063417 .34899903 .27763368 .37098695 .27262879 .3929901 .2526245 .40299989 .24261475 .42399598 .2216034 .42399598 .18357849 .42399598 .089538577 .33799745 .08653259 .30499269 .08653259 .22099304 .08653259 .147995 .12054443 .09799194 .16557312 .085998538 .17758179 .083999637 .17758179 .07998657 .17758179 .07398987 .17758179 .068984989 .1745758 .06599426 .15957642L.050994874 .072525028C.04899597 .06452942 .04899597 .06253052 .04899597 .059524537 .04899597 .038528444 .15299988 .002532959 .1579895 .0005340576 .22499085-.020462037 .2789917-.022460938 .30499269-.022460938 .45498658-.022460938 .548996 .044525148 .548996 .19958496 .548996 .3116455 .46598817 .39569093 .3659973 .41871644L.269989 .4407196Z"/>
<path id="font_1_18" d="M.21798706 .3860016H.30699159C.31900025 .3860016 .35499574 .3860016 .35499574 .42199708 .35499574 .4580078 .31900025 .4580078 .30699159 .4580078H.21798706V.54089358C.21798706 .5728607 .21099854 .5888672 .16999817 .5888672H.13899231C.102996829 .5888672 .09098816 .5778656 .09098816 .54089358V.4580078H.067993167C.056991579 .4580078 .019989014 .4580078 .019989014 .42199708 .019989014 .3860016 .055999757 .3860016 .067993167 .3860016H.08799744V.13319397C.08799744 .03225708 .12399292-.0107421879 .19299317-.0107421879 .20199585-.0107421879 .24598694-.0107421879 .2979889 .0052490236 .31498719 .010253906 .37298585 .028244019 .37298585 .04725647 .37298585 .050247194 .37098695 .057250978 .36499024 .07824707 .3600006 .098220828 .35798646 .10421753 .34899903 .10421753 .34399415 .10421753 .34298707 .10322571 .33699037 .097229007 .32598878 .0892334 .29899598 .06724548 .25698854 .06724548 .23298645 .06724548 .21798706 .084243778 .21798706 .15019226V.3860016Z"/>
<path id="font_1_9" d="M.19999695 .09239197C.1639862 .09239197 .1499939 .09239197 .13598633 .104278568 .13198853 .10824585 .114990238 .12309265 .114990238 .1489563 .114990238 .15596009 .115997318 .15795899 .116989139 .16395569 .1639862 .13795471 .22299195 .13795471 .24398804 .13795471 .28599549 .13795471 .44499208 .13795471 .44499208 .3028412 .44499208 .3607788 .4229889 .3957367 .4139862 .40673829 .43099977 .40673829 .46598817 .40673829 .5069885 .3957367 .5109863 .3937378 .5179901 .39175416 .5209961 .39175416 .5289917 .39175416 .5339966 .3977356 .5339966 .40473939 .5339966 .40873719 .5289917 .43273927 .5269928 .44274903 .522995 .46673585 .522995 .46875 .5049896 .46875 .47399903 .46875 .42399598 .45674134 .38598634 .43374635 .33898927 .46473695 .2869873 .46875 .24398804 .46875 .20199585 .46875 .042999269 .46875 .042999269 .30384828 .042999269 .2638855 .053985597 .21394348 .09199524 .18095398 .06498718 .14395142 .06498718 .105270389 .06498718 .10031128 .06498718 .08139038 .070999149 .04838562 .09199524 .021392823 .07699585 .015396118 .024993897-.002609253 .024993897-.06680298 .024993897-.09791565 .039993287-.15005493 .102996829-.17906189 .1599884-.20506287 .22698975-.20605469 .27398683-.20605469 .33299256-.20605469 .5239868-.20605469 .5239868-.063797 .5239868 .09239197 .3829956 .09239197 .24798584 .09239197H.19999695M.24398804 .20996094C.17399597 .20996094 .17098999 .24790955 .17098999 .3028412 .17098999 .3577881 .17399597 .39674378 .24398804 .39674378 .31399537 .39674378 .31698609 .3587799 .31698609 .30384828 .31698609 .24891663 .31399537 .20996094 .24398804 .20996094M.2979889-.016601563C.3789978-.016601563 .42099-.030670166 .42099-.06680298 .42099-.13406372 .30699159-.13406372 .2749939-.13406372 .23498535-.13406372 .12799073-.13406372 .12799073-.063797 .12799073-.016601563 .15899658-.016601563 .18199158-.016601563H.2979889Z"/>
<path id="font_1_4" d="M.70199587 .6463165C.70199587 .67832949 .69499209 .69433596 .6539917 .69433596H.6029968C.5649872 .69433596 .5549927 .68133547 .5549927 .6463165V.40820313H.23799134V.6463165C.23799134 .67832949 .23098755 .69433596 .18998719 .69433596H.13899231C.102996829 .69433596 .09098816 .68333438 .09098816 .6463165V.04800415C.09098816 .011993408 .101989749 0 .13899231 0H.18998719C.22799683 0 .23799134 .0129852299 .23799134 .04800415V.31419374H.5549927V.04800415C.5549927 .015991211 .56199648 0 .6029968 0H.6539917C.69200137 0 .70199587 .0129852299 .70199587 .04800415V.6463165Z"/>
<path id="font_1_19" d="M.5 .41001893C.5 .44200135 .49299623 .4580078 .45199586 .4580078H.4119873C.37399293 .4580078 .3639984 .44500733 .3639984 .41001893V.173172C.3639984 .10720825 .32899476 .050247194 .2579956 .050247194 .20199585 .050247194 .19599915 .0642395 .19599915 .11720276V.41001893C.19599915 .44200135 .18899536 .4580078 .147995 .4580078H.10798645C.07199097 .4580078 .05999756 .44700624 .05999756 .41001893V.12620545C.05999756 .019256592 .117996219-.0107421879 .22200012-.0107421879 .24899292-.0107421879 .31999208-.0107421879 .36698915 .07423401V.04824829C.36698915 .01625061 .37399293 .00024414063 .4149933 .00024414063H.45199586C.48999024 .00024414063 .5 .013244629 .5 .04824829V.41001893Z"/>
<path id="font_2_4" d="M.2689972 .44525147C.16799927 .46725465 .16499329 .5342407 .16499329 .5482483 .16499329 .59524539 .19599915 .65322878 .29699708 .65322878 .45498658 .65322878 .49398805 .5452423 .5049896 .47924806 .5079956 .46324159 .5079956 .45825196 .5309906 .45825196 .55599978 .45825196 .5569916 .46324159 .5569916 .48724366V.6692352C.5569916 .6872406 .5569916 .6982422 .5369873 .6982422 .5279999 .6982422 .5269928 .6972351 .5149994 .6862335L.47099305 .64323428C.4149933 .6872406 .34999085 .6982422 .29599 .6982422 .13598633 .6982422 .06599426 .59724429 .06599426 .49725343 .06599426 .4252472 .10699463 .3792572 .115997318 .36924745 .17098999 .31425477 .20399475 .30725099 .30799867 .28526307 .32398988 .28225709 .33999635 .27926637 .35499574 .2752533 .4139862 .2632599 .43099977 .2602539 .46398927 .22625733 .46499635 .22425843 .4909973 .19726563 .4909973 .15327454 .4909973 .13327027 .4850006 .03727722 .35598756 .03727722 .29599 .03727722 .125 .04827881 .116989139 .20426941 .115997318 .22225952 .115997318 .22825623 .09199524 .22825623 .06599426 .22825623 .06599426 .22225952 .06599426 .19825745V.01727295C.06599426-.0007324219 .06599426-.01171875 .085998538-.01171875 .09399414-.01171875 .09599304-.01171875 .10499573-.0027313233 .11099243 .0012664795 .1329956 .026275635 .1519928 .042266847 .21299744-.0017242432 .3019867-.01171875 .35699464-.01171875 .526001-.01171875 .58999636 .1002655 .58999636 .20326233 .58999636 .31126405 .5089874 .3942566 .4139862 .4142456L.2689972 .44525147Z"/>
<path id="font_2_3" d="M.772995 .63653567H.8809967V.6855469C.84599307 .6825409 .74198916 .6825409 .70098879 .6825409 .6599884 .6825409 .5549927 .6825409 .519989 .6855469V.63653567H.6279907V.38085938H.29499818V.63653567H.40299989V.6855469C.36799623 .6825409 .2639923 .6825409 .22299195 .6825409 .18199158 .6825409 .07699585 .6825409 .041992189 .6855469V.63653567H.1499939V.04899597H.041992189V0C.07699585 .0029907227 .18099976 .0029907227 .22200012 .0029907227 .2630005 .0029907227 .36799623 .0029907227 .40299989 0V.04899597H.29499818V.33184815H.6279907V.04899597H.519989V0C.5549927 .0029907227 .6589966 .0029907227 .69999697 .0029907227 .7409973 .0029907227 .84599307 .0029907227 .8809967 0V.04899597H.772995V.63653567Z"/>
<path id="font_3_5" d="M.0289917 .19602967V.16503906H.3019867V.07901001C.3019867 .041992189 .29899598 .0309906 .22399903 .0309906H.20199585V0C.2649994 .0029907227 .33499146 .0029907227 .34199525 .0029907227 .34700013 .0029907227 .4189911 .0029907227 .48199464 0V.0309906H.45999146C.3849945 .0309906 .38198854 .041992189 .38198854 .07901001V.16503906H.48399354V.19602967H.38198854V.64974978C.38198854 .669754 .38198854 .6767578 .36299134 .6767578 .35099793 .6767578 .34999085 .67575076 .34098817 .66174319L.0289917 .19602967M.06098938 .19602967 .30799867 .56581118V.19602967H.06098938Z"/>
<path id="font_3_3" d="M.46199037 .17704773H.43399049C.43199159 .16404724 .42399598 .10501099 .41099549 .08900452 .40499879 .07998657 .33599855 .07998657 .31599427 .07998657H.13798523L.23699951 .17404175C.40098573 .3161316 .46199037 .36915589 .46199037 .4711914 .46199037 .5860901 .36698915 .6660156 .24398804 .6660156 .1289978 .6660156 .050994874 .575119 .050994874 .4841919 .050994874 .43418885 .09399414 .42919923 .102996829 .42919923 .125 .42919923 .15499878 .44519044 .15499878 .48120118 .15499878 .51119998 .13398743 .5332031 .102996829 .5332031 .09799194 .5332031 .09498596 .5332031 .09098816 .53219607 .114990238 .6030731 .1789856 .63500979 .23298645 .63500979 .33499146 .63500979 .36999513 .5401764 .36999513 .4711914 .36999513 .36915589 .29299928 .28611756 .24499512 .23408509L.06199646 .035995485C.050994874 .024993897 .050994874 .022994996 .050994874 0H.43399049L.46199037 .17704773Z"/>
<path id="font_1_21" d="M.71899417 .42999269C.71598818 .4580078 .69799807 .4580078 .6669922 .4580078 .6199951 .4580078 .60798647 .45500184 .59399417 .40299989 .57199099 .32600404 .5279999 .16999817 .5130005 .11299133L.42799378 .41299439C.42199708 .43499757 .4149933 .4580078 .36898805 .4580078 .35398866 .4580078 .33099366 .4580078 .31698609 .43499757 .30799867 .41999818 .2639923 .24699402 .22898865 .12998963L.14898682 .41299439C.13899231 .44700624 .12799073 .4580078 .08699036 .4580078H.066986087C.04798889 .4580078 .026992798 .4580078 .023986817 .42999269L.12998963 .04598999C.14299011 0 .16899109 0 .19400025 0H.22200012C.2689972 0 .2769928 .01499939 .28799439 .054992677 .31098939 .13800049 .34700013 .2639923 .35099793 .31599427L.35198976 .31700135C.35798646 .2599945 .4019928 .101989749 .4149933 .054992677 .42599488 .018997193 .43099977 0 .48098756 0H.548996C.59199526 0 .60198977 .011993408 .6119995 .04598999L.71899417 .42999269Z"/>
<path id="font_1_11" d="M.31298829 .27212525 .46699525 .41519166C.47898866 .42619325 .48199464 .42919923 .48199464 .43721009 .48199464 .45822145 .46199037 .45822145 .44799806 .45822145H.3899994C.37199403 .45822145 .35299684 .45822145 .32998658 .43721009L.18598938 .3031311V.6463165C.18598938 .67832949 .1789856 .69433596 .13798523 .69433596H.116989139C.08099365 .69433596 .068984989 .68333438 .068984989 .6463165V.04800415C.068984989 .011993408 .07998657 0 .116989139 0H.1349945C.17298889 0 .18299866 .0129852299 .18299866 .04800415V.15205384L.22999573 .19508362 .3600006 .024993897C.3769989 .0029907227 .38398744 0 .41299439 0H.46099855C.47499085 0 .49699403 0 .49699403 .021987915 .49699403 .023986817 .49699403 .0309906 .4869995 .044006349L.31298829 .27212525Z"/>
<path id="font_1_2" d="M.25698854 .19264221C.2689972 .19264221 .30499269 .19264221 .30499269 .2286377 .30499269 .26464845 .2689972 .26464845 .25698854 .26464845H.05999756C.04798889 .26464845 .011993408 .26464845 .011993408 .2286377 .011993408 .19264221 .04798889 .19264221 .05999756 .19264221H.25698854Z"/>
<path id="font_1_20" d="M.46798707 .41099549C.47299195 .42500306 .47299195 .42700196 .47299195 .42999269 .47299195 .4580078 .44799806 .4580078 .43299867 .4580078H.4119873C.36999513 .4580078 .35899354 .44299317 .34999085 .4149933L.25099183 .11299133 .1519928 .4149933C.14498902 .43600465 .13798523 .4580078 .08999634 .4580078H.06599426C.050994874 .4580078 .025985718 .4580078 .025985718 .42999269 .025985718 .42700196 .025985718 .42500306 .0309906 .41099549L.1499939 .041992189C.1639862 0 .19499207 0 .21299744 0H.28599549C.3039856 0 .33499146 0 .34899903 .041992189L.46798707 .41099549Z"/>
<path id="font_5_1" d="M.6749878 .22944641C.69299319 .22944641 .71199038 .22944641 .71199038 .25144959 .71199038 .27246095 .69200137 .27246095 .6749878 .27246095H.12298584C.10598755 .27246095 .085998538 .27246095 .085998538 .25144959 .085998538 .22944641 .10499573 .22944641 .12298584 .22944641H.6749878Z"/>
</defs>
<use data-text="P" xlink:href="#font_1_5" transform="matrix(8.9664,0,0,-8.9664,30.054,12.411003)"/>
<use data-text="r" xlink:href="#font_1_16" transform="matrix(8.9664,0,0,-8.9664,36.35738,12.411003)"/>
<use data-text="i" xlink:href="#font_1_10" transform="matrix(8.9664,0,0,-8.9664,39.692884,12.411003)"/>
<use data-text="s" xlink:href="#font_1_17" transform="matrix(8.9664,0,0,-8.9664,41.98828,12.411003)"/>
<use data-text="o" xlink:href="#font_1_15" transform="matrix(8.9664,0,0,-8.9664,45.772104,12.411003)"/>
<use data-text="n" xlink:href="#font_1_14" transform="matrix(8.9664,0,0,-8.9664,50.70362,12.411003)"/>
<use data-text="e" xlink:href="#font_1_8" transform="matrix(8.9664,0,0,-8.9664,55.733774,12.411003)"/>
<use data-text="r" xlink:href="#font_1_16" transform="matrix(8.9664,0,0,-8.9664,60.315607,12.411003)"/>
<use data-text="&#x2019;" xlink:href="#font_1_1" transform="matrix(8.9664,0,0,-8.9664,63.651109,12.411003)"/>
<use data-text="s" xlink:href="#font_1_17" transform="matrix(8.9664,0,0,-8.9664,66.39483,12.411003)"/>
<use data-text="D" xlink:href="#font_1_3" transform="matrix(8.9664,0,0,-8.9664,73.46932,12.411003)"/>
<use data-text="i" xlink:href="#font_1_10" transform="matrix(8.9664,0,0,-8.9664,80.588649,12.411003)"/>
<use data-text="l" xlink:href="#font_1_12" transform="matrix(8.9664,0,0,-8.9664,82.88404,12.411003)"/>
<use data-text="e" xlink:href="#font_1_8" transform="matrix(8.9664,0,0,-8.9664,85.179439,12.411003)"/>
<use data-text="m" xlink:href="#font_1_13" transform="matrix(8.9664,0,0,-8.9664,89.76127,12.411003)"/>
<use data-text="m" xlink:href="#font_1_13" transform="matrix(8.9664,0,0,-8.9664,97.53514,12.411003)"/>
<use data-text="a" xlink:href="#font_1_7" transform="matrix(8.9664,0,0,-8.9664,105.30005,12.411003)"/>
<use data-text="C" xlink:href="#font_2_1" transform="matrix(8.9664,0,0,-8.9664,66.193,29.382)"/>
<use data-text="D" xlink:href="#font_2_2" transform="matrix(8.9664,0,0,-8.9664,111.313999,29.382)"/>
<use data-text="C" xlink:href="#font_2_1" transform="matrix(8.9664,0,0,-8.9664,20.838,54.893)"/>
<use data-text="D" xlink:href="#font_2_2" transform="matrix(8.9664,0,0,-8.9664,20.605,80.405)"/>
<use data-text="3" xlink:href="#font_3_4" transform="matrix(8.9664,0,0,-8.9664,62.088998,53.835008)"/>
<use data-text="," xlink:href="#font_4_1" transform="matrix(8.9664,0,0,-8.9664,66.696,53.835008)"/>
<use data-text="3" xlink:href="#font_3_4" transform="matrix(8.9664,0,0,-8.9664,73.35199,53.835008)"/>
<use data-text="0" xlink:href="#font_3_1" transform="matrix(8.9664,0,0,-8.9664,107.443,53.835008)"/>
<use data-text="," xlink:href="#font_4_1" transform="matrix(8.9664,0,0,-8.9664,112.051,53.835008)"/>
<use data-text="5" xlink:href="#font_3_6" transform="matrix(8.9664,0,0,-8.9664,118.706,53.835008)"/>
<use data-text="5" xlink:href="#font_3_6" transform="matrix(8.9664,0,0,-8.9664,62.088998,79.346)"/>
<use data-text="," xlink:href="#font_4_1" transform="matrix(8.9664,0,0,-8.9664,66.69699,79.346)"/>
<use data-text="0" xlink:href="#font_3_1" transform="matrix(8.9664,0,0,-8.9664,73.35199,79.346)"/>
<use data-text="1" xlink:href="#font_3_2" transform="matrix(8.9664,0,0,-8.9664,107.443,79.346)"/>
<use data-text="," xlink:href="#font_4_1" transform="matrix(8.9664,0,0,-8.9664,112.051,79.346)"/>
<use data-text="1" xlink:href="#font_3_2" transform="matrix(8.9664,0,0,-8.9664,118.706,79.346)"/>
<path transform="matrix(1,0,0,-1,24.67,51.817)" stroke-width=".3985" stroke-linecap="butt" stroke-miterlimit="10" stroke-linejoin="miter" fill="none" stroke="#999999" d="M22.67752 34.01608V-38.26836"/>
<path transform="matrix(1,0,0,-1,24.67,51.817)" stroke-width=".3985" stroke-linecap="butt" stroke-miterlimit="10" stroke-linejoin="miter" fill="none" stroke="#999999" d="M68.03217 34.01608V-38.26836"/>
<path transform="matrix(1,0,0,-1,24.67,51.817)" stroke-width=".3985" stroke-linecap="butt" stroke-miterlimit="10" stroke-linejoin="miter" fill="none" stroke="#999999" d="M22.67752 12.75595H113.38724"/>
<path transform="matrix(1,0,0,-1,24.67,51.817)" stroke-width=".3985" stroke-linecap="butt" stroke-miterlimit="10" stroke-linejoin="miter" fill="none" stroke="#999999" d="M22.67752-12.75595H113.38724"/>
<path transform="matrix(1,0,0,-1,24.67,51.817)" stroke-width=".3985" stroke-linecap="butt" stroke-miterlimit="10" stroke-linejoin="miter" fill="none" stroke="#999999" d="M22.67752-38.26836H113.38724"/>
<use data-text="S" xlink:href="#font_1_6" transform="matrix(8.9664,0,0,-8.9664,204.51,11.539001)"/>
<use data-text="t" xlink:href="#font_1_18" transform="matrix(8.9664,0,0,-8.9664,209.98847,11.539001)"/>
<use data-text="a" xlink:href="#font_1_7" transform="matrix(8.9664,0,0,-8.9664,213.61089,11.539001)"/>
<use data-text="g" xlink:href="#font_1_9" transform="matrix(8.9664,0,0,-8.9664,218.31826,11.539001)"/>
<use data-text="H" xlink:href="#font_1_4" transform="matrix(8.9664,0,0,-8.9664,226.54044,11.539001)"/>
<use data-text="u" xlink:href="#font_1_19" transform="matrix(8.9664,0,0,-8.9664,233.65976,11.539001)"/>
<use data-text="n" xlink:href="#font_1_14" transform="matrix(8.9664,0,0,-8.9664,238.68991,11.539001)"/>
<use data-text="t" xlink:href="#font_1_18" transform="matrix(8.9664,0,0,-8.9664,243.72006,11.539001)"/>
<use data-text="S" xlink:href="#font_2_4" transform="matrix(8.9664,0,0,-8.9664,222.983,29.382)"/>
<use data-text="H" xlink:href="#font_2_3" transform="matrix(8.9664,0,0,-8.9664,267.14,29.382)"/>
<use data-text="S" xlink:href="#font_2_4" transform="matrix(8.9664,0,0,-8.9664,177.62799,54.893)"/>
<use data-text="H" xlink:href="#font_2_3" transform="matrix(8.9664,0,0,-8.9664,176.431,80.405)"/>
<use data-text="4" xlink:href="#font_3_5" transform="matrix(8.9664,0,0,-8.9664,217.994,53.835008)"/>
<use data-text="," xlink:href="#font_4_1" transform="matrix(8.9664,0,0,-8.9664,222.602,53.835008)"/>
<use data-text="4" xlink:href="#font_3_5" transform="matrix(8.9664,0,0,-8.9664,229.25801,53.835008)"/>
<use data-text="0" xlink:href="#font_3_1" transform="matrix(8.9664,0,0,-8.9664,263.348,53.835008)"/>
<use data-text="," xlink:href="#font_4_1" transform="matrix(8.9664,0,0,-8.9664,267.956,53.835008)"/>
<use data-text="3" xlink:href="#font_3_4" transform="matrix(8.9664,0,0,-8.9664,274.612,53.835008)"/>
<use data-text="3" xlink:href="#font_3_4" transform="matrix(8.9664,0,0,-8.9664,217.994,79.346)"/>
<use data-text="," xlink:href="#font_4_1" transform="matrix(8.9664,0,0,-8.9664,222.602,79.346)"/>
<use data-text="0" xlink:href="#font_3_1" transform="matrix(8.9664,0,0,-8.9664,229.257,79.346)"/>
<use data-text="2" xlink:href="#font_3_3" transform="matrix(8.9664,0,0,-8.9664,263.348,79.346)"/>
<use data-text="," xlink:href="#font_4_1" transform="matrix(8.9664,0,0,-8.9664,267.956,79.346)"/>
<use data-text="2" xlink:href="#font_3_3" transform="matrix(8.9664,0,0,-8.9664,274.612,79.346)"/>
<path transform="matrix(1,0,0,-1,24.67,51.817)" stroke-width=".3985" stroke-linecap="butt" stroke-miterlimit="10" stroke-linejoin="miter" fill="none" stroke="#999999" d="M178.58496 34.01608V-38.26836"/>
<path transform="matrix(1,0,0,-1,24.67,51.817)" stroke-width=".3985" stroke-linecap="butt" stroke-miterlimit="10" stroke-linejoin="miter" fill="none" stroke="#999999" d="M223.9396 34.01608V-38.26836"/>
<path transform="matrix(1,0,0,-1,24.67,51.817)" stroke-width=".3985" stroke-linecap="butt" stroke-miterlimit="10" stroke-linejoin="miter" fill="none" stroke="#999999" d="M178.58496 12.75595H269.29469"/>
<path transform="matrix(1,0,0,-1,24.67,51.817)" stroke-width=".3985" stroke-linecap="butt" stroke-miterlimit="10" stroke-linejoin="miter" fill="none" stroke="#999999" d="M178.58496-12.75595H269.29469"/>
<path transform="matrix(1,0,0,-1,24.67,51.817)" stroke-width=".3985" stroke-linecap="butt" stroke-miterlimit="10" stroke-linejoin="miter" fill="none" stroke="#999999" d="M178.58496-38.26836H269.29469"/>
<use data-text="H" xlink:href="#font_1_4" transform="matrix(8.9664,0,0,-8.9664,358.13603,12.411003)"/>
<use data-text="a" xlink:href="#font_1_7" transform="matrix(8.9664,0,0,-8.9664,365.25535,12.411003)"/>
<use data-text="w" xlink:href="#font_1_21" transform="matrix(8.9664,0,0,-8.9664,369.69374,12.411003)"/>
<use data-text="k" xlink:href="#font_1_11" transform="matrix(8.9664,0,0,-8.9664,376.36473,12.411003)"/>
<use data-text="-" xlink:href="#font_1_2" transform="matrix(8.9664,0,0,-8.9664,381.1259,12.411003)"/>
<use data-text="D" xlink:href="#font_1_3" transform="matrix(8.9664,0,0,-8.9664,384.41658,12.411003)"/>
<use data-text="o" xlink:href="#font_1_15" transform="matrix(8.9664,0,0,-8.9664,391.5359,12.411003)"/>
<use data-text="v" xlink:href="#font_1_20" transform="matrix(8.9664,0,0,-8.9664,396.4674,12.411003)"/>
<use data-text="e" xlink:href="#font_1_8" transform="matrix(8.9664,0,0,-8.9664,400.9506,12.411003)"/>
<use data-text="H" xlink:href="#font_2_3" transform="matrix(8.9664,0,0,-8.9664,377.691,29.382)"/>
<use data-text="D" xlink:href="#font_2_2" transform="matrix(8.9664,0,0,-8.9664,423.125,29.382)"/>
<use data-text="H" xlink:href="#font_2_3" transform="matrix(8.9664,0,0,-8.9664,332.337,54.893)"/>
<use data-text="D" xlink:href="#font_2_2" transform="matrix(8.9664,0,0,-8.9664,332.41603,80.405)"/>
<use data-text="&#x2212;" xlink:href="#font_5_1" transform="matrix(8.9664,0,0,-8.9664,366.73204,53.835008)"/>
<use data-text="1" xlink:href="#font_3_2" transform="matrix(8.9664,0,0,-8.9664,373.90003,53.835008)"/>
<use data-text="," xlink:href="#font_4_1" transform="matrix(8.9664,0,0,-8.9664,378.50703,53.835008)"/>
<use data-text="&#x2212;" xlink:href="#font_5_1" transform="matrix(8.9664,0,0,-8.9664,385.16304,53.835008)"/>
<use data-text="1" xlink:href="#font_3_2" transform="matrix(8.9664,0,0,-8.9664,392.33003,53.835008)"/>
<use data-text="3" xlink:href="#font_3_4" transform="matrix(8.9664,0,0,-8.9664,419.25404,53.835008)"/>
<use data-text="," xlink:href="#font_4_1" transform="matrix(8.9664,0,0,-8.9664,423.86103,53.835008)"/>
<use data-text="1" xlink:href="#font_3_2" transform="matrix(8.9664,0,0,-8.9664,430.51704,53.835008)"/>
<use data-text="1" xlink:href="#font_3_2" transform="matrix(8.9664,0,0,-8.9664,373.90003,79.346)"/>
<use data-text="," xlink:href="#font_4_1" transform="matrix(8.9664,0,0,-8.9664,378.50703,79.346)"/>
<use data-text="3" xlink:href="#font_3_4" transform="matrix(8.9664,0,0,-8.9664,385.16304,79.346)"/>
<use data-text="2" xlink:href="#font_3_3" transform="matrix(8.9664,0,0,-8.9664,419.25404,79.346)"/>
<use data-text="," xlink:href="#font_4_1" transform="matrix(8.9664,0,0,-8.9664,423.86103,79.346)"/>
<use data-text="2" xlink:href="#font_3_3" transform="matrix(8.9664,0,0,-8.9664,430.51704,79.346)"/>
<path transform="matrix(1,0,0,-1,24.67,51.817)" stroke-width=".3985" stroke-linecap="butt" stroke-miterlimit="10" stroke-linejoin="miter" fill="none" stroke="#999999" d="M334.49244 34.01608V-38.26836"/>
<path transform="matrix(1,0,0,-1,24.67,51.817)" stroke-width=".3985" stroke-linecap="butt" stroke-miterlimit="10" stroke-linejoin="miter" fill="none" stroke="#999999" d="M379.84706 34.01608V-38.26836"/>
<path transform="matrix(1,0,0,-1,24.67,51.817)" stroke-width=".3985" stroke-linecap="butt" stroke-miterlimit="10" stroke-linejoin="miter" fill="none" stroke="#999999" d="M334.49244 12.75595H425.20213"/>
<path transform="matrix(1,0,0,-1,24.67,51.817)" stroke-width=".3985" stroke-linecap="butt" stroke-miterlimit="10" stroke-linejoin="miter" fill="none" stroke="#999999" d="M334.49244-12.75595H425.20213"/>
<path transform="matrix(1,0,0,-1,24.67,51.817)" stroke-width=".3985" stroke-linecap="butt" stroke-miterlimit="10" stroke-linejoin="miter" fill="none" stroke="#999999" d="M334.49244-38.26836H425.20213"/>
</svg>
