<svg xmlns="http://www.w3.org/2000/svg" xmlns:xlink="http://www.w3.org/1999/xlink" xmlns:inkscape="http://www.inkscape.org/namespaces/inkscape" version="1.1" width="331.876" height="140.909" viewBox="0 0 331.876 140.909">
<defs>
<path id="font_1_3" d="M.6399994 .14320374C.6399994 .15119934 .6329956 .15519715 .6289978 .15519715 .6049957 .15519715 .57598879 .09022522 .43499757 .09022522 .25898744 .09022522 .20899964 .19818115 .20899964 .34812928 .20899964 .49708558 .2630005 .6050415 .4269867 .6050415 .5159912 .6050415 .5629883 .5700531 .58999636 .5480652 .59599307 .5430603 .598999 .5390625 .60598757 .5390625 .6100006 .5390625 .61499026 .5440674 .6159973 .5480652L.6359863 .65904238C.6369934 .66304019 .6359863 .6670532 .6279907 .67004397 .56900027 .6920471 .5079956 .7060547 .42999269 .7060547 .18598938 .7060547 .06098938 .5870514 .06098938 .34913636 .06098938 .10421753 .18798828-.009765625 .43099977-.009765625 .5159912-.009765625 .56900027 .0022277833 .6419983 .047225954 .6499939 .052230836 .647995 .05921936 .647995 .05921936L.6399994 .14320374Z"/>
<path id="font_1_24" d="M.5179901 .22494507C.5179901 .3886261 .43798829 .47460938 .2749939 .47460938 .10798645 .47460938 .0309906 .38563539 .0309906 .22494507 .0309906 .06225586 .116989139-.0107421879 .27398683-.0107421879 .43099977-.0107421879 .5179901 .06124878 .5179901 .22494507M.2749939 .06724548C.16699219 .06724548 .16699219 .15707398 .16699219 .23692322 .16699219 .31376649 .16699219 .40260316 .27398683 .40260316 .38198854 .40260316 .38198854 .31477357 .38198854 .23692322 .38198854 .15808106 .38198854 .06724548 .2749939 .06724548Z"/>
<path id="font_1_25" d="M.19699097 .039245607C.24198914-.0107421879 .29699708-.0107421879 .31098939-.0107421879 .522995-.0107421879 .522995 .18106079 .522995 .23098755 .522995 .27990724 .522995 .46875 .34199525 .46875 .2829895 .46875 .22999573 .44474793 .19400025 .41073609 .19400025 .44773866 .17999268 .4577484 .1459961 .4577484H.10899353C.07299805 .4577484 .06098938 .44674684 .06098938 .40974427V-.14624024C.06098938-.18234253 .07199097-.19433594 .10899353-.19433594H.14898682C.18699646-.19433594 .19699097-.18135071 .19699097-.14624024V.039245607M.19699097 .3577881C.20799256 .3677826 .24099732 .39074708 .28399659 .39074708 .38598634 .39074708 .3869934 .2729187 .3869934 .22898865 .3869934 .1890564 .3869934 .06124878 .27398683 .06124878 .25099183 .06124878 .23298645 .069244388 .22099304 .07823181 .19699097 .095199588 .19699097 .10018921 .19699097 .11816406V.3577881Z"/>
<path id="font_1_16" d="M.43099977 .21386719C.45399476 .21386719 .47898866 .21485901 .47898866 .25985719 .47898866 .3886261 .4189911 .47460938 .269989 .47460938 .10998535 .47460938 .0309906 .38464356 .0309906 .23286438 .0309906 .069229129 .12599182-.0107421879 .2829895-.0107421879 .32099916-.0107421879 .37799073-.0057525637 .44400025 .027252198 .46598817 .038253786 .47299195 .041244508 .47299195 .053253175 .47299195 .060256959 .46998597 .08917236 .46899415 .09715271 .46499635 .12808228 .46398927 .1290741 .45498658 .1290741 .45098878 .1290741 .44898988 .1290741 .43798829 .11909485 .3789978 .068237308 .31900025 .06124878 .2869873 .06124878 .17399597 .06124878 .1619873 .15002442 .15899658 .21386719H.43099977M.1599884 .26686097C.16299439 .32774354 .18299866 .40260316 .269989 .40260316 .34999085 .40260316 .36499024 .3447113 .36799623 .26686097H.1599884Z"/>
<path id="font_1_26" d="M.19400025 .22991944C.19400025 .32487489 .272995 .36386109 .33599855 .3678589 .35398866 .36886598 .35598756 .36886598 .35598756 .39486695V.441864C.35598756 .46185304 .35598756 .4688568 .33799745 .4688568 .30999757 .4688568 .23699951 .4588623 .18998719 .3508606H.18899536V.41586305C.18899536 .44786073 .18199158 .4638672 .14099121 .4638672H.10899353C.07299805 .4638672 .06098938 .4528656 .06098938 .41586305V.04798889C.06098938 .011993408 .07199097 0 .10899353 0H.1459961C.18399048 0 .19400025 .0129852299 .19400025 .04798889V.22991944Z"/>
<path id="font_1_12" d="M.46398927 .31578065C.46398927 .4736023 .31199647 .47460938 .2619934 .47460938 .21499634 .47460938 .16499329 .4705963 .09799194 .44259645 .07699585 .433609 .07199097 .43060304 .07199097 .41960145 .07199097 .41259767 .07798767 .3547058 .07899475 .34672547 .07998657 .34072877 .084991458 .33573915 .09199524 .33573915 .09700012 .33573915 .099990848 .33872987 .102996829 .34172059 .1459961 .38664247 .19599915 .40859986 .2579956 .40859986 .31199647 .40859986 .32798768 .3756714 .32798768 .31677247V.2818451C.29299928 .2818451 .0309906 .2798462 .0309906 .13311768 .0309906 .06324768 .08699036-.0107421879 .1749878-.0107421879 .20899964-.0107421879 .28399659-.00074768069 .33099366 .068237308V.04824829C.33099366 .01625061 .33799745 .00024414063 .3789978 .00024414063H.41600038C.45399476 .00024414063 .46398927 .013244629 .46398927 .04824829V.31578065M.32798768 .15408325C.32798768 .06124878 .23298645 .06124878 .22999573 .06124878 .18798828 .06124878 .16099549 .09718323 .16099549 .13511658 .16099549 .23292542 .2999878 .23991394 .32798768 .24092102V.15408325Z"/>
<path id="font_1_28" d="M.21798706 .3860016H.30699159C.31900025 .3860016 .35499574 .3860016 .35499574 .42199708 .35499574 .4580078 .31900025 .4580078 .30699159 .4580078H.21798706V.54089358C.21798706 .5728607 .21099854 .5888672 .16999817 .5888672H.13899231C.102996829 .5888672 .09098816 .5778656 .09098816 .54089358V.4580078H.067993167C.056991579 .4580078 .019989014 .4580078 .019989014 .42199708 .019989014 .3860016 .055999757 .3860016 .067993167 .3860016H.08799744V.13319397C.08799744 .03225708 .12399292-.0107421879 .19299317-.0107421879 .20199585-.0107421879 .24598694-.0107421879 .2979889 .0052490236 .31498719 .010253906 .37298585 .028244019 .37298585 .04725647 .37298585 .050247194 .37098695 .057250978 .36499024 .07824707 .3600006 .098220828 .35798646 .10421753 .34899903 .10421753 .34399415 .10421753 .34298707 .10322571 .33699037 .097229007 .32598878 .0892334 .29899598 .06724548 .25698854 .06724548 .23298645 .06724548 .21798706 .084243778 .21798706 .15019226V.3860016Z"/>
<path id="font_1_19" d="M.101989749 .6953125C.069992069 .6953125 .053985597 .68930056 .053985597 .64930728V.603302C.053985597 .5713043 .06399536 .55830386 .100997928 .55830386H.15299988C.20098877 .55830386 .20098877 .5792999 .20098877 .62631228 .20098877 .67430117 .20098877 .6953125 .15299988 .6953125H.101989749M.19400025 .41000367C.19400025 .44200135 .18699646 .4580078 .1459961 .4580078H.10899353C.07299805 .4580078 .06098938 .44700624 .06098938 .41000367V.04798889C.06098938 .011993408 .07199097 0 .10899353 0H.1459961C.18399048 0 .19400025 .0129852299 .19400025 .04798889V.41000367Z"/>
<path id="font_1_23" d="M.5 .32478334C.5 .42774964 .45599366 .46875 .35398866 .46875 .24899292 .46875 .20399475 .39274598 .19099427 .36576844H.18998719V.41574098C.18998719 .44773866 .18299866 .46374513 .14199829 .46374513H.10798645C.07199097 .46374513 .05999756 .45274354 .05999756 .41574098V.047973634C.05999756 .011993408 .070999149 0 .10798645 0H.147995C.18598938 0 .19599915 .0129852299 .19599915 .047973634V.26882936C.19599915 .35577394 .2539978 .39674378 .30599977 .39674378 .35398866 .39674378 .3639984 .37376405 .3639984 .32278443V.047973634C.3639984 .015991211 .37098695 0 .4119873 0H.45199586C.48999024 0 .5 .0129852299 .5 .047973634V.32478334Z"/>
<path id="font_1_9" d="M.48298646 .32051087C.54599 .33551026 .6409912 .3735199 .6409912 .49742127 .6409912 .69433596 .42399598 .69433596 .3789978 .69433596H.13899231C.102996829 .69433596 .09098816 .68333438 .09098816 .6463318V.048034669C.09098816 .011993408 .101989749 0 .13899231 0H.18699646C.22499085 0 .23498535 .0129852299 .23498535 .048034669V.31152345H.34599305L.5099945 .024002076C.5239868 0 .5349884 0 .5569916 0H.6159973C.6359863 0 .6529999 0 .6529999 .030014039L.48298646 .32051087M.23498535 .3835144V.60832217H.36499024C.48098756 .60832217 .5019989 .5623627 .5019989 .49642945 .5019989 .43746949 .48799134 .3835144 .36499024 .3835144H.23498535Z"/>
<path id="font_1_13" d="M.19400025 .6462555C.19400025 .67832949 .18699646 .69433596 .1459961 .69433596H.10899353C.07299805 .69433596 .06098938 .68333438 .06098938 .6462555V.04824829C.06098938 .012252808 .07199097 .00024414063 .10899353 .00024414063H.14898682C.1659851 .00024414063 .19599915 .00024414063 .19699097 .039245607 .24299622-.0107421879 .2939911-.0107421879 .30999757-.0107421879 .522995-.0107421879 .522995 .18106079 .522995 .23098755 .522995 .2789154 .522995 .46875 .33499146 .46875 .25299073 .46875 .20298767 .42274476 .19400025 .412735V.6462555M.19699097 .3617859C.20999146 .3737793 .23999024 .39674378 .28599549 .39674378 .3869934 .39674378 .3869934 .30488587 .3869934 .22999573 .3869934 .15611267 .3869934 .06124878 .2749939 .06124878 .23298645 .06124878 .20799256 .08621216 .19699097 .10018921V.3617859Z"/>
<path id="font_1_32" d="M.46798707 .41099549C.47299195 .42399598 .47299195 .42599488 .47299195 .43099977 .47299195 .4580078 .44599916 .4580078 .43299867 .4580078H.41099549C.394989 .4580078 .37298585 .4580078 .35798646 .43499757 .35499574 .42999269 .27398683 .20896912 .2689972 .14195252H.2679901C.2630005 .19096375 .22200012 .28398133 .1789856 .37998963 .15098572 .44299317 .14399719 .4580078 .09399414 .4580078H.067993167C.053985597 .4580078 .0289917 .4580078 .0289917 .43199159 .0289917 .42799378 .03199768 .42099 .033996583 .41600038L.22299195-.000061035159C.21499634-.021072388 .21199036-.032073976 .20899964-.04206848 .19699097-.07507324 .17999268-.12008667 .12599182-.12008667 .09298706-.12008667 .069992069-.1060791 .05899048-.09907532 .053985597-.096084598 .051986696-.095077518 .04899597-.095077518 .04399109-.095077518 .035995485-.098083499 .035995485-.110076908 .035995485-.11808777 .041992189-.18708802 .04499817-.19108582 .053985597-.20307923 .10798645-.20507813 .12399292-.20507813 .24798584-.20507813 .29699708-.08708191 .30499269-.063079837L.46798707 .41099549Z"/>
<path id="font_1_5" d="M.6599884 .31121827C.6599884 .31521607 .6569977 .32421876 .647995 .32421876H.44299317C.43499757 .32421876 .42799378 .3222046 .42799378 .31021119V.23921204C.42799378 .23321533 .43299867 .22921753 .43899537 .22921753H.522995V.10122681C.5139923 .0952301 .44699098 .0892334 .43199159 .0892334 .2639923 .0892334 .20899964 .19421387 .20899964 .34820558 .20899964 .49713136 .2630005 .605072 .42599488 .605072 .5109863 .605072 .5519867 .5840759 .61099246 .52911379 .6139984 .5261078 .61698916 .52511599 .6199951 .52511599 .625 .52511599 .6299896 .52911379 .6319885 .5381012L.6499939 .6400757C.651001 .6450653 .6519928 .6510773 .6429901 .6560669 .61299136 .67207339 .5389862 .7050781 .43199159 .7050781 .16699219 .7050781 .06199646 .5700836 .06199646 .34820558 .06199646 .10122681 .19299317-.009765625 .42599488-.009765625 .5319977-.009765625 .6319885 .023223877 .6599884 .04623413V.31121827Z"/>
<path id="font_1_22" d="M.80599978 .32489015C.80599978 .42785646 .7619934 .4688568 .6599884 .4688568 .58898928 .4688568 .5339966 .43585206 .49798585 .36987306 .48199464 .4658661 .39698792 .4688568 .35499574 .4688568 .33599855 .4688568 .2939911 .4688568 .24899292 .43585206 .21798706 .41285707 .19799805 .38085938 .19099427 .36587525H.18998719V.41586305C.18998719 .44786073 .18299866 .4638672 .14199829 .4638672H.10798645C.07199097 .4638672 .05999756 .4528656 .05999756 .41586305V.04798889C.05999756 .011993408 .070999149 0 .10798645 0H.147995C.18598938 0 .19599915 .0129852299 .19599915 .04798889V.26890565C.19599915 .35887147 .25698854 .39686585 .30599977 .39686585 .35398866 .39686585 .36499024 .37586976 .36499024 .32289125V.04798889C.36499024 .011993408 .37599183 0 .41299439 0H.45298768C.4909973 0 .5009918 .0129852299 .5009918 .04798889V.26890565C.5009918 .35887147 .56199648 .39686585 .61099246 .39686585 .6589966 .39686585 .66999819 .37586976 .66999819 .32289125V.04798889C.66999819 .011993408 .68099978 0 .71798709 0H.7579956C.79599 0 .80599978 .0129852299 .80599978 .04798889V.32489015Z"/>
<path id="font_1_15" d="M.49899293 .6462555C.49899293 .67832949 .49198915 .69433596 .45098878 .69433596H.4139862C.37599183 .69433596 .3659973 .68133547 .3659973 .6462555V.41874696C.32099916 .46174623 .2709961 .46875 .23999024 .46875 .036987306 .46875 .036987306 .2769165 .036987306 .22799683 .036987306 .18206787 .036987306-.0107421879 .23498535-.0107421879 .2769928-.0107421879 .31999208 .0012512207 .36299134 .04725647 .36299134 .010253906 .3769989 .00024414063 .41099549 .00024414063H.45098878C.4889984 .00024414063 .49899293 .013244629 .49899293 .04824829V.6462555M.36299134 .12515259C.36299134 .108184818 .36299134 .09919739 .33399964 .07922363 .30899049 .06324768 .28599549 .06124878 .27398683 .06124878 .17298889 .06124878 .17298889 .15310669 .17298889 .22799683 .17298889 .30288697 .17298889 .39674378 .2849884 .39674378 .31399537 .39674378 .34098817 .38674928 .36299134 .3657837V.12515259Z"/>
<path id="font_1_7" d="M.7319946 .3416748C.7319946 .5427704 .6589966 .7158203 .39698792 .7158203 .11999512 .7158203 .06098938 .52474978 .06098938 .3416748 .06098938 .15457154 .12599182-.022460938 .3959961-.022460938 .6539917-.022460938 .7319946 .13656616 .7319946 .3416748M.39698792 .057525636C.20799256 .057525636 .20799256 .26663209 .20799256 .35768128 .20799256 .4457245 .20799256 .6378174 .3959961 .6378174 .58499148 .6378174 .58499148 .4477234 .58499148 .35768128 .58499148 .26863099 .58499148 .057525636 .39698792 .057525636Z"/>
<path id="font_1_2" d="M.47399903 .6513214C.45899964 .69433596 .42999269 .69433596 .4099884 .69433596H.32199098C.3019867 .69433596 .272995 .69433596 .2579956 .6513214L.04699707 .047058107C.041992189 .0340271 .041992189 .03201294 .041992189 .027008057 .041992189 0 .066986087 0 .08099365 0H.116989139C.1349945 0 .1659851 0 .17999268 .040039064L.21899414 .1512909H.49598695L.5299988 .05506897C.5419922 .019989014 .548996 0 .5970001 0H.651001C.6649933 0 .6899872 0 .6899872 .027008057 .6899872 .03201294 .6899872 .0340271 .68499758 .047058107L.47399903 .6513214M.32099916 .4493103C.33599855 .49331666 .34899903 .5313263 .35699464 .5673218H.35798646C.36299134 .5433197 .36299134 .5413208 .37098695 .5183258L.46598817 .23730469H.24899292L.32099916 .4493103Z"/>
<path id="font_1_21" d="M.19400025 .6463165C.19400025 .67832949 .18699646 .69433596 .1459961 .69433596H.10899353C.07299805 .69433596 .06098938 .68333438 .06098938 .6463165V.04800415C.06098938 .011993408 .07199097 0 .10899353 0H.1459961C.18399048 0 .19400025 .0129852299 .19400025 .04800415V.6463165Z"/>
<path id="font_1_31" d="M.71899417 .42999269C.71598818 .4580078 .69799807 .4580078 .6669922 .4580078 .6199951 .4580078 .60798647 .45500184 .59399417 .40299989 .57199099 .32600404 .5279999 .16999817 .5130005 .11299133L.42799378 .41299439C.42199708 .43499757 .4149933 .4580078 .36898805 .4580078 .35398866 .4580078 .33099366 .4580078 .31698609 .43499757 .30799867 .41999818 .2639923 .24699402 .22898865 .12998963L.14898682 .41299439C.13899231 .44700624 .12799073 .4580078 .08699036 .4580078H.066986087C.04798889 .4580078 .026992798 .4580078 .023986817 .42999269L.12998963 .04598999C.14299011 0 .16899109 0 .19400025 0H.22200012C.2689972 0 .2769928 .01499939 .28799439 .054992677 .31098939 .13800049 .34700013 .2639923 .35099793 .31599427L.35198976 .31700135C.35798646 .2599945 .4019928 .101989749 .4149933 .054992677 .42599488 .018997193 .43099977 0 .48098756 0H.548996C.59199526 0 .60198977 .011993408 .6119995 .04598999L.71899417 .42999269Z"/>
<path id="font_1_27" d="M.3959961 .14111328C.3959961 .19700623 .3659973 .2319336 .34799195 .24790955 .30799867 .28382875 .272995 .28982545 .23098755 .2978058 .17599488 .30778504 .13598633 .31576539 .13598633 .35469056 .13598633 .39561463 .16899109 .40359498 .20799256 .40359498 .2749939 .40359498 .31098939 .37864686 .33699037 .35668946 .34700013 .3467102 .34899903 .3467102 .35299684 .3467102 .36299134 .3467102 .36499024 .35569764 .3659973 .35968019 .36799623 .36767579 .37799073 .42359925 .37799073 .42860414 .37799073 .44459535 .32499696 .4586029 .31399537 .4626007 .27398683 .4736023 .24198914 .47460938 .21598816 .47460938 .17098999 .47460938 .036987306 .47460938 .036987306 .33174134 .036987306 .2828369 .05899048 .25289918 .085998538 .22894287 .12098694 .19700623 .1599884 .1900177 .21699524 .17903137 .24598694 .17404175 .29699708 .16506958 .29699708 .12113953 .29699708 .07423401 .2579956 .06724548 .21899414 .06724548 .1749878 .06724548 .11898804 .08023071 .07199097 .13612366 .066986087 .14111328 .06399536 .144104 .057998659 .144104 .04798889 .144104 .04598999 .13511658 .04499817 .12913513 .042999269 .11515808 .0309906 .058242799 .0309906 .04824829 .0309906 .03024292 .10499573 .007247925 .10598755 .0062561037 .16099549-.0107421879 .20199585-.0107421879 .21899414-.0107421879 .269989-.0107421879 .3959961-.0067443849 .3959961 .14111328Z"/>
<path id="font_1_11" d="M.29299928 .58732607V.04800415C.29299928 .011993408 .3039856 0 .34098817 0H.3919983C.42999269 0 .43998719 .0129852299 .43998719 .04800415V.58732607C.48399354 .58732607 .59599307 .5843353 .6399994 .5843353 .66799929 .5843353 .69200137 .5843353 .69200137 .6323242V.6403351C.69200137 .67233279 .68499758 .688324 .6439972 .688324H.08799744C.051986696 .688324 .039993287 .6773224 .039993287 .6403351V.6323242C.039993287 .5843353 .06399536 .5843353 .09199524 .5843353L.29299928 .58732607Z"/>
<path id="font_1_1" d="M.25698854 .19264221C.2689972 .19264221 .30499269 .19264221 .30499269 .2286377 .30499269 .26464845 .2689972 .26464845 .25698854 .26464845H.05999756C.04798889 .26464845 .011993408 .26464845 .011993408 .2286377 .011993408 .19264221 .04798889 .19264221 .05999756 .19264221H.25698854Z"/>
<path id="font_1_17" d="M.21899414 .3860016H.2669983C.2789917 .3860016 .31498719 .3860016 .31498719 .42199708 .31498719 .4580078 .2789917 .4580078 .2669983 .4580078H.21598816V.5670471C.21598816 .5930481 .21598816 .6330719 .2809906 .6330719 .31298829 .6330719 .33299256 .6240692 .35299684 .60505679 .3600006 .59706118 .36299134 .59506228 .36799623 .59506228 .3809967 .59506228 .3809967 .60505679 .3809967 .62106326V.6670685C.3809967 .69107058 .37998963 .69207766 .34599305 .69906619 .31698609 .7050781 .29599 .7050781 .2809906 .7050781 .20599365 .7050781 .085998538 .6880646 .085998538 .53804019V.4580078C.06498718 .4580078 .02999878 .4580078 .02999878 .42199708 .02999878 .3860016 .06399536 .3860016 .085998538 .3860016V.04798889C.085998538 .011993408 .09700012 0 .13398743 0H.17098999C.20899964 0 .21899414 .0129852299 .21899414 .04798889V.3860016Z"/>
<path id="font_1_4" d="M.13899231 .69433596C.102996829 .69433596 .09098816 .68333438 .09098816 .6463318V.04798889C.09098816 .011993408 .101989749 0 .13899231 0H.40299989C.6469879 0 .7319946 .14602661 .7319946 .3421631 .7319946 .4212036 .71899417 .5182648 .6629944 .5893097 .58799746 .6823273 .46798707 .69433596 .40299989 .69433596H.13899231M.23498535 .085998538V.60832217H.36299134C.57899478 .60832217 .58799746 .45422364 .58799746 .3421631 .58799746 .2290802 .57699587 .085998538 .3639984 .085998538H.23498535Z"/>
<path id="font_1_14" d="M.45700074 .050247194C.45700074 .06124878 .45298768 .107177738 .45098878 .120147708 .45098878 .12313843 .44898988 .13311768 .43899537 .13311768 .43499757 .13311768 .43299867 .13311768 .4229889 .12313843 .4059906 .108169559 .35899354 .06724548 .2769928 .06724548 .17298889 .06724548 .17298889 .16804505 .17298889 .2319336 .17298889 .3127594 .17799378 .39660646 .27999879 .39660646 .34498597 .39660646 .37199403 .3806305 .4079895 .35069276 .41999818 .33970643 .42199708 .33970643 .42599488 .33970643 .43598939 .33970643 .43798829 .34869386 .43899537 .35269166 .44099427 .360672 .45098878 .41659547 .45098878 .42160035 .45098878 .43060304 .44400025 .43460084 .4269867 .44259645 .3789978 .4645996 .34899903 .47460938 .2789917 .47460938 .12998963 .47460938 .036987306 .40460206 .036987306 .22993469 .036987306 .06425476 .12298584-.0107421879 .27398683-.0107421879 .30099488-.0107421879 .36099244-.009750366 .42799378 .024246216 .45599366 .039245607 .45700074 .040252687 .45700074 .050247194Z"/>
<path id="font_1_8" d="M.23799134 .2685547H.3899994C.5469971 .2685547 .6409912 .33454896 .6409912 .47843934 .6409912 .6293335 .54299929 .69433596 .3889923 .69433596H.13899231C.102996829 .69433596 .09098816 .68333438 .09098816 .6463318V.048049928C.09098816 .011993408 .101989749 0 .13899231 0H.18998719C.22799683 0 .23799134 .0129852299 .23799134 .048049928V.2685547M.35798646 .60832217C.4889984 .60832217 .5019989 .5483856 .5019989 .47843934 .5019989 .41149903 .4909973 .34754945 .35699464 .34754945H.23498535V.60832217H.35798646Z"/>
<path id="font_1_10" d="M.269989 .4407196C.24798584 .4457245 .18598938 .46873475 .18598938 .5257721 .18598938 .6108093 .2709961 .6128082 .30499269 .6128082 .36099244 .6128082 .41099549 .59980776 .45999146 .55178835 .47599793 .5367737 .47698976 .5357666 .48098756 .5357666 .4869995 .5357666 .49198915 .5387726 .49499513 .55378726L.5099945 .6408081C.5119934 .64881899 .5119934 .6508179 .5119934 .6538086 .5119934 .66181948 .5109863 .6628113 .48599244 .67581179 .4149933 .7108154 .35598756 .7158203 .30499269 .7158203 .21598816 .7158203 .06098938 .69480898 .06098938 .50775149 .06098938 .4367218 .09799194 .3907013 .116989139 .37068177 .16799927 .3186493 .21499634 .3086548 .29299928 .29063417 .34899903 .27763368 .37098695 .27262879 .3929901 .2526245 .40299989 .24261475 .42399598 .2216034 .42399598 .18357849 .42399598 .089538577 .33799745 .08653259 .30499269 .08653259 .22099304 .08653259 .147995 .12054443 .09799194 .16557312 .085998538 .17758179 .083999637 .17758179 .07998657 .17758179 .07398987 .17758179 .068984989 .1745758 .06599426 .15957642L.050994874 .072525028C.04899597 .06452942 .04899597 .06253052 .04899597 .059524537 .04899597 .038528444 .15299988 .002532959 .1579895 .0005340576 .22499085-.020462037 .2789917-.022460938 .30499269-.022460938 .45498658-.022460938 .548996 .044525148 .548996 .19958496 .548996 .3116455 .46598817 .39569093 .3659973 .41871644L.269989 .4407196Z"/>
<path id="font_1_18" d="M.19999695 .09239197C.1639862 .09239197 .1499939 .09239197 .13598633 .104278568 .13198853 .10824585 .114990238 .12309265 .114990238 .1489563 .114990238 .15596009 .115997318 .15795899 .116989139 .16395569 .1639862 .13795471 .22299195 .13795471 .24398804 .13795471 .28599549 .13795471 .44499208 .13795471 .44499208 .3028412 .44499208 .3607788 .4229889 .3957367 .4139862 .40673829 .43099977 .40673829 .46598817 .40673829 .5069885 .3957367 .5109863 .3937378 .5179901 .39175416 .5209961 .39175416 .5289917 .39175416 .5339966 .3977356 .5339966 .40473939 .5339966 .40873719 .5289917 .43273927 .5269928 .44274903 .522995 .46673585 .522995 .46875 .5049896 .46875 .47399903 .46875 .42399598 .45674134 .38598634 .43374635 .33898927 .46473695 .2869873 .46875 .24398804 .46875 .20199585 .46875 .042999269 .46875 .042999269 .30384828 .042999269 .2638855 .053985597 .21394348 .09199524 .18095398 .06498718 .14395142 .06498718 .105270389 .06498718 .10031128 .06498718 .08139038 .070999149 .04838562 .09199524 .021392823 .07699585 .015396118 .024993897-.002609253 .024993897-.06680298 .024993897-.09791565 .039993287-.15005493 .102996829-.17906189 .1599884-.20506287 .22698975-.20605469 .27398683-.20605469 .33299256-.20605469 .5239868-.20605469 .5239868-.063797 .5239868 .09239197 .3829956 .09239197 .24798584 .09239197H.19999695M.24398804 .20996094C.17399597 .20996094 .17098999 .24790955 .17098999 .3028412 .17098999 .3577881 .17399597 .39674378 .24398804 .39674378 .31399537 .39674378 .31698609 .3587799 .31698609 .30384828 .31698609 .24891663 .31399537 .20996094 .24398804 .20996094M.2979889-.016601563C.3789978-.016601563 .42099-.030670166 .42099-.06680298 .42099-.13406372 .30699159-.13406372 .2749939-.13406372 .23498535-.13406372 .12799073-.13406372 .12799073-.063797 .12799073-.016601563 .15899658-.016601563 .18199158-.016601563H.2979889Z"/>
<path id="font_1_6" d="M.70199587 .6463165C.70199587 .67832949 .69499209 .69433596 .6539917 .69433596H.6029968C.5649872 .69433596 .5549927 .68133547 .5549927 .6463165V.40820313H.23799134V.6463165C.23799134 .67832949 .23098755 .69433596 .18998719 .69433596H.13899231C.102996829 .69433596 .09098816 .68333438 .09098816 .6463165V.04800415C.09098816 .011993408 .101989749 0 .13899231 0H.18998719C.22799683 0 .23799134 .0129852299 .23799134 .04800415V.31419374H.5549927V.04800415C.5549927 .015991211 .56199648 0 .6029968 0H.6539917C.69200137 0 .70199587 .0129852299 .70199587 .04800415V.6463165Z"/>
<path id="font_1_29" d="M.5 .41001893C.5 .44200135 .49299623 .4580078 .45199586 .4580078H.4119873C.37399293 .4580078 .3639984 .44500733 .3639984 .41001893V.173172C.3639984 .10720825 .32899476 .050247194 .2579956 .050247194 .20199585 .050247194 .19599915 .0642395 .19599915 .11720276V.41001893C.19599915 .44200135 .18899536 .4580078 .147995 .4580078H.10798645C.07199097 .4580078 .05999756 .44700624 .05999756 .41001893V.12620545C.05999756 .019256592 .117996219-.0107421879 .22200012-.0107421879 .24899292-.0107421879 .31999208-.0107421879 .36698915 .07423401V.04824829C.36698915 .01625061 .37399293 .00024414063 .4149933 .00024414063H.45199586C.48999024 .00024414063 .5 .013244629 .5 .04824829V.41001893Z"/>
<path id="font_1_20" d="M.31298829 .27212525 .46699525 .41519166C.47898866 .42619325 .48199464 .42919923 .48199464 .43721009 .48199464 .45822145 .46199037 .45822145 .44799806 .45822145H.3899994C.37199403 .45822145 .35299684 .45822145 .32998658 .43721009L.18598938 .3031311V.6463165C.18598938 .67832949 .1789856 .69433596 .13798523 .69433596H.116989139C.08099365 .69433596 .068984989 .68333438 .068984989 .6463165V.04800415C.068984989 .011993408 .07998657 0 .116989139 0H.1349945C.17298889 0 .18299866 .0129852299 .18299866 .04800415V.15205384L.22999573 .19508362 .3600006 .024993897C.3769989 .0029907227 .38398744 0 .41299439 0H.46099855C.47499085 0 .49699403 0 .49699403 .021987915 .49699403 .023986817 .49699403 .0309906 .4869995 .044006349L.31298829 .27212525Z"/>
<path id="font_1_30" d="M.46798707 .41099549C.47299195 .42500306 .47299195 .42700196 .47299195 .42999269 .47299195 .4580078 .44799806 .4580078 .43299867 .4580078H.4119873C.36999513 .4580078 .35899354 .44299317 .34999085 .4149933L.25099183 .11299133 .1519928 .4149933C.14498902 .43600465 .13798523 .4580078 .08999634 .4580078H.06599426C.050994874 .4580078 .025985718 .4580078 .025985718 .42999269 .025985718 .42700196 .025985718 .42500306 .0309906 .41099549L.1499939 .041992189C.1639862 0 .19499207 0 .21299744 0H.28599549C.3039856 0 .33499146 0 .34899903 .041992189L.46798707 .41099549Z"/>
<path id="font_2_2" d="M.47299195 .31976319C.47299195 .38682557 .46998597 .47288514 .43499757 .5479431 .3909912 .64201357 .31498719 .6660156 .25698854 .6660156 .19699097 .6660156 .12098694 .64201357 .07699585 .5459442 .04499817 .47688294 .039993287 .39582826 .039993287 .31976319 .039993287 .25471498 .041992189 .15765381 .084991458 .07858276 .13198853-.0064697267 .20999146-.022460938 .2559967-.022460938 .32099916-.022460938 .394989 .0055389406 .43699647 .097595218 .46699525 .1646576 .47299195 .23971558 .47299195 .31976319M.25698854 .002532959C.22698975 .002532959 .15499878 .016540528 .13598633 .12962342 .12599182 .18867493 .12599182 .2747345 .12599182 .33177186 .12599182 .39982606 .12599182 .47888185 .13798523 .53393557 .1579895 .6230011 .22200012 .64100649 .2559967 .64100649 .2939911 .64100649 .35699464 .62098696 .37599183 .5279236 .3869934 .47288514 .3869934 .39482118 .3869934 .33177186 .3869934 .2697296 .3869934 .18566895 .3769989 .12661743 .35598756 .012542725 .28199769 .002532959 .25698854 .002532959Z"/>
<path id="font_2_1" d="M.19599915 .053985597C.19599915 .08299255 .17199707 .10798645 .14199829 .10798645 .11199951 .10798645 .08799744 .08299255 .08799744 .053985597 .08799744 .023986817 .11199951 0 .14199829 0 .17199707 0 .19599915 .023986817 .19599915 .053985597Z"/>
<path id="font_2_8" d="M.17199707 .45387269C.14199829 .47288514 .11898804 .4998932 .11898804 .53692629 .11898804 .6019745 .18899536 .64100649 .25498963 .64100649 .33198548 .64100649 .3939972 .58695986 .3939972 .51690676 .3939972 .44685365 .33399964 .40083314 .2939911 .37780763L.17199707 .45387269M.31900025 .36180116C.36898805 .38581849 .44198609 .43585206 .44198609 .51690676 .44198609 .6109772 .34799195 .6660156 .2579956 .6660156 .15299988 .6660156 .070999149 .5909729 .070999149 .49890138 .070999149 .46087647 .084991458 .42485047 .10899353 .39582826 .12599182 .3768158 .13198853 .37280274 .18998719 .3357849 .101989749 .29374696 .042999269 .23269654 .042999269 .15063477 .042999269 .044555665 .147995-.022460938 .2559967-.022460938 .37199403-.022460938 .46998597 .059570314 .46998597 .16764832 .46998597 .26472474 .3959961 .3127594 .37098695 .32876588 .3600006 .33677674 .33099366 .35479737 .31900025 .36180116M.21699524 .31877137 .34298707 .2407074C.3659973 .22569275 .41600038 .19366455 .41600038 .1326294 .41600038 .05357361 .33599855 .0055389406 .25698854 .0055389406 .16999817 .0055389406 .09700012 .06758118 .09700012 .15063477 .09700012 .22268677 .14698792 .28274537 .21699524 .31877137Z"/>
<path id="font_2_5" d="M.10398865 .3444519C.10398865 .32641603 .10398865 .31539918 .117996219 .31539918 .12599182 .31539918 .1289978 .31941224 .1349945 .32843019 .16499329 .3704834 .21299744 .39453126 .2649994 .39453126 .37199403 .39453126 .37199403 .24029541 .37199403 .20425415 .37199403 .17324829 .37199403 .11125183 .34399415 .06637573 .31698609 .024475098 .2749939 .0055389406 .23599243 .0055389406 .1769867 .0055389406 .10998535 .042434694 .085998538 .116256717 .08699036 .116256717 .09298706 .11425781 .099990848 .11425781 .11999512 .11425781 .14898682 .12724304 .14898682 .16325379 .14898682 .19424439 .1269989 .21224976 .099990848 .21224976 .07899475 .21224976 .050994874 .20025635 .050994874 .1602478 .050994874 .069366458 .1269989-.022460938 .23799134-.022460938 .35899354-.022460938 .46199037 .0753479 .46199037 .19924927 .46199037 .3204193 .37599183 .41952516 .2669983 .41952516 .21899414 .41952516 .16999817 .40351869 .1349945 .36747743V.56477358C.16499329 .5557709 .19599915 .55078127 .22698975 .55078127 .34999085 .55078127 .42199708 .6397705 .42199708 .652771 .42199708 .6617737 .41600038 .6657715 .41099549 .6657715 .40899659 .6657715 .40699769 .6657715 .397995 .6607666 .35099793 .6417694 .30499269 .6337738 .2630005 .6337738 .21998596 .6337738 .1749878 .6417694 .1289978 .6607666 .11898804 .6657715 .116989139 .6657715 .115997318 .6657715 .10398865 .6657715 .10398865 .655777 .10398865 .6387787V.3444519Z"/>
<path id="font_2_6" d="M.13398743 .33073426C.13398743 .43276979 .14498902 .4897766 .17199707 .54177859 .19198609 .58277896 .24099732 .64100649 .31498719 .64100649 .33499146 .64100649 .3809967 .63697817 .4039917 .6007843 .36698915 .6007843 .35099793 .5817871 .35099793 .55477908 .35099793 .5287781 .36898805 .50878909 .39698792 .50878909 .4249878 .50878909 .44400025 .5267792 .44400025 .55677798 .44400025 .612854 .4039917 .6660156 .31298829 .6660156 .18399048 .6660156 .042999269 .53878787 .042999269 .3157196 .042999269 .044555665 .16499329-.022460938 .25898744-.022460938 .36999513-.022460938 .46998597 .0705719 .46998597 .20265198 .46998597 .32972718 .37799073 .42578126 .2649994 .42578126 .20498657 .42578126 .1619873 .39076234 .13398743 .33073426M.2579956 .0055389406C.20098877 .0055389406 .16799927 .05256653 .1559906 .08157349 .13699341 .12660218 .13598633 .20965576 .13598633 .22566223 .13598633 .29270936 .16699219 .4007721 .2630005 .4007721 .2789917 .4007721 .32798768 .4007721 .3600006 .33872987 .3789978 .30070497 .3789978 .25167848 .3789978 .20365906 .3789978 .15562439 .3789978 .1065979 .3600006 .06956482 .32899476 .012542725 .2849884 .0055389406 .2579956 .0055389406Z"/>
<path id="font_2_4" d="M.46199037 .17704773H.43399049C.43199159 .16404724 .42399598 .10501099 .41099549 .08900452 .40499879 .07998657 .33599855 .07998657 .31599427 .07998657H.13798523L.23699951 .17404175C.40098573 .3161316 .46199037 .36915589 .46199037 .4711914 .46199037 .5860901 .36698915 .6660156 .24398804 .6660156 .1289978 .6660156 .050994874 .575119 .050994874 .4841919 .050994874 .43418885 .09399414 .42919923 .102996829 .42919923 .125 .42919923 .15499878 .44519044 .15499878 .48120118 .15499878 .51119998 .13398743 .5332031 .102996829 .5332031 .09799194 .5332031 .09498596 .5332031 .09098816 .53219607 .114990238 .6030731 .1789856 .63500979 .23298645 .63500979 .33499146 .63500979 .36999513 .5401764 .36999513 .4711914 .36999513 .36915589 .29299928 .28611756 .24499512 .23408509L.06199646 .035995485C.050994874 .024993897 .050994874 .022994996 .050994874 0H.43399049L.46199037 .17704773Z"/>
<path id="font_2_3" d="M.3039856 .6392822C.3039856 .6642761 .30299378 .666275 .27799989 .666275 .21598816 .60227969 .12399292 .60227969 .09298706 .60227969V.57128909C.11199951 .57128909 .17298889 .57128909 .22698975 .5972748V.08001709C.22698975 .042999269 .22399903 .0309906 .1309967 .0309906H.09899902V0C.1349945 .0029907227 .22399903 .0029907227 .2649994 .0029907227 .30599977 .0029907227 .3959961 .0029907227 .43199159 0V.0309906H.3999939C.30699159 .0309906 .3039856 .042999269 .3039856 .08001709V.6392822Z"/>
<path id="font_2_9" d="M.3789978 .31478883V.2927704C.3789978 .04875183 .2679901 .0055389406 .21099854 .0055389406 .18798828 .0055389406 .13699341 .009552002 .11099243 .042755128H.114990238C.12298584 .040740968 .1619873 .04875183 .1619873 .088760379 .1619873 .11476135 .14399719 .13476563 .115997318 .13476563 .08799744 .13476563 .068984989 .116760257 .068984989 .086761478 .068984989 .020629883 .12199402-.022460938 .21199036-.022460938 .34098817-.022460938 .46998597 .10975647 .46998597 .3287964 .46998597 .5999756 .34999085 .6660156 .2599945 .6660156 .14498902 .6660156 .042999269 .5729675 .042999269 .44187928 .042999269 .31478883 .1349945 .21875 .24798584 .21875 .32099916 .21875 .36099244 .27175904 .3789978 .31478883M.25 .2437439C.23399353 .2437439 .18499756 .2437439 .15299988 .30578614 .13398743 .34381105 .13398743 .39283753 .13398743 .4408722 .13398743 .48890687 .13398743 .5389404 .15499878 .57696536 .18499756 .628006 .22399903 .64100649 .2599945 .64100649 .32798768 .64100649 .35499574 .57196047 .35899354 .5619507 .37298585 .52493289 .3769989 .4638977 .3769989 .42086793 .3769989 .34780885 .34399415 .2437439 .25 .2437439Z"/>
<path id="font_2_7" d="M.48999024 .60954287C.49899293 .62054446 .49899293 .62254336 .49899293 .6435547H.25C.12399292 .6435547 .12098694 .6565399 .117996219 .67555239H.08999634L.056991579 .46655274H.084991458C.08898926 .48954774 .09700012 .5455475 .10998535 .55755618 .116989139 .56355288 .19599915 .56355288 .20999146 .56355288H.41999818L.32398988 .4325409C.19400025 .25354005 .18199158 .090530399 .18199158 .03353882 .18199158 .022537232 .18199158-.022460938 .22799683-.022460938 .2749939-.022460938 .2749939 .021530152 .2749939 .03453064V.08352661C.2749939 .23054505 .29699708 .34654237 .34999085 .41854859L.48999024 .60954287Z"/>
<path id="font_3_2" d="M.19799805 .69433596H.09700012V0H.5329895V.070999149C.43798829 .070999149 .34298707 .068984989 .24798584 .068984989H.19799805V.69433596Z"/>
<path id="font_3_5" d="M.42999269 .10925293C.37399293 .069229129 .31098939 .056228639 .2679901 .056228639 .18099976 .056228639 .114990238 .1272583 .11199951 .21928406H.43998719C.43998719 .2652893 .43499757 .33213807 .3959961 .3889923 .3600006 .43997193 .2999878 .45898438 .25099183 .45898438 .1289978 .45898438 .034988405 .35209657 .034988405 .22529602 .034988405 .09724426 .1349945-.009765625 .2669983-.009765625 .32499696-.009765625 .3849945 .007232666 .43598939 .038223268L.42999269 .10925293M.11898804 .27929688C.14199829 .35906983 .20098877 .39297486 .25099183 .39297486 .29499818 .39297486 .3600006 .3720398 .3789978 .27929688H.11898804Z"/>
<path id="font_3_6" d="M.5029907 .45410157C.48098756 .45410157 .4139862 .45309449 .33799745 .42408753L.33599855 .4230957C.2999878 .44709779 .2649994 .45410157 .23599243 .45410157 .13798523 .45410157 .06498718 .37709046 .06498718 .29101563 .06498718 .2559967 .07699585 .2199707 .099990848 .19194031 .085998538 .17494202 .070999149 .14694214 .070999149 .10900879 .070999149 .070129398 .08699036 .045135499 .09599304 .03312683 .040985109 .0011291504 .02999878-.044921876 .02999878-.06896973 .02999878-.14508057 .1349945-.20507813 .2649994-.20507813 .3959961-.20507813 .5-.14508057 .5-.06896973 .5 .072128299 .32499696 .072128299 .28199769 .072128299H.18899536C.17298889 .072128299 .12998963 .072128299 .12998963 .1239624 .12998963 .14395142 .13699341 .15394593 .13798523 .15594483 .17298889 .13394165 .20799256 .12695313 .23498535 .12695313 .33299256 .12695313 .4059906 .20396424 .4059906 .2900238 .4059906 .32203675 .39698792 .35105897 .3789978 .37808229 .375 .38409425 .375 .38508607 .375 .38609315 .375 .39009095 .43499757 .39009095 .43998719 .39009095 .44099427 .39009095 .47898866 .39009095 .5149994 .38609315L.5029907 .45410157M.23599243 .18894959C.18199158 .18894959 .14199829 .22297669 .14199829 .2900238 .14199829 .3680725 .19198609 .39208985 .23498535 .39208985 .2889862 .39208985 .32899476 .35806275 .32899476 .29101563 .32899476 .21296692 .2789917 .18894959 .23599243 .18894959M.2829895-.005859375C.30599977-.005859375 .42399598-.005859375 .42399598-.06996155 .42399598-.11303711 .34899903-.14308167 .2649994-.14308167 .18099976-.14308167 .10598755-.11303711 .10598755-.06996155 .10598755-.064956668 .10598755-.005859375 .18699646-.005859375H.2829895Z"/>
<path id="font_3_9" d="M.46499635 .29606629C.46499635 .37408448 .44198609 .45410157 .31900025 .45410157 .2619934 .45410157 .20698548 .4310913 .16299439 .37808229V.45109559H.08299255V0H.16999817V.24305725C.16999817 .30906678 .19799805 .38809205 .2749939 .38809205 .37799073 .38809205 .37799073 .31806947 .37799073 .2890625V0H.46499635V.29606629Z"/>
<path id="font_3_4" d="M.46299745 .69433596H.3789978V.40109254C.31498719 .4480896 .25 .45410157 .22099304 .45410157 .115997318 .45410157 .035995485 .34910584 .035995485 .22216797 .035995485 .095214847 .114990238-.009765625 .21798706-.009765625 .27999879-.009765625 .33799745 .018234253 .37599183 .052230836V.00022888184H.46299745V.69433596M.37599183 .12420654C.35099793 .083221439 .31298829 .056228639 .2649994 .056228639 .19499207 .056228639 .12298584 .10520935 .12298584 .22116089 .12298584 .3461151 .20799256 .38809205 .27598573 .38809205 .31599427 .38809205 .34999085 .37109376 .37599183 .33711244V.12420654Z"/>
<path id="font_3_1" d="M.6519928 .69433596H.5509949V.39411927H.19799805V.69433596H.09700012V0H.19799805V.328125H.5509949V0H.6519928V.69433596Z"/>
<path id="font_3_8" d="M.17599488 .68652346H.07499695V.58551028H.17599488V.68652346M.16799927 .44433595H.083999637V0H.16799927V.44433595Z"/>
<path id="font_3_7" d="M.46499635 .29606629C.46499635 .37408448 .44198609 .45410157 .31900025 .45410157 .23298645 .45410157 .18699646 .4040985 .16699219 .38308717V.69433596H.08299255V0H.16999817V.24305725C.16999817 .30906678 .19799805 .38809205 .2749939 .38809205 .37799073 .38809205 .37799073 .31806947 .37799073 .2890625V0H.46499635V.29606629Z"/>
<path id="font_3_3" d="M.5569916 .3471527C.54499819 .31713868 .47299195 .14105225 .46299745 .09902954H.46199037C.45498658 .12805176 .40899659 .24310303 .39898683 .26911927L.22698975 .69433596H.10499573V0H.18899536V.61428835H.18998719C.19799805 .5792694 .25 .4472046 .25498963 .436203L.42199708 .020996094H.5009918L.6499939 .38917542C.6499939 .3901825 .71899417 .5602722 .73599246 .6152954H.7369995V0H.82099917V.69433596H.69799807L.5569916 .3471527Z"/>
<path id="font_3_10" d="M.5 .21910095C.5 .35101319 .394989 .45898438 .2649994 .45898438 .1349945 .45898438 .02999878 .3500061 .02999878 .21910095 .02999878 .09220886 .13598633-.009765625 .2649994-.009765625 .394989-.009765625 .5 .09220886 .5 .21910095M.2649994 .05921936C.18598938 .05921936 .116989139 .1171875 .116989139 .23010254 .116989139 .34301759 .19099427 .39297486 .2649994 .39297486 .33999635 .39297486 .41299439 .34101869 .41299439 .23010254 .41299439 .11618042 .34199525 .05921936 .2649994 .05921936Z"/>
<path id="font_3_11" d="M.70999148 .44433595H.6319885C.6230011 .4163208 .5669861 .24717713 .5359955 .14309693 .5279999 .11407471 .5179901 .08204651 .5149994 .059020997H.5139923C.5079956 .10005188 .47299195 .20814514 .47099305 .21514893L.39698792 .44433595H.32099916C.2919922 .35827638 .21699524 .13409424 .20899964 .061019899H.20799256C.19999695 .13208008 .12599182 .35327149 .10998535 .40130616 .101989749 .4253235 .101989749 .4273224 .09700012 .44433595H.01499939L.16099549 0H.24499512C.24598694 .0039978029 .272995 .08303833 .30799867 .19413758 .32299806 .24317932 .35299684 .33926393 .35798646 .38330079L.35899354 .3842926C.36099244 .36328126 .36698915 .34126283 .37399293 .3162384 .3809967 .291214 .3880005 .26419068 .394989 .24118042L.47200013 0H.56399539L.70999148 .44433595Z"/>
</defs>
<use data-text="C" xlink:href="#font_1_3" transform="matrix(9.9626,0,0,-9.9626,58.66,12.231003)"/>
<use data-text="o" xlink:href="#font_1_24" transform="matrix(9.9626,0,0,-9.9626,65.66371,12.231003)"/>
<use data-text="o" xlink:href="#font_1_24" transform="matrix(9.9626,0,0,-9.9626,71.442028,12.231003)"/>
<use data-text="p" xlink:href="#font_1_25" transform="matrix(9.9626,0,0,-9.9626,76.93142,12.231003)"/>
<use data-text="e" xlink:href="#font_1_16" transform="matrix(9.9626,0,0,-9.9626,82.81932,12.231003)"/>
<use data-text="r" xlink:href="#font_1_26" transform="matrix(9.9626,0,0,-9.9626,87.91021,12.231003)"/>
<use data-text="a" xlink:href="#font_1_12" transform="matrix(9.9626,0,0,-9.9626,91.616298,12.231003)"/>
<use data-text="t" xlink:href="#font_1_28" transform="matrix(9.9626,0,0,-9.9626,96.84666,12.231003)"/>
<use data-text="i" xlink:href="#font_1_19" transform="matrix(9.9626,0,0,-9.9626,100.871547,12.231003)"/>
<use data-text="o" xlink:href="#font_1_24" transform="matrix(9.9626,0,0,-9.9626,103.42197,12.231003)"/>
<use data-text="n" xlink:href="#font_1_23" transform="matrix(9.9626,0,0,-9.9626,108.9014,12.231003)"/>
<use data-text="R" xlink:href="#font_1_9" transform="matrix(9.9626,0,0,-9.9626,118.14669,12.231003)"/>
<use data-text="a" xlink:href="#font_1_12" transform="matrix(9.9626,0,0,-9.9626,125.1504,12.231003)"/>
<use data-text="t" xlink:href="#font_1_28" transform="matrix(9.9626,0,0,-9.9626,130.38077,12.231003)"/>
<use data-text="e" xlink:href="#font_1_16" transform="matrix(9.9626,0,0,-9.9626,134.40566,12.231003)"/>
<use data-text="b" xlink:href="#font_1_13" transform="matrix(9.9626,0,0,-9.9626,143.14287,12.231003)"/>
<use data-text="y" xlink:href="#font_1_32" transform="matrix(9.9626,0,0,-9.9626,148.43302,12.231003)"/>
<use data-text="G" xlink:href="#font_1_5" transform="matrix(9.9626,0,0,-9.9626,157.07059,12.231003)"/>
<use data-text="a" xlink:href="#font_1_12" transform="matrix(9.9626,0,0,-9.9626,164.37317,12.231003)"/>
<use data-text="m" xlink:href="#font_1_22" transform="matrix(9.9626,0,0,-9.9626,169.60353,12.231003)"/>
<use data-text="e" xlink:href="#font_1_16" transform="matrix(9.9626,0,0,-9.9626,178.2411,12.231003)"/>
<use data-text="a" xlink:href="#font_1_12" transform="matrix(9.9626,0,0,-9.9626,186.97832,12.231003)"/>
<use data-text="n" xlink:href="#font_1_23" transform="matrix(9.9626,0,0,-9.9626,192.20868,12.231003)"/>
<use data-text="d" xlink:href="#font_1_15" transform="matrix(9.9626,0,0,-9.9626,197.7977,12.231003)"/>
<use data-text="O" xlink:href="#font_1_7" transform="matrix(9.9626,0,0,-9.9626,207.043,12.231003)"/>
<use data-text="p" xlink:href="#font_1_25" transform="matrix(9.9626,0,0,-9.9626,214.96327,12.231003)"/>
<use data-text="p" xlink:href="#font_1_25" transform="matrix(9.9626,0,0,-9.9626,220.55229,12.231003)"/>
<use data-text="o" xlink:href="#font_1_24" transform="matrix(9.9626,0,0,-9.9626,226.44019,12.231003)"/>
<use data-text="n" xlink:href="#font_1_23" transform="matrix(9.9626,0,0,-9.9626,231.91962,12.231003)"/>
<use data-text="e" xlink:href="#font_1_16" transform="matrix(9.9626,0,0,-9.9626,237.50864,12.231003)"/>
<use data-text="n" xlink:href="#font_1_23" transform="matrix(9.9626,0,0,-9.9626,242.59952,12.231003)"/>
<use data-text="t" xlink:href="#font_1_28" transform="matrix(9.9626,0,0,-9.9626,248.18854,12.231003)"/>
<use data-text="A" xlink:href="#font_1_2" transform="matrix(8.9664,0,0,-8.9664,79.098,29.18)"/>
<use data-text="l" xlink:href="#font_1_21" transform="matrix(8.9664,0,0,-8.9664,85.67037,29.18)"/>
<use data-text="w" xlink:href="#font_1_31" transform="matrix(8.9664,0,0,-8.9664,87.96577,29.18)"/>
<use data-text="a" xlink:href="#font_1_12" transform="matrix(8.9664,0,0,-8.9664,94.36778,29.18)"/>
<use data-text="y" xlink:href="#font_1_32" transform="matrix(8.9664,0,0,-8.9664,98.79718,29.18)"/>
<use data-text="s" xlink:href="#font_1_27" transform="matrix(8.9664,0,0,-8.9664,103.28038,29.18)"/>
<use data-text="C" xlink:href="#font_1_3" transform="matrix(8.9664,0,0,-8.9664,71.792,40.139)"/>
<use data-text="o" xlink:href="#font_1_24" transform="matrix(8.9664,0,0,-8.9664,78.09538,40.139)"/>
<use data-text="o" xlink:href="#font_1_24" transform="matrix(8.9664,0,0,-8.9664,83.30486,40.139)"/>
<use data-text="p" xlink:href="#font_1_25" transform="matrix(8.9664,0,0,-8.9664,88.23638,40.139)"/>
<use data-text="e" xlink:href="#font_1_16" transform="matrix(8.9664,0,0,-8.9664,93.53552,40.139)"/>
<use data-text="r" xlink:href="#font_1_26" transform="matrix(8.9664,0,0,-8.9664,98.117359,40.139)"/>
<use data-text="a" xlink:href="#font_1_12" transform="matrix(8.9664,0,0,-8.9664,101.45286,40.139)"/>
<use data-text="t" xlink:href="#font_1_28" transform="matrix(8.9664,0,0,-8.9664,106.16022,40.139)"/>
<use data-text="e" xlink:href="#font_1_16" transform="matrix(8.9664,0,0,-8.9664,109.782649,40.139)"/>
<use data-text="T" xlink:href="#font_1_11" transform="matrix(8.9664,0,0,-8.9664,133.36299,35.531)"/>
<use data-text="i" xlink:href="#font_1_19" transform="matrix(8.9664,0,0,-8.9664,139.93537,35.531)"/>
<use data-text="t" xlink:href="#font_1_28" transform="matrix(8.9664,0,0,-8.9664,142.23076,35.531)"/>
<use data-text="-" xlink:href="#font_1_1" transform="matrix(8.9664,0,0,-8.9664,145.85318,35.531)"/>
<use data-text="f" xlink:href="#font_1_17" transform="matrix(8.9664,0,0,-8.9664,149.14385,35.531)"/>
<use data-text="o" xlink:href="#font_1_24" transform="matrix(8.9664,0,0,-8.9664,152.15656,35.531)"/>
<use data-text="r" xlink:href="#font_1_26" transform="matrix(8.9664,0,0,-8.9664,156.81012,35.531)"/>
<use data-text="-" xlink:href="#font_1_1" transform="matrix(8.9664,0,0,-8.9664,160.14562,35.531)"/>
<use data-text="T" xlink:href="#font_1_11" transform="matrix(8.9664,0,0,-8.9664,163.43628,35.531)"/>
<use data-text="a" xlink:href="#font_1_12" transform="matrix(8.9664,0,0,-8.9664,169.1927,35.531)"/>
<use data-text="t" xlink:href="#font_1_28" transform="matrix(8.9664,0,0,-8.9664,173.90007,35.531)"/>
<use data-text="A" xlink:href="#font_1_2" transform="matrix(8.9664,0,0,-8.9664,203.823,30.051995)"/>
<use data-text="l" xlink:href="#font_1_21" transform="matrix(8.9664,0,0,-8.9664,210.39537,30.051995)"/>
<use data-text="w" xlink:href="#font_1_31" transform="matrix(8.9664,0,0,-8.9664,212.69077,30.051995)"/>
<use data-text="a" xlink:href="#font_1_12" transform="matrix(8.9664,0,0,-8.9664,219.08382,30.051995)"/>
<use data-text="y" xlink:href="#font_1_32" transform="matrix(8.9664,0,0,-8.9664,223.52219,30.051995)"/>
<use data-text="s" xlink:href="#font_1_27" transform="matrix(8.9664,0,0,-8.9664,228.00539,30.051995)"/>
<use data-text="D" xlink:href="#font_1_4" transform="matrix(8.9664,0,0,-8.9664,204.15,41.010995)"/>
<use data-text="e" xlink:href="#font_1_16" transform="matrix(8.9664,0,0,-8.9664,211.27829,41.010995)"/>
<use data-text="f" xlink:href="#font_1_17" transform="matrix(8.9664,0,0,-8.9664,215.86013,41.010995)"/>
<use data-text="e" xlink:href="#font_1_16" transform="matrix(8.9664,0,0,-8.9664,218.87284,41.010995)"/>
<use data-text="c" xlink:href="#font_1_14" transform="matrix(8.9664,0,0,-8.9664,223.45467,41.010995)"/>
<use data-text="t" xlink:href="#font_1_28" transform="matrix(8.9664,0,0,-8.9664,227.83924,41.010995)"/>
<use data-text="P" xlink:href="#font_1_8" transform="matrix(8.9664,0,0,-8.9664,39.286,66.712)"/>
<use data-text="D" xlink:href="#font_1_4" transform="matrix(8.9664,0,0,-8.9664,45.58938,66.712)"/>
<use data-text="S" xlink:href="#font_1_10" transform="matrix(8.9664,0,0,-8.9664,9.871,97.021999)"/>
<use data-text="t" xlink:href="#font_1_28" transform="matrix(8.9664,0,0,-8.9664,15.34947,97.021999)"/>
<use data-text="a" xlink:href="#font_1_12" transform="matrix(8.9664,0,0,-8.9664,18.971896,97.021999)"/>
<use data-text="g" xlink:href="#font_1_18" transform="matrix(8.9664,0,0,-8.9664,23.679257,97.021999)"/>
<use data-text="H" xlink:href="#font_1_6" transform="matrix(8.9664,0,0,-8.9664,31.901446,97.021999)"/>
<use data-text="u" xlink:href="#font_1_29" transform="matrix(8.9664,0,0,-8.9664,39.02973,97.021999)"/>
<use data-text="n" xlink:href="#font_1_23" transform="matrix(8.9664,0,0,-8.9664,44.059885,97.021999)"/>
<use data-text="t" xlink:href="#font_1_28" transform="matrix(8.9664,0,0,-8.9664,49.090036,97.021999)"/>
<use data-text="H" xlink:href="#font_1_6" transform="matrix(8.9664,0,0,-8.9664,5.3129999,129.075)"/>
<use data-text="a" xlink:href="#font_1_12" transform="matrix(8.9664,0,0,-8.9664,12.441288,129.075)"/>
<use data-text="w" xlink:href="#font_1_31" transform="matrix(8.9664,0,0,-8.9664,16.87069,129.075)"/>
<use data-text="k" xlink:href="#font_1_20" transform="matrix(8.9664,0,0,-8.9664,23.550658,129.075)"/>
<use data-text="-" xlink:href="#font_1_1" transform="matrix(8.9664,0,0,-8.9664,28.311816,129.075)"/>
<use data-text="D" xlink:href="#font_1_4" transform="matrix(8.9664,0,0,-8.9664,31.593518,129.075)"/>
<use data-text="o" xlink:href="#font_1_24" transform="matrix(8.9664,0,0,-8.9664,38.73077,129.075)"/>
<use data-text="v" xlink:href="#font_1_30" transform="matrix(8.9664,0,0,-8.9664,43.66229,129.075)"/>
<use data-text="e" xlink:href="#font_1_16" transform="matrix(8.9664,0,0,-8.9664,48.14549,129.075)"/>
<path transform="matrix(1,0,0,-1,30.719,108.952999)" d="M31.18121 32.59908V58.11102H93.54454V32.59908ZM93.54454 58.11102" fill="#33ff33"/>
<path transform="matrix(1,0,0,-1,30.719,108.952999)" stroke-width=".3985" stroke-linecap="butt" stroke-miterlimit="10" stroke-linejoin="miter" fill="none" stroke="#b2b3b2" d="M31.18121 32.59908V58.11102H93.54454V32.59908ZM93.54454 58.11102"/>
<use data-text="0" xlink:href="#font_2_2" transform="matrix(8.9664,0,0,-8.9664,84.889,66.488)"/>
<use data-text="." xlink:href="#font_2_1" transform="matrix(8.9664,0,0,-8.9664,89.49773,66.488)"/>
<use data-text="8" xlink:href="#font_2_8" transform="matrix(8.9664,0,0,-8.9664,92.06212,66.488)"/>
<use data-text="5" xlink:href="#font_2_5" transform="matrix(8.9664,0,0,-8.9664,96.670848,66.488)"/>
<path transform="matrix(1,0,0,-1,30.719,108.952999)" d="M93.5441 32.59908V58.11102H155.90744V32.59908ZM155.90744 58.11102" fill="#59ff59"/>
<path transform="matrix(1,0,0,-1,30.719,108.952999)" stroke-width=".3985" stroke-linecap="butt" stroke-miterlimit="10" stroke-linejoin="miter" fill="none" stroke="#b2b3b2" d="M93.5441 32.59908V58.11102H155.90744V32.59908ZM155.90744 58.11102"/>
<use data-text="0" xlink:href="#font_2_2" transform="matrix(8.9664,0,0,-8.9664,147.25099,66.488)"/>
<use data-text="." xlink:href="#font_2_1" transform="matrix(8.9664,0,0,-8.9664,151.85973,66.488)"/>
<use data-text="6" xlink:href="#font_2_6" transform="matrix(8.9664,0,0,-8.9664,154.42412,66.488)"/>
<use data-text="2" xlink:href="#font_2_4" transform="matrix(8.9664,0,0,-8.9664,159.03285,66.488)"/>
<path transform="matrix(1,0,0,-1,30.719,108.952999)" d="M155.90744 32.59908V58.11102H218.27077V32.59908ZM218.27077 58.11102" fill="#d9ffd9"/>
<path transform="matrix(1,0,0,-1,30.719,108.952999)" stroke-width=".3985" stroke-linecap="butt" stroke-miterlimit="10" stroke-linejoin="miter" fill="none" stroke="#b2b3b2" d="M155.90744 32.59908V58.11102H218.27077V32.59908ZM218.27077 58.11102"/>
<use data-text="0" xlink:href="#font_2_2" transform="matrix(8.9664,0,0,-8.9664,209.614,66.488)"/>
<use data-text="." xlink:href="#font_2_1" transform="matrix(8.9664,0,0,-8.9664,214.22274,66.488)"/>
<use data-text="1" xlink:href="#font_2_3" transform="matrix(8.9664,0,0,-8.9664,216.78713,66.488)"/>
<use data-text="0" xlink:href="#font_2_2" transform="matrix(8.9664,0,0,-8.9664,221.39586,66.488)"/>
<path transform="matrix(1,0,0,-1,30.719,108.952999)" d="M31.18121 1.4174V26.92937H93.54454V1.4174ZM93.54454 26.92937" fill="#1aff1a"/>
<path transform="matrix(1,0,0,-1,30.719,108.952999)" stroke-width=".3985" stroke-linecap="butt" stroke-miterlimit="10" stroke-linejoin="miter" fill="none" stroke="#b2b3b2" d="M31.18121 1.4174V26.92937H93.54454V1.4174ZM93.54454 26.92937"/>
<use data-text="0" xlink:href="#font_2_2" transform="matrix(8.9664,0,0,-8.9664,84.889,97.66899)"/>
<use data-text="." xlink:href="#font_2_1" transform="matrix(8.9664,0,0,-8.9664,89.49773,97.66899)"/>
<use data-text="9" xlink:href="#font_2_9" transform="matrix(8.9664,0,0,-8.9664,92.06212,97.66899)"/>
<use data-text="5" xlink:href="#font_2_5" transform="matrix(8.9664,0,0,-8.9664,96.670848,97.66899)"/>
<path transform="matrix(1,0,0,-1,30.719,108.952999)" d="M93.5441 1.4174V26.92937H155.90744V1.4174ZM155.90744 26.92937" fill="#26ff26"/>
<path transform="matrix(1,0,0,-1,30.719,108.952999)" stroke-width=".3985" stroke-linecap="butt" stroke-miterlimit="10" stroke-linejoin="miter" fill="none" stroke="#b2b3b2" d="M93.5441 1.4174V26.92937H155.90744V1.4174ZM155.90744 26.92937"/>
<use data-text="0" xlink:href="#font_2_2" transform="matrix(8.9664,0,0,-8.9664,147.25099,97.66899)"/>
<use data-text="." xlink:href="#font_2_1" transform="matrix(8.9664,0,0,-8.9664,151.85973,97.66899)"/>
<use data-text="8" xlink:href="#font_2_8" transform="matrix(8.9664,0,0,-8.9664,154.42412,97.66899)"/>
<use data-text="8" xlink:href="#font_2_8" transform="matrix(8.9664,0,0,-8.9664,159.03285,97.66899)"/>
<path transform="matrix(1,0,0,-1,30.719,108.952999)" d="M155.90744 1.4174V26.92937H218.27077V1.4174ZM218.27077 26.92937" fill="#b3ffb3"/>
<path transform="matrix(1,0,0,-1,30.719,108.952999)" stroke-width=".3985" stroke-linecap="butt" stroke-miterlimit="10" stroke-linejoin="miter" fill="none" stroke="#b2b3b2" d="M155.90744 1.4174V26.92937H218.27077V1.4174ZM218.27077 26.92937"/>
<use data-text="0" xlink:href="#font_2_2" transform="matrix(8.9664,0,0,-8.9664,209.614,97.66899)"/>
<use data-text="." xlink:href="#font_2_1" transform="matrix(8.9664,0,0,-8.9664,214.22274,97.66899)"/>
<use data-text="2" xlink:href="#font_2_4" transform="matrix(8.9664,0,0,-8.9664,216.78713,97.66899)"/>
<use data-text="5" xlink:href="#font_2_5" transform="matrix(8.9664,0,0,-8.9664,221.39586,97.66899)"/>
<path transform="matrix(1,0,0,-1,30.719,108.952999)" d="M31.18121-29.76422V-4.25226H93.54454V-29.76422ZM93.54454-4.25226" fill="#4dff4d"/>
<path transform="matrix(1,0,0,-1,30.719,108.952999)" stroke-width=".3985" stroke-linecap="butt" stroke-miterlimit="10" stroke-linejoin="miter" fill="none" stroke="#b2b3b2" d="M31.18121-29.76422V-4.25226H93.54454V-29.76422ZM93.54454-4.25226"/>
<use data-text="0" xlink:href="#font_2_2" transform="matrix(8.9664,0,0,-8.9664,84.889,128.84999)"/>
<use data-text="." xlink:href="#font_2_1" transform="matrix(8.9664,0,0,-8.9664,89.49773,128.84999)"/>
<use data-text="7" xlink:href="#font_2_7" transform="matrix(8.9664,0,0,-8.9664,92.06212,128.84999)"/>
<use data-text="2" xlink:href="#font_2_4" transform="matrix(8.9664,0,0,-8.9664,96.670848,128.84999)"/>
<path transform="matrix(1,0,0,-1,30.719,108.952999)" d="M93.5441-29.76422V-4.25226H155.90744V-29.76422ZM155.90744-4.25226" fill="#73ff73"/>
<path transform="matrix(1,0,0,-1,30.719,108.952999)" stroke-width=".3985" stroke-linecap="butt" stroke-miterlimit="10" stroke-linejoin="miter" fill="none" stroke="#b2b3b2" d="M93.5441-29.76422V-4.25226H155.90744V-29.76422ZM155.90744-4.25226"/>
<use data-text="0" xlink:href="#font_2_2" transform="matrix(8.9664,0,0,-8.9664,147.25099,128.84999)"/>
<use data-text="." xlink:href="#font_2_1" transform="matrix(8.9664,0,0,-8.9664,151.85973,128.84999)"/>
<use data-text="5" xlink:href="#font_2_5" transform="matrix(8.9664,0,0,-8.9664,154.42412,128.84999)"/>
<use data-text="0" xlink:href="#font_2_2" transform="matrix(8.9664,0,0,-8.9664,159.03285,128.84999)"/>
<path transform="matrix(1,0,0,-1,30.719,108.952999)" d="M155.90744-29.76422V-4.25226H218.27077V-29.76422ZM218.27077-4.25226" fill="#ccffcc"/>
<path transform="matrix(1,0,0,-1,30.719,108.952999)" stroke-width=".3985" stroke-linecap="butt" stroke-miterlimit="10" stroke-linejoin="miter" fill="none" stroke="#b2b3b2" d="M155.90744-29.76422V-4.25226H218.27077V-29.76422ZM218.27077-4.25226"/>
<use data-text="0" xlink:href="#font_2_2" transform="matrix(8.9664,0,0,-8.9664,209.614,128.84999)"/>
<use data-text="." xlink:href="#font_2_1" transform="matrix(8.9664,0,0,-8.9664,214.22274,128.84999)"/>
<use data-text="1" xlink:href="#font_2_3" transform="matrix(8.9664,0,0,-8.9664,216.78713,128.84999)"/>
<use data-text="8" xlink:href="#font_2_8" transform="matrix(8.9664,0,0,-8.9664,221.39586,128.84999)"/>
<use data-text="L" xlink:href="#font_3_2" transform="matrix(6.9738,0,0,-6.9738,280.518,47.384996)"/>
<use data-text="e" xlink:href="#font_3_5" transform="matrix(6.9738,0,0,-6.9738,284.54887,47.384996)"/>
<use data-text="g" xlink:href="#font_3_6" transform="matrix(6.9738,0,0,-6.9738,287.84049,47.384996)"/>
<use data-text="e" xlink:href="#font_3_5" transform="matrix(6.9738,0,0,-6.9738,291.54359,47.384996)"/>
<use data-text="n" xlink:href="#font_3_9" transform="matrix(6.9738,0,0,-6.9738,294.8352,47.384996)"/>
<use data-text="d" xlink:href="#font_3_4" transform="matrix(6.9738,0,0,-6.9738,298.66383,47.384996)"/>
<path transform="matrix(1,0,0,-1,30.719,108.952999)" d="M249.452 42.5202V59.52844H272.12953V42.5202ZM272.12953 59.52844" fill="#1aff1a"/>
<path transform="matrix(1,0,0,-1,30.719,108.952999)" stroke-width=".3985" stroke-linecap="butt" stroke-miterlimit="10" stroke-linejoin="miter" fill="none" stroke="#b2b3b2" d="M249.452 42.5202V59.52844H272.12953V42.5202ZM272.12953 59.52844"/>
<use data-text="H" xlink:href="#font_3_1" transform="matrix(6.9738,0,0,-6.9738,312.034,59.672998)"/>
<use data-text="i" xlink:href="#font_3_8" transform="matrix(6.9738,0,0,-6.9738,317.26435,59.672998)"/>
<use data-text="g" xlink:href="#font_3_6" transform="matrix(6.9738,0,0,-6.9738,319.03569,59.672998)"/>
<use data-text="h" xlink:href="#font_3_7" transform="matrix(6.9738,0,0,-6.9738,322.73878,59.672998)"/>
<path transform="matrix(1,0,0,-1,30.719,108.952999)" d="M249.452 19.84267V36.8509H272.12953V19.84267ZM272.12953 36.8509" fill="#80ff80"/>
<path transform="matrix(1,0,0,-1,30.719,108.952999)" stroke-width=".3985" stroke-linecap="butt" stroke-miterlimit="10" stroke-linejoin="miter" fill="none" stroke="#b2b3b2" d="M249.452 19.84267V36.8509H272.12953V19.84267ZM272.12953 36.8509"/>
<use data-text="M" xlink:href="#font_3_3" transform="matrix(6.9738,0,0,-6.9738,312.034,83.028)"/>
<use data-text="i" xlink:href="#font_3_8" transform="matrix(6.9738,0,0,-6.9738,318.49873,83.028)"/>
<use data-text="d" xlink:href="#font_3_4" transform="matrix(6.9738,0,0,-6.9738,320.27006,83.028)"/>
<path transform="matrix(1,0,0,-1,30.719,108.952999)" d="M249.452-2.83484V14.17339H272.12953V-2.83484ZM272.12953 14.17339" fill="#e6ffe6"/>
<path transform="matrix(1,0,0,-1,30.719,108.952999)" stroke-width=".3985" stroke-linecap="butt" stroke-miterlimit="10" stroke-linejoin="miter" fill="none" stroke="#b2b3b2" d="M249.452-2.83484V14.17339H272.12953V-2.83484ZM272.12953 14.17339"/>
<use data-text="L" xlink:href="#font_3_2" transform="matrix(6.9738,0,0,-6.9738,312.034,105.705)"/>
<use data-text="o" xlink:href="#font_3_10" transform="matrix(6.9738,0,0,-6.9738,316.06486,105.705)"/>
<use data-text="w" xlink:href="#font_3_11" transform="matrix(6.9738,0,0,-6.9738,319.55873,105.705)"/>
</svg>
