<svg xmlns="http://www.w3.org/2000/svg" xmlns:xlink="http://www.w3.org/1999/xlink" xmlns:inkscape="http://www.inkscape.org/namespaces/inkscape" version="1.1" width="380.73" height="195.02" viewBox="0 0 380.73 195.02">
<defs>
<path id="font_1_2" d="M.7879944 .22833252H.8699951V.27734376C.83099368 .27433778 .74398806 .27433778 .70098879 .27433778 .651001 .27433778 .5389862 .27433778 .49499513 .27734376V.22833252H.6429901V.12831116C.6429901 .107299808 .6429901 .07829285 .59999087 .056274415 .57398989 .043273927 .5399933 .03727722 .5069885 .03727722 .45298768 .03727722 .35299684 .04727173 .2829895 .124298099 .22399903 .19032288 .22299195 .30133058 .22299195 .34431459 .22299195 .41929627 .23199463 .51327517 .2919922 .5742645 .3600006 .64224246 .45599366 .64923098 .49899293 .64923098 .58699038 .64923098 .7029877 .59625247 .72898867 .43728639 .73098757 .42430116 .7429962 .42430116 .7579956 .42430116 .7849884 .42430116 .7879944 .42630006 .7879944 .45329286V.6692352C.7879944 .6872406 .7879944 .6982422 .7679901 .6982422 .7579956 .6982422 .7559967 .696228 .746994 .6882324L.68099978 .630249C.6239929 .676239 .5509949 .6982422 .47799684 .6982422 .21998596 .6982422 .06599426 .54626467 .06599426 .34332276 .06599426 .14930725 .20999146-.01171875 .47999574-.01171875 .526001-.01171875 .6239929-.008728027 .6759949 .04927063 .70399478 .028274537 .7649994 .0002746582 .772995 .0002746582 .7879944 .0002746582 .7879944 .015274048 .7879944 .029266358V.22833252Z"/>
<path id="font_1_7" d="M.48399354 .2983551C.48399354 .38616944 .4119873 .453125 .2579956 .453125 .20098877 .453125 .07299805 .45111085 .07299805 .3592224 .07299805 .3143158 .10699463 .29336549 .13798523 .29336549 .17199707 .29336549 .20298767 .31730653 .20298767 .3582306 .20298767 .3871765 .18598938 .40412904 .18299866 .407135 .19299317 .40911866 .21699524 .41311646 .2539978 .41311646 .32598878 .41311646 .36698915 .377182 .36698915 .2983551V.26641847C.20098877 .26641847 .032989503 .22340393 .032989503 .11224365 .032989503 .013137817 .1579895-.005859375 .22999573-.005859375 .30599977-.005859375 .35798646 .027130127 .3849945 .07418823 .3849945 .04815674 .3849945 .0001373291 .49198915 .0001373291H.54100039C.55999758 .0001373291 .57398989 .0001373291 .57398989 .025131226 .57398989 .04914856 .55799868 .04914856 .5479889 .04914856 .48399354 .05015564 .48399354 .060165407 .48399354 .084198V.2983551M.36698915 .13928223C.36698915 .03413391 .25099183 .03413391 .24699402 .03413391 .19599915 .03413391 .1539917 .06718445 .1539917 .11224365 .1539917 .14529419 .17199707 .22340393 .36698915 .23242188V.13928223Z"/>
<path id="font_1_13" d="M.8909912 .30513C.8909912 .42318727 .81999209 .4501953 .7319946 .4501953 .6279907 .4501953 .57699587 .3871765 .55799868 .3561554 .5359955 .44618226 .44799806 .4501953 .4039917 .4501953 .27999879 .4501953 .23098755 .3601532 .22399903 .3451538H.22299195V.4501953L.049987794 .44218446V.39317323C.10998535 .39317323 .117996219 .39317323 .117996219 .3541565V.04899597H.049987794V0C.12399292 .0029907227 .13598633 .0029907227 .17599488 .0029907227 .21699524 .0029907227 .22698975 .0029907227 .30299378 0V.04899597H.23498535V.2541046C.23498535 .36515809 .32699586 .41018678 .3869934 .41018678 .4249878 .41018678 .44599916 .3901825 .44599916 .3141327V.04899597H.37799073V0C.45199586 .0029907227 .46398927 .0029907227 .5039978 .0029907227 .54499819 .0029907227 .5549927 .0029907227 .6309967 0V.04899597H.5629883V.2541046C.5629883 .36515809 .6549988 .41018678 .71499636 .41018678 .7529907 .41018678 .7739868 .3901825 .7739868 .3141327V.04899597H.70599368V0C.7799988 .0029907227 .7919922 .0029907227 .83200076 .0029907227 .8730011 .0029907227 .8829956 .0029907227 .95899966 0V.04899597H.8909912V.30513Z"/>
<path id="font_1_10" d="M.47599793 .21496582C.49699403 .21496582 .5089874 .21496582 .5089874 .2429657 .5089874 .26498414 .5069885 .35305787 .44198609 .4071045 .39698792 .4441223 .33699037 .453125 .28799439 .453125 .116989139 .453125 .032989503 .345047 .032989503 .22497559 .032989503 .09408569 .13198853-.005859375 .3019867-.005859375 .46699525-.005859375 .5089874 .1000824 .5089874 .11605835 .5089874 .13604737 .4889984 .13604737 .48298646 .13604737 .46499635 .13604737 .46299745 .13005066 .45700074 .11605835 .43399049 .06410217 .37298585 .037139894 .30999757 .037139894 .16799927 .037139894 .1659851 .16601563 .1659851 .21496582H.47599793M.1659851 .25097657C.16799927 .29701234 .17298889 .41311646 .28799439 .41311646 .40499879 .41311646 .40899659 .29100038 .41099549 .25097657H.1659851Z"/>
<path id="font_1_1" d="M.7429962 .2759552H.69200137C.66999819 .14797974 .647995 .04899597 .45399476 .04899597H.29499818V.3279419H.35299684C.45098878 .3279419 .46099855 .2839508 .46099855 .21096802H.5119934V.49375917H.46099855C.46099855 .42086793 .45199586 .37695313 .35299684 .37695313H.29499818V.63053897H.45298768C.6119995 .63053897 .6429901 .5616455 .6589966 .43684388H.70999148L.67900088 .6795349H.041992189V.63053897H.1499939V.04899597H.041992189V0H.69599917L.7429962 .2759552Z"/>
<path id="font_1_14" d="M.56199648 .30513C.56199648 .42419435 .48999024 .4501953 .40299989 .4501953 .27999879 .4501953 .23098755 .3601532 .22399903 .3451538H.22299195V.4501953L.049987794 .44218446V.39317323C.10998535 .39317323 .117996219 .39317323 .117996219 .3541565V.04899597H.049987794V0C.12399292 .0029907227 .13598633 .0029907227 .17599488 .0029907227 .21699524 .0029907227 .22698975 .0029907227 .30299378 0V.04899597H.23498535V.2541046C.23498535 .36616517 .32699586 .41018678 .3869934 .41018678 .4249878 .41018678 .44499208 .38917542 .44499208 .3141327V.04899597H.3769989V0C.45098878 .0029907227 .46299745 .0029907227 .5029907 .0029907227 .5439911 .0029907227 .55400088 .0029907227 .6299896 0V.04899597H.56199648V.30513Z"/>
<path id="font_1_19" d="M.522995 .37431336C.5299988 .38832093 .5329895 .3953247 .59599307 .3953247V.44433595C.56799319 .44132997 .54299929 .44132997 .5149994 .44132997 .48599244 .44132997 .45399476 .44132997 .4249878 .44433595V.3953247C.45298768 .3953247 .46199037 .39033509 .47099305 .38632203 .46998597 .38232423 .46998597 .38032533 .46499635 .37231446L.34498597 .123168949 .21398926 .3953247H.2659912V.44433595C.19999695 .44232179 .17999268 .44132997 .14299011 .44132997 .10699463 .44132997 .08699036 .44132997 .027999878 .44433595V.3953247H.09098816L.269989 .023117066C.2789917 .0041046144 .2869873-.0048828127 .31199647-.0048828127 .33699037-.0048828127 .34498597 .0041046144 .35398866 .023117066L.522995 .37431336Z"/>
<path id="font_1_11" d="M.23999024 .6163025C.23999024 .66830447 .19799805 .6953125 .1619873 .6953125 .115997318 .6953125 .08299255 .65631106 .08299255 .6173096 .08299255 .5753021 .116989139 .53829959 .1619873 .53829959 .19999695 .53829959 .23999024 .56829836 .23999024 .6163025M.054992677 .44218446V.39318849C.11299133 .39318849 .11999512 .39318849 .11999512 .35417176V.04899597H.051986696V0C.11898804 .0019989014 .13198853 .0029907227 .17399597 .0029907227 .22299195 .0029907227 .23599243 .0019989014 .2919922 0V.04899597H.23098755V.4501953L.054992677 .44218446Z"/>
<path id="font_1_17" d="M.21998596 .21809387C.21998596 .29112245 .24699402 .4071808 .34399415 .41018678 .33299256 .39918519 .32798768 .3821869 .32798768 .36616517 .32798768 .32214356 .36299134 .30213929 .3909912 .30213929 .4229889 .30213929 .45498658 .32414247 .45498658 .36616517 .45498658 .41719056 .40299989 .4501953 .34399415 .4501953 .27398683 .4501953 .23098755 .39918519 .20899964 .341156H.20799256V.4501953L.040985109 .44218446V.39318849C.100997928 .39318849 .10899353 .39318849 .10899353 .35417176V.04899597H.040985109V0C.114990238 .0029907227 .12098694 .0029907227 .16899109 .0029907227 .19400025 .0029907227 .2519989 .0029907227 .30499269 0V.04899597H.21998596V.21809387Z"/>
<path id="font_1_15" d="M.55799868 .21812439C.55799868 .3491211 .46598817 .453125 .29599 .453125 .11999512 .453125 .032989503 .3441162 .032989503 .21812439 .032989503 .09413147 .12298584-.005859375 .29499818-.005859375 .47399903-.005859375 .55799868 .09913635 .55799868 .21812439M.29599 .037139894C.1659851 .037139894 .1659851 .14213562 .1659851 .22912598 .1659851 .3131256 .1659851 .41311646 .29499818 .41311646 .4249878 .41311646 .4249878 .3131256 .4249878 .22912598 .4249878 .14312744 .4249878 .037139894 .29599 .037139894Z"/>
<path id="font_1_18" d="M.22299195 .3953247H.37399293V.44433595H.22299195V.6352234H.17199707C.17098999 .541275 .12399292 .43832398 .021987915 .43533326V.3953247H.10598755V.123184207C.10598755 .009140015 .20498657-.005859375 .2669983-.005859375 .34498597-.005859375 .3929901 .05014038 .3929901 .123184207V.1762085H.34199525V.12617493C.34199525 .055145265 .30599977 .037139894 .2809906 .037139894 .22299195 .037139894 .22299195 .09716797 .22299195 .1211853V.3953247Z"/>
<path id="font_1_3" d="M.6609955 .27581788H.6100006C.60198977 .2068634 .58499148 .04899597 .4019928 .04899597H.29499818V.63653567H.42999269V.6855469C.3889923 .6825409 .27598573 .6825409 .22898865 .6825409 .18699646 .6825409 .07699585 .6825409 .041992189 .6855469V.63653567H.1499939V.04899597H.041992189V0H.6299896L.6609955 .27581788Z"/>
<path id="font_1_4" d="M.5609894 .13093567 .31599427 .6595459C.3039856 .6855469 .2899933 .6855469 .2689972 .6855469H.04499817V.63653567H.15299988V.07797241C.15299988 .055984498 .1519928 .054992677 .12399292 .051986696 .099990848 .04899597 .09799194 .04899597 .070999149 .04899597H.04499817V0C.10998535 .0029907227 .13798523 .0029907227 .18099976 .0029907227 .22499085 .0029907227 .2519989 .0029907227 .31799317 0V.04899597H.2919922C.2649994 .04899597 .2630005 .04899597 .23899842 .051986696 .21099854 .054992677 .20999146 .055984498 .20999146 .07797241V.62254336H.21099854L.48799134 .025985718C.49198915 .016998291 .5 0 .5219879 0 .54499819 0 .5519867 .015991211 .5569916 .025985718L.83999636 .6355438H.84098818V.04899597H.73298647V0C.7679901 .0029907227 .8639984 .0029907227 .9039917 .0029907227 .94400027 .0029907227 1.0410004 .0029907227 1.0759888 0V.04899597H.96798709V.63653567H1.0759888V.6855469H.8529968C.83200076 .6855469 .81900027 .6855469 .8069916 .6605377L.5609894 .13093567Z"/>
<path id="font_1_5" d="M.29499818 .2987671H.47898866C.621994 .2987671 .7409973 .37174989 .7409973 .48965455 .7409973 .5995636 .6399994 .6855469 .46899415 .6855469H.041992189V.63653567H.1499939V.04899597H.041992189V0C.07699585 .0029907227 .18099976 .0029907227 .22200012 .0029907227 .2630005 .0029907227 .36799623 .0029907227 .40299989 0V.04899597H.29499818V.2987671M.43099977 .63653567C.58399966 .63653567 .58399966 .56059268 .58399966 .48965455 .58399966 .41970826 .58399966 .34277345 .42999269 .34277345H.2889862V.63653567H.43099977Z"/>
<path id="font_1_12" d="M.23098755 .69433596 .051986696 .6863251V.6373291C.11199951 .6373291 .11999512 .6373291 .11999512 .5982971V.04899597H.051986696V0C.11999512 .0029907227 .13198853 .0029907227 .1749878 .0029907227 .21899414 .0029907227 .24499512 .0019989014 .29899598 0V.04899597H.23098755V.69433596Z"/>
<path id="font_1_8" d="M.49198915 .11613464C.49198915 .13212586 .47698976 .13212586 .46598817 .13212586 .44599916 .13212586 .44599916 .13113404 .43798829 .11312866 .41799928 .06512451 .37298585 .037139894 .31399537 .037139894 .17199707 .037139894 .17199707 .18112183 .17199707 .22612 .17199707 .28611756 .17298889 .41011048 .3039856 .41011048 .31098939 .41011048 .36499024 .40911866 .36499024 .40411378 .36499024 .40312196 .36299134 .40011598 .3619995 .39912416 .35299684 .38812257 .34899903 .3721161 .34899903 .35812379 .34899903 .3171234 .37998963 .29312135 .4139862 .29312135 .44499208 .29312135 .47898866 .31411744 .47898866 .3591156 .47898866 .453125 .33898927 .453125 .2999878 .453125 .10798645 .453125 .038986207 .33111573 .038986207 .22212219 .038986207 .09613037 .1289978-.005859375 .29499818-.005859375 .33198548-.005859375 .3809967 .0001373291 .4229889 .026138306 .47999574 .06112671 .49198915 .11312866 .49198915 .11613464Z"/>
<path id="font_1_20" d="M.5219879 .37330628C.5289917 .38832093 .5329895 .3953247 .59599307 .3953247V.44433595C.56799319 .44132997 .54299929 .44132997 .5149994 .44132997 .4850006 .44132997 .45399476 .44232179 .4249878 .44433595V.3953247C.42599488 .3953247 .46899415 .3953247 .46899415 .38331605 .46899415 .38230897 .46899415 .38131715 .46398927 .37130738L.34498597 .1270752 .21499634 .3953247H.2659912V.44433595C.21099854 .44232179 .17399597 .44132997 .14299011 .44132997 .10699463 .44132997 .08699036 .44132997 .027999878 .44433595V.3953247H.09098816L.2829895-.000045776369C.24798584-.0821228 .20999146-.16020203 .1329956-.16020203 .1269989-.16020203 .12098694-.16020203 .11399841-.15719605 .1309967-.14819336 .14299011-.13017273 .14299011-.105148319 .14299011-.067108158 .114990238-.04508972 .08299255-.04508972 .050994874-.04508972 .022994996-.067108158 .022994996-.105148319 .022994996-.15919495 .07299805-.20019531 .13198853-.20019531 .20999146-.20019531 .27198792-.1421814 .30299378-.07711792L.5219879 .37330628Z"/>
<path id="font_2_1" d="M.272995 .36865235H.3869934C.37199403 .30575563 .34599305 .20193482 .34599305 .11906433 .34599305 .112075809 .34599305 .075149539 .35499574 .03919983 .36499024 .0012512207 .37399293-.0107421879 .3939972-.0107421879 .4149933-.0107421879 .43699647 .007247925 .43699647 .030212403 .43699647 .037200929 .43598939 .04020691 .42999269 .05317688 .39898683 .123062137 .39898683 .19694519 .39898683 .21990967 .39898683 .24485779 .39898683 .28878785 .41600038 .36865235H.5329895C.54599 .36865235 .58299258 .36865235 .58299258 .4046631 .58299258 .43066407 .5609894 .43066407 .5419922 .43066407H.19599915C.17199707 .43066407 .13699341 .43066407 .08999634 .38365174 .06298828 .3566742 .026992798 .30177308 .026992798 .29377748 .026992798 .2828064 .037994386 .2828064 .040985109 .2828064 .04899597 .2828064 .050994874 .28479005 .056991579 .29478456 .10598755 .36865235 .16699219 .36865235 .18699646 .36865235H.24398804C.20098877 .21791077 .13198853 .07614136 .125 .061172487 .117996219 .047195436 .10798645 .026229859 .10798645 .018234253 .10798645 .0052490236 .116989139-.0107421879 .13899231-.0107421879 .1749878-.0107421879 .18399048 .025222779 .20498657 .10609436L.272995 .36865235Z"/>
<path id="font_3_1" d="M.54499819 .4801178C.54499819 .59609988 .49598695 .70410159 .3959961 .70410159 .23999024 .70410159 .07598877 .4431305 .07598877 .21417237 .07598877 .08421326 .13198853-.009765625 .22499085-.009765625 .38198854-.009765625 .54499819 .25515748 .54499819 .4801178M.19198609 .36714173C.25698854 .61509707 .34799195 .6710968 .394989 .6710968 .46499635 .6710968 .46499635 .55111697 .46499635 .53611758 .46499635 .52711489 .46499635 .46913148 .43798829 .36714173H.19198609M.42799378 .32714845C.37199403 .10121155 .2809906 .023223877 .22599793 .023223877 .1599884 .023223877 .1559906 .124191287 .1559906 .15818787 .1559906 .19218445 .1599884 .23616028 .18199158 .32714845H.42799378Z"/>
<path id="font_4_8" d="M.6839905 .6766052H.056991579L.036987306 .45173646H.06498718C.07899475 .6166229 .09899902 .6456146 .24899292 .6456146 .2679901 .6456146 .29699708 .6456146 .30699159 .6436157 .32499696 .6396179 .32598878 .6296234 .32598878 .6046295V.079956058C.32598878 .04598999 .32598878 .0309906 .22099304 .0309906H.18199158V0C.21798706 .0029907227 .32798768 .0029907227 .37098695 .0029907227 .4139862 .0029907227 .5239868 .0029907227 .55999758 0V.0309906H.5209961C.41600038 .0309906 .41600038 .04598999 .41600038 .079956058V.6046295C.41600038 .63061526 .4169922 .6396179 .43699647 .6436157 .44699098 .6456146 .47399903 .6456146 .49198915 .6456146 .6419983 .6456146 .6619873 .6166229 .6759949 .45173646H.70399478L.6839905 .6766052Z"/>
<path id="font_4_22" d="M.17799378 .22918701C.17799378 .27023316 .18899536 .41737367 .30299378 .41737367V.41636659C.30099488 .41537477 .2849884 .4033661 .2849884 .3793335 .2849884 .35231019 .30599977 .33529664 .32899476 .33529664 .34999085 .33529664 .37298585 .35031129 .37298585 .38034059 .37298585 .41236878 .34298707 .4423828 .2979889 .4423828 .23799134 .4423828 .19599915 .4003601 .17298889 .3383026H.17199707V.4416504L.02999878 .43066407V.3996582C.09799194 .3996582 .10699463 .39266969 .10699463 .34370423V.07695007C.10699463 .0309906 .09599304 .0309906 .02999878 .0309906V0C.08299255 .0019989014 .09599304 .0029907227 .14698792 .0029907227 .18699646 .0029907227 .21099854 .0019989014 .27398683 0V.0309906H.2539978C.18099976 .0309906 .17799378 .04197693 .17799378 .078948978V.22918701Z"/>
<path id="font_4_9" d="M.34199525 .07209778C.34700013 .030136109 .37599183-.005859375 .4189911-.005859375 .44400025-.005859375 .5069885 .009140015 .5069885 .08909607V.14505005H.47898866V.09008789C.47898866 .07910156 .47898866 .029129029 .44299317 .029129029 .40699769 .029129029 .40699769 .07710266 .40699769 .09307861V.2679596C.40699769 .3249359 .40699769 .3589325 .3619995 .40003968 .32499696 .43322755 .2769928 .4482422 .22698975 .4482422 .14299011 .4482422 .07299805 .4060974 .07299805 .3419342 .07299805 .3109436 .09399414 .2939453 .11999512 .2939453 .14698792 .2939453 .1659851 .31393434 .1659851 .3399353 .1659851 .38293458 .12199402 .38793946 .12098694 .38793946 .147995 .41415406 .19599915 .42323304 .22499085 .42323304 .27598573 .42323304 .33299256 .38493348 .33299256 .29693605V.2639618C.2789917 .2622223 .20399475 .25723268 .13699341 .22523499 .06498718 .19023133 .042999269 .13824463 .042999269 .098236087 .042999269 .01625061 .13999939-.0107421879 .20698548-.0107421879 .2899933-.010864258 .32798768 .044128419 .34199525 .07209778M.33299256 .14105225C.33299256 .044128419 .2579956 .014129639 .21398926 .014129639 .16699219 .014129639 .12298584 .04812622 .12298584 .098083499 .12298584 .16403198 .17999268 .23397827 .33299256 .23997498V.14105225Z"/>
<path id="font_4_16" d="M.21798706 .4423828 .06199646 .43138124V.40037538C.13798523 .40037538 .14698792 .39337159 .14698792 .34432984V-.050979616C.14698792-.08000183 .14299011-.18008423 .07499695-.18008423 .07199097-.18008423 .04598999-.18008423 .021987915-.16807556 .053985597-.1580658 .053985597-.13005066 .053985597-.1240387 .053985597-.09802246 .034988405-.07800293 .0079956059-.07800293-.021011353-.07800293-.039001466-.09802246-.039001466-.12504578-.039001466-.17707825 .018997193-.20507813 .07598877-.20507813 .15499878-.20507813 .21798706-.14006043 .21798706-.047973634V.4423828M.21798706 .615921C.21798706 .6459198 .19400025 .6699219 .1639862 .6699219 .13398743 .6699219 .10998535 .6459198 .10998535 .615921 .10998535 .585907 .13398743 .56192019 .1639862 .56192019 .19400025 .56192019 .21798706 .585907 .21798706 .615921Z"/>
<path id="font_4_12" d="M.3999939 .22949219C.42199708 .22949219 .4269867 .22949219 .4269867 .25048829 .4269867 .35333253 .37098695 .4482422 .24299622 .4482422 .12298584 .4482422 .0289917 .3443451 .0289917 .22047425 .0289917 .08932495 .13398743-.0107421879 .2559967-.0107421879 .37799073-.0107421879 .4269867 .096343997 .4269867 .11936951 .4269867 .12637329 .42199708 .13237 .41299439 .13237 .40299989 .13237 .3999939 .12536621 .39898683 .12136841 .36499024 .019256592 .27598573 .01725769 .26098634 .01725769 .21299744 .01725769 .17199707 .044281007 .14898682 .078323367 .115997318 .12736511 .114990238 .18743897 .114990238 .22949219H.3999939M.115997318 .253479C.125 .40725709 .21499634 .42323304 .24299622 .42323304 .2979889 .42323304 .35798646 .38130189 .35899354 .253479H.115997318Z"/>
<path id="font_4_10" d="M.3639984 .39356996C.34298707 .3895874 .32299806 .3755951 .32299806 .34658814 .32299806 .32058717 .34298707 .30059815 .36898805 .30059815 .394989 .30059815 .41600038 .31759645 .41600038 .34858705 .41600038 .4103546 .34599305 .4482422 .2579956 .4482422 .12998963 .4482422 .033996583 .3415985 .033996583 .2164917 .033996583 .08734131 .13798523-.0107421879 .2559967-.0107421879 .394989-.0107421879 .4269867 .11036682 .4269867 .11936951 .4269867 .13139344 .41600038 .13139344 .41299439 .13139344 .4019928 .13139344 .4019928 .12937927 .3959961 .11236572 .37298585 .043289186 .31698609 .01725769 .2659912 .01725769 .20199585 .01725769 .11999512 .06932068 .11999512 .21749878 .11999512 .3735962 .19999695 .42022706 .2599945 .42022706 .272995 .42022706 .32699586 .41825868 .3639984 .39356996Z"/>
<path id="font_4_24" d="M.32499696 .3996582V.43066407H.17999268V.6147156H.1519928C.15098572 .5307007 .115997318 .42765809 .018997193 .4246521V.3996582H.10598755V.12408447C.10598755 .012252808 .18699646-.0107421879 .23999024-.0107421879 .30699159-.0107421879 .34199525 .05319214 .34199525 .12408447V.18099976H.31399537V.1270752C.31399537 .05319214 .2829895 .01725769 .24699402 .01725769 .17999268 .01725769 .17999268 .1051178 .17999268 .12309265V.3996582H.32499696Z"/>
<path id="font_4_20" d="M.48399354 .21324158C.48399354 .34423829 .37998963 .4482422 .25698854 .4482422 .12998963 .4482422 .0289917 .3412323 .0289917 .21324158 .0289917 .08824158 .1329956-.0107421879 .2559967-.0107421879 .3829956-.0107421879 .48399354 .09024048 .48399354 .21324158M.25698854 .01725769C.20698548 .01725769 .16499329 .042251588 .14199829 .08125305 .115997318 .12324524 .114990238 .17623902 .114990238 .22224427 .114990238 .25924684 .114990238 .3162384 .13999939 .35723878 .16999817 .40823365 .21998596 .42323304 .2559967 .42323304 .31298829 .42323304 .35398866 .39123536 .37399293 .35723878 .39698792 .31523133 .397995 .26423646 .397995 .22224427 .397995 .1852417 .397995 .12724304 .37298585 .08325195 .34498597 .037246705 .29899598 .01725769 .25698854 .01725769Z"/>
<path id="font_4_15" d="M.18399048 .4423828 .039993287 .43138124V.40037538C.10398865 .40037538 .11299133 .3943634 .11299133 .34532167V.077041629C.11299133 .0309906 .101989749 .0309906 .035995485 .0309906V0C.08099365 .0019989014 .101989749 .0029907227 .1459961 .0029907227 .1619873 .0029907227 .20399475 .0029907227 .25299073 0V.0309906C.18798828 .0309906 .18399048 .035995485 .18399048 .075042728V.4423828M.18699646 .615921C.18699646 .6459198 .16299439 .6699219 .1329956 .6699219 .101989749 .6699219 .07899475 .6449127 .07899475 .615921 .07899475 .58691409 .101989749 .56192019 .1329956 .56192019 .16299439 .56192019 .18699646 .585907 .18699646 .615921Z"/>
<path id="font_4_23" d="M.34399415 .42222596C.34399415 .4392395 .34399415 .4482422 .33198548 .4482422 .32699586 .4482422 .32499696 .4482422 .31199647 .43623353 .30999757 .43423463 .30099488 .42523194 .29499818 .42022706 .2639923 .44223023 .23298645 .4482422 .19898987 .4482422 .066986087 .4482422 .033996583 .37522889 .033996583 .324234 .033996583 .29223634 .04798889 .26623536 .070999149 .24424744 .10499573 .21324158 .14299011 .2062378 .19400025 .1972351 .24499512 .1872406 .2619934 .18424988 .28399659 .16723633 .2939911 .15924073 .31900025 .14024353 .31900025 .102249149 .31900025 .014251709 .21798706 .014251709 .20399475 .014251709 .101989749 .014251709 .07598877 .099243167 .06399536 .15324402 .06098938 .16323853 .05999756 .16925049 .04798889 .16925049 .033996583 .16925049 .033996583 .16123963 .033996583 .14324951V.01524353C.033996583-.0017547608 .033996583-.0107421879 .04598999-.0107421879 .051986696-.0107421879 .052993776-.009750366 .070999149 .009246826 .07499695 .01524353 .085998538 .028244019 .09098816 .0332489 .1329956-.007751465 .1789856-.0107421879 .20399475-.0107421879 .32699586-.0107421879 .36999513 .06124878 .36999513 .12825012 .36999513 .17324829 .34999085 .20024109 .32798768 .22323609 .2939911 .25624085 .2579956 .26324464 .18399048 .27723695 .1579895 .28224183 .084991458 .2952423 .084991458 .3522339 .084991458 .38423158 .10798645 .426239 .19898987 .426239 .30699159 .426239 .31399537 .3432312 .31599427 .3182373 .31698609 .3062439 .31698609 .30023194 .32998658 .30023194 .34399415 .30023194 .34399415 .30723573 .34399415 .3262329V.42222596Z"/>
<path id="font_5_1" d="M.2919922 .5760956C.2919922 .63604739 .2919922 .65904238 .32499696 .6890259 .34498597 .7060089 .375 .7220001 .42099 .72499087 .43199159 .7259979 .43998719 .7259979 .43998719 .7369995 .43998719 .75 .43099977 .75 .41799928 .75 .31999208 .75 .22200012 .7030029 .22099304 .62405398V.3682251C.21998596 .33424378 .19099427 .2682953 .085998538 .2632904 .07699585 .26229859 .07299805 .25630189 .07299805 .25028993 .07299805 .23829651 .08299255 .23730469 .09098816 .23730469 .16099549 .2342987 .20899964 .1942749 .21899414 .14723206 .22099304 .13822937 .22099304 .13623047 .22099304 .10121155V-.09692383C.22099304-.13595581 .22099304-.1849823 .29100038-.2210083 .34399415-.24900818 .40699769-.25 .41799928-.25 .43099977-.25 .43998719-.25 .43998719-.23701477 .43998719-.22601319 .42999269-.2250061 .4249878-.2250061 .33299256-.2190094 .3019867-.16897583 .29499818-.14195252 .2919922-.12994385 .2919922-.12794495 .2919922-.091918949V.058181764C.2919922 .08720398 .2919922 .13623047 .29100038 .14523316 .2809906 .20127869 .23199463 .2342987 .17599488 .25028993 .2919922 .28327943 .2919922 .3522339 .2919922 .39620973V.5760956Z"/>
<path id="font_2_2" d="M.30299378 .36865235H.47599793C.4889984 .36865235 .526001 .36865235 .526001 .4046631 .526001 .43066407 .5039978 .43066407 .4850006 .43066407H.19599915C.17199707 .43066407 .13699341 .43066407 .08999634 .38365174 .06298828 .3566742 .026992798 .30177308 .026992798 .29379273 .026992798 .2828064 .037994386 .2828064 .040985109 .2828064 .04899597 .2828064 .050994874 .2848053 .056991579 .29478456 .10598755 .36865235 .16699219 .36865235 .18699646 .36865235H.2709961L.16899109 .038223268C.1639862 .023254395 .1639862 .021255494 .1639862 .01626587 .1639862 .0012664795 .17298889-.01171875 .19499207-.01171875 .22399903-.01171875 .23399353 .012268066 .23799134 .031234742L.30299378 .36865235Z"/>
<path id="font_6_1" d="M.35899354 .6349335C.35899354 .66503909 .35499574 .66503909 .32499696 .66503909 .25898744 .60058596 .15699768 .60058596 .12098694 .60058596V.5615845C.14698792 .5615845 .21299744 .5615845 .272995 .58958438V.08496094C.272995 .051986696 .272995 .038986207 .16999817 .038986207H.1269989V0C.18199158 .0039978029 .2599945 .0039978029 .31599427 .0039978029 .37199403 .0039978029 .44999696 .0039978029 .5049896 0V.038986207H.46199037C.35899354 .038986207 .35899354 .051986696 .35899354 .08496094V.6349335Z"/>
<path id="font_2_4" d="M.18199158 .015991211C.18199158-.017044068 .18199158-.09921265 .10798645-.17036438 .101989749-.17636109 .101989749-.17736817 .101989749-.18136597 .101989749-.18836975 .10899353-.19335938 .114990238-.19335938 .12599182-.19335938 .20698548-.115249637 .20698548 .0019989014 .20698548 .06399536 .18499756 .10798645 .14199829 .10798645 .10798645 .10798645 .08799744 .08198547 .08799744 .053985597 .08799744 .025985718 .10798645 0 .14199829 0 .15699768 0 .17199707 .004989624 .18199158 .015991211Z"/>
<path id="font_2_3" d="M.19599915 .053985597C.19599915 .08299255 .17298889 .10798645 .14199829 .10798645 .11099243 .10798645 .08799744 .08299255 .08799744 .053985597 .08799744 .024993897 .11099243 0 .14199829 0 .17298889 0 .19599915 .024993897 .19599915 .053985597Z"/>
<path id="font_3_2" d="M.6069946 .40176393C.60598757 .40275575 .6009979 .41275025 .6009979 .41375733 .6009979 .41474916 .60198977 .41575624 .6179962 .42674256 .7200012 .4967041 .8549957 .5886383 .9109955 .6156311 .94499209 .63160708 .97299197 .64060977 1.0059967 .64260867 1.0159912 .6436157 1.0289917 .64460757 1.0289917 .66760256 1.0289917 .6746063 1.022995 .6816101 1.0149994 .6816101 .9929962 .6816101 .96499636 .6786041 .94099429 .6786041 .9259949 .6786041 .8919983 .6786041 .8769989 .6796112 .86499026 .680603 .8279877 .6826172 .81799319 .6826172 .81199648 .6826172 .79499819 .6826172 .79499819 .65760806 .79499819 .6436157 .8089905 .64260867 .81199648 .64260867 .83499148 .64160159 .83499148 .63461306 .83499148 .62960818 .83499148 .6166229 .81399539 .6006317 .80999758 .597641 .8069916 .5956421 .80599978 .594635 .8049927 .5936432 .80400088 .5926361 .79499819 .5866394 .7919922 .5846405L.35699464 .29083253 .43499757 .6016388C.44299317 .63461306 .44499208 .64260867 .5249939 .64260867 .54299929 .64260867 .5569916 .64260867 .5569916 .66760256 .5569916 .6726074 .55400088 .6826172 .5399933 .6826172 .5189972 .6826172 .49499513 .6796112 .47299195 .6796112 .45098878 .6796112 .42799378 .6786041 .4059906 .6786041 .3829956 .6786041 .3600006 .6796112 .33699037 .6796112 .31498719 .6796112 .2899933 .6826172 .2679901 .6826172 .2619934 .6826172 .24598694 .6826172 .24598694 .65760806 .24598694 .64260867 .25898744 .64260867 .27799989 .64260867 .29599 .64260867 .32099916 .64260867 .34199525 .63560488 .34199525 .62561038 .34199525 .6196289 .33799745 .6036377L.20698548 .082962039C.19799805 .04698181 .19599915 .039993287 .12098694 .039993287 .09799194 .039993287 .084991458 .039993287 .084991458 .01499939 .084991458 .0069885256 .09098816 0 .101989749 0 .12298584 0 .14698792 .0029907227 .16899109 .0029907227 .19198609 .0029907227 .21398926 .0039978029 .23599243 .0039978029 .25898744 .0039978029 .28199769 .0029907227 .30499269 .0029907227 .32699586 .0029907227 .35198976 0 .37298585 0 .37998963 0 .3959961 0 .3959961 .024993897 .3959961 .039993287 .38398744 .039993287 .36299134 .039993287 .36099244 .039993287 .34298707 .039993287 .32499696 .041992189 .30499269 .04399109 .29899598 .04399109 .29899598 .054977418 .29899598 .05897522 .30599977 .083969119 .30899049 .09895325 .31399537 .11593628 .31399537 .11793518 .31999208 .141922 .33399964 .19389344 .33399964 .19589234 .34498597 .24386597L.5189972 .36079408 .68299868 .06896973C.68299868 .055984498 .68299868 .040985109 .6380005 .039993287 .6259918 .039993287 .61099246 .039993287 .61099246 .01499939 .61099246 .0069885256 .61698916 0 .6279907 0 .6569977 0 .73098757 .0039978029 .7599945 .0039978029 .7769928 .0039978029 .7939911 .0029907227 .8109894 .0029907227 .8279877 .0029907227 .8470001 0 .86299136 0 .8739929 0 .8849945 .005996704 .8849945 .024993897 .8849945 .039993287 .86898806 .039993287 .86099246 .039993287 .8089905 .040985109 .8009949 .054977418 .78900149 .07696533L.6069946 .40176393Z"/>
<path id="font_5_2" d="M.2919922 .13223267C.29299928 .1662445 .32199098 .2322998 .4269867 .23730469 .43598939 .23829651 .43998719 .24429322 .43998719 .25028993 .43998719 .26229859 .42999269 .2632904 .42199708 .2632904 .35198976 .2662964 .3039856 .3062744 .2939911 .35324098 .2919922 .3622284 .2919922 .3642273 .2919922 .3992157V.5970764C.2919922 .63604739 .2919922 .6850281 .22200012 .72099307 .16899109 .74798586 .10598755 .75 .09498596 .75 .08299255 .75 .07299805 .75 .07299805 .7369995 .07299805 .7259979 .08299255 .72499087 .08799744 .72499087 .17999268 .71899417 .21099854 .66903689 .21798706 .64204409 .22099304 .63005068 .22099304 .62805178 .22099304 .5920868V.44218446C.22099304 .41319276 .22099304 .3642273 .22200012 .35523988 .23199463 .29927064 .2809906 .2662964 .33699037 .25028993 .22099304 .21728516 .22099304 .14823914 .22099304 .10420227V-.075912479C.22099304-.13595581 .22099304-.15896607 .18798828-.1889801 .16799927-.20599365 .13798523-.22200012 .09199524-.2250061 .08099365-.22601319 .07299805-.22601319 .07299805-.23701477 .07299805-.25 .08299255-.25 .09498596-.25 .19299317-.25 .29100038-.20298767 .2919922-.12394714V.13223267Z"/>
<path id="font_4_3" d="M.6839905 .67907717C.6839905 .69607546 .6839905 .7050781 .6719971 .7050781 .6649933 .7050781 .6619873 .70207217 .6559906 .69306948L.6049957 .61798098C.57299807 .6490326 .5159912 .7050781 .4149933 .7050781 .22099304 .7050781 .056991579 .54385378 .056991579 .34153749 .056991579 .13748169 .21998596-.022460938 .41600038-.022460938 .5099945-.022460938 .58200076 .013534546 .6100006 .06251526 .6269989 .03552246 .6629944 .0005340576 .6729889 .0005340576 .6839905 .0005340576 .6839905 .009536743 .6839905 .025527955V.19744873C.6839905 .23742676 .6879883 .24243164 .7549896 .24243164V.2734375C.6899872 .27043153 .67900088 .27043153 .6259918 .27043153 .58699038 .27043153 .5009918 .27043153 .46598817 .2734375V.24243164H.49798585C.59098818 .24243164 .59399417 .23043823 .59399417 .19345093V.1304779C.59399417 .008529663 .44198609 .008529663 .42900086 .008529663 .34700013 .008529663 .15899658 .057510377 .15899658 .34153749 .15899658 .62098696 .34098817 .67407229 .42399598 .67407229 .522995 .67407229 .6279907 .59895327 .6519928 .43669129 .6539917 .42367555 .6549988 .4186554 .66799929 .4186554 .6839905 .4186554 .6839905 .42367555 .6839905 .44470216V.67907717Z"/>
<path id="font_4_6" d="M.22898865 .35351563V.6105957C.22898865 .63661196 .23098755 .6456146 .25 .6496124 .25898744 .6516113 .29100038 .6516113 .31199647 .6516113 .397995 .6516113 .5249939 .6516113 .5249939 .5025635 .5249939 .41653443 .48098756 .35351563 .34498597 .35351563H.22898865M.45399476 .33850099C.548996 .36550904 .6269989 .42453004 .6269989 .5025635 .6269989 .601593 .5059967 .6826172 .35899354 .6826172H.039993287V.6516113H.06298828C.13999939 .6516113 .14199829 .64060977 .14199829 .6035919V.07891846C.14199829 .04197693 .13999939 .0309906 .06298828 .0309906H.039993287V0C.08699036 .0029907227 .13699341 .0029907227 .18499756 .0029907227 .23298645 .0029907227 .2829895 .0029907227 .33099366 0V.0309906H.30799867C.23098755 .0309906 .22898865 .04197693 .22898865 .07891846V.32850648H.34899903C.42099 .32850648 .45298768 .29051209 .45700074 .28651429 .4869995 .24951172 .4869995 .23451233 .4869995 .16351319 .4869995 .0965271 .4869995 .052520753 .5349884 .014526367 .58200076-.022460938 .6419983-.022460938 .6529999-.022460938 .7369995-.022460938 .7519989 .06452942 .7519989 .088531497 .7519989 .0945282 .7519989 .10652161 .73799136 .10652161 .72499087 .10652161 .72499087 .09751892 .723999 .089523319 .71899417 .026535035 .6879883 .002532959 .6569977 .002532959 .625 .002532959 .6139984 .022537232 .60598757 .039535524 .5970001 .061523439 .58799746 .1295166 .58200076 .17451477 .57398989 .23651123 .5649872 .30351258 .45399476 .33850099Z"/>
<path id="font_4_5" d="M.39898683 .31378175C.5389862 .31378175 .6409912 .40075685 .6409912 .4967041 .6409912 .5956421 .5379944 .6826172 .39898683 .6826172H.039993287V.6516113H.06298828C.13999939 .6516113 .14199829 .64060977 .14199829 .6036377V.07896423C.14199829 .041992189 .13999939 .0309906 .06298828 .0309906H.039993287V0C.084991458 .0029907227 .14099121 .0029907227 .18699646 .0029907227 .23298645 .0029907227 .2889862 .0029907227 .33399964 0V.0309906H.31098939C.23399353 .0309906 .23199463 .041992189 .23199463 .07896423V.31378175H.39898683M.22898865 .6106262C.22898865 .64460757 .23098755 .6516113 .27799989 .6516113H.37399293C.5389862 .6516113 .5389862 .54167178 .5389862 .4967041 .5389862 .4517212 .5389862 .34179688 .37298585 .34179688H.22898865V.6106262Z"/>
<path id="font_4_4" d="M.7409973 .33880616C.7409973 .54296877 .58599856 .7050781 .39898683 .7050781 .21199036 .7050781 .056991579 .54196169 .056991579 .33880616 .056991579 .13563538 .21299744-.022460938 .39898683-.022460938 .58499148-.022460938 .7409973 .13563538 .7409973 .33880616M.39898683 .007537842C.2979889 .007537842 .15899658 .09559631 .15899658 .35380555 .15899658 .5980072 .3019867 .677063 .39898683 .677063 .49598695 .677063 .6389923 .5980072 .6389923 .35380555 .6389923 .09559631 .5 .007537842 .39898683 .007537842Z"/>
<path id="font_4_25" d="M.3959961 .16729737C.3959961 .07827759 .34599305 .014251709 .27398683 .014251709 .19099427 .014251709 .18598938 .057266237 .18598938 .11128235V.4423828L.034988405 .43138124V.40037538C.11199951 .40037538 .11199951 .39736939 .11199951 .3083496V.15829468C.11199951 .09327698 .11199951 .05126953 .1579895 .01625061 .18699646-.003753662 .22799683-.0107421879 .2679901-.0107421879 .31999208-.0107421879 .36898805 .012252808 .397995 .072265628L.39898683 .07203674V-.011001587L.5469971 0V.0309906C.47898866 .0309906 .46998597 .037994386 .46998597 .08705139V.4423828L.31900025 .43138124V.40037538C.3869934 .40037538 .3959961 .39337159 .3959961 .34431459V.16729737Z"/>
<path id="font_4_21" d="M.18099976 .3363495C.21499634 .3943634 .269989 .41436769 .31199647 .41436769 .3899994 .41436769 .44999696 .32434083 .44999696 .2163086 .44999696 .10227966 .38198854 .014251709 .30099488 .014251709 .2559967 .014251709 .21798706 .040252687 .19400025 .07527161 .18099976 .09527588 .18099976 .09727478 .18099976 .11628723V.3363495M.18099976 .04826355C.20698548 .022247315 .24099732-.0107421879 .30699159-.0107421879 .42599488-.0107421879 .5359955 .08526611 .5359955 .2163086 .5359955 .3423462 .43798829 .4423828 .31999208 .4423828 .2659912 .4423828 .21598816 .42037965 .17799378 .379364V.4416504L.02999878 .43066407V.3996582C.100997928 .3996582 .10699463 .3936615 .10699463 .35066224V-.11734009C.10699463-.16334534 .09599304-.16334534 .02999878-.16334534V-.19433594C.07699585-.19233704 .09599304-.19134522 .14399719-.19134522 .19198609-.19134522 .20498657-.19233704 .2579956-.19433594V-.16334534C.19198609-.16334534 .18099976-.16334534 .18099976-.11734009V.04826355Z"/>
<path id="font_4_26" d="M.6369934 .3337555C.6589966 .39466859 .69999697 .39866639 .72099307 .3996582V.43066407C.68099978 .42765809 .67900088 .42765809 .6459961 .42765809 .60798647 .42765809 .59399417 .42765809 .55400088 .43066407V.3996582C.5970001 .39866639 .61099246 .3717041 .61099246 .35173036 .61099246 .3417511 .60899356 .3357544 .60598757 .32876588L.5139923 .07914734 .41299439 .35272218C.4079895 .3657074 .4079895 .36869813 .4079895 .3717041 .4079895 .3976593 .43899537 .3996582 .46499635 .3996582V.43066407C.4189911 .42765809 .37799073 .42765809 .3619995 .42765809 .33099366 .42765809 .3019867 .42765809 .269989 .43066407V.3996582C.3019867 .3996582 .32199098 .39866639 .33299256 .38467408 .34199525 .373703 .35499574 .3337555 .35499574 .33076478 .35499574 .32876588 .34999085 .31777955 .34999085 .31678773L.2679901 .09213257 .17298889 .35173036C.16699219 .36671449 .16699219 .36869813 .16699219 .37269593 .16699219 .3996582 .20599365 .3996582 .22499085 .3996582V.43066407C.1789856 .4286499 .1559906 .42765809 .115997318 .42765809 .08299255 .42765809 .053985597 .42765809 .019989014 .43066407V.3996582C.067993167 .3996582 .08099365 .3976593 .09298706 .3637085L.22200012 .011245728C.22698975-.00074768069 .22999573-.0107421879 .24499512-.0107421879 .2599945-.0107421879 .2639923 .00024414063 .2679901 .010253906L.36999513 .28982545 .47299195 .010253906C.47698976 .00024414063 .48098756-.0107421879 .49598695-.0107421879 .5109863-.0107421879 .5139923-.00074768069 .5179901 .009246826L.6369934 .3337555Z"/>
<path id="font_4_11" d="M.3889923 .120285037C.3889923 .10227966 .3889923 .09927368 .37399293 .07827759 .34298707 .0332489 .29699708 .014251709 .25698854 .014251709 .21398926 .014251709 .17399597 .038253786 .147995 .08027649 .12199402 .123291019 .11999512 .18229676 .11999512 .21430969 .11999512 .26132203 .12599182 .3143463 .1519928 .35435487 .17399597 .3863678 .21499634 .41737367 .2679901 .41737367 .30999757 .41737367 .34999085 .39637757 .3769989 .35835267 .3889923 .3423462 .3889923 .34135438 .3889923 .32234193V.120285037M.3919983 .38336183C.3869934 .38937379 .34199525 .4423828 .2639923 .4423828 .14099121 .4423828 .033996583 .34436036 .033996583 .21531677 .033996583 .090270999 .13398743-.0107421879 .25299073-.0107421879 .32598878-.0107421879 .37098695 .03225708 .3889923 .053268434V-.011001587L.5399933 0V.0309906C.47200013 .0309906 .46299745 .037994386 .46299745 .087020877V.69433596L.31498719 .68333438V.6523285C.3829956 .6523285 .3919983 .6453247 .3919983 .5962982V.38336183Z"/>
<path id="font_4_2" d="M.06298828 .6516113C.13999939 .6516113 .14199829 .64060977 .14199829 .6036377V.07896423C.14199829 .041992189 .13999939 .0309906 .06298828 .0309906H.039993287V0H.4119873C.58499148 0 .72698977 .1479187 .72698977 .33580018 .72698977 .52568057 .58799746 .6826172 .4119873 .6826172H.039993287V.6516113H.06298828M.27799989 .0309906C.23098755 .0309906 .22898865 .037994386 .22898865 .07196045V.6106262C.22898865 .64460757 .23098755 .6516113 .27799989 .6516113H.3849945C.48199464 .6516113 .5419922 .6006317 .56900027 .56466677 .61299136 .5066986 .6279907 .43473817 .6279907 .33580018 .6279907 .29483033 .6279907 .18989563 .57299807 .11993408 .5209961 .051986696 .44898988 .0309906 .38598634 .0309906H.27799989Z"/>
<path id="font_4_13" d="M.2999878 .3996582V.43066407H.18099976V.5438385C.18099976 .6349945 .22999573 .68006899 .272995 .68006899 .2829895 .68006899 .29299928 .67807009 .30299378 .674057 .29299928 .6700592 .2769928 .6580353 .2769928 .6329956 .2769928 .60694888 .29599 .58891299 .32099916 .58891299 .34799195 .58891299 .3659973 .60795596 .3659973 .6339874 .3659973 .6720581 .32798768 .7050781 .272995 .7050781 .19499207 .7050781 .11299133 .64601138 .11299133 .54585269V.43066407H.033996583V.3996582H.11299133V.07695007C.11299133 .0309906 .101989749 .0309906 .035995485 .0309906V0C.08898926 .0019989014 .101989749 .0029907227 .15299988 .0029907227 .19299317 .0029907227 .21699524 .0019989014 .27999879 0V.0309906H.2599945C.18699646 .0309906 .18399048 .04197693 .18399048 .078948978V.3996582H.2999878Z"/>
<path id="font_4_19" d="M.18598938 .2592163C.18598938 .36532594 .26098634 .41737367 .32398988 .41737367 .3829956 .41737367 .3959961 .3683319 .3959961 .30825807V.077041629C.3959961 .0309906 .3849945 .0309906 .31900025 .0309906V0C.3659973 .0019989014 .3849945 .0029907227 .43299867 .0029907227 .48098756 .0029907227 .49398805 .0019989014 .5469971 0V.0309906C.49598695 .0309906 .47099305 .0309906 .46998597 .062026979V.25421144C.46998597 .33729554 .46998597 .36631776 .44198609 .40135194 .4189911 .42938233 .3809967 .4423828 .33099366 .4423828 .23799134 .4423828 .19499207 .3733368 .18099976 .3453064H.17999268V.4416504L.034988405 .43066407V.3996582C.102996829 .3996582 .11199951 .39266969 .11199951 .34370423V.07695007C.11199951 .0309906 .100997928 .0309906 .034988405 .0309906V0C.08198547 .0019989014 .100997928 .0029907227 .14898682 .0029907227 .19699097 .0029907227 .20999146 .0019989014 .2630005 0V.0309906C.19699097 .0309906 .18598938 .0309906 .18598938 .07695007V.2592163Z"/>
<path id="font_1_6" d="M.7579956 .60757449C.7579956 .6295471 .7589874 .6305542 .7869873 .6335449 .8109894 .63653567 .8129883 .63653567 .83999636 .63653567H.8659973V.6855469C.80400088 .6825409 .7749939 .6825409 .72898867 .6825409 .68899539 .6825409 .6579895 .6825409 .59098818 .6855469V.63653567H.61698916C.6439972 .63653567 .6459961 .63653567 .66999819 .6335449 .69799807 .6305542 .69898989 .6295471 .69898989 .60757449V.2320404C.69898989 .095199588 .598999 .03727722 .47698976 .03727722 .29699708 .03727722 .29499818 .17010498 .29499818 .2240448V.63653567H.40299989V.6855469C.36799623 .6825409 .2639923 .6825409 .22299195 .6825409 .18199158 .6825409 .07699585 .6825409 .041992189 .6855469V.63653567H.1499939V.23103333C.1499939 .09919739 .2599945-.01171875 .47299195-.01171875 .6689911-.01171875 .7579956 .10418701 .7579956 .2300415V.60757449Z"/>
<path id="font_1_16" d="M.2939911-.14533997H.22599793V.039138795C.2849884-.005859375 .33999635-.005859375 .35899354-.005859375 .5159912-.005859375 .61698916 .089141849 .61698916 .22216797 .61698916 .354187 .526001 .4501953 .375 .4501953 .2939911 .4501953 .23899842 .41618348 .21998596 .40219117V.4501953L.040985109 .44218446V.39318849C.06098938 .39318849 .07699585 .39318849 .08999634 .3901825 .10899353 .38719178 .10899353 .3761902 .10899353 .35517884V-.14533997H.040985109V-.19433594C.114990238-.19134522 .1269989-.19134522 .16699219-.19134522 .20799256-.19134522 .21798706-.19134522 .2939911-.19433594V-.14533997M.22599793 .34518434C.24398804 .3671875 .29100038 .4071808 .35899354 .4071808 .42900086 .4071808 .48399354 .34518434 .48399354 .22315979 .48399354 .08413696 .41299439 .03413391 .34700013 .03413391 .29599 .03413391 .25299073 .06314087 .22599793 .104141239V.34518434Z"/>
<path id="font_1_9" d="M.36799623 .6863251V.6373291C.42799378 .6373291 .43598939 .6373291 .43598939 .5982971V.40518189C.3919983 .43719483 .34498597 .4501953 .29699708 .4501953 .13398743 .4501953 .038986207 .35118104 .038986207 .22216797 .038986207 .089141849 .1329956-.005859375 .2849884-.005859375 .34799195-.005859375 .397995 .018127442 .42999269 .044128419V-.005859375L.61499026 .0001373291V.0491333C.5549927 .0491333 .5469971 .0491333 .5469971 .088134769V.69433596L.36799623 .6863251M.42999269 .10914612C.4079895 .074142459 .3600006 .03413391 .29599 .03413391 .17199707 .03413391 .17199707 .15414429 .17199707 .22015381 .17199707 .27816773 .17298889 .32118226 .19898987 .3581848 .22499085 .39819337 .272995 .41018678 .30799867 .41018678 .35798646 .41018678 .39898683 .3881836 .42999269 .34918214V.10914612Z"/>
<path id="font_4_1" d="M.6049957 .61802676C.57299807 .64904788 .5159912 .7050781 .4149933 .7050781 .22099304 .7050781 .056991579 .5439606 .056991579 .34179688 .056991579 .13563538 .22299195-.022460938 .4149933-.022460938 .58099368-.022460938 .6839905 .11462402 .6839905 .23170471 .6839905 .24171448 .6839905 .25073243 .66999819 .25073243 .6569977 .25073243 .6569977 .24372864 .6559906 .2347107 .647995 .082595828 .5279999 .008529663 .4249878 .008529663 .33999635 .008529663 .15899658 .061569215 .15899658 .34179688 .15899658 .6210327 .34098817 .67407229 .42399598 .67407229 .522995 .67407229 .6279907 .5990143 .6519928 .4368744 .6539917 .4238739 .6549988 .41886903 .66799929 .41886903 .6839905 .41886903 .6839905 .4238739 .6839905 .44488526V.67907717C.6839905 .69607546 .6839905 .7050781 .6719971 .7050781 .6649933 .7050781 .6619873 .70207217 .6559906 .69306948L.6049957 .61802676Z"/>
<path id="font_4_17" d="M.18399048 .69433596 .035995485 .68333438V.6523285C.10398865 .6523285 .11299133 .6453247 .11299133 .5962982V.07701111C.11299133 .0309906 .101989749 .0309906 .035995485 .0309906V0C.08299255 .0019989014 .101989749 .0029907227 .147995 .0029907227 .19499207 .0029907227 .21199036 .0019989014 .26098634 0V.0309906C.19499207 .0309906 .18399048 .0309906 .18399048 .07701111V.69433596Z"/>
<path id="font_4_18" d="M.18598938 .2592163C.18598938 .36732484 .2639923 .41737367 .32398988 .41737367 .3789978 .41737367 .39698792 .37834168 .39698792 .30825807V.077041629C.39698792 .0309906 .38598634 .0309906 .31999208 .0309906V0C.36698915 .0019989014 .38598634 .0029907227 .43399049 .0029907227 .48199464 .0029907227 .49499513 .0019989014 .5479889 0V.0309906C.48199464 .0309906 .47099305 .0309906 .47099305 .077041629V.2592163C.47099305 .36732484 .548996 .41737367 .60899356 .41737367 .6639862 .41737367 .6819916 .37834168 .6819916 .30825807V.077041629C.6819916 .0309906 .67099 .0309906 .6049957 .0309906V0C.6519928 .0019989014 .67099 .0029907227 .71899417 .0029907227 .7669983 .0029907227 .7799988 .0019989014 .83299258 0V.0309906C.7819977 .0309906 .7569885 .0309906 .7559967 .062026979V.25421144C.7559967 .34129334 .7559967 .36932374 .72299197 .4063568 .70199587 .43037416 .6619873 .4423828 .6159973 .4423828 .5439911 .4423828 .49499513 .4003601 .46699525 .3473053 .45498658 .4063568 .4149933 .4423828 .33099366 .4423828 .25099183 .4423828 .20199585 .39035035 .18099976 .34429933L.17999268 .34370423V.4416504L.034988405 .43066407V.3996582C.102996829 .3996582 .11199951 .39266969 .11199951 .34370423V.07695007C.11199951 .0309906 .100997928 .0309906 .034988405 .0309906V0C.08198547 .0019989014 .100997928 .0029907227 .14898682 .0029907227 .19699097 .0029907227 .20999146 .0019989014 .2630005 0V.0309906C.19699097 .0309906 .18598938 .0309906 .18598938 .07695007V.2592163Z"/>
<path id="font_4_7" d="M.22698975 .41786195C.14698792 .43788148 .12098694 .5019226 .12098694 .5459595 .12098694 .61302188 .1749878 .677063 .25898744 .677063 .3880005 .677063 .43998719 .58099368 .45399476 .47990418 .45700074 .46089173 .45799256 .45588685 .46998597 .45588685 .48399354 .45588685 .48399354 .46289063 .48399354 .48391725V.677063C.48399354 .69706729 .48399354 .7050781 .47200013 .7050781 .46499635 .7050781 .46398927 .70407107 .45700074 .69207766 .44400025 .67407229 .45399476 .68707278 .42099 .6350403 .4039917 .6550598 .35198976 .7050781 .2579956 .7050781 .14099121 .7050781 .056991579 .6140137 .056991579 .5119324 .056991579 .4338684 .10398865 .38583375 .10899353 .38082887 .1539917 .336792 .17199707 .3317871 .29100038 .30377198 .37199403 .28475953 .3809967 .28274537 .4139862 .24871826 .4149933 .24772644 .44898988 .21069336 .44898988 .15164185 .44898988 .08358765 .3999939 .008529663 .30899049 .008529663 .23199463 .008529663 .09298706 .04055786 .084991458 .20568848 .083999637 .22070313 .083999637 .22669983 .070999149 .22669983 .056991579 .22669983 .056991579 .21870423 .056991579 .19868469V.0055389406C.056991579-.014465332 .056991579-.022460938 .068984989-.022460938 .07598877-.022460938 .07699585-.021469117 .083999637-.009475708 .09700012 .008529663 .08699036-.004470825 .11999512 .047561647 .18199158-.012466431 .26098634-.022460938 .30999757-.022460938 .43199159-.022460938 .5130005 .07759094 .5130005 .18467713 .5130005 .24171448 .49198915 .28575135 .46798707 .31578065 .4249878 .3708191 .37998963 .38183595 .31498719 .3968506L.22698975 .41786195Z"/>
<path id="font_4_14" d="M.18299866 .69433596 .034988405 .68333438V.6523285C.102996829 .6523285 .11199951 .6453247 .11199951 .596344V.077041629C.11199951 .0309906 .100997928 .0309906 .034988405 .0309906V0C.08198547 .0019989014 .100997928 .0029907227 .14898682 .0029907227 .19699097 .0029907227 .20999146 .0019989014 .2630005 0V.0309906C.19699097 .0309906 .18598938 .0309906 .18598938 .077041629V.2592163C.18598938 .36532594 .26098634 .41737367 .32398988 .41737367 .3829956 .41737367 .3959961 .3683319 .3959961 .30825807V.077041629C.3959961 .0309906 .3849945 .0309906 .31900025 .0309906V0C.3659973 .0019989014 .3849945 .0029907227 .43299867 .0029907227 .48098756 .0029907227 .49398805 .0019989014 .5469971 0V.0309906C.49598695 .0309906 .47099305 .0309906 .46998597 .062026979V.25421144C.46998597 .33729554 .46998597 .36631776 .44198609 .40135194 .4189911 .42938233 .3809967 .4423828 .33099366 .4423828 .2639923 .4423828 .21499634 .4073639 .18399048 .3513031H.18299866V.69433596Z"/>
<path id="font_7_10" d="M.57899478 .2693329C.57899478 .36637879 .5109863 .44140626 .4079895 .44140626 .2649994 .44140626 .12998963 .3023529 .12998963 .16229248 .12998963 .0602417 .20199585-.009765625 .30099488-.009765625 .44400025-.009765625 .57899478 .13027954 .57899478 .2693329M.3019867 .018234253C.27398683 .018234253 .20899964 .032226564 .20899964 .12828064 .20899964 .17228699 .22898865 .27734376 .2769928 .33937074 .31199647 .38638307 .36299134 .4133911 .40699769 .4133911 .44198609 .4133911 .5 .39239503 .5 .30334474 .5 .2693329 .4850006 .17329407 .44198609 .105270389 .41099549 .057250978 .35499574 .018234253 .3019867 .018234253Z"/>
<path id="font_7_2" d="M.32899476 .66529849C.32998658 .6693115 .33198548 .67630007 .33198548 .68029788 .33198548 .6953125 .31599427 .6943054 .30499269 .69329836L.19699097 .6843109C.18399048 .68330386 .17098999 .682312 .17098999 .66130068 .17098999 .64730837 .18399048 .64730837 .19699097 .64730837 .24499512 .64730837 .24499512 .64030459 .24499512 .63131716 .24499512 .62532046 .24499512 .62332156 .24099732 .60931399L.14399719 .22331238C.1349945 .18730164 .1349945 .16429138 .1349945 .1512909 .1349945 .04524231 .19999695-.009765625 .27198792-.009765625 .394989-.009765625 .5209961 .13327027 .5209961 .27833558 .5209961 .37838746 .45799256 .44140626 .3789978 .44140626 .32499696 .44140626 .2829895 .4084015 .2599945 .39038087L.32899476 .66529849M.272995 .018234253C.23098755 .018234253 .20098877 .054244996 .20098877 .119277957 .20098877 .17228699 .23799134 .3063507 .24398804 .31636048 .27398683 .36437989 .32699586 .4133911 .3769989 .4133911 .42399598 .4133911 .44499208 .36738587 .44499208 .3193512 .44499208 .2733307 .4169922 .1612854 .3919983 .11427307 .35499574 .04423523 .30499269 .018234253 .272995 .018234253Z"/>
<path id="font_7_11" d="M.42900086 .3720398C.42399598 .3700409 .397995 .35603334 .397995 .33003236 .397995 .31703187 .40499879 .30003358 .42999269 .30003358 .44198609 .30003358 .47399903 .30604554 .47399903 .35403443 .47399903 .418396 .4059906 .44140626 .34799195 .44140626 .20498657 .44140626 .17199707 .33303834 .17199707 .29405213 .17199707 .21322632 .25099183 .1982727 .28799439 .19128418 .33499146 .18229676 .3909912 .1723175 .3909912 .12136841 .3909912 .09437561 .3659973 .018234253 .24598694 .018234253 .21499634 .018234253 .15699768 .024246216 .13598633 .06738281 .17098999 .07637024 .1769867 .1053772 .1769867 .116378787 .1769867 .13537598 .16299439 .14936829 .14199829 .14936829 .114990238 .14936829 .08999634 .12937927 .08999634 .087371829 .08999634 .027252198 .1519928-.009765625 .24398804-.009765625 .4149933-.009765625 .45399476 .1113739 .45399476 .15635681 .45399476 .18629456 .44099427 .2142334 .4169922 .23518372 .3880005 .25912477 .36299134 .26411439 .30899049 .27409364 .2789917 .28009034 .23498535 .28807069 .23498535 .32904054 .23498535 .3470459 .2519989 .4133911 .34700013 .4133911 .36999513 .4133911 .41299439 .4083557 .42900086 .3720398Z"/>
<path id="font_7_1" d="M.5469971 .37138368C.5509949 .38638307 .5509949 .38838197 .5509949 .39239503 .5509949 .4143982 .5349884 .4223938 .519989 .4223938 .4869995 .4223938 .47698976 .38838197 .47599793 .38539125 .45098878 .4263916 .4139862 .44140626 .37799073 .44140626 .2559967 .44140626 .1289978 .300354 .1289978 .15428162 .1289978 .04724121 .19699097-.009765625 .2709961-.009765625 .33499146-.009765625 .3880005 .037231447 .4079895 .058242799 .42099 .010223389 .46798707-.009765625 .5039978-.009765625 .5349884-.009765625 .5609894 .0052337648 .58299258 .041229249 .6069946 .08026123 .62098696 .14027405 .62098696 .14328003 .62098696 .15628052 .60798647 .15628052 .59999087 .15628052 .58200076 .15628052 .58099368 .15428162 .57499697 .12927246 .5609894 .07725525 .5439911 .018234253 .5069885 .018234253 .47898866 .018234253 .47499085 .048233034 .47499085 .06524658 .47499085 .08226013 .47499085 .08425903 .48098756 .10726929L.5469971 .37138368M.4139862 .13627625C.4059906 .105270389 .38398744 .08125305 .36099244 .059249879 .31999208 .023223877 .2889862 .018234253 .27398683 .018234253 .22799683 .018234253 .20498657 .06124878 .20498657 .11326599 .20498657 .1552887 .22999573 .26533509 .2579956 .3193512 .2899933 .37838746 .33799745 .4133911 .37799073 .4133911 .44599916 .4133911 .45899964 .32635499 .45899964 .31636048 .45899964 .3133545 .45799256 .3093567 .45599366 .3023529L.4139862 .13627625Z"/>
<path id="font_7_3" d="M.4850006 .37701417C.45599366 .36898805 .44599916 .34498597 .44599916 .32798768 .44599916 .31199647 .45700074 .29499818 .48199464 .29499818 .49899293 .29499818 .5319977 .30599977 .5319977 .35398866 .5319977 .41940309 .46199037 .44140626 .40699769 .44140626 .2669983 .44140626 .12998963 .3039856 .12998963 .16210938 .12998963 .06819153 .19299317-.009765625 .3039856-.009765625 .46499635-.009765625 .54100039 .08416748 .54100039 .09715271 .54100039 .105148319 .5269928 .12113953 .5179901 .12113953 .5130005 .12113953 .5099945 .1181488 .5029907 .1101532 .44198609 .037216188 .35499574 .018234253 .30499269 .018234253 .25498963 .018234253 .20899964 .047195436 .20899964 .12812805 .20899964 .1750946 .23098755 .28100587 .2769928 .33898927 .31698609 .39015199 .36499024 .4133911 .4079895 .4133911 .4249878 .4133911 .46798707 .40834046 .4850006 .37701417Z"/>
<path id="font_7_12" d="M.2899933 .39465333H.3889923C.40699769 .39465333 .4189911 .39465333 .4189911 .4166565 .4189911 .43066407 .40699769 .43066407 .3909912 .43066407H.29899598L.33499146 .57450869C.33898927 .588501 .33898927 .5904999 .33898927 .5944977 .33898927 .6124878 .32499696 .6244812 .30699159 .6244812 .272995 .6244812 .2649994 .5914917 .2630005 .5825043L.22499085 .43066407H.12599182C.10798645 .43066407 .09599304 .43066407 .09599304 .4086609 .09599304 .39465333 .10798645 .39465333 .12399292 .39465333H.21598816L.14698792 .11807251C.14199829 .098098758 .14199829 .09111023 .14199829 .084121707 .14199829 .022216797 .19099427-.009765625 .24299622-.009765625 .35099793-.009765625 .4149933 .12806702 .4149933 .14404297 .4149933 .15602112 .4019928 .15602112 .394989 .15602112 .3789978 .15602112 .37799073 .15402222 .37199403 .14004517 .32499696 .034194948 .272995 .018234253 .24598694 .018234253 .21199036 .018234253 .21199036 .05517578 .21199036 .06515503 .21199036 .0821228 .21699524 .10310364 .21798706 .10609436L.2899933 .39465333Z"/>
<path id="font_7_7" d="M.35699464 .62319949C.35699464 .64419558 .34199525 .6582031 .32199098 .6582031 .2939911 .6582031 .27198792 .63220217 .27198792 .610199 .27198792 .5921936 .28399659 .5751953 .30799867 .5751953 .33299256 .5751953 .35699464 .5991974 .35699464 .62319949M.21099854 .24732971C.20399475 .22831726 .18598938 .18229676 .17599488 .15428162 .1659851 .12828064 .1519928 .09225464 .1519928 .07424927 .1519928 .02822876 .18798828-.009765625 .24099732-.009765625 .34098817-.009765625 .38598634 .12727356 .38598634 .14328003 .38598634 .15628052 .37298585 .15628052 .36499024 .15628052 .34700013 .15628052 .34599305 .1532898 .34098817 .13528443 .32798768 .087249759 .29499818 .018234253 .24398804 .018234253 .21998596 .018234253 .21998596 .042236329 .21998596 .052246095 .21998596 .07624817 .23699951 .119277957 .25 .1512909 .26098634 .18229676 .31098939 .3093567 .31599427 .32435609 .32199098 .34136964 .32199098 .3443756 .32199098 .3573761 .32199098 .40238954 .2869873 .44140626 .23199463 .44140626 .13398743 .44140626 .08799744 .3063507 .08799744 .28834535 .08799744 .27534486 .100997928 .27534486 .10899353 .27534486 .12098694 .27534486 .1269989 .27534486 .12998963 .28834535 .16299439 .40438844 .21099854 .4133911 .22898865 .4133911 .24099732 .4133911 .2539978 .4104004 .2539978 .37937928 .2539978 .3573761 .24598694 .33737184 .23799134 .31636048L.21099854 .24732971Z"/>
<path id="font_7_9" d="M.3039856 .35636903C.29699708 .41740418 .24499512 .44140626 .20498657 .44140626 .1619873 .44140626 .13999939 .4133911 .125 .38838197 .10398865 .3553772 .08799744 .29434205 .08799744 .28834535 .08799744 .27534486 .100997928 .27534486 .10899353 .27534486 .1269989 .27534486 .12799073 .27633668 .1349945 .3043518 .1519928 .37338258 .17098999 .4133911 .20199585 .4133911 .23298645 .4133911 .23298645 .37738038 .23298645 .3653717 .23298645 .3463745 .21998596 .29534913 .21199036 .2603302L.18399048 .15228272C.18099976 .13728333 .17098999 .09925842 .16699219 .08425903 .1619873 .0622406 .15299988 .027236939 .15299988 .020233155 .15299988-.0017700195 .16899109-.009765625 .18399048-.009765625 .21798706-.009765625 .22499085 .020233155 .22898865 .035232545 .23298645 .052246095 .24598694 .102264408 .2519989 .12426758 .25498963 .13928223 .2649994 .17729187 .2679901 .19230652 .2709961 .20230103 .28399659 .2523346 .2849884 .25933839 .2869873 .26533509 .31698609 .33135987 .35798646 .36938478 .3880005 .39639283 .4229889 .4133911 .46299745 .4133911 .5089874 .4133911 .519989 .37838746 .519989 .34536744 .519989 .28634645 .47299195 .1652832 .45599366 .119277957 .44599916 .09425354 .44599916 .087249759 .44599916 .07424927 .44599916 .020233155 .4889984-.009765625 .5349884-.009765625 .6349945-.009765625 .6799927 .12727356 .6799927 .14328003 .6799927 .15628052 .6669922 .15628052 .6589966 .15628052 .6409912 .15628052 .6399994 .1532898 .6349945 .13528443 .6179962 .07325745 .58200076 .018234253 .5379944 .018234253 .5239868 .018234253 .5130005 .025222779 .5130005 .052246095 .5130005 .07424927 .5219879 .0962677 .5299988 .119277957 .5479889 .16629029 .58999636 .27534486 .58999636 .33036805 .58999636 .4084015 .5359955 .44140626 .46699525 .44140626 .3880005 .44140626 .33399964 .39439393 .3039856 .35636903Z"/>
<path id="font_8_1" d="M.8769989 .6566162C.8779907 .6586151 .8839874 .6686096 .8839874 .6736145 .8839874 .6826172 .8759918 .6826172 .8580017 .6826172H.09498596C.07699585 .6826172 .068984989 .6826172 .068984989 .6736145 .068984989 .6686096 .07499695 .6596222 .07598877 .6566162L.44299317-.00579834C.45199586-.02279663 .45599366-.029800415 .47599793-.029800415 .49598695-.029800415 .5-.023803711 .5079956-.0087890629L.8769989 .6566162M.21199036 .60266116H.80599978L.5099945 .06713867H.5089874L.21199036 .60266116Z"/>
<path id="font_9_1" d="M.60398867 .4741211C.60398867 .5950928 .548996 .7050781 .44099427 .7050781 .2809906 .7050781 .10798645 .45413209 .10798645 .22019959 .10798645 .084228519 .17199707-.0107421879 .269989-.0107421879 .43399049-.0107421879 .60398867 .24719239 .60398867 .4741211M.22799683 .3701477C.2919922 .6190796 .3929901 .6710663 .43998719 .6710663 .49598695 .6710663 .5189972 .608078 .5189972 .52911379 .5189972 .499115 .5169983 .4591217 .49499513 .3701477H.22799683M.48298646 .32417298C.4229889 .084228519 .32199098 .023254395 .27198792 .023254395 .19699097 .023254395 .19198609 .13421631 .19198609 .16421509 .19198609 .2032013 .19898987 .2501831 .21598816 .32417298H.48298646Z"/>
<path id="font_7_6" d="M.54599 .37135316C.5499878 .3863678 .5499878 .3883667 .5499878 .39237977 .5499878 .4143982 .5339966 .4223938 .5189972 .4223938 .49798585 .4223938 .48098756 .4073944 .47499085 .38737489 .45098878 .4243927 .41600038 .44140626 .3769989 .44140626 .25498963 .44140626 .12998963 .3012848 .12998963 .16113281 .12998963 .06903076 .18899536 0 .272995 0 .32299806 0 .36499024 .026992798 .3919983 .05001831 .3889923 .037002565 .36099244-.07104492 .36099244-.07304382 .35299684-.094055179 .31599427-.17610169 .21299744-.17610169 .19898987-.17610169 .1639862-.17610169 .13999939-.167099 .1639862-.15309143 .1639862-.1270752 .1639862-.12608338 .1639862-.10606384 .1499939-.092056278 .12799073-.092056278 .102996829-.092056278 .07798767-.11306763 .07798767-.14608765 .07798767-.19911194 .14199829-.20410156 .20999146-.20410156 .35398866-.20410156 .42199708-.1270752 .43798829-.06404114L.54599 .37135316M.4149933 .14111328C.40699769 .110076908 .33999635 .027999878 .27598573 .027999878 .22999573 .027999878 .20698548 .06903076 .20698548 .12109375 .20698548 .16313172 .23199463 .2752533 .2630005 .3283081 .2979889 .3883667 .34399415 .4133911 .3769989 .4133911 .44599916 .4133911 .45799256 .32731629 .45799256 .31829835L.45498658 .30429078 .4149933 .14111328Z"/>
<path id="font_7_8" d="M.46299745 .088256839C.45700074 .06625366 .44699098 .026229859 .44699098 .020233155 .44699098-.0017700195 .46299745-.009765625 .47799684-.009765625 .5119934-.009765625 .5189972 .020233155 .522995 .035232545 .5269928 .052246095 .5399933 .102264408 .54599 .12426758 .548996 .13928223 .5589905 .17729187 .56199648 .19230652 .5649872 .20230103 .5779877 .2523346 .57899478 .25933839 .58099368 .26533509 .61099246 .33135987 .6519928 .36938478 .6819916 .39639283 .71699526 .4133911 .7569885 .4133911 .8029938 .4133911 .81399539 .37838746 .81399539 .34536744 .81399539 .28634645 .7669983 .1652832 .75 .119277957 .73999026 .09425354 .73999026 .087249759 .73999026 .07424927 .73999026 .020233155 .7829895-.009765625 .82899478-.009765625 .92900088-.009765625 .973999 .12727356 .973999 .14328003 .973999 .15628052 .96099856 .15628052 .9529877 .15628052 .93499758 .15628052 .9339905 .1532898 .92900088 .13528443 .9119873 .07325745 .8759918 .018234253 .83200076 .018234253 .81799319 .018234253 .8069916 .025222779 .8069916 .052246095 .8069916 .07424927 .81599429 .0962677 .82398989 .119277957 .84199526 .16629029 .8839874 .27534486 .8839874 .33036805 .8839874 .4084015 .8299866 .44140626 .7609863 .44140626 .6839905 .44140626 .6309967 .39839173 .58999636 .34536744 .58099368 .42840577 .5130005 .44140626 .46699525 .44140626 .37799073 .44140626 .32699586 .38137818 .3039856 .3553772 .2979889 .418396 .24398804 .44140626 .20498657 .44140626 .1619873 .44140626 .13999939 .4133911 .125 .38838197 .10398865 .3553772 .08799744 .29434205 .08799744 .28834535 .08799744 .27534486 .100997928 .27534486 .10899353 .27534486 .1269989 .27534486 .12799073 .27633668 .1349945 .3043518 .1519928 .37338258 .17098999 .4133911 .20199585 .4133911 .23298645 .4133911 .23298645 .37738038 .23298645 .3653717 .23298645 .3463745 .21998596 .29534913 .21199036 .2603302L.18399048 .15228272C.18099976 .13728333 .17098999 .09925842 .16699219 .08425903 .1619873 .0622406 .15299988 .027236939 .15299988 .020233155 .15299988-.0017700195 .16899109-.009765625 .18399048-.009765625 .21798706-.009765625 .22499085 .020233155 .22898865 .035232545 .23298645 .052246095 .24598694 .102264408 .2519989 .12426758 .2669983 .18629456 .28199769 .24832154 .2849884 .25933839 .2849884 .2603302 .31799317 .33636476 .36299134 .3743744 .3769989 .38539125 .41099549 .4133911 .46398927 .4133911 .5109863 .4133911 .5209961 .37638856 .5209961 .3443756 .5209961 .32136537 .5139923 .29434205 .5079956 .26834107 .5019989 .24732971 .4889984 .19430542 .48399354 .17228699L.46299745 .088256839Z"/>
<path id="font_7_5" d="M.2869873 .22851563C.32998658 .22851563 .5269928 .22851563 .5269928 .35343934 .5269928 .40740968 .47599793 .44140626 .4059906 .44140626 .2939911 .44140626 .1349945 .35144044 .1349945 .1754303 .1349945 .07029724 .19699097-.009765625 .30499269-.009765625 .46398927-.009765625 .54100039 .08432007 .54100039 .097335819 .54100039 .10534668 .5269928 .12136841 .5179901 .12136841 .5130005 .12136841 .5099945 .11836243 .5029907 .11035156 .44198609 .037246705 .35499574 .018234253 .30499269 .018234253 .23999024 .018234253 .21199036 .07330322 .21199036 .13638306 .21199036 .16741944 .21798706 .19847107 .22499085 .22851563H.2869873M.23298645 .2565155C.27799989 .4113922 .3939972 .4133911 .4059906 .4133911 .44799806 .4133911 .47898866 .39041139 .47898866 .3544464 .47898866 .2565155 .31900025 .2565155 .27999879 .2565155H.23298645Z"/>
<path id="font_7_4" d="M.62098696 .66529849C.621994 .6693115 .6239929 .67630007 .6239929 .68029788 .6239929 .6953125 .60798647 .6943054 .5970001 .69329836L.4889984 .6843109C.47599793 .68330386 .46299745 .682312 .46299745 .66130068 .46299745 .64730837 .47599793 .64730837 .4889984 .64730837 .5369873 .64730837 .5369873 .64030459 .5369873 .63131716 .5369873 .62831118 .5369873 .62631228 .5329895 .61231997L.47698976 .38539125C.45399476 .4203949 .41999818 .44140626 .37799073 .44140626 .2559967 .44140626 .1289978 .300354 .1289978 .15428162 .1289978 .04724121 .19699097-.009765625 .2709961-.009765625 .33499146-.009765625 .3880005 .037231447 .4079895 .058242799 .42099 .010223389 .46798707-.009765625 .5039978-.009765625 .5349884-.009765625 .5609894 .0052337648 .58299258 .041229249 .6069946 .08026123 .62098696 .14027405 .62098696 .14328003 .62098696 .15628052 .60798647 .15628052 .59999087 .15628052 .58200076 .15628052 .58099368 .15428162 .57499697 .12927246 .5609894 .07725525 .5439911 .018234253 .5069885 .018234253 .47898866 .018234253 .47499085 .048233034 .47499085 .06524658 .47499085 .08226013 .47999574 .103256229 .48098756 .10626221L.62098696 .66529849M.4139862 .13627625C.4059906 .105270389 .38398744 .08125305 .36099244 .059249879 .31999208 .023223877 .2889862 .018234253 .27398683 .018234253 .22799683 .018234253 .20498657 .06124878 .20498657 .11326599 .20498657 .1552887 .22999573 .26533509 .2579956 .3193512 .2899933 .37838746 .33799745 .4133911 .37799073 .4133911 .44599916 .4133911 .45899964 .32635499 .45899964 .31636048 .45899964 .3133545 .45799256 .3093567 .45599366 .3023529L.4139862 .13627625Z"/>
</defs>
<path transform="matrix(1,0,0,-1,114.754,15.231003)" d="M30.39294 11.87608H-30.39294C-32.04366 11.87608-33.38177 10.53796-33.38177 8.88725V-8.88725C-33.38177-10.53796-32.04366-11.87608-30.39294-11.87608H30.39294C32.04366-11.87608 33.38177-10.53796 33.38177-8.88725V8.88725C33.38177 10.53796 32.04366 11.87608 30.39294 11.87608ZM-33.38177-11.87608" fill="#e6e6ff"/>
<path transform="matrix(1,0,0,-1,114.754,15.231003)" stroke-width=".3985" stroke-linecap="butt" stroke-miterlimit="10" stroke-linejoin="miter" fill="none" stroke="#0000b3" d="M30.39294 11.87608H-30.39294C-32.04366 11.87608-33.38177 10.53796-33.38177 8.88725V-8.88725C-33.38177-10.53796-32.04366-11.87608-30.39294-11.87608H30.39294C32.04366-11.87608 33.38177-10.53796 33.38177-8.88725V8.88725C33.38177 10.53796 32.04366 11.87608 30.39294 11.87608ZM-33.38177-11.87608"/>
<use data-text="G" xlink:href="#font_1_2" transform="matrix(8.9664,0,0,-8.9664,101.15099,12.826996)"/>
<use data-text="a" xlink:href="#font_1_7" transform="matrix(8.9664,0,0,-8.9664,109.489749,12.826996)"/>
<use data-text="m" xlink:href="#font_1_13" transform="matrix(8.9664,0,0,-8.9664,114.645427,12.826996)"/>
<use data-text="e" xlink:href="#font_1_10" transform="matrix(8.9664,0,0,-8.9664,123.4863,12.826996)"/>
<use data-text="E" xlink:href="#font_1_1" transform="matrix(8.9664,0,0,-8.9664,84.69299,23.785996)"/>
<use data-text="n" xlink:href="#font_1_14" transform="matrix(8.9664,0,0,-8.9664,91.65989,23.785996)"/>
<use data-text="v" xlink:href="#font_1_19" transform="matrix(8.9664,0,0,-8.9664,97.25492,23.785996)"/>
<use data-text="i" xlink:href="#font_1_11" transform="matrix(8.9664,0,0,-8.9664,102.858928,23.785996)"/>
<use data-text="r" xlink:href="#font_1_17" transform="matrix(8.9664,0,0,-8.9664,105.80887,23.785996)"/>
<use data-text="o" xlink:href="#font_1_15" transform="matrix(8.9664,0,0,-8.9664,110.18447,23.785996)"/>
<use data-text="n" xlink:href="#font_1_14" transform="matrix(8.9664,0,0,-8.9664,115.49258,23.785996)"/>
<use data-text="m" xlink:href="#font_1_13" transform="matrix(8.9664,0,0,-8.9664,121.3835,23.785996)"/>
<use data-text="e" xlink:href="#font_1_10" transform="matrix(8.9664,0,0,-8.9664,130.22437,23.785996)"/>
<use data-text="n" xlink:href="#font_1_14" transform="matrix(8.9664,0,0,-8.9664,135.09314,23.785996)"/>
<use data-text="t" xlink:href="#font_1_18" transform="matrix(8.9664,0,0,-8.9664,140.68817,23.785996)"/>
<path transform="matrix(1,0,0,-1,114.754,15.231003)" d="M147.01357 12.74782H87.79347C86.14276 12.74782 84.80464 11.4097 84.80464 9.75899V-9.75899C84.80464-11.4097 86.14276-12.74782 87.79347-12.74782H147.01357C148.66428-12.74782 150.0024-11.4097 150.0024-9.75899V9.75899C150.0024 11.4097 148.66428 12.74782 147.01357 12.74782ZM84.80464-12.74782" fill="#e6e6ff"/>
<path transform="matrix(1,0,0,-1,114.754,15.231003)" stroke-width=".3985" stroke-linecap="butt" stroke-miterlimit="10" stroke-linejoin="miter" fill="none" stroke="#0000b3" d="M147.01357 12.74782H87.79347C86.14276 12.74782 84.80464 11.4097 84.80464 9.75899V-9.75899C84.80464-11.4097 86.14276-12.74782 87.79347-12.74782H147.01357C148.66428-12.74782 150.0024-11.4097 150.0024-9.75899V9.75899C150.0024 11.4097 148.66428 12.74782 147.01357 12.74782ZM84.80464-12.74782"/>
<use data-text="L" xlink:href="#font_1_3" transform="matrix(8.9664,0,0,-8.9664,220.75399,11.956009)"/>
<use data-text="L" xlink:href="#font_1_3" transform="matrix(8.9664,0,0,-8.9664,227.12909,11.956009)"/>
<use data-text="M" xlink:href="#font_1_4" transform="matrix(8.9664,0,0,-8.9664,233.5042,11.956009)"/>
<use data-text="P" xlink:href="#font_1_5" transform="matrix(8.9664,0,0,-8.9664,211.40799,22.915009)"/>
<use data-text="o" xlink:href="#font_1_15" transform="matrix(8.9664,0,0,-8.9664,218.35695,22.915009)"/>
<use data-text="l" xlink:href="#font_1_12" transform="matrix(8.9664,0,0,-8.9664,223.66506,22.915009)"/>
<use data-text="i" xlink:href="#font_1_11" transform="matrix(8.9664,0,0,-8.9664,226.615,22.915009)"/>
<use data-text="c" xlink:href="#font_1_8" transform="matrix(8.9664,0,0,-8.9664,229.56496,22.915009)"/>
<use data-text="y" xlink:href="#font_1_20" transform="matrix(8.9664,0,0,-8.9664,234.28128,22.915009)"/>
<use data-text="&#x03c0;" xlink:href="#font_2_1" transform="matrix(8.9664,0,0,-8.9664,243.40999,22.915009)"/>
<use data-text="&#x03b8;" xlink:href="#font_3_1" transform="matrix(5.9776,0,0,-5.9776,248.68399,23.977005)"/>
<path transform="matrix(1,0,0,-1,114.754,15.231003)" d="M26.35425-46.29068H-26.35425C-27.45473-46.29068-28.3468-47.18277-28.3468-48.28323V-70.267C-28.3468-71.36748-27.45473-72.25955-26.35425-72.25955H26.35425C27.45473-72.25955 28.3468-71.36748 28.3468-70.267V-48.28323C28.3468-47.18277 27.45473-46.29068 26.35425-46.29068ZM-28.3468-72.25955" fill="#fff5eb"/>
<path transform="matrix(1,0,0,-1,114.754,15.231003)" stroke-width=".3985" stroke-linecap="butt" stroke-miterlimit="10" stroke-linejoin="miter" fill="none" stroke="#994d00" d="M26.35425-46.29068H-26.35425C-27.45473-46.29068-28.3468-47.18277-28.3468-48.28323V-70.267C-28.3468-71.36748-27.45473-72.25955-26.35425-72.25955H26.35425C27.45473-72.25955 28.3468-71.36748 28.3468-70.267V-48.28323C28.3468-47.18277 27.45473-46.29068 26.35425-46.29068ZM-28.3468-72.25955"/>
<use data-text="T" xlink:href="#font_4_8" transform="matrix(8.9664,0,0,-8.9664,90.898,70.968)"/>
<use data-text="r" xlink:href="#font_4_22" transform="matrix(8.9664,0,0,-8.9664,96.77996,70.968)"/>
<use data-text="a" xlink:href="#font_4_9" transform="matrix(8.9664,0,0,-8.9664,100.38445,70.968)"/>
<use data-text="j" xlink:href="#font_4_16" transform="matrix(8.9664,0,0,-8.9664,105.504268,70.968)"/>
<use data-text="e" xlink:href="#font_4_12" transform="matrix(8.9664,0,0,-8.9664,108.31972,70.968)"/>
<use data-text="c" xlink:href="#font_4_10" transform="matrix(8.9664,0,0,-8.9664,112.41736,70.968)"/>
<use data-text="t" xlink:href="#font_4_24" transform="matrix(8.9664,0,0,-8.9664,116.515,70.968)"/>
<use data-text="o" xlink:href="#font_4_20" transform="matrix(8.9664,0,0,-8.9664,120.10156,70.968)"/>
<use data-text="r" xlink:href="#font_4_22" transform="matrix(8.9664,0,0,-8.9664,124.71029,70.968)"/>
<use data-text="i" xlink:href="#font_4_15" transform="matrix(8.9664,0,0,-8.9664,128.31479,70.968)"/>
<use data-text="e" xlink:href="#font_4_12" transform="matrix(8.9664,0,0,-8.9664,130.87918,70.968)"/>
<use data-text="s" xlink:href="#font_4_23" transform="matrix(8.9664,0,0,-8.9664,134.97682,70.968)"/>
<use data-text="{" xlink:href="#font_5_1" transform="matrix(8.9664,0,0,-8.9664,90.253009,81.927)"/>
<use data-text="&#x03c4;" xlink:href="#font_2_2" transform="matrix(8.9664,0,0,-8.9664,94.86101,81.927)"/>
<use data-text="1" xlink:href="#font_6_1" transform="matrix(5.9776,0,0,-5.9776,98.91801,82.924)"/>
<use data-text="," xlink:href="#font_2_4" transform="matrix(8.9664,0,0,-8.9664,103.06901,81.927)"/>
<use data-text="." xlink:href="#font_2_3" transform="matrix(8.9664,0,0,-8.9664,107.16666,81.927)"/>
<use data-text="." xlink:href="#font_2_3" transform="matrix(8.9664,0,0,-8.9664,111.27327,81.927)"/>
<use data-text="." xlink:href="#font_2_3" transform="matrix(8.9664,0,0,-8.9664,115.37092,81.927)"/>
<use data-text="," xlink:href="#font_2_4" transform="matrix(8.9664,0,0,-8.9664,119.46857,81.927)"/>
<use data-text="&#x03c4;" xlink:href="#font_2_2" transform="matrix(8.9664,0,0,-8.9664,123.566219,81.927)"/>
<use data-text="K" xlink:href="#font_3_2" transform="matrix(5.9776,0,0,-5.9776,127.604007,82.924)"/>
<use data-text="}" xlink:href="#font_5_2" transform="matrix(8.9664,0,0,-8.9664,134.647,81.927)"/>
<path transform="matrix(1,0,0,-1,114.754,15.231003)" d="M-44.91125-106.67416H-110.57097C-111.67145-106.67416-112.56352-107.56624-112.56352-108.66672V-130.15235C-112.56352-131.2528-111.67145-132.1449-110.57097-132.1449H-44.91125C-43.81079-132.1449-42.9187-131.2528-42.9187-130.15235V-108.66672C-42.9187-107.56624-43.81079-106.67416-44.91125-106.67416ZM-112.56352-132.1449" fill="#ebffeb"/>
<path transform="matrix(1,0,0,-1,114.754,15.231003)" stroke-width=".3985" stroke-linecap="butt" stroke-miterlimit="10" stroke-linejoin="miter" fill="none" stroke="#009900" d="M-44.91125-106.67416H-110.57097C-111.67145-106.67416-112.56352-107.56624-112.56352-108.66672V-130.15235C-112.56352-131.2528-111.67145-132.1449-110.57097-132.1449H-44.91125C-43.81079-132.1449-42.9187-131.2528-42.9187-130.15235V-108.66672C-42.9187-107.56624-43.81079-106.67416-44.91125-106.67416ZM-112.56352-132.1449"/>
<use data-text="G" xlink:href="#font_4_3" transform="matrix(8.9664,0,0,-8.9664,23.288002,131.35099)"/>
<use data-text="R" xlink:href="#font_4_6" transform="matrix(8.9664,0,0,-8.9664,30.523888,131.35099)"/>
<use data-text="P" xlink:href="#font_4_5" transform="matrix(8.9664,0,0,-8.9664,37.31145,131.35099)"/>
<use data-text="O" xlink:href="#font_4_4" transform="matrix(8.9664,0,0,-8.9664,43.578966,131.35099)"/>
<use data-text="G" xlink:href="#font_4_3" transform="matrix(8.9664,0,0,-8.9664,5.512002,142.31)"/>
<use data-text="r" xlink:href="#font_4_22" transform="matrix(8.9664,0,0,-8.9664,12.747888,142.31)"/>
<use data-text="o" xlink:href="#font_4_20" transform="matrix(8.9664,0,0,-8.9664,16.352379,142.31)"/>
<use data-text="u" xlink:href="#font_4_25" transform="matrix(8.9664,0,0,-8.9664,20.96111,142.31)"/>
<use data-text="p" xlink:href="#font_4_21" transform="matrix(8.9664,0,0,-8.9664,26.080925,142.31)"/>
<use data-text="R" xlink:href="#font_4_6" transform="matrix(8.9664,0,0,-8.9664,34.276216,142.31)"/>
<use data-text="e" xlink:href="#font_4_12" transform="matrix(8.9664,0,0,-8.9664,41.06378,142.31)"/>
<use data-text="w" xlink:href="#font_4_26" transform="matrix(8.9664,0,0,-8.9664,45.152463,142.31)"/>
<use data-text="a" xlink:href="#font_4_9" transform="matrix(8.9664,0,0,-8.9664,51.55447,142.31)"/>
<use data-text="r" xlink:href="#font_4_22" transform="matrix(8.9664,0,0,-8.9664,56.1632,142.31)"/>
<use data-text="d" xlink:href="#font_4_11" transform="matrix(8.9664,0,0,-8.9664,59.767694,142.31)"/>
<use data-text="s" xlink:href="#font_4_23" transform="matrix(8.9664,0,0,-8.9664,64.887508,142.31)"/>
<path transform="matrix(1,0,0,-1,114.754,15.231003)" d="M112.96957-106.67416H44.91125C43.81079-106.67416 42.9187-107.56624 42.9187-108.66672V-128.40886C42.9187-129.50933 43.81079-130.40142 44.91125-130.40142H112.96957C114.07004-130.40142 114.96213-129.50933 114.96213-128.40886V-108.66672C114.96213-107.56624 114.07004-106.67416 112.96957-106.67416ZM42.9187-130.40142" fill="#ebffeb"/>
<path transform="matrix(1,0,0,-1,114.754,15.231003)" stroke-width=".3985" stroke-linecap="butt" stroke-miterlimit="10" stroke-linejoin="miter" fill="none" stroke="#009900" d="M112.96957-106.67416H44.91125C43.81079-106.67416 42.9187-107.56624 42.9187-108.66672V-128.40886C42.9187-129.50933 43.81079-130.40142 44.91125-130.40142H112.96957C114.07004-130.40142 114.96213-129.50933 114.96213-128.40886V-108.66672C114.96213-107.56624 114.07004-106.67416 112.96957-106.67416ZM42.9187-130.40142"/>
<use data-text="D" xlink:href="#font_4_2" transform="matrix(8.9664,0,0,-8.9664,183.455,131.35099)"/>
<use data-text="P" xlink:href="#font_4_5" transform="matrix(8.9664,0,0,-8.9664,190.49362,131.35099)"/>
<use data-text="O" xlink:href="#font_4_4" transform="matrix(8.9664,0,0,-8.9664,196.76114,131.35099)"/>
<use data-text="P" xlink:href="#font_4_5" transform="matrix(8.9664,0,0,-8.9664,160.993,142.31)"/>
<use data-text="r" xlink:href="#font_4_22" transform="matrix(8.9664,0,0,-8.9664,167.26052,142.31)"/>
<use data-text="e" xlink:href="#font_4_12" transform="matrix(8.9664,0,0,-8.9664,170.865,142.31)"/>
<use data-text="f" xlink:href="#font_4_13" transform="matrix(8.9664,0,0,-8.9664,174.96265,142.31)"/>
<use data-text="e" xlink:href="#font_4_12" transform="matrix(8.9664,0,0,-8.9664,177.77809,142.31)"/>
<use data-text="r" xlink:href="#font_4_22" transform="matrix(8.9664,0,0,-8.9664,181.87574,142.31)"/>
<use data-text="e" xlink:href="#font_4_12" transform="matrix(8.9664,0,0,-8.9664,185.48023,142.31)"/>
<use data-text="n" xlink:href="#font_4_19" transform="matrix(8.9664,0,0,-8.9664,189.57787,142.31)"/>
<use data-text="c" xlink:href="#font_4_10" transform="matrix(8.9664,0,0,-8.9664,194.69768,142.31)"/>
<use data-text="e" xlink:href="#font_4_12" transform="matrix(8.9664,0,0,-8.9664,198.79532,142.31)"/>
<use data-text="P" xlink:href="#font_4_5" transform="matrix(8.9664,0,0,-8.9664,205.95948,142.31)"/>
<use data-text="a" xlink:href="#font_4_9" transform="matrix(8.9664,0,0,-8.9664,211.97594,142.31)"/>
<use data-text="i" xlink:href="#font_4_15" transform="matrix(8.9664,0,0,-8.9664,216.58467,142.31)"/>
<use data-text="r" xlink:href="#font_4_22" transform="matrix(8.9664,0,0,-8.9664,219.14907,142.31)"/>
<use data-text="s" xlink:href="#font_4_23" transform="matrix(8.9664,0,0,-8.9664,222.75356,142.31)"/>
<path transform="matrix(1,0,0,-1,114.754,15.231003)" d="M29.61005-152.02925H-29.61005C-31.26074-152.02925-32.59888-153.36737-32.59888-155.01808V-174.61081C-32.59888-176.26152-31.26074-177.59964-29.61005-177.59964H29.61005C31.26074-177.59964 32.59888-176.26152 32.59888-174.61081V-155.01808C32.59888-153.36737 31.26074-152.02925 29.61005-152.02925ZM-32.59888-177.59964" fill="#e6e6ff"/>
<path transform="matrix(1,0,0,-1,114.754,15.231003)" stroke-width=".3985" stroke-linecap="butt" stroke-miterlimit="10" stroke-linejoin="miter" fill="none" stroke="#0000b3" d="M29.61005-152.02925H-29.61005C-31.26074-152.02925-32.59888-153.36737-32.59888-155.01808V-174.61081C-32.59888-176.26152-31.26074-177.59964-29.61005-177.59964H29.61005C31.26074-177.59964 32.59888-176.26152 32.59888-174.61081V-155.01808C32.59888-153.36737 31.26074-152.02925 29.61005-152.02925ZM-32.59888-177.59964"/>
<use data-text="P" xlink:href="#font_1_5" transform="matrix(8.9664,0,0,-8.9664,100.521,176.80501)"/>
<use data-text="o" xlink:href="#font_1_15" transform="matrix(8.9664,0,0,-8.9664,107.46996,176.80501)"/>
<use data-text="l" xlink:href="#font_1_12" transform="matrix(8.9664,0,0,-8.9664,112.77807,176.80501)"/>
<use data-text="i" xlink:href="#font_1_11" transform="matrix(8.9664,0,0,-8.9664,115.72801,176.80501)"/>
<use data-text="c" xlink:href="#font_1_8" transform="matrix(8.9664,0,0,-8.9664,118.677959,176.80501)"/>
<use data-text="y" xlink:href="#font_1_20" transform="matrix(8.9664,0,0,-8.9664,123.39428,176.80501)"/>
<use data-text="U" xlink:href="#font_1_6" transform="matrix(8.9664,0,0,-8.9664,97.562007,187.764)"/>
<use data-text="p" xlink:href="#font_1_16" transform="matrix(8.9664,0,0,-8.9664,105.71246,187.764)"/>
<use data-text="d" xlink:href="#font_1_9" transform="matrix(8.9664,0,0,-8.9664,111.89928,187.764)"/>
<use data-text="a" xlink:href="#font_1_7" transform="matrix(8.9664,0,0,-8.9664,117.7902,187.764)"/>
<use data-text="t" xlink:href="#font_1_18" transform="matrix(8.9664,0,0,-8.9664,122.94588,187.764)"/>
<use data-text="e" xlink:href="#font_1_10" transform="matrix(8.9664,0,0,-8.9664,127.07042,187.764)"/>
<path transform="matrix(1,0,0,-1,114.754,15.231003)" d="M261.79563 11.91345H209.0871C207.98662 11.91345 207.09455 11.02136 207.09455 9.9209V-9.9209C207.09455-11.02136 207.98662-11.91345 209.0871-11.91345H261.79563C262.89607-11.91345 263.78816-11.02136 263.78816-9.9209V9.9209C263.78816 11.02136 262.89607 11.91345 261.79563 11.91345ZM207.09455-11.91345" fill="#fff5eb"/>
<path transform="matrix(1,0,0,-1,114.754,15.231003)" stroke-width=".3985" stroke-linecap="butt" stroke-miterlimit="10" stroke-linejoin="miter" fill="none" stroke="#994d00" d="M261.79563 11.91345H209.0871C207.98662 11.91345 207.09455 11.02136 207.09455 9.9209V-9.9209C207.09455-11.02136 207.98662-11.91345 209.0871-11.91345H261.79563C262.89607-11.91345 263.78816-11.02136 263.78816-9.9209V9.9209C263.78816 11.02136 262.89607 11.91345 261.79563 11.91345ZM207.09455-11.91345"/>
<use data-text="C" xlink:href="#font_4_1" transform="matrix(8.9664,0,0,-8.9664,327.133,12.8650059)"/>
<use data-text="u" xlink:href="#font_4_25" transform="matrix(8.9664,0,0,-8.9664,333.78608,12.8650059)"/>
<use data-text="r" xlink:href="#font_4_22" transform="matrix(8.9664,0,0,-8.9664,338.90589,12.8650059)"/>
<use data-text="r" xlink:href="#font_4_22" transform="matrix(8.9664,0,0,-8.9664,342.51039,12.8650059)"/>
<use data-text="i" xlink:href="#font_4_15" transform="matrix(8.9664,0,0,-8.9664,346.11488,12.8650059)"/>
<use data-text="c" xlink:href="#font_4_10" transform="matrix(8.9664,0,0,-8.9664,348.67927,12.8650059)"/>
<use data-text="u" xlink:href="#font_4_25" transform="matrix(8.9664,0,0,-8.9664,352.77693,12.8650059)"/>
<use data-text="l" xlink:href="#font_4_17" transform="matrix(8.9664,0,0,-8.9664,357.89674,12.8650059)"/>
<use data-text="u" xlink:href="#font_4_25" transform="matrix(8.9664,0,0,-8.9664,360.46113,12.8650059)"/>
<use data-text="m" xlink:href="#font_4_18" transform="matrix(8.9664,0,0,-8.9664,365.58094,12.8650059)"/>
<use data-text="S" xlink:href="#font_4_7" transform="matrix(8.9664,0,0,-8.9664,332.654,23.824006)"/>
<use data-text="c" xlink:href="#font_4_10" transform="matrix(8.9664,0,0,-8.9664,337.7738,23.824006)"/>
<use data-text="h" xlink:href="#font_4_14" transform="matrix(8.9664,0,0,-8.9664,341.61143,23.824006)"/>
<use data-text="e" xlink:href="#font_4_12" transform="matrix(8.9664,0,0,-8.9664,346.73124,23.824006)"/>
<use data-text="d" xlink:href="#font_4_11" transform="matrix(8.9664,0,0,-8.9664,350.8289,23.824006)"/>
<use data-text="u" xlink:href="#font_4_25" transform="matrix(8.9664,0,0,-8.9664,355.9487,23.824006)"/>
<use data-text="l" xlink:href="#font_4_17" transform="matrix(8.9664,0,0,-8.9664,361.0685,23.824006)"/>
<use data-text="e" xlink:href="#font_4_12" transform="matrix(8.9664,0,0,-8.9664,363.6329,23.824006)"/>
<path transform="matrix(1,0,0,-1,114.754,15.231003)" stroke-width=".79701" stroke-linecap="butt" stroke-miterlimit="10" stroke-linejoin="miter" fill="none" stroke="#595959" d="M33.58102 0H80.89853"/>
<path transform="matrix(1,0,0,-1,193.38173,15.231003)" d="M4.84268 0 1.28693 1.34647 2.47006 0 1.28693-1.34647Z" fill="#595959"/>
<path transform="matrix(1,0,0,-1,193.38173,15.231003)" stroke-width=".79701" stroke-linecap="butt" stroke-miterlimit="10" stroke-linejoin="miter" fill="none" stroke="#595959" d="M4.84268 0 1.28693 1.34647 2.47006 0 1.28693-1.34647Z"/>
<use data-text="o" xlink:href="#font_7_10" transform="matrix(6.9738,0,0,-6.9738,168.151,11.512009)" fill="#4c4d4c"/>
<use data-text="b" xlink:href="#font_7_2" transform="matrix(6.9738,0,0,-6.9738,172.3562,11.512009)" fill="#4c4d4c"/>
<use data-text="s" xlink:href="#font_7_11" transform="matrix(6.9738,0,0,-6.9738,176.15692,11.512009)" fill="#4c4d4c"/>
<path transform="matrix(1,0,0,-1,114.754,15.231003)" stroke-width=".79701" stroke-linecap="butt" stroke-miterlimit="10" stroke-linejoin="miter" fill="none" stroke="#595959" d="M84.6054 0H37.28787"/>
<path transform="matrix(-1,-0,0,1,154.31269,15.231003)" d="M4.84268 0 1.28693 1.34647 2.47006 0 1.28693-1.34647Z" fill="#595959"/>
<path transform="matrix(-1,-0,0,1,154.31269,15.231003)" stroke-width=".79701" stroke-linecap="butt" stroke-miterlimit="10" stroke-linejoin="miter" fill="none" stroke="#595959" d="M4.84268 0 1.28693 1.34647 2.47006 0 1.28693-1.34647Z"/>
<use data-text="a" xlink:href="#font_7_1" transform="matrix(6.9738,0,0,-6.9738,162.763,23.529999)" fill="#4c4d4c"/>
<use data-text="c" xlink:href="#font_7_3" transform="matrix(6.9738,0,0,-6.9738,166.9682,23.529999)" fill="#4c4d4c"/>
<use data-text="t" xlink:href="#font_7_12" transform="matrix(6.9738,0,0,-6.9738,170.76892,23.529999)" fill="#4c4d4c"/>
<use data-text="i" xlink:href="#font_7_7" transform="matrix(6.9738,0,0,-6.9738,173.5445,23.529999)" fill="#4c4d4c"/>
<use data-text="o" xlink:href="#font_7_10" transform="matrix(6.9738,0,0,-6.9738,176.11086,23.529999)" fill="#4c4d4c"/>
<use data-text="n" xlink:href="#font_7_9" transform="matrix(6.9738,0,0,-6.9738,180.31606,23.529999)" fill="#4c4d4c"/>
<path transform="matrix(1,0,0,-1,114.754,15.231003)" stroke-width=".79701" stroke-linecap="butt" stroke-miterlimit="10" stroke-linejoin="miter" fill="none" stroke="#595959" d="M0-12.07533V-42.38458"/>
<path transform="matrix(0,1,1,0,114.754,55.344774)" d="M4.84268 0 1.28693 1.34647 2.47006 0 1.28693-1.34647Z" fill="#595959"/>
<path transform="matrix(0,1,1,0,114.754,55.344774)" stroke-width=".79701" stroke-linecap="butt" stroke-miterlimit="10" stroke-linejoin="miter" fill="none" stroke="#595959" d="M4.84268 0 1.28693 1.34647 2.47006 0 1.28693-1.34647Z"/>
<path transform="matrix(1,0,0,-1,114.754,15.231003)" stroke-width=".79701" stroke-linecap="butt" stroke-miterlimit="10" stroke-linejoin="miter" fill="none" stroke="#595959" d="M117.40352-12.94708V-24.28563H0V-42.38458"/>
<path transform="matrix(0,1,1,0,114.754,55.344774)" d="M4.84268 0 1.28693 1.34647 2.47006 0 1.28693-1.34647Z" fill="#595959"/>
<path transform="matrix(0,1,1,0,114.754,55.344774)" stroke-width=".79701" stroke-linecap="butt" stroke-miterlimit="10" stroke-linejoin="miter" fill="none" stroke="#595959" d="M4.84268 0 1.28693 1.34647 2.47006 0 1.28693-1.34647Z"/>
<path transform="matrix(1,0,0,-1,114.754,15.231003)" stroke-width=".79701" stroke-linecap="butt" stroke-miterlimit="10" stroke-linejoin="miter" fill="none" stroke="#595959" d="M-17.04306-72.4588-58.09906-104.20746"/>
<path transform="matrix(-.79103,.6117,.6117,.79103,58.451238,118.0494)" d="M4.84268 0 1.28693 1.34647 2.47006 0 1.28693-1.34647Z" fill="#595959"/>
<path transform="matrix(-.79103,.6117,.6117,.79103,58.451238,118.0494)" stroke-width=".79701" stroke-linecap="butt" stroke-miterlimit="10" stroke-linejoin="miter" fill="none" stroke="#595959" d="M4.84268 0 1.28693 1.34647 2.47006 0 1.28693-1.34647Z"/>
<path transform="matrix(1,0,0,-1,114.754,15.231003)" stroke-width=".79701" stroke-linecap="butt" stroke-miterlimit="10" stroke-linejoin="miter" fill="none" stroke="#595959" d="M17.56027-72.4588 59.91835-104.24986"/>
<path transform="matrix(.79977,.60025,.60025,-.79977,172.8562,118.11781)" d="M4.84268 0 1.28693 1.34647 2.47006 0 1.28693-1.34647Z" fill="#595959"/>
<path transform="matrix(.79977,.60025,.60025,-.79977,172.8562,118.11781)" stroke-width=".79701" stroke-linecap="butt" stroke-miterlimit="10" stroke-linejoin="miter" fill="none" stroke="#595959" d="M4.84268 0 1.28693 1.34647 2.47006 0 1.28693-1.34647Z"/>
<path transform="matrix(1,0,0,-1,114.754,15.231003)" stroke-width=".79701" stroke-linecap="butt" stroke-miterlimit="10" stroke-linejoin="miter" fill="none" stroke="#595959" d="M-55.59877-132.34415-25.41733-149.96141"/>
<path transform="matrix(.86359,.50409,.50409,-.86359,87.37561,164.04773)" d="M4.84268 0 1.28693 1.34647 2.47006 0 1.28693-1.34647Z" fill="#595959"/>
<path transform="matrix(.86359,.50409,.50409,-.86359,87.37561,164.04773)" stroke-width=".79701" stroke-linecap="butt" stroke-miterlimit="10" stroke-linejoin="miter" fill="none" stroke="#595959" d="M4.84268 0 1.28693 1.34647 2.47006 0 1.28693-1.34647Z"/>
<path transform="matrix(1,0,0,-1,114.754,15.231003)" stroke-width=".79701" stroke-linecap="butt" stroke-miterlimit="10" stroke-linejoin="miter" fill="none" stroke="#595959" d="M58.35994-130.60066 25.33287-149.95589"/>
<path transform="matrix(-.86272,.50558,.50558,.86272,142.04595,164.03879)" d="M4.84268 0 1.28693 1.34647 2.47006 0 1.28693-1.34647Z" fill="#595959"/>
<path transform="matrix(-.86272,.50558,.50558,.86272,142.04595,164.03879)" stroke-width=".79701" stroke-linecap="butt" stroke-miterlimit="10" stroke-linejoin="miter" fill="none" stroke="#595959" d="M4.84268 0 1.28693 1.34647 2.47006 0 1.28693-1.34647Z"/>
<path transform="matrix(1,0,0,-1,114.754,15.231003)" stroke-width=".79701" stroke-linecap="butt" stroke-miterlimit="10" stroke-linejoin="miter" fill="none" stroke="#595959" d="M32.79813-164.81444H99.21382V0H146.4948"/>
<path transform="matrix(1,0,0,-1,258.97798,15.231003)" d="M4.84268 0 1.28693 1.34647 2.47006 0 1.28693-1.34647Z" fill="#595959"/>
<path transform="matrix(1,0,0,-1,258.97798,15.231003)" stroke-width=".79701" stroke-linecap="butt" stroke-miterlimit="10" stroke-linejoin="miter" fill="none" stroke="#595959" d="M4.84268 0 1.28693 1.34647 2.47006 0 1.28693-1.34647Z"/>
<use data-text="&#x2207;" xlink:href="#font_8_1" transform="matrix(6.9738,0,0,-6.9738,208.617,106.122)" fill="#4c4d4c"/>
<use data-text="&#x03b8;" xlink:href="#font_9_1" transform="matrix(4.9813,0,0,-4.9813,215.272,107.179)" fill="#4c4d4c"/>
<path transform="matrix(1,0,0,-1,114.754,15.231003)" stroke-width=".79701" stroke-linecap="butt" stroke-miterlimit="10" stroke-linejoin="miter" fill="none" stroke="#595959" d="M206.89528 0H37.28787"/>
<path transform="matrix(-1,-0,0,1,154.31269,15.231003)" d="M4.84268 0 1.28693 1.34647 2.47006 0 1.28693-1.34647Z" fill="#595959"/>
<path transform="matrix(-1,-0,0,1,154.31269,15.231003)" stroke-width=".79701" stroke-linecap="butt" stroke-miterlimit="10" stroke-linejoin="miter" fill="none" stroke="#595959" d="M4.84268 0 1.28693 1.34647 2.47006 0 1.28693-1.34647Z"/>
<use data-text="g" xlink:href="#font_7_6" transform="matrix(6.9738,0,0,-6.9738,211.036,10.156006)" fill="#4c4d4c"/>
<use data-text="a" xlink:href="#font_7_1" transform="matrix(6.9738,0,0,-6.9738,214.83672,10.156006)" fill="#4c4d4c"/>
<use data-text="m" xlink:href="#font_7_8" transform="matrix(6.9738,0,0,-6.9738,219.04192,10.156006)" fill="#4c4d4c"/>
<use data-text="e" xlink:href="#font_7_5" transform="matrix(6.9738,0,0,-6.9738,225.70886,10.156006)" fill="#4c4d4c"/>
<use data-text="d" xlink:href="#font_7_4" transform="matrix(6.9738,0,0,-6.9738,232.4874,10.156006)" fill="#4c4d4c"/>
<use data-text="o" xlink:href="#font_7_10" transform="matrix(6.9738,0,0,-6.9738,236.6926,10.156006)" fill="#4c4d4c"/>
<use data-text="m" xlink:href="#font_7_8" transform="matrix(6.9738,0,0,-6.9738,240.8978,10.156006)" fill="#4c4d4c"/>
<use data-text="a" xlink:href="#font_7_1" transform="matrix(6.9738,0,0,-6.9738,247.56475,10.156006)" fill="#4c4d4c"/>
<use data-text="i" xlink:href="#font_7_7" transform="matrix(6.9738,0,0,-6.9738,251.76995,10.156006)" fill="#4c4d4c"/>
<use data-text="n" xlink:href="#font_7_9" transform="matrix(6.9738,0,0,-6.9738,254.3363,10.156006)" fill="#4c4d4c"/>
</svg>
